<svg xmlns="http://www.w3.org/2000/svg" width="553" height="552" version="1.2"><style>.s0{fill:#000}</style><g id="Layer"><path d="M159.7 276c0 61.2 47.4 111.1 107.7 116.3v159.4h-25c-6 0-11.2-4.3-12.9-9.5l-16.4-58.6c-.9-2.6-3.4-5.1-6-6-7.8-2.6-15.5-6-22.4-9.5-2.6-.8-6.1-.8-8.6 0l-53.5 30.2c-5.1 3.4-12 1.7-16.3-1.8l-50-49.9c-4.3-4.3-5.2-11.2-2.6-16.4l30.2-53.4c1.7-2.6 1.7-6 0-8.6-3.5-6.9-6.1-13.8-9.5-22.4-.9-2.6-3.4-5.2-6-6L9.8 323.4c-6-1.7-9.5-6.9-9.5-12.9v-69.8c0-6.1 4.3-11.2 9.5-12.9l58.6-16.4c2.6-.9 5.1-3.5 6-6 2.6-7.8 6-14.7 9.5-22.4.8-2.6.8-6.1 0-8.7l-30.2-53.4c-2.6-4.3-1.7-11.2 2.6-15.5l49.1-49.1c4.3-4.3 11.2-5.2 16.4-2.6l53.4 30.2c2.6 1.7 6 1.7 8.6 0 6.9-3.5 14.7-6.1 22.4-9.5 2.6-.9 5.2-3.4 6-6l16.4-58.6c1.7-6 6.9-9.5 12.9-9.5h25v159.4c-59.4 5.2-106.8 55.1-106.8 116.3zM390.6 414.7c-22.4 78.4-62 130.1-105.1 137v-137zM390.6 137.3H285.5V1.2c43.1 6 83.5 58.6 105.1 136.1zM395.8 395.8l-110.3-.1V285.5h124c-.8 38.7-5.1 75.8-13.8 110.2zM409.5 266.5h-124V156.2h110.3c8.6 34.5 12.9 71.5 13.7 110.3zM410.4 414.7h104.3c-38 64.6-100.9 112.9-175.8 130.1 30.2-26.7 55.1-71.5 71.5-130.1zM338.9 7.2c74.9 17.2 137.8 65.5 175.7 130.1H410.4C394 78.7 369 33.9 338.9 7.2zM427.6 285.5h124.1c-1.7 39.6-11.2 77.5-27.6 111.1H414.7q11.6-53 12.9-111.1zM414.7 156.3l110.3-.1c16.4 33.7 25.8 71.6 27.6 111.2h-125q-1.3-59.5-12.9-111.2z" class="s0"/></g></svg>