<svg version="1.2" xmlns="http://www.w3.org/2000/svg" viewBox="0 0 552 553" width="552" height="553">
	<title>ecotech-engineering-svg</title>
	<style>
		.s0 { fill: #212121 } 
	</style>
	<g id="Layer">
		<path id="Layer" fill-rule="evenodd" class="s0" d="m276 393.3c61.2 0 111.1-47.4 116.3-107.7h159.4v25c0 6-4.3 11.2-9.5 12.9l-58.6 16.4c-2.6 0.9-5.1 3.4-6 6-2.6 7.8-6 15.5-9.5 22.4-0.8 2.6-0.8 6.1 0 8.6l30.2 53.5c3.4 5.1 1.7 12-1.8 16.3l-49.9 50c-4.3 4.3-11.2 5.2-16.4 2.6l-53.4-30.2c-2.6-1.7-6-1.7-8.6 0-6.9 3.5-13.8 6.1-22.4 9.5-2.6 0.9-5.2 3.4-6 6l-16.4 58.6c-1.7 6-6.9 9.5-12.9 9.5h-69.8c-6.1 0-11.2-4.3-12.9-9.5l-16.4-58.6c-0.9-2.6-3.5-5.1-6-6-7.8-2.6-14.7-6-22.4-9.5-2.6-0.8-6.1-0.8-8.7 0l-53.4 30.2c-4.3 2.6-11.2 1.7-15.5-2.6l-49.1-49.1c-4.3-4.3-5.2-11.2-2.6-16.4l30.2-53.4c1.7-2.6 1.7-6 0-8.6-3.5-6.9-6.1-14.7-9.5-22.4-0.9-2.6-3.4-5.2-6-6l-58.6-16.4c-6-1.7-9.5-6.9-9.5-12.9v-25h159.4c5.2 59.4 55.1 106.8 116.3 106.8zm138.7-230.9c78.4 22.4 130.1 62 137 105.1h-137zm-277.4 0v105.1h-136.1c6-43.1 58.6-83.5 136.1-105.1zm258.5-5.2l-0.1 110.3h-110.2v-124c38.7 0.8 75.8 5.1 110.2 13.8zm-129.3-13.7v124h-110.3v-110.3c34.5-8.6 71.5-12.9 110.3-13.7zm148.2-0.9v-104.3c64.6 38 112.9 100.9 130.1 175.8-26.7-30.2-71.5-55.1-130.1-71.5zm-407.5 71.5c17.2-74.9 65.5-137.8 130.1-175.7v104.2c-58.6 16.4-103.4 41.4-130.1 71.5zm278.3-88.7v-124.1c39.6 1.7 77.5 11.2 111.1 27.6v109.4q-53-11.6-111.1-12.9zm-129.3 12.9q0 0 0.1 0zm0-110.3c33.7-16.4 71.6-25.8 111.2-27.6v125q-59.4 1.3-111.1 12.9z"/>
	</g>
</svg>