<svg version="1.0" xmlns="http://www.w3.org/2000/svg" width="737.333" height="737.333" viewBox="0 0 553 553"><path d="M261.7.6c-.1.1-3.8.5-8.3.8-4.4.4-9.1.8-10.3 1.1-1.3.2-4.2.7-6.5.9-2.2.3-5.2.8-6.6 1.1-1.4.3-6 1.2-10.3 2-4.4.8-8.2 1.7-8.6 1.9-.4.3-1.8.7-3.2 1-1.3.3-3.5.7-4.8 1-4.6 1-27.5 8.8-32.6 11.1-2.7 1.2-7.1 3.2-9.6 4.3l-4.6 1.9v55.2c.1 30.3.4 55.1.8 55.1s4.1-.7 8.1-1.5c6-1.3 21.4-3.9 34.8-6 4.1-.6 13.2-1.7 17.5-2.1 2.2-.2 6.7-.6 10-.9 7.2-.7 21.1-1.5 31.5-1.7 4.1-.1 7.7-.5 8-.9.4-.6.5-121.8.1-124-.1-.4-4.9-.8-5.4-.3zm23.9 61.8c.1 33.6.2 61.6.3 62.2 0 .6 2.6 1 5.9 1.1 6.1 0 25.8 1.1 33.2 1.9 2.5.2 7.4.6 10.9.9 3.5.3 7.6.7 9 1 1.4.3 5 .7 7.9 1.1 2.9.3 6.3.7 7.5 1 1.1.2 3.9.6 6.2.9 2.2.3 4.7.8 5.5 1 .8.2 3.1.7 5 1 1.9.3 6.7 1.2 10.7 2 4 .8 7.6 1.5 8 1.5.5 0 .9-24.6.8-54.7V28.6l-4-1.7c-14.6-6.4-19.1-8.2-31-12-8.5-2.8-18.6-5.6-23-6.5-1.1-.2-4.2-.8-7-1.4-7.6-1.6-8.4-1.7-16.5-2.9-10.8-1.5-17.3-2.2-23.8-2.5l-5.7-.3.1 61.1zM135 39.8c-.8.3-1.9.9-2.5 1.4-.5.4-4.8 3.3-9.5 6.5-19.8 13.1-37.1 28.1-54.2 47C65 98.9 51.7 115.9 49 120c-.8 1.2-2.7 4-4.2 6.1-1.6 2.1-2.8 4.1-2.8 4.4 0 .2-1.6 2.9-3.5 5.9-7.1 11.1-18.3 35.2-23.5 50.6-2.8 8.2-7.9 26-7.4 26 .2 0 3.4-3 7.1-6.6 3.8-3.7 10.4-9.5 14.8-12.9C38.3 186.6 54.4 176 56 176c.5 0 1-.5 1-1.1 0-.5.4-.8.9-.4.5.3 1.2.1 1.6-.5.9-1.5 24.3-12.6 38-18 6.6-2.6 18.1-6.7 25.5-9 7.4-2.3 13.7-4.4 13.9-4.7.7-.5.7-102.4.1-102.8-.3-.1-1.2 0-2 .3zm279.8.4c-.3 1-.2 94.8.1 100.9.1 1.1 2.1 2.2 6.4 3.4 7.7 2.1 34.5 11.6 40.9 14.5 2.6 1.1 4.9 2 5 1.9.6-.3 30.3 15.2 31.9 16.6.8.8 1.9 1.5 2.3 1.5 2.8 0 27.6 18.9 36.9 28.2 3.1 3.2 5.7 5.2 5.7 4.5-.1-4-7.2-26.3-12.7-39.7-4-9.8-13.6-29.2-16.4-33.1-1-1.5-1.9-3-1.9-3.3 0-1.2-13.7-21.1-20.1-29.1C478.6 88.4 461 71.1 443 57.4c-7.5-5.7-26.3-18.4-27.3-18.4-.3 0-.7.6-.9 1.2zM255.6 143.7c-.1.1-5.5.5-12.1.8-6.6.3-13.6.7-15.5 1-1.9.2-6.6.7-10.5 1-3.8.4-7.7.8-8.5 1-.8.3-4 .7-7 1-3 .3-9.3 1.3-14 2.1-4.7.9-9.8 1.8-11.5 2-1.6.3-6.9 1.4-11.6 2.5l-8.6 2V212c0 30.3.3 55.1.6 55.1 1.4.3 107.7.5 108.6.2.7-.2 1-21.5 1-62v-61.7l-5.3-.1c-3 0-5.5.1-5.6.2zm30.1.8c-.3.9-.1 121.3.2 122.5 0 .3 24.7.5 54.9.5h54.7l.1-55.1.1-55.1-4.6-1.1c-2.5-.6-5.9-1.4-7.6-1.8-6.1-1.5-4.7-1.2-20-3.7-8.2-1.4-13.8-2.3-20.5-3.2-8.1-1.2-20.9-2.3-34.5-3-19.1-1.1-22.4-1.1-22.8 0zM120 167.7c-6.9 2.3-13.4 4.7-14.5 5.2-1.1.5-5.1 2.1-9 3.6-7.6 3-34 16.2-35.9 17.9-.6.6-2.3 1.7-3.6 2.5-7.4 4.1-19.6 13.8-28.4 22.6-11.4 11.3-16.3 17.8-21.1 28C4.1 254.7.7 266 1.6 267c.3.2 30.9.5 68 .5H137l.1-2.5c0-1.4.2-24.9.2-52.2l.2-49.8-2.5.2c-1.4.1-8.1 2.2-15 4.5zM414.5 215c0 28.6.2 52.1.5 52.1 2.7.7 135.7.3 136.1-.4.4-.5-.2-3.7-1.2-7-5.1-16.9-15.5-31.3-35.4-49.1-2.2-2-4.3-3.6-4.7-3.6-.4 0-1.3-.6-2-1.3-5.2-5.1-41.5-25.6-49.9-28.2-1.3-.4-4.2-1.6-6.4-2.6-3.5-1.5-20.2-7.6-23-8.3-.5-.2-1.7-.5-2.5-.8-5.5-1.9-8.8-2.8-10.1-2.8-1.2 0-1.4 7.6-1.4 52zM393 286c-.4.3-1 2.3-1.3 4.5-.3 2.2-.9 5.8-1.2 8-.9 5.1-6.4 22.6-7.7 24.2-.6.7-.8 1.3-.5 1.3 1 0-9.2 17.1-13.6 23-5.3 7-18.1 19.6-23.8 23.5-2.4 1.7-4.6 3.2-4.9 3.5-1.1 1.1-6.9 4.3-14.5 8-10 4.9-23.9 9-35 10.5-4.1.5-24.3.5-28 0-7-.9-10.3-1.6-15.5-3.1-3-.8-6.8-1.9-8.5-2.3-12.7-3.4-32.5-16-44.8-28.4-8.1-8.1-20.8-25.1-19.9-26.5.2-.2 0-.8-.5-1.1-1.2-.8-6-11.8-8.2-18.8-2.4-7.5-3.8-13.6-4.7-19.8-.3-2.8-.8-5.2-.9-5.5-.2-.3-36-.5-79.7-.5H.5l-.1 13.8c0 10.8.4 14.7 1.6 17.6 1.5 3.2 4.9 5.9 8.5 6.6 1.1.3 13.4 3.8 21 6 2.8.9 5.9 1.7 7 2 1.1.2 6.1 1.6 11 3 5 1.5 10.8 3.1 13 3.6 9.1 2.3 10 3.2 14.9 15.2 2.6 6.2 5.3 12.5 6.1 14 2.2 4.2 1.9 7-1.5 12.7-1.7 2.8-3 5.2-3 5.4 0 .2-2.9 5.4-6.5 11.6-3.6 6.2-6.5 11.4-6.5 11.6 0 .1-3 5.4-6.6 11.6-7.4 12.7-8.4 17-5.4 22.7 1 2 13.5 15.1 27.7 29.2 31.3 31.1 31 31 44.5 23.3 7.6-4.4 14.6-8.3 17.3-9.8 1.1-.6 2.8-1.7 3.8-2.5.9-.8 1.7-1 1.7-.5s.4.4.8-.2c.4-.6 3.8-2.7 7.5-4.8 3.7-2 8.4-4.6 10.5-5.8 7.4-4.2 8.4-4.6 12-4.1 2 .3 7 2.1 11 3.9 4 1.9 7.6 3.4 7.8 3.4.3 0 2.9 1.1 5.8 2.5 5.6 2.6 6.7 4.3 8.7 12.2.6 2.1 1.4 5.3 2 7 .5 1.8 1.3 4.8 1.8 6.5 6.6 24.3 11.6 40.7 13.2 42.9 3.9 5.6 4.2 5.6 46.5 5.5l39-.1 3.1-2.5c2.7-2.2 3.6-3.5 4.8-7.5.6-1.7 7.2-25.4 11.5-41 4.6-16.4 6.6-21.5 8.5-21.5.7 0 1.8-.7 2.5-1.5.7-.9 1.5-1.4 1.7-1.1.5.4 3.7-.8 12.8-4.8 12.8-5.7 12.6-5.7 22.6 0 3.5 2 8.9 5 11.9 6.7 3 1.7 7.2 4.1 9.2 5.4 2.1 1.3 4.2 2.3 4.8 2.3.5 0 1 .4 1 1 0 .5.6 1 1.3 1 .6 0 4.8 2.1 9.2 4.8 9.6 5.6 12.4 6.9 15 6.7 1.1-.1 3.3-.2 4.9-.3 2.3-.2 7.8-5.1 29.5-27 14.7-14.7 27.4-27.8 28.2-29.2 2.8-4.6 2.4-9.4-1.4-16.2-6.6-12.1-19.7-35.3-20.7-36.8-.6-.8-1.3-2.2-1.7-3-.4-.8-2-3.7-3.6-6.5-4.6-7.8-4.4-9.4 2.6-24.6 1.4-3 2.8-6.6 3.1-8.1.3-1.4 1.7-4 3.1-5.6 2.2-2.7 3.5-3.3 9.5-4.7.8-.2 7.1-2 14-4s13.2-3.8 14.1-4c.9-.2 3.4-.8 5.5-1.5 6.8-2 14.9-4.2 16.1-4.4.7-.1 1.6-.5 1.9-.9.4-.4 1.5-.7 2.5-.7 1.8 0 7.8-6.2 8.1-8.3 0-.7.2-7.4.3-15 .2-12 .1-13.7-1.4-13.8-5.6-.4-156.4-.3-157.1.1z"/></svg>