<svg version="1.2" xmlns="http://www.w3.org/2000/svg" viewBox="0 0 497 137" width="497" height="137">
	<title>Autolux_Blue_UA-svg</title>
	<style>
		.s0 { fill: #0102b5 } 
		.s1 { fill: #fff200 } 
		.s2 { fill: #bcbec0 } 
	</style>
	<g id="Layer">
		<g id="Layer">
			<g id="Layer">
				<g id="Layer">
					<g id="Layer">
						<path id="Layer" class="s0" d="m444.9 69.9l-1.6 7.2h-1.3c-1 0-1.8 0.3-2.2 0.7-0.6 0.3-1.2 1.5-1.9 3.1-2.1 5-3.9 8.5-5.2 10.3-1.3 1.8-2.6 3-4.1 3.6 2.6 1 4.4 4.3 5.3 9.3 0.1 0.3 0.1 0.6 0.1 0.9l3.7 16.4h-8.4l-3.4-16.1c0-0.2-0.3-1.3-0.9-3.5-0.8-1.9-2.4-2.9-4.6-3.1l-3.8 22.7h-8l8.4-52.1h8.1l-3.5 22c1.4 0 2.6-0.3 3.5-1.2 0.9-0.9 2.2-3.4 4-7.4 1.9-4.1 3.4-7.1 4.4-8.7 1-1.6 2.2-2.8 3.4-3.5 1.4-0.8 3.4-1.2 6.1-1.2h1.9 0.1z"/>
						<path id="Layer" class="s0" d="m470.5 102.9l8.3 1.6c-1.6 5.9-4 10.3-7.2 13.4-3.3 3.1-7 4.7-11.4 4.7-4.8 0-8.6-1.9-11.4-5.9-2.2-3.1-3.6-7.4-4-12.9 0-1.1-0.1-2.5-0.1-3.8 0-1.3 0.1-2.7 0.1-4 0.3-4.4 1.2-8.6 2.7-12.4 1.8-4.8 4.4-8.6 7.7-11.1 3.2-2.7 6.8-4 10.6-4 4.3 0 7.8 1.5 10.5 4.6 2.7 3 4.2 7.1 4.6 12.3l-7.8 1c-0.4-3.1-1.2-5.2-2.5-6.5-1.2-1.4-2.8-2.1-4.9-2.1-2.4 0-4.5 0.9-6.4 2.7-2 1.8-3.5 4.6-4.7 8.4-1.2 3.8-1.8 7.7-1.8 11.5 0 4.1 0.7 7.4 2.2 9.6 1.7 2.4 3.6 3.4 5.8 3.4 2.1 0 4.1-0.9 5.9-2.7 1.8-1.8 3-4.4 3.8-7.8z"/>
						<path id="Layer" class="s0" d="m350.4 69.4l-8.4 52h-8.1l7.1-43.4h-11l-4.4 27.8c-0.6 3.3-1.3 6.2-2.2 8.9-0.9 2.7-2.1 4.6-3.4 5.9-1.5 1.2-3.2 1.9-5.6 1.9-1.5 0-3.4-0.3-5.5-0.9l1.5-8.9c1.5 0.3 2.4 0.4 2.5 0.4 2.4 0 3.9-2.7 4.6-7.7 0-0.3 0-0.6 0.1-0.9l5.6-35.2h27.3 0.1z"/>
						<path id="Layer" fill-rule="evenodd" class="s0" d="m401.7 74c2.9 3.9 4.4 9.3 4.4 16.5 0 8.5-1.7 15.8-5.2 22.2-3.1 5.7-7.6 8.8-13.4 9.5-0.7 0-1.5 0-2.2 0-5.6 0-9.9-2.1-12.7-6.5-2.6-4.4-4.1-9.3-4.1-14.6 0-0.3 0-0.7 0-1.3h-6.5l-3.4 21.6h-8.1v-0.1l8.4-52h8.1l-3.5 21.6h6.5c1-6.8 3.2-12.2 6.9-16.3 2.9-3.6 6.5-5.5 10.6-6.1 0.8-0.1 1.5-0.1 2.4-0.1 4.7 0 8.7 2 11.8 5.6zm-3.3 17c0-4.6-0.9-8.1-2.7-10.2-1.8-2.2-3.8-3.4-6.2-3.4-0.6 0-1.2 0.2-1.8 0.3-2.8 0.6-5.2 2.8-7.1 6.5-2.4 4.6-3.6 9.9-3.6 16 0 4 0.7 7.1 2.5 9.6 1.6 2.3 3.8 3.5 6.5 3.5 0.4 0 1 0 1.6-0.1 2.8-0.5 5.3-2.6 7.2-6.1 2.2-4.1 3.4-9.6 3.6-16.1z"/>
						<path id="Layer" fill-rule="evenodd" class="s0" d="m308.4 95.3c0 14.6-9.5 27.2-22.3 31.3-3 1.1-6.3 1.5-9.5 1.5-3.1 0-6-0.4-9-1.3-13-4.2-22.6-16.7-22.6-31.5 0-14.8 9.6-27.3 22.6-31.3 2.9-0.9 5.9-1.5 9-1.5 3.3 0 6.5 0.6 9.5 1.5 12.8 4.1 22.3 16.7 22.3 31.3zm-33.8 14.9c-2.2 0.2-4.5 0.6-6.9 1.5-2.2 0.8-4.5 2-6.9 3.3 2 2 4.5 3.4 6.9 4.4 2.3 0.9 4.7 1.5 6.9 1.8 0-3.7 0-7.3 0-11zm0-12.6h-22.6c0.5 5.3 2.2 10.1 5.5 14.2 3.4-2.2 6.8-3.9 10.2-4.9 2.3-0.6 4.7-1.1 6.9-1.2zm0-12.6c-2.3-0.3-4.5-0.7-6.9-1.3-3.4-1.1-6.8-2.5-10.2-4.6-3.4 3.9-5.1 8.6-5.5 13.9h22.6zm0-15.6c-2.2 0.3-4.5 0.8-6.9 1.8-2.5 0.9-4.8 2.4-6.9 4.3 2.3 1.5 4.5 2.7 6.9 3.4 2.3 0.9 4.7 1.4 6.9 1.5 0-3.5 0-7.2 0-11zm4.4 11.1c2.4-0.2 4.7-0.6 7.1-1.5 2.2-0.8 4.5-2 6.9-3.3-2.2-2-4.5-3.4-6.9-4.4-2.4-1.1-4.7-1.5-7.1-1.8 0 3.7 0 7.4 0 11zm14 34.6c-2.3-1.4-4.7-2.6-6.9-3.3-2.4-0.9-4.7-1.4-7.1-1.5 0 3.7 0 7.2 0 10.9 2.4-0.3 4.7-0.9 7.1-1.8 2.4-1 4.7-2.4 6.9-4.3zm8.7-17.5h-22.7v8.1c2.4 0.1 4.7 0.6 7.1 1.3 3.4 0.9 6.8 2.5 10.2 4.7 3.2-4.1 4.9-8.8 5.4-14.1zm0.1-4.6c-0.6-5.3-2.3-10.1-5.5-13.9-3.4 2.1-6.8 3.6-10.2 4.6-2.4 0.6-4.7 1-7.1 1.3v8z"/>
						<path id="Layer" class="s0" d="m246.2 69.3l-1.5 8.7h-11.8l-7.1 43.5h-8.4l7.1-43.5h-12l1.5-8.7z"/>
						<path id="Layer" fill-rule="evenodd" class="s0" d="m149.2 69.4h9.3l6.6 52.1h-8l-1.3-11.5h-16.2l-4.9 11.5h-8.7l22.6-51 0.6-1.2zm5.6 31.8l-2.4-21-3.8 8-6.1 13z"/>
						<path id="Layer" fill-rule="evenodd" class="s0" d="m200.9 94.2c2.1 0.7 3.7 2.1 4.9 4 1.2 1.7 1.8 3.9 1.8 6.3 0 3.1-0.8 6-2.1 9-1.5 2.8-3.4 4.8-5.8 6.1-2.1 0.9-4.6 1.5-7.7 1.8-0.7 0-20.8 0-21.7 0l8.6-52.1h14.1c2.9 0 5 0.2 6.3 0.3 1.9 0.4 3.7 1.2 5 2.2 1.4 1.1 2.5 2.5 3.2 4.3 0.7 1.8 1 3.7 1 5.8 0 2.9-0.6 5.4-1.9 7.5q-1.8 3.3-5.7 4.8zm-2.1 11.1c0-1.6-0.6-3.1-1.6-4.3-0.9-1-2.6-1.6-5-1.6h-10l-2.2 13.6h8.2c1.4 0 2.8 0 3.8-0.1 1.3-0.2 2.4-0.3 3.1-0.6 1.1-0.6 2.1-1.5 2.7-2.8 0.7-1.3 1.1-2.7 1-4.2zm1.5-22.1c0-1.4-0.3-2.4-0.9-3.3-0.6-0.7-1.5-1.3-2.7-1.6-0.6-0.2-2-0.3-4.4-0.3h-6.5l-2.1 12.3c0.6 0 7.7 0 8.3 0 1.9-0.1 3.4-0.3 4.4-0.7 1.2-0.6 2.2-1.4 2.8-2.7 0.8-1.2 1.1-2.4 1.1-3.7z"/>
					</g>
				</g>
			</g>
		</g>
		<path id="Layer" class="s1" d="m72.2 51l9.3 14.6-24.8 39h50.2l10.7 16.9h-90l44.6-70.5"/>
		<path id="Layer" class="s2" d="m72.2 15.3l54.1 85.6-63.5 0.2 10.8-17h23.7l-25.1-39.7-36 56.7-18.2-0.2 54.2-85.6"/>
	</g>
</svg>