<svg version="1.2" xmlns="http://www.w3.org/2000/svg" width="497" height="137"><style>.s0{fill:#0102b5}</style><g id="Layer"><g id="Layer"><g id="Layer"><g id="Layer"><g id="Layer"><path id="Layer" class="s0" d="M444.9 69.9l-1.6 7.2H442c-1 0-1.8.3-2.2.7-.6.3-1.2 1.5-1.9 3.1-2.1 5-3.9 8.5-5.2 10.3-1.3 1.8-2.6 3-4.1 3.6 2.6 1 4.4 4.3 5.3 9.3.1.3.1.6.1.9l3.7 16.4h-8.4l-3.4-16.1c0-.2-.3-1.3-.9-3.5-.8-1.9-2.4-2.9-4.6-3.1l-3.8 22.7h-8l8.4-52.1h8.1l-3.5 22c1.4 0 2.6-.3 3.5-1.2.9-.9 2.2-3.4 4-7.4 1.9-4.1 3.4-7.1 4.4-8.7 1-1.6 2.2-2.8 3.4-3.5 1.4-.8 3.4-1.2 6.1-1.2h2zm25.6 33l8.3 1.6c-1.6 5.9-4 10.3-7.2 13.4-3.3 3.1-7 4.7-11.4 4.7-4.8 0-8.6-1.9-11.4-5.9-2.2-3.1-3.6-7.4-4-12.9 0-1.1-.1-2.5-.1-3.8 0-1.3.1-2.7.1-4 .3-4.4 1.2-8.6 2.7-12.4 1.8-4.8 4.4-8.6 7.7-11.1 3.2-2.7 6.8-4 10.6-4 4.3 0 7.8 1.5 10.5 4.6 2.7 3 4.2 7.1 4.6 12.3l-7.8 1c-.4-3.1-1.2-5.2-2.5-6.5-1.2-1.4-2.8-2.1-4.9-2.1-2.4 0-4.5.9-6.4 2.7-2 1.8-3.5 4.6-4.7 8.4-1.2 3.8-1.8 7.7-1.8 11.5 0 4.1.7 7.4 2.2 9.6 1.7 2.4 3.6 3.4 5.8 3.4 2.1 0 4.1-.9 5.9-2.7 1.8-1.8 3-4.4 3.8-7.8zM350.4 69.4l-8.4 52h-8.1L341 78h-11l-4.4 27.8c-.6 3.3-1.3 6.2-2.2 8.9-.9 2.7-2.1 4.6-3.4 5.9-1.5 1.2-3.2 1.9-5.6 1.9-1.5 0-3.4-.3-5.5-.9l1.5-8.9c1.5.3 2.4.4 2.5.4 2.4 0 3.9-2.7 4.6-7.7 0-.3 0-.6.1-.9l5.6-35.2h27.4z"/><path id="Layer" fill-rule="evenodd" class="s0" d="M401.7 74c2.9 3.9 4.4 9.3 4.4 16.5 0 8.5-1.7 15.8-5.2 22.2-3.1 5.7-7.6 8.8-13.4 9.5h-2.2c-5.6 0-9.9-2.1-12.7-6.5-2.6-4.4-4.1-9.3-4.1-14.6v-1.3H362l-3.4 21.6h-8.1v-.1l8.4-52h8.1l-3.5 21.6h6.5c1-6.8 3.2-12.2 6.9-16.3 2.9-3.6 6.5-5.5 10.6-6.1.8-.1 1.5-.1 2.4-.1 4.7 0 8.7 2 11.8 5.6zm-3.3 17c0-4.6-.9-8.1-2.7-10.2-1.8-2.2-3.8-3.4-6.2-3.4-.6 0-1.2.2-1.8.3-2.8.6-5.2 2.8-7.1 6.5-2.4 4.6-3.6 9.9-3.6 16 0 4 .7 7.1 2.5 9.6 1.6 2.3 3.8 3.5 6.5 3.5.4 0 1 0 1.6-.1 2.8-.5 5.3-2.6 7.2-6.1 2.2-4.1 3.4-9.6 3.6-16.1zm-90 4.3c0 14.6-9.5 27.2-22.3 31.3-3 1.1-6.3 1.5-9.5 1.5-3.1 0-6-.4-9-1.3-13-4.2-22.6-16.7-22.6-31.5S254.6 68 267.6 64c2.9-.9 5.9-1.5 9-1.5 3.3 0 6.5.6 9.5 1.5 12.8 4.1 22.3 16.7 22.3 31.3zm-33.8 14.9c-2.2.2-4.5.6-6.9 1.5-2.2.8-4.5 2-6.9 3.3 2 2 4.5 3.4 6.9 4.4 2.3.9 4.7 1.5 6.9 1.8v-11zm0-12.6H252c.5 5.3 2.2 10.1 5.5 14.2 3.4-2.2 6.8-3.9 10.2-4.9 2.3-.6 4.7-1.1 6.9-1.2zm0-12.6c-2.3-.3-4.5-.7-6.9-1.3-3.4-1.1-6.8-2.5-10.2-4.6-3.4 3.9-5.1 8.6-5.5 13.9h22.6zm0-15.6c-2.2.3-4.5.8-6.9 1.8-2.5.9-4.8 2.4-6.9 4.3 2.3 1.5 4.5 2.7 6.9 3.4 2.3.9 4.7 1.4 6.9 1.5v-11zm4.4 11.1c2.4-.2 4.7-.6 7.1-1.5 2.2-.8 4.5-2 6.9-3.3-2.2-2-4.5-3.4-6.9-4.4-2.4-1.1-4.7-1.5-7.1-1.8v11zm14 34.6c-2.3-1.4-4.7-2.6-6.9-3.3-2.4-.9-4.7-1.4-7.1-1.5v10.9c2.4-.3 4.7-.9 7.1-1.8 2.4-1 4.7-2.4 6.9-4.3zm8.7-17.5H279v8.1c2.4.1 4.7.6 7.1 1.3 3.4.9 6.8 2.5 10.2 4.7 3.2-4.1 4.9-8.8 5.4-14.1zm.1-4.6c-.6-5.3-2.3-10.1-5.5-13.9-3.4 2.1-6.8 3.6-10.2 4.6-2.4.6-4.7 1-7.1 1.3v8z"/><path id="Layer" class="s0" d="M246.2 69.3l-1.5 8.7h-11.8l-7.1 43.5h-8.4l7.1-43.5h-12l1.5-8.7z"/><path id="Layer" fill-rule="evenodd" class="s0" d="M149.2 69.4h9.3l6.6 52.1h-8l-1.3-11.5h-16.2l-4.9 11.5H126l22.6-51 .6-1.2zm5.6 31.8l-2.4-21-3.8 8-6.1 13zm46.1-7c2.1.7 3.7 2.1 4.9 4 1.2 1.7 1.8 3.9 1.8 6.3 0 3.1-.8 6-2.1 9-1.5 2.8-3.4 4.8-5.8 6.1-2.1.9-4.6 1.5-7.7 1.8h-21.7l8.6-52.1H193c2.9 0 5 .2 6.3.3 1.9.4 3.7 1.2 5 2.2 1.4 1.1 2.5 2.5 3.2 4.3.7 1.8 1 3.7 1 5.8 0 2.9-.6 5.4-1.9 7.5q-1.8 3.3-5.7 4.8zm-2.1 11.1c0-1.6-.6-3.1-1.6-4.3-.9-1-2.6-1.6-5-1.6h-10L180 113h8.2c1.4 0 2.8 0 3.8-.1 1.3-.2 2.4-.3 3.1-.6 1.1-.6 2.1-1.5 2.7-2.8.7-1.3 1.1-2.7 1-4.2zm1.5-22.1c0-1.4-.3-2.4-.9-3.3-.6-.7-1.5-1.3-2.7-1.6-.6-.2-2-.3-4.4-.3h-6.5l-2.1 12.3h8.3c1.9-.1 3.4-.3 4.4-.7 1.2-.6 2.2-1.4 2.8-2.7.8-1.2 1.1-2.4 1.1-3.7z"/></g></g></g></g><path id="Layer" d="M72.2 51l9.3 14.6-24.8 39h50.2l10.7 16.9h-90L72.2 51" fill="#fff200"/><path id="Layer" d="M72.2 15.3l54.1 85.6-63.5.2 10.8-17h23.7L72.2 44.4l-36 56.7-18.2-.2 54.2-85.6" fill="#bcbec0"/></g></svg>