<svg version="1.2" xmlns="http://www.w3.org/2000/svg" width="70" height="28"><style>.s0{fill:#2b2b2b}</style><path id="Layer" fill-rule="evenodd" class="s0" d="M0 17.6V4.3h4.7q7.1 0 7.1 6.5 0 3.1-1.9 4.9-2 1.9-5.2 1.9zM3 6.7v8.4h1.5q2 0 3.1-1.1 1.1-1.2 1.1-3.2 0-1.9-1.1-3T4.5 6.7zm12.7 7q.1 2 2.6 2 1.6 0 2.8-.7v2.1q-1.4.7-3.5.7-2.3 0-3.6-1.3-1.2-1.2-1.2-3.5 0-2.4 1.3-3.7 1.4-1.4 3.4-1.4 2.1 0 3.2 1.2 1.2 1.2 1.2 3.4v1.2zm3.5-1.8q0-2.1-1.7-2.1-.7 0-1.2.6t-.6 1.5z"/><path id="Layer" class="s0" d="M26.2 17.6h-2.9V3.5h2.9zm5 0h-2.9V8.1h2.9zm-1.4-11q-.8 0-1.2-.5-.5-.4-.5-1 0-.7.5-1.1.4-.4 1.2-.4.7 0 1.2.4t.5 1.1q0 .6-.5 1.1-.5.4-1.2.4zm12.6 1.5l-3.6 9.5h-3.3l-3.4-9.5h3.2l1.6 5.8q.3 1 .3 1.7h.1q.1-.6.3-1.6l1.7-5.9h3.1z"/><path id="Layer" fill-rule="evenodd" class="s0" d="M45.4 13.7q.2 2 2.6 2 1.6 0 2.8-.7v2.1q-1.3.7-3.5.7-2.3 0-3.5-1.3-1.3-1.2-1.3-3.5 0-2.4 1.4-3.7 1.3-1.4 3.3-1.4 2.1 0 3.3 1.2 1.1 1.2 1.1 3.4v1.2zm3.5-1.8q0-2.1-1.7-2.1-.7 0-1.2.6t-.6 1.5z"/><path id="Layer" class="s0" d="M59.2 10.7q-.5-.3-1.2-.3-1 0-1.5.7-.6.7-.6 1.9v4.6H53V8.1h2.9v1.8h.1q.7-2 2.5-2 .4 0 .7.1zM70 8.1l-3.9 10.2Q64.7 22 61.9 22q-1 0-1.7-.2v-2.3q.6.3 1.2.3 1.2 0 1.6-1.1l.5-1.1-3.8-9.5h3.2l1.8 5.8q.2.5.2 1.2h.1q.1-.5.3-1.2l1.8-5.8zM13.6 26.7q-1.2.6-2.4.6-1.5 0-2.4-1-.9-1-.9-2.6 0-1.7 1-2.8 1-1.1 2.7-1.1.9 0 1.8.4v.5q-1-.4-1.9-.4-1.4 0-2.2.9-.9.9-.9 2.4t.8 2.4q.8.9 2.1.9 1 0 1.8-.5V24h-1.8v-.4h2.3v3.1z"/><path id="Layer" fill-rule="evenodd" class="s0" d="M18.8 27.2l-1-2.1q-.3-.7-.6-.9-.3-.2-.8-.2h-.9v3.2H15v-7.3h2q1 0 1.6.5.5.6.5 1.4 0 .8-.4 1.3-.5.5-1.3.7.4.2.8 1.1l1.1 2.3h-.5zm-3.3-6.8v3.1h1.3q.8 0 1.3-.5.5-.4.5-1.1 0-.7-.4-1.1-.5-.4-1.3-.4zm8.1 6.9q-1.5 0-2.5-1-.9-1-.9-2.7 0-1.7 1-2.8.9-1 2.5-1 1.5 0 2.4 1 .9 1 .9 2.6 0 1.8-.9 2.9-.9 1-2.5 1zm.1-7q-1.3 0-2.1.9-.9.9-.9 2.4t.8 2.4q.8.9 2.1.9t2.1-.9q.8-.9.8-2.5 0-1.5-.8-2.4-.7-.8-2-.8z"/><path id="Layer" class="s0" d="M33.3 24.3q0 3-2.6 3-2.5 0-2.5-2.9v-4.5h.5v4.4q0 2.6 2.1 2.6 2 0 2-2.5v-4.5h.5v4.4z"/><path id="Layer" fill-rule="evenodd" class="s0" d="M35.3 27.2h-.4v-7.3h1.7q1.1 0 1.7.5.6.6.6 1.6t-.6 1.6q-.7.7-1.9.7h-1.1zm0-3.4h1.1q1 0 1.5-.5.5-.4.5-1.3 0-1.6-1.9-1.6h-1.2z"/><path id="Layer" d="M44.3 6.3h-5L42 3.2 39.3 0h5L47 3.2z" fill="#fdce00"/><path id="Layer" d="M52 6.3h-5l2.7-3.1L47 0h5l2.6 3.2z" fill="#b2b2b3"/><path id="Layer" d="M59.6 6.3h-5l2.7-3.1L54.6 0h5l2.7 3.2z" fill="#3f53a1"/><path id="Layer" d="M67.3 6.3h-5L65 3.2 62.3 0h5L70 3.2z" fill="#95b51f"/></svg>