<svg xmlns="http://www.w3.org/2000/svg" viewBox="0 0 187.86 46.49"><defs><style>.cls-4{fill-rule:evenodd}.cls-4,.cls-5{fill:#0054a4}</style></defs><g id="Layer_2" data-name="Layer 2"><g id="Layer_1-2" data-name="Layer 1"><path d="M14.84 25.68a6.1 6.1 0 116.1 6.11 6.1 6.1 0 01-6.1-6.11" fill-rule="evenodd" fill="#fff"/><path d="M15.61 25.68A5.33 5.33 0 1120.94 31a5.33 5.33 0 01-5.33-5.33" fill="#fff200" fill-rule="evenodd"/><path d="M19.26 25.16l3.31.06a8.94 8.94 0 00-.67-3.34h-.8a7.62 7.62 0 01-1-.07 9 9 0 00-.8 3.34m0 .78a8.8 8.8 0 00.6 3.37c.4 0 .79-.07 1.19-.07a7.9 7.9 0 01.85 0 9.25 9.25 0 00.7-3.23zm1.79 4a6.64 6.64 0 00-.83.05 5.28 5.28 0 00.52 1 5.35 5.35 0 01-.91-.1c-.13-.23-.26-.47-.37-.72a4.77 4.77 0 00-.87.3 5.33 5.33 0 01-.73-.43 5.16 5.16 0 011.28-.56 12 12 0 01-.65-3.5h-2.91v-.74h2.85a12.36 12.36 0 01.8-3.52 5.83 5.83 0 01-1.21-.51 5.32 5.32 0 01.81-.42 5.18 5.18 0 00.69.22l.3-.52a5.35 5.35 0 01.95-.11 4.89 4.89 0 00-.46.73 2.57 2.57 0 00.74.08h.42a4.51 4.51 0 00-.42-.8 5.36 5.36 0 01.91.11q.15.27.29.55a5.39 5.39 0 00.81-.2 5.19 5.19 0 01.82.46 5.69 5.69 0 01-1.29.45 11.46 11.46 0 01.7 3.44h2.91v.73h-2.83a12.57 12.57 0 01-.7 3.45 5.84 5.84 0 011.42.57 5.41 5.41 0 01-.72.45 5.08 5.08 0 00-1-.3q-.21.42-.44.8a5.38 5.38 0 01-.95.11 5.7 5.7 0 00.59-1 2 2 0 00-.51 0z" fill="#fff"/><path class="cls-4" d="M12.12 5.55a5.55 5.55 0 115.55 5.55 5.55 5.55 0 01-5.55-5.55m93.32 23.98h22.27a4.94 4.94 0 002.18-.74c1.46-1 2.26-2.78 2.42-5.29h-26.87v-.93q0-5.8 5.8-8.12a18.25 18.25 0 015.8-1.16h8.36v2.31H117a5.21 5.21 0 00-2.08.7q-2.14 1.39-2.51 4.87h26.87v1.39q0 5.8-5.8 8.12a18.12 18.12 0 01-5.8 1.16h-22.24v-2.31"/><path class="cls-5" d="M27.85 22.16q0-6.45-4.64-7H11.6q-4.6.55-4.6 7c0 4.3 1.55 6.63 4.64 7h9v2.32h-9a18.09 18.09 0 01-5.8-1.16Q0 28 0 22.16T5.8 14a18.14 18.14 0 015.8-1.16h11.6A18.13 18.13 0 0129 14q5.8 2.32 5.8 8.12v11.12c0 3.87-1.9 6.54-5.76 8.09a18.15 18.15 0 01-5.81 1.16h-4.5v-2.32h4.51c3.09-.34 4.61-2.62 4.61-6.93V22.16"/><path class="cls-4" d="M79 15.25v16.57h-7.1V12.88h18.45a19.93 19.93 0 016.16 1.18q6.16 2.37 6.15 8.29v9.47h-7.1v-9.47q0-6.58-5.21-7.11H79m47.6 26.35v-2.95q0-2.72-2-2.94h-4.9q-2 .22-2 2.94t2 2.95h6.86m-4.9 4.9v-1h2.94c1.31-.15 2-1.12 2-2.94h-6.86a7.67 7.67 0 01-2.45-.49 3.63 3.63 0 010-6.86 7.7 7.7 0 012.45-.49h4.9a7.7 7.7 0 012.45.49 3.47 3.47 0 012.45 3.43v3.92a3.47 3.47 0 01-2.45 3.45 7.67 7.67 0 01-2.45.49zm12.66-7.85v3.92h-2.94v-3.92a3.47 3.47 0 012.45-3.43 7.7 7.7 0 012.45-.49h3.92v1h-3.92q-2 .22-2 2.94m17.56 3.91h-4.9a7.71 7.71 0 01-2.45-.49 3.63 3.63 0 010-6.86 7.73 7.73 0 012.45-.49h4.9a7.71 7.71 0 012.45.49 3.63 3.63 0 010 6.86 7.69 7.69 0 01-2.45.49m0-6.86h-4.9q-2 .22-2 2.94t2 2.94h4.9q2-.22 2-2.94t-2-2.95zm11.84 5.88h4.7v-6.87h2.94v7.85h-7.64a8.24 8.24 0 01-2.55-.49 3.49 3.49 0 01-2.55-3.43v-3.93h2.94v3.92c0 1.82.71 2.8 2.16 2.95m12.42-2.95v2.95h6.9q2-.22 2-2.95t-2-2.94h-4.9q-2 .22-2 2.94m6.9 3.93h-6.9v2.94h-2.94v-6.87a3.47 3.47 0 012.45-3.43 7.73 7.73 0 012.45-.49H183a7.74 7.74 0 012.45.49 3.63 3.63 0 010 6.86 7.69 7.69 0 01-2.45.5z"/><path class="cls-5" d="M49.21 31.88a18.25 18.25 0 01-5.81-1.16q-5.81-2.33-5.81-8.14v-9.7h7v9.7q0 6.46 4.65 7h8.26q4.65-.51 4.65-7v-9.7h7v9.7q0 5.81-5.82 8.14a18.24 18.24 0 01-5.81 1.16h-8.31"/><path class="cls-4" d="M165.74 15.23h-11.82a4.82 4.82 0 00-1.94.57 5.73 5.73 0 00-2.6 4.16h20.9q-.85-4.4-4.54-4.73m-11.82 14.19h10.3v2.37h-10.3A18.66 18.66 0 01148 30.6q-5.92-2.37-5.91-8.27t5.91-8.28a18.47 18.47 0 015.91-1.18h11.82a18.49 18.49 0 015.91 1.18q5.91 2.37 5.91 8.28h-28.36q0 6.57 4.73 7.09zm33.52 2.37a7.48 7.48 0 01-3.55-1.18q-3.55-2.37-3.54-8.28V1h7.09v30.79M44.57 8.61a3.52 3.52 0 113.52 3.52 3.52 3.52 0 01-3.52-3.52m10.51 0a3.52 3.52 0 113.52 3.52 3.52 3.52 0 01-3.52-3.52"/></g></g></svg>