<svg xmlns="http://www.w3.org/2000/svg" viewBox="0 0 187.86 46.49"><defs><style>.cls-1,.cls-3{fill:#fff;}.cls-1,.cls-2,.cls-4{fill-rule:evenodd;}.cls-2{fill:#fff200;}.cls-4,.cls-5{fill:#0054a4;}</style></defs><title>Asset 1</title><g id="Layer_2" data-name="Layer 2"><g id="Layer_1-2" data-name="Layer 1"><path class="cls-1" d="M14.84,25.68a6.1,6.1,0,1,1,6.1,6.11,6.1,6.1,0,0,1-6.1-6.11"/><path class="cls-2" d="M15.61,25.68A5.33,5.33,0,1,1,20.94,31a5.33,5.33,0,0,1-5.33-5.33"/><path class="cls-3" d="M19.26,25.16l3.31.06a8.94,8.94,0,0,0-.67-3.34H21.1a7.62,7.62,0,0,1-1-.07,9,9,0,0,0-.8,3.34m0,.78a8.8,8.8,0,0,0,.6,3.37c.4,0,.79-.07,1.19-.07a7.9,7.9,0,0,1,.85,0A9.25,9.25,0,0,0,22.64,26Zm1.79,4a6.64,6.64,0,0,0-.83.05,5.28,5.28,0,0,0,.52,1,5.35,5.35,0,0,1-.91-.1c-.13-.23-.26-.47-.37-.72a4.77,4.77,0,0,0-.87.3,5.33,5.33,0,0,1-.73-.43,5.16,5.16,0,0,1,1.28-.56,12,12,0,0,1-.65-3.5l-2.91,0c0-.09,0-.18,0-.28s0-.31,0-.46h2.85a12.36,12.36,0,0,1,.8-3.52,5.83,5.83,0,0,1-1.21-.51,5.32,5.32,0,0,1,.81-.42,5.18,5.18,0,0,0,.69.22l.3-.52a5.35,5.35,0,0,1,.95-.11,4.89,4.89,0,0,0-.46.73,2.57,2.57,0,0,0,.74.08h.42a4.51,4.51,0,0,0-.42-.8,5.36,5.36,0,0,1,.91.11q.15.27.29.55a5.39,5.39,0,0,0,.81-.2,5.19,5.19,0,0,1,.82.46,5.69,5.69,0,0,1-1.29.45,11.46,11.46,0,0,1,.7,3.44l2.91,0c0,.16,0,.31,0,.47s0,.17,0,.26H23.41a12.57,12.57,0,0,1-.7,3.45,5.84,5.84,0,0,1,1.42.57,5.41,5.41,0,0,1-.72.45,5.08,5.08,0,0,0-1-.3q-.21.42-.44.8a5.38,5.38,0,0,1-.95.11,5.7,5.7,0,0,0,.59-1A2,2,0,0,0,21.1,30Z"/><path class="cls-4" d="M12.12,5.55a5.55,5.55,0,1,1,5.55,5.55,5.55,5.55,0,0,1-5.55-5.55"/><path class="cls-4" d="M105.44,29.53h22.27a4.94,4.94,0,0,0,2.18-.74c1.46-1,2.26-2.78,2.42-5.29H105.44v-.93q0-5.8,5.8-8.12a18.25,18.25,0,0,1,5.8-1.16h8.36V15.6H117a5.21,5.21,0,0,0-2.08.7q-2.14,1.39-2.51,4.87h26.87v1.39q0,5.8-5.8,8.12a18.12,18.12,0,0,1-5.8,1.16H105.44V29.53"/><path class="cls-5" d="M27.85,22.16q0-6.45-4.64-7H11.6Q7,15.71,7,22.16c0,4.3,1.55,6.63,4.64,7h9v2.32h-9a18.09,18.09,0,0,1-5.8-1.16Q0,28,0,22.16T5.8,14a18.14,18.14,0,0,1,5.8-1.16H23.2A18.13,18.13,0,0,1,29,14q5.8,2.32,5.8,8.12V33.24c0,3.87-1.9,6.54-5.76,8.09a18.15,18.15,0,0,1-5.81,1.16H18.73V40.17h4.51c3.09-.34,4.61-2.62,4.61-6.93V22.16"/><path class="cls-4" d="M79,15.25V31.82h-7.1V12.88H90.35a19.93,19.93,0,0,1,6.16,1.18q6.16,2.37,6.15,8.29v9.47h-7.1V22.35q0-6.58-5.21-7.11H79"/><path class="cls-4" d="M126.6,41.59V38.64q0-2.72-2-2.94h-4.9q-2,.22-2,2.94t2,2.95h6.86m-4.9,4.9v-1h2.94c1.31-.15,2-1.12,2-2.94h-6.86a7.67,7.67,0,0,1-2.45-.49,3.63,3.63,0,0,1,0-6.86,7.7,7.7,0,0,1,2.45-.49h4.9a7.7,7.7,0,0,1,2.45.49,3.47,3.47,0,0,1,2.45,3.43v3.92A3.47,3.47,0,0,1,127.09,46a7.67,7.67,0,0,1-2.45.49Z"/><path class="cls-4" d="M134.32,38.64v3.92h-2.94V38.64a3.47,3.47,0,0,1,2.45-3.43,7.7,7.7,0,0,1,2.45-.49h3.92v1h-3.92q-2,.22-2,2.94"/><path class="cls-4" d="M151.84,42.57h-4.9a7.71,7.71,0,0,1-2.45-.49,3.63,3.63,0,0,1,0-6.86,7.73,7.73,0,0,1,2.45-.49h4.9a7.71,7.71,0,0,1,2.45.49,3.63,3.63,0,0,1,0,6.86,7.69,7.69,0,0,1-2.45.49m0-6.86h-4.9q-2,.22-2,2.94t2,2.94h4.9q2-.22,2-2.94T151.84,35.7Z"/><path class="cls-4" d="M163.68,41.59h4.7V34.72h2.94v7.85h-7.64a8.24,8.24,0,0,1-2.55-.49,3.49,3.49,0,0,1-2.55-3.43V34.72h2.94v3.92c0,1.82.71,2.8,2.16,2.95"/><path class="cls-4" d="M176.1,38.64v2.95H183q2-.22,2-2.95t-2-2.94h-4.9q-2,.22-2,2.94M183,42.57H176.1v2.94h-2.94V38.64a3.47,3.47,0,0,1,2.45-3.43,7.73,7.73,0,0,1,2.45-.49H183a7.74,7.74,0,0,1,2.45.49,3.63,3.63,0,0,1,0,6.86A7.69,7.69,0,0,1,183,42.57Z"/><path class="cls-5" d="M49.21,31.88a18.25,18.25,0,0,1-5.81-1.16q-5.81-2.33-5.81-8.14v-9.7h7c0,5.42,0,9.7,0,9.7q0,6.46,4.65,7h8.26q4.65-.51,4.65-7s0-4.28,0-9.7h7v9.7q0,5.81-5.82,8.14a18.24,18.24,0,0,1-5.81,1.16H49.21"/><path class="cls-4" d="M165.74,15.23H153.92a4.82,4.82,0,0,0-1.94.57,5.73,5.73,0,0,0-2.6,4.16h20.9q-.85-4.4-4.54-4.73M153.92,29.42h10.3v2.37h-10.3A18.66,18.66,0,0,1,148,30.6q-5.92-2.37-5.91-8.27T148,14.05a18.47,18.47,0,0,1,5.91-1.18h11.82a18.49,18.49,0,0,1,5.91,1.18q5.91,2.37,5.91,8.28H149.19Q149.19,28.9,153.92,29.42Z"/><path class="cls-4" d="M187.44,31.79a7.48,7.48,0,0,1-3.55-1.18q-3.55-2.37-3.54-8.28V1h7.09V31.79"/><path class="cls-4" d="M44.57,8.61a3.52,3.52,0,1,1,3.52,3.52,3.52,3.52,0,0,1-3.52-3.52"/><path class="cls-4" d="M55.08,8.61a3.52,3.52,0,1,1,3.52,3.52,3.52,3.52,0,0,1-3.52-3.52"/></g></g></svg>