<svg xmlns="http://www.w3.org/2000/svg" version="1.1" xmlns:xlink="http://www.w3.org/1999/xlink" xmlns:svgjs="http://svgjs.com/svgjs" width="1920" height="1080" preserveAspectRatio="none" viewBox="0 0 1920 1080"><g clip-path="url(&quot;#SvgjsClipPath1124&quot;)" fill="none"><circle r="180" cx="171.11" cy="56.56" stroke="#2196f3" stroke-opacity="0.1" stroke-width="2"></circle><circle r="180" cx="782.83" cy="885.97" stroke="#2196f3" stroke-opacity="0.1" stroke-width="2"></circle><circle r="226.72" cx="294.91" cy="328.34" stroke="#2196f3" stroke-opacity="0.1" stroke-width="2"></circle><circle r="242.825" cx="229.47" cy="30.84" stroke="#2196f3" stroke-opacity="0.1" stroke-width="2"></circle><circle r="283.15" cx="1091.46" cy="431.86" stroke="#2196f3" stroke-opacity="0.1" stroke-width="2"></circle><circle r="308.805" cx="1869.03" cy="543.03" stroke="#2196f3" stroke-opacity="0.1" stroke-width="2"></circle><circle r="284.735" cx="995.22" cy="1028.61" stroke="#2196f3" stroke-opacity="0.1" stroke-width="2"></circle><circle r="121.045" cx="1016.85" cy="395.99" stroke="#2196f3" stroke-opacity="0.1" stroke-width="2"></circle><circle r="283.26" cx="1002.01" cy="354.63" stroke="#2196f3" stroke-opacity="0.1" stroke-width="2"></circle><circle r="244.715" cx="631.49" cy="206.83" stroke="#2196f3" stroke-opacity="0.1" stroke-width="2"></circle><circle r="333.91" cx="1619.75" cy="95.59" stroke="#2196f3" stroke-opacity="0.1" stroke-width="2"></circle><circle r="319.99" cx="202.68" cy="427.37" stroke="#2196f3" stroke-opacity="0.1" stroke-width="2"></circle><circle r="120.605" cx="1742.02" cy="513.31" stroke="#2196f3" stroke-opacity="0.1" stroke-width="2"></circle><circle r="224.355" cx="545.52" cy="407.59" stroke="#2196f3" stroke-opacity="0.1" stroke-width="2"></circle><circle r="183.28" cx="1432.49" cy="950.77" stroke="#2196f3" stroke-opacity="0.1" stroke-width="2"></circle><circle r="270.87" cx="606.38" cy="466.42" stroke="#2196f3" stroke-opacity="0.1" stroke-width="2"></circle><circle r="346.835" cx="1804.69" cy="404" stroke="#2196f3" stroke-opacity="0.1" stroke-width="2"></circle><circle r="199.96" cx="1634.3" cy="561.24" stroke="#2196f3" stroke-opacity="0.1" stroke-width="2"></circle><circle r="156.445" cx="234.14" cy="832.59" stroke="#2196f3" stroke-opacity="0.1" stroke-width="2"></circle><circle r="110.47" cx="518.46" cy="465.97" stroke="#2196f3" stroke-opacity="0.1" stroke-width="2"></circle><circle r="172.075" cx="857.21" cy="442.82" stroke="#2196f3" stroke-opacity="0.1" stroke-width="2"></circle></g><defs><clipPath id="SvgjsClipPath1124"><rect width="1920" height="1080" x="0" y="0"></rect></clipPath></defs></svg>