<svg xmlns="http://www.w3.org/2000/svg" version="1.1" xmlns:xlink="http://www.w3.org/1999/xlink" xmlns:svgjs="http://svgjs.com/svgjs" width="1920" height="1080" preserveAspectRatio="none" viewBox="0 0 1920 1080"><g mask="url(&quot;#SvgjsMask1007&quot;)" fill="none"><path d="M22.36 249.47L63.93 273.47L63.93 321.47L22.36 345.47L-19.21 321.47L-19.21 273.47zM63.93 897.47L105.5 921.47L105.5 969.47L63.93 993.47L22.36 969.47L22.36 921.47zM105.5 -38.53L147.07 -14.53L147.07 33.47L105.5 57.47L63.93 33.47L63.93 -14.53zM105.5 105.47L147.07 129.47L147.07 177.47L105.5 201.47L63.93 177.47L63.93 129.47zM147.07 609.47L188.64 633.47L188.64 681.47L147.07 705.47L105.5 681.47L105.5 633.47zM105.5 825.47L147.07 849.47L147.07 897.47L105.5 921.47L63.93 897.47L63.93 849.47zM105.5 969.47L147.07 993.47L147.07 1041.47L105.5 1065.47L63.93 1041.47L63.93 993.47zM147.07 1041.47L188.64 1065.47L188.64 1113.47L147.07 1137.47L105.5 1113.47L105.5 1065.47zM230.21 897.47L271.78 921.47L271.78 969.47L230.21 993.47L188.64 969.47L188.64 921.47zM271.78 -38.53L313.35 -14.53L313.35 33.47L271.78 57.47L230.21 33.47L230.21 -14.53zM313.35 177.47L354.92 201.47L354.92 249.47L313.35 273.47L271.78 249.47L271.78 201.47zM271.78 537.47L313.35 561.47L313.35 609.47L271.78 633.47L230.21 609.47L230.21 561.47zM313.35 1041.47L354.92 1065.47L354.92 1113.47L313.35 1137.47L271.78 1113.47L271.78 1065.47zM354.92 -38.53L396.49 -14.53L396.49 33.47L354.92 57.47L313.35 33.47L313.35 -14.53zM354.92 249.47L396.49 273.47L396.49 321.47L354.92 345.47L313.35 321.47L313.35 273.47zM396.49 321.47L438.06 345.47L438.06 393.47L396.49 417.47L354.92 393.47L354.92 345.47zM354.92 681.47L396.49 705.47L396.49 753.47L354.92 777.47L313.35 753.47L313.35 705.47zM479.63 1041.47L521.2 1065.47L521.2 1113.47L479.63 1137.47L438.06 1113.47L438.06 1065.47zM562.78 177.47L604.35 201.47L604.35 249.47L562.78 273.47L521.2 249.47L521.2 201.47zM645.92 177.47L687.49 201.47L687.49 249.47L645.92 273.47L604.35 249.47L604.35 201.47zM645.92 321.47L687.49 345.47L687.49 393.47L645.92 417.47L604.35 393.47L604.35 345.47zM729.06 177.47L770.63 201.47L770.63 249.47L729.06 273.47L687.49 249.47L687.49 201.47zM729.06 321.47L770.63 345.47L770.63 393.47L729.06 417.47L687.49 393.47L687.49 345.47zM729.06 753.47L770.63 777.47L770.63 825.47L729.06 849.47L687.49 825.47L687.49 777.47zM687.49 825.47L729.06 849.47L729.06 897.47L687.49 921.47L645.92 897.47L645.92 849.47zM687.49 969.47L729.06 993.47L729.06 1041.47L687.49 1065.47L645.92 1041.47L645.92 993.47zM812.2 609.47L853.77 633.47L853.77 681.47L812.2 705.47L770.63 681.47L770.63 633.47zM895.34 177.47L936.91 201.47L936.91 249.47L895.34 273.47L853.77 249.47L853.77 201.47zM895.34 897.47L936.91 921.47L936.91 969.47L895.34 993.47L853.77 969.47L853.77 921.47zM853.77 969.47L895.34 993.47L895.34 1041.47L853.77 1065.47L812.2 1041.47L812.2 993.47zM978.48 321.47L1020.05 345.47L1020.05 393.47L978.48 417.47L936.91 393.47L936.91 345.47zM978.48 897.47L1020.05 921.47L1020.05 969.47L978.48 993.47L936.91 969.47L936.91 921.47zM1020.05 537.47L1061.62 561.47L1061.62 609.47L1020.05 633.47L978.48 609.47L978.48 561.47zM1103.19 -38.53L1144.76 -14.53L1144.76 33.47L1103.19 57.47L1061.62 33.47L1061.62 -14.53zM1103.19 249.47L1144.76 273.47L1144.76 321.47L1103.19 345.47L1061.62 321.47L1061.62 273.47zM1186.33 -38.53L1227.9 -14.53L1227.9 33.47L1186.33 57.47L1144.76 33.47L1144.76 -14.53zM1227.9 33.47L1269.47 57.47L1269.47 105.47L1227.9 129.47L1186.33 105.47L1186.33 57.47zM1269.47 105.47L1311.04 129.47L1311.04 177.47L1269.47 201.47L1227.9 177.47L1227.9 129.47zM1352.61 537.47L1394.18 561.47L1394.18 609.47L1352.61 633.47L1311.04 609.47L1311.04 561.47zM1435.75 105.47L1477.32 129.47L1477.32 177.47L1435.75 201.47L1394.18 177.47L1394.18 129.47zM1518.89 -38.53L1560.46 -14.53L1560.46 33.47L1518.89 57.47L1477.32 33.47L1477.32 -14.53zM1560.46 33.47L1602.04 57.47L1602.04 105.47L1560.46 129.47L1518.89 105.47L1518.89 57.47zM1518.89 105.47L1560.46 129.47L1560.46 177.47L1518.89 201.47L1477.32 177.47L1477.32 129.47zM1560.46 177.47L1602.04 201.47L1602.04 249.47L1560.46 273.47L1518.89 249.47L1518.89 201.47zM1643.61 1041.47L1685.18 1065.47L1685.18 1113.47L1643.61 1137.47L1602.04 1113.47L1602.04 1065.47zM1768.32 825.47L1809.89 849.47L1809.89 897.47L1768.32 921.47L1726.75 897.47L1726.75 849.47zM1768.32 969.47L1809.89 993.47L1809.89 1041.47L1768.32 1065.47L1726.75 1041.47L1726.75 993.47zM1851.46 -38.53L1893.03 -14.53L1893.03 33.47L1851.46 57.47L1809.89 33.47L1809.89 -14.53zM1851.46 105.47L1893.03 129.47L1893.03 177.47L1851.46 201.47L1809.89 177.47L1809.89 129.47zM1893.03 177.47L1934.6 201.47L1934.6 249.47L1893.03 273.47L1851.46 249.47L1851.46 201.47zM1893.03 609.47L1934.6 633.47L1934.6 681.47L1893.03 705.47L1851.46 681.47L1851.46 633.47zM1934.6 -38.53L1976.17 -14.53L1976.17 33.47L1934.6 57.47L1893.03 33.47L1893.03 -14.53zM1934.6 537.47L1976.17 561.47L1976.17 609.47L1934.6 633.47L1893.03 609.47L1893.03 561.47zM1976.17 897.47L2017.74 921.47L2017.74 969.47L1976.17 993.47L1934.6 969.47L1934.6 921.47z" stroke="rgba(25, 88, 138, 0.05)" stroke-width="2"></path><path d="M17.56 249.47 a4.8 4.8 0 1 0 9.6 0 a4.8 4.8 0 1 0 -9.6 0zM59.13 273.47 a4.8 4.8 0 1 0 9.6 0 a4.8 4.8 0 1 0 -9.6 0zM59.13 321.47 a4.8 4.8 0 1 0 9.6 0 a4.8 4.8 0 1 0 -9.6 0zM17.56 345.47 a4.8 4.8 0 1 0 9.6 0 a4.8 4.8 0 1 0 -9.6 0zM-24.01 321.47 a4.8 4.8 0 1 0 9.6 0 a4.8 4.8 0 1 0 -9.6 0zM-24.01 273.47 a4.8 4.8 0 1 0 9.6 0 a4.8 4.8 0 1 0 -9.6 0zM59.13 897.47 a4.8 4.8 0 1 0 9.6 0 a4.8 4.8 0 1 0 -9.6 0zM100.7 921.47 a4.8 4.8 0 1 0 9.6 0 a4.8 4.8 0 1 0 -9.6 0zM100.7 969.47 a4.8 4.8 0 1 0 9.6 0 a4.8 4.8 0 1 0 -9.6 0zM59.13 993.47 a4.8 4.8 0 1 0 9.6 0 a4.8 4.8 0 1 0 -9.6 0zM17.56 969.47 a4.8 4.8 0 1 0 9.6 0 a4.8 4.8 0 1 0 -9.6 0zM17.56 921.47 a4.8 4.8 0 1 0 9.6 0 a4.8 4.8 0 1 0 -9.6 0zM100.7 -38.53 a4.8 4.8 0 1 0 9.6 0 a4.8 4.8 0 1 0 -9.6 0zM142.27 -14.53 a4.8 4.8 0 1 0 9.6 0 a4.8 4.8 0 1 0 -9.6 0zM142.27 33.47 a4.8 4.8 0 1 0 9.6 0 a4.8 4.8 0 1 0 -9.6 0zM100.7 57.47 a4.8 4.8 0 1 0 9.6 0 a4.8 4.8 0 1 0 -9.6 0zM59.13 33.47 a4.8 4.8 0 1 0 9.6 0 a4.8 4.8 0 1 0 -9.6 0zM59.13 -14.53 a4.8 4.8 0 1 0 9.6 0 a4.8 4.8 0 1 0 -9.6 0zM100.7 105.47 a4.8 4.8 0 1 0 9.6 0 a4.8 4.8 0 1 0 -9.6 0zM142.27 129.47 a4.8 4.8 0 1 0 9.6 0 a4.8 4.8 0 1 0 -9.6 0zM142.27 177.47 a4.8 4.8 0 1 0 9.6 0 a4.8 4.8 0 1 0 -9.6 0zM100.7 201.47 a4.8 4.8 0 1 0 9.6 0 a4.8 4.8 0 1 0 -9.6 0zM59.13 177.47 a4.8 4.8 0 1 0 9.6 0 a4.8 4.8 0 1 0 -9.6 0zM59.13 129.47 a4.8 4.8 0 1 0 9.6 0 a4.8 4.8 0 1 0 -9.6 0zM142.27 609.47 a4.8 4.8 0 1 0 9.6 0 a4.8 4.8 0 1 0 -9.6 0zM183.84 633.47 a4.8 4.8 0 1 0 9.6 0 a4.8 4.8 0 1 0 -9.6 0zM183.84 681.47 a4.8 4.8 0 1 0 9.6 0 a4.8 4.8 0 1 0 -9.6 0zM142.27 705.47 a4.8 4.8 0 1 0 9.6 0 a4.8 4.8 0 1 0 -9.6 0zM100.7 681.47 a4.8 4.8 0 1 0 9.6 0 a4.8 4.8 0 1 0 -9.6 0zM100.7 633.47 a4.8 4.8 0 1 0 9.6 0 a4.8 4.8 0 1 0 -9.6 0zM100.7 825.47 a4.8 4.8 0 1 0 9.6 0 a4.8 4.8 0 1 0 -9.6 0zM142.27 849.47 a4.8 4.8 0 1 0 9.6 0 a4.8 4.8 0 1 0 -9.6 0zM142.27 897.47 a4.8 4.8 0 1 0 9.6 0 a4.8 4.8 0 1 0 -9.6 0zM59.13 849.47 a4.8 4.8 0 1 0 9.6 0 a4.8 4.8 0 1 0 -9.6 0zM142.27 993.47 a4.8 4.8 0 1 0 9.6 0 a4.8 4.8 0 1 0 -9.6 0zM142.27 1041.47 a4.8 4.8 0 1 0 9.6 0 a4.8 4.8 0 1 0 -9.6 0zM100.7 1065.47 a4.8 4.8 0 1 0 9.6 0 a4.8 4.8 0 1 0 -9.6 0zM59.13 1041.47 a4.8 4.8 0 1 0 9.6 0 a4.8 4.8 0 1 0 -9.6 0zM183.84 1065.47 a4.8 4.8 0 1 0 9.6 0 a4.8 4.8 0 1 0 -9.6 0zM183.84 1113.47 a4.8 4.8 0 1 0 9.6 0 a4.8 4.8 0 1 0 -9.6 0zM142.27 1137.47 a4.8 4.8 0 1 0 9.6 0 a4.8 4.8 0 1 0 -9.6 0zM100.7 1113.47 a4.8 4.8 0 1 0 9.6 0 a4.8 4.8 0 1 0 -9.6 0zM225.41 897.47 a4.8 4.8 0 1 0 9.6 0 a4.8 4.8 0 1 0 -9.6 0zM266.98 921.47 a4.8 4.8 0 1 0 9.6 0 a4.8 4.8 0 1 0 -9.6 0zM266.98 969.47 a4.8 4.8 0 1 0 9.6 0 a4.8 4.8 0 1 0 -9.6 0zM225.41 993.47 a4.8 4.8 0 1 0 9.6 0 a4.8 4.8 0 1 0 -9.6 0zM183.84 969.47 a4.8 4.8 0 1 0 9.6 0 a4.8 4.8 0 1 0 -9.6 0zM183.84 921.47 a4.8 4.8 0 1 0 9.6 0 a4.8 4.8 0 1 0 -9.6 0zM266.98 -38.53 a4.8 4.8 0 1 0 9.6 0 a4.8 4.8 0 1 0 -9.6 0zM308.55 -14.53 a4.8 4.8 0 1 0 9.6 0 a4.8 4.8 0 1 0 -9.6 0zM308.55 33.47 a4.8 4.8 0 1 0 9.6 0 a4.8 4.8 0 1 0 -9.6 0zM266.98 57.47 a4.8 4.8 0 1 0 9.6 0 a4.8 4.8 0 1 0 -9.6 0zM225.41 33.47 a4.8 4.8 0 1 0 9.6 0 a4.8 4.8 0 1 0 -9.6 0zM225.41 -14.53 a4.8 4.8 0 1 0 9.6 0 a4.8 4.8 0 1 0 -9.6 0zM308.55 177.47 a4.8 4.8 0 1 0 9.6 0 a4.8 4.8 0 1 0 -9.6 0zM350.12 201.47 a4.8 4.8 0 1 0 9.6 0 a4.8 4.8 0 1 0 -9.6 0zM350.12 249.47 a4.8 4.8 0 1 0 9.6 0 a4.8 4.8 0 1 0 -9.6 0zM308.55 273.47 a4.8 4.8 0 1 0 9.6 0 a4.8 4.8 0 1 0 -9.6 0zM266.98 249.47 a4.8 4.8 0 1 0 9.6 0 a4.8 4.8 0 1 0 -9.6 0zM266.98 201.47 a4.8 4.8 0 1 0 9.6 0 a4.8 4.8 0 1 0 -9.6 0zM266.98 537.47 a4.8 4.8 0 1 0 9.6 0 a4.8 4.8 0 1 0 -9.6 0zM308.55 561.47 a4.8 4.8 0 1 0 9.6 0 a4.8 4.8 0 1 0 -9.6 0zM308.55 609.47 a4.8 4.8 0 1 0 9.6 0 a4.8 4.8 0 1 0 -9.6 0zM266.98 633.47 a4.8 4.8 0 1 0 9.6 0 a4.8 4.8 0 1 0 -9.6 0zM225.41 609.47 a4.8 4.8 0 1 0 9.6 0 a4.8 4.8 0 1 0 -9.6 0zM225.41 561.47 a4.8 4.8 0 1 0 9.6 0 a4.8 4.8 0 1 0 -9.6 0zM308.55 1041.47 a4.8 4.8 0 1 0 9.6 0 a4.8 4.8 0 1 0 -9.6 0zM350.12 1065.47 a4.8 4.8 0 1 0 9.6 0 a4.8 4.8 0 1 0 -9.6 0zM350.12 1113.47 a4.8 4.8 0 1 0 9.6 0 a4.8 4.8 0 1 0 -9.6 0zM308.55 1137.47 a4.8 4.8 0 1 0 9.6 0 a4.8 4.8 0 1 0 -9.6 0zM266.98 1113.47 a4.8 4.8 0 1 0 9.6 0 a4.8 4.8 0 1 0 -9.6 0zM266.98 1065.47 a4.8 4.8 0 1 0 9.6 0 a4.8 4.8 0 1 0 -9.6 0zM350.12 -38.53 a4.8 4.8 0 1 0 9.6 0 a4.8 4.8 0 1 0 -9.6 0zM391.69 -14.53 a4.8 4.8 0 1 0 9.6 0 a4.8 4.8 0 1 0 -9.6 0zM391.69 33.47 a4.8 4.8 0 1 0 9.6 0 a4.8 4.8 0 1 0 -9.6 0zM350.12 57.47 a4.8 4.8 0 1 0 9.6 0 a4.8 4.8 0 1 0 -9.6 0zM391.69 273.47 a4.8 4.8 0 1 0 9.6 0 a4.8 4.8 0 1 0 -9.6 0zM391.69 321.47 a4.8 4.8 0 1 0 9.6 0 a4.8 4.8 0 1 0 -9.6 0zM350.12 345.47 a4.8 4.8 0 1 0 9.6 0 a4.8 4.8 0 1 0 -9.6 0zM308.55 321.47 a4.8 4.8 0 1 0 9.6 0 a4.8 4.8 0 1 0 -9.6 0zM433.26 345.47 a4.8 4.8 0 1 0 9.6 0 a4.8 4.8 0 1 0 -9.6 0zM433.26 393.47 a4.8 4.8 0 1 0 9.6 0 a4.8 4.8 0 1 0 -9.6 0zM391.69 417.47 a4.8 4.8 0 1 0 9.6 0 a4.8 4.8 0 1 0 -9.6 0zM350.12 393.47 a4.8 4.8 0 1 0 9.6 0 a4.8 4.8 0 1 0 -9.6 0zM350.12 681.47 a4.8 4.8 0 1 0 9.6 0 a4.8 4.8 0 1 0 -9.6 0zM391.69 705.47 a4.8 4.8 0 1 0 9.6 0 a4.8 4.8 0 1 0 -9.6 0zM391.69 753.47 a4.8 4.8 0 1 0 9.6 0 a4.8 4.8 0 1 0 -9.6 0zM350.12 777.47 a4.8 4.8 0 1 0 9.6 0 a4.8 4.8 0 1 0 -9.6 0zM308.55 753.47 a4.8 4.8 0 1 0 9.6 0 a4.8 4.8 0 1 0 -9.6 0zM308.55 705.47 a4.8 4.8 0 1 0 9.6 0 a4.8 4.8 0 1 0 -9.6 0zM474.83 1041.47 a4.8 4.8 0 1 0 9.6 0 a4.8 4.8 0 1 0 -9.6 0zM516.4 1065.47 a4.8 4.8 0 1 0 9.6 0 a4.8 4.8 0 1 0 -9.6 0zM516.4 1113.47 a4.8 4.8 0 1 0 9.6 0 a4.8 4.8 0 1 0 -9.6 0zM474.83 1137.47 a4.8 4.8 0 1 0 9.6 0 a4.8 4.8 0 1 0 -9.6 0zM433.26 1113.47 a4.8 4.8 0 1 0 9.6 0 a4.8 4.8 0 1 0 -9.6 0zM433.26 1065.47 a4.8 4.8 0 1 0 9.6 0 a4.8 4.8 0 1 0 -9.6 0zM557.98 177.47 a4.8 4.8 0 1 0 9.6 0 a4.8 4.8 0 1 0 -9.6 0zM599.55 201.47 a4.8 4.8 0 1 0 9.6 0 a4.8 4.8 0 1 0 -9.6 0zM599.55 249.47 a4.8 4.8 0 1 0 9.6 0 a4.8 4.8 0 1 0 -9.6 0zM557.98 273.47 a4.8 4.8 0 1 0 9.6 0 a4.8 4.8 0 1 0 -9.6 0zM516.4 249.47 a4.8 4.8 0 1 0 9.6 0 a4.8 4.8 0 1 0 -9.6 0zM516.4 201.47 a4.8 4.8 0 1 0 9.6 0 a4.8 4.8 0 1 0 -9.6 0zM641.12 177.47 a4.8 4.8 0 1 0 9.6 0 a4.8 4.8 0 1 0 -9.6 0zM682.69 201.47 a4.8 4.8 0 1 0 9.6 0 a4.8 4.8 0 1 0 -9.6 0zM682.69 249.47 a4.8 4.8 0 1 0 9.6 0 a4.8 4.8 0 1 0 -9.6 0zM641.12 273.47 a4.8 4.8 0 1 0 9.6 0 a4.8 4.8 0 1 0 -9.6 0zM641.12 321.47 a4.8 4.8 0 1 0 9.6 0 a4.8 4.8 0 1 0 -9.6 0zM682.69 345.47 a4.8 4.8 0 1 0 9.6 0 a4.8 4.8 0 1 0 -9.6 0zM682.69 393.47 a4.8 4.8 0 1 0 9.6 0 a4.8 4.8 0 1 0 -9.6 0zM641.12 417.47 a4.8 4.8 0 1 0 9.6 0 a4.8 4.8 0 1 0 -9.6 0zM599.55 393.47 a4.8 4.8 0 1 0 9.6 0 a4.8 4.8 0 1 0 -9.6 0zM599.55 345.47 a4.8 4.8 0 1 0 9.6 0 a4.8 4.8 0 1 0 -9.6 0zM724.26 177.47 a4.8 4.8 0 1 0 9.6 0 a4.8 4.8 0 1 0 -9.6 0zM765.83 201.47 a4.8 4.8 0 1 0 9.6 0 a4.8 4.8 0 1 0 -9.6 0zM765.83 249.47 a4.8 4.8 0 1 0 9.6 0 a4.8 4.8 0 1 0 -9.6 0zM724.26 273.47 a4.8 4.8 0 1 0 9.6 0 a4.8 4.8 0 1 0 -9.6 0zM724.26 321.47 a4.8 4.8 0 1 0 9.6 0 a4.8 4.8 0 1 0 -9.6 0zM765.83 345.47 a4.8 4.8 0 1 0 9.6 0 a4.8 4.8 0 1 0 -9.6 0zM765.83 393.47 a4.8 4.8 0 1 0 9.6 0 a4.8 4.8 0 1 0 -9.6 0zM724.26 417.47 a4.8 4.8 0 1 0 9.6 0 a4.8 4.8 0 1 0 -9.6 0zM724.26 753.47 a4.8 4.8 0 1 0 9.6 0 a4.8 4.8 0 1 0 -9.6 0zM765.83 777.47 a4.8 4.8 0 1 0 9.6 0 a4.8 4.8 0 1 0 -9.6 0zM765.83 825.47 a4.8 4.8 0 1 0 9.6 0 a4.8 4.8 0 1 0 -9.6 0zM724.26 849.47 a4.8 4.8 0 1 0 9.6 0 a4.8 4.8 0 1 0 -9.6 0zM682.69 825.47 a4.8 4.8 0 1 0 9.6 0 a4.8 4.8 0 1 0 -9.6 0zM682.69 777.47 a4.8 4.8 0 1 0 9.6 0 a4.8 4.8 0 1 0 -9.6 0zM724.26 897.47 a4.8 4.8 0 1 0 9.6 0 a4.8 4.8 0 1 0 -9.6 0zM682.69 921.47 a4.8 4.8 0 1 0 9.6 0 a4.8 4.8 0 1 0 -9.6 0zM641.12 897.47 a4.8 4.8 0 1 0 9.6 0 a4.8 4.8 0 1 0 -9.6 0zM641.12 849.47 a4.8 4.8 0 1 0 9.6 0 a4.8 4.8 0 1 0 -9.6 0zM682.69 969.47 a4.8 4.8 0 1 0 9.6 0 a4.8 4.8 0 1 0 -9.6 0zM724.26 993.47 a4.8 4.8 0 1 0 9.6 0 a4.8 4.8 0 1 0 -9.6 0zM724.26 1041.47 a4.8 4.8 0 1 0 9.6 0 a4.8 4.8 0 1 0 -9.6 0zM682.69 1065.47 a4.8 4.8 0 1 0 9.6 0 a4.8 4.8 0 1 0 -9.6 0zM641.12 1041.47 a4.8 4.8 0 1 0 9.6 0 a4.8 4.8 0 1 0 -9.6 0zM641.12 993.47 a4.8 4.8 0 1 0 9.6 0 a4.8 4.8 0 1 0 -9.6 0zM807.4 609.47 a4.8 4.8 0 1 0 9.6 0 a4.8 4.8 0 1 0 -9.6 0zM848.97 633.47 a4.8 4.8 0 1 0 9.6 0 a4.8 4.8 0 1 0 -9.6 0zM848.97 681.47 a4.8 4.8 0 1 0 9.6 0 a4.8 4.8 0 1 0 -9.6 0zM807.4 705.47 a4.8 4.8 0 1 0 9.6 0 a4.8 4.8 0 1 0 -9.6 0zM765.83 681.47 a4.8 4.8 0 1 0 9.6 0 a4.8 4.8 0 1 0 -9.6 0zM765.83 633.47 a4.8 4.8 0 1 0 9.6 0 a4.8 4.8 0 1 0 -9.6 0zM890.54 177.47 a4.8 4.8 0 1 0 9.6 0 a4.8 4.8 0 1 0 -9.6 0zM932.11 201.47 a4.8 4.8 0 1 0 9.6 0 a4.8 4.8 0 1 0 -9.6 0zM932.11 249.47 a4.8 4.8 0 1 0 9.6 0 a4.8 4.8 0 1 0 -9.6 0zM890.54 273.47 a4.8 4.8 0 1 0 9.6 0 a4.8 4.8 0 1 0 -9.6 0zM848.97 249.47 a4.8 4.8 0 1 0 9.6 0 a4.8 4.8 0 1 0 -9.6 0zM848.97 201.47 a4.8 4.8 0 1 0 9.6 0 a4.8 4.8 0 1 0 -9.6 0zM890.54 897.47 a4.8 4.8 0 1 0 9.6 0 a4.8 4.8 0 1 0 -9.6 0zM932.11 921.47 a4.8 4.8 0 1 0 9.6 0 a4.8 4.8 0 1 0 -9.6 0zM932.11 969.47 a4.8 4.8 0 1 0 9.6 0 a4.8 4.8 0 1 0 -9.6 0zM890.54 993.47 a4.8 4.8 0 1 0 9.6 0 a4.8 4.8 0 1 0 -9.6 0zM848.97 969.47 a4.8 4.8 0 1 0 9.6 0 a4.8 4.8 0 1 0 -9.6 0zM848.97 921.47 a4.8 4.8 0 1 0 9.6 0 a4.8 4.8 0 1 0 -9.6 0zM890.54 1041.47 a4.8 4.8 0 1 0 9.6 0 a4.8 4.8 0 1 0 -9.6 0zM848.97 1065.47 a4.8 4.8 0 1 0 9.6 0 a4.8 4.8 0 1 0 -9.6 0zM807.4 1041.47 a4.8 4.8 0 1 0 9.6 0 a4.8 4.8 0 1 0 -9.6 0zM807.4 993.47 a4.8 4.8 0 1 0 9.6 0 a4.8 4.8 0 1 0 -9.6 0zM973.68 321.47 a4.8 4.8 0 1 0 9.6 0 a4.8 4.8 0 1 0 -9.6 0zM1015.25 345.47 a4.8 4.8 0 1 0 9.6 0 a4.8 4.8 0 1 0 -9.6 0zM1015.25 393.47 a4.8 4.8 0 1 0 9.6 0 a4.8 4.8 0 1 0 -9.6 0zM973.68 417.47 a4.8 4.8 0 1 0 9.6 0 a4.8 4.8 0 1 0 -9.6 0zM932.11 393.47 a4.8 4.8 0 1 0 9.6 0 a4.8 4.8 0 1 0 -9.6 0zM932.11 345.47 a4.8 4.8 0 1 0 9.6 0 a4.8 4.8 0 1 0 -9.6 0zM973.68 897.47 a4.8 4.8 0 1 0 9.6 0 a4.8 4.8 0 1 0 -9.6 0zM1015.25 921.47 a4.8 4.8 0 1 0 9.6 0 a4.8 4.8 0 1 0 -9.6 0zM1015.25 969.47 a4.8 4.8 0 1 0 9.6 0 a4.8 4.8 0 1 0 -9.6 0zM973.68 993.47 a4.8 4.8 0 1 0 9.6 0 a4.8 4.8 0 1 0 -9.6 0zM1015.25 537.47 a4.8 4.8 0 1 0 9.6 0 a4.8 4.8 0 1 0 -9.6 0zM1056.82 561.47 a4.8 4.8 0 1 0 9.6 0 a4.8 4.8 0 1 0 -9.6 0zM1056.82 609.47 a4.8 4.8 0 1 0 9.6 0 a4.8 4.8 0 1 0 -9.6 0zM1015.25 633.47 a4.8 4.8 0 1 0 9.6 0 a4.8 4.8 0 1 0 -9.6 0zM973.68 609.47 a4.8 4.8 0 1 0 9.6 0 a4.8 4.8 0 1 0 -9.6 0zM973.68 561.47 a4.8 4.8 0 1 0 9.6 0 a4.8 4.8 0 1 0 -9.6 0zM1098.39 -38.53 a4.8 4.8 0 1 0 9.6 0 a4.8 4.8 0 1 0 -9.6 0zM1139.96 -14.53 a4.8 4.8 0 1 0 9.6 0 a4.8 4.8 0 1 0 -9.6 0zM1139.96 33.47 a4.8 4.8 0 1 0 9.6 0 a4.8 4.8 0 1 0 -9.6 0zM1098.39 57.47 a4.8 4.8 0 1 0 9.6 0 a4.8 4.8 0 1 0 -9.6 0zM1056.82 33.47 a4.8 4.8 0 1 0 9.6 0 a4.8 4.8 0 1 0 -9.6 0zM1056.82 -14.53 a4.8 4.8 0 1 0 9.6 0 a4.8 4.8 0 1 0 -9.6 0zM1098.39 249.47 a4.8 4.8 0 1 0 9.6 0 a4.8 4.8 0 1 0 -9.6 0zM1139.96 273.47 a4.8 4.8 0 1 0 9.6 0 a4.8 4.8 0 1 0 -9.6 0zM1139.96 321.47 a4.8 4.8 0 1 0 9.6 0 a4.8 4.8 0 1 0 -9.6 0zM1098.39 345.47 a4.8 4.8 0 1 0 9.6 0 a4.8 4.8 0 1 0 -9.6 0zM1056.82 321.47 a4.8 4.8 0 1 0 9.6 0 a4.8 4.8 0 1 0 -9.6 0zM1056.82 273.47 a4.8 4.8 0 1 0 9.6 0 a4.8 4.8 0 1 0 -9.6 0zM1181.53 -38.53 a4.8 4.8 0 1 0 9.6 0 a4.8 4.8 0 1 0 -9.6 0zM1223.1 -14.53 a4.8 4.8 0 1 0 9.6 0 a4.8 4.8 0 1 0 -9.6 0zM1223.1 33.47 a4.8 4.8 0 1 0 9.6 0 a4.8 4.8 0 1 0 -9.6 0zM1181.53 57.47 a4.8 4.8 0 1 0 9.6 0 a4.8 4.8 0 1 0 -9.6 0zM1264.67 57.47 a4.8 4.8 0 1 0 9.6 0 a4.8 4.8 0 1 0 -9.6 0zM1264.67 105.47 a4.8 4.8 0 1 0 9.6 0 a4.8 4.8 0 1 0 -9.6 0zM1223.1 129.47 a4.8 4.8 0 1 0 9.6 0 a4.8 4.8 0 1 0 -9.6 0zM1181.53 105.47 a4.8 4.8 0 1 0 9.6 0 a4.8 4.8 0 1 0 -9.6 0zM1306.24 129.47 a4.8 4.8 0 1 0 9.6 0 a4.8 4.8 0 1 0 -9.6 0zM1306.24 177.47 a4.8 4.8 0 1 0 9.6 0 a4.8 4.8 0 1 0 -9.6 0zM1264.67 201.47 a4.8 4.8 0 1 0 9.6 0 a4.8 4.8 0 1 0 -9.6 0zM1223.1 177.47 a4.8 4.8 0 1 0 9.6 0 a4.8 4.8 0 1 0 -9.6 0zM1347.81 537.47 a4.8 4.8 0 1 0 9.6 0 a4.8 4.8 0 1 0 -9.6 0zM1389.38 561.47 a4.8 4.8 0 1 0 9.6 0 a4.8 4.8 0 1 0 -9.6 0zM1389.38 609.47 a4.8 4.8 0 1 0 9.6 0 a4.8 4.8 0 1 0 -9.6 0zM1347.81 633.47 a4.8 4.8 0 1 0 9.6 0 a4.8 4.8 0 1 0 -9.6 0zM1306.24 609.47 a4.8 4.8 0 1 0 9.6 0 a4.8 4.8 0 1 0 -9.6 0zM1306.24 561.47 a4.8 4.8 0 1 0 9.6 0 a4.8 4.8 0 1 0 -9.6 0zM1430.95 105.47 a4.8 4.8 0 1 0 9.6 0 a4.8 4.8 0 1 0 -9.6 0zM1472.52 129.47 a4.8 4.8 0 1 0 9.6 0 a4.8 4.8 0 1 0 -9.6 0zM1472.52 177.47 a4.8 4.8 0 1 0 9.6 0 a4.8 4.8 0 1 0 -9.6 0zM1430.95 201.47 a4.8 4.8 0 1 0 9.6 0 a4.8 4.8 0 1 0 -9.6 0zM1389.38 177.47 a4.8 4.8 0 1 0 9.6 0 a4.8 4.8 0 1 0 -9.6 0zM1389.38 129.47 a4.8 4.8 0 1 0 9.6 0 a4.8 4.8 0 1 0 -9.6 0zM1514.09 -38.53 a4.8 4.8 0 1 0 9.6 0 a4.8 4.8 0 1 0 -9.6 0zM1555.66 -14.53 a4.8 4.8 0 1 0 9.6 0 a4.8 4.8 0 1 0 -9.6 0zM1555.66 33.47 a4.8 4.8 0 1 0 9.6 0 a4.8 4.8 0 1 0 -9.6 0zM1514.09 57.47 a4.8 4.8 0 1 0 9.6 0 a4.8 4.8 0 1 0 -9.6 0zM1472.52 33.47 a4.8 4.8 0 1 0 9.6 0 a4.8 4.8 0 1 0 -9.6 0zM1472.52 -14.53 a4.8 4.8 0 1 0 9.6 0 a4.8 4.8 0 1 0 -9.6 0zM1597.24 57.47 a4.8 4.8 0 1 0 9.6 0 a4.8 4.8 0 1 0 -9.6 0zM1597.24 105.47 a4.8 4.8 0 1 0 9.6 0 a4.8 4.8 0 1 0 -9.6 0zM1555.66 129.47 a4.8 4.8 0 1 0 9.6 0 a4.8 4.8 0 1 0 -9.6 0zM1514.09 105.47 a4.8 4.8 0 1 0 9.6 0 a4.8 4.8 0 1 0 -9.6 0zM1555.66 177.47 a4.8 4.8 0 1 0 9.6 0 a4.8 4.8 0 1 0 -9.6 0zM1514.09 201.47 a4.8 4.8 0 1 0 9.6 0 a4.8 4.8 0 1 0 -9.6 0zM1597.24 201.47 a4.8 4.8 0 1 0 9.6 0 a4.8 4.8 0 1 0 -9.6 0zM1597.24 249.47 a4.8 4.8 0 1 0 9.6 0 a4.8 4.8 0 1 0 -9.6 0zM1555.66 273.47 a4.8 4.8 0 1 0 9.6 0 a4.8 4.8 0 1 0 -9.6 0zM1514.09 249.47 a4.8 4.8 0 1 0 9.6 0 a4.8 4.8 0 1 0 -9.6 0zM1638.81 1041.47 a4.8 4.8 0 1 0 9.6 0 a4.8 4.8 0 1 0 -9.6 0zM1680.38 1065.47 a4.8 4.8 0 1 0 9.6 0 a4.8 4.8 0 1 0 -9.6 0zM1680.38 1113.47 a4.8 4.8 0 1 0 9.6 0 a4.8 4.8 0 1 0 -9.6 0zM1638.81 1137.47 a4.8 4.8 0 1 0 9.6 0 a4.8 4.8 0 1 0 -9.6 0zM1597.24 1113.47 a4.8 4.8 0 1 0 9.6 0 a4.8 4.8 0 1 0 -9.6 0zM1597.24 1065.47 a4.8 4.8 0 1 0 9.6 0 a4.8 4.8 0 1 0 -9.6 0zM1763.52 825.47 a4.8 4.8 0 1 0 9.6 0 a4.8 4.8 0 1 0 -9.6 0zM1805.09 849.47 a4.8 4.8 0 1 0 9.6 0 a4.8 4.8 0 1 0 -9.6 0zM1805.09 897.47 a4.8 4.8 0 1 0 9.6 0 a4.8 4.8 0 1 0 -9.6 0zM1763.52 921.47 a4.8 4.8 0 1 0 9.6 0 a4.8 4.8 0 1 0 -9.6 0zM1721.95 897.47 a4.8 4.8 0 1 0 9.6 0 a4.8 4.8 0 1 0 -9.6 0zM1721.95 849.47 a4.8 4.8 0 1 0 9.6 0 a4.8 4.8 0 1 0 -9.6 0zM1763.52 969.47 a4.8 4.8 0 1 0 9.6 0 a4.8 4.8 0 1 0 -9.6 0zM1805.09 993.47 a4.8 4.8 0 1 0 9.6 0 a4.8 4.8 0 1 0 -9.6 0zM1805.09 1041.47 a4.8 4.8 0 1 0 9.6 0 a4.8 4.8 0 1 0 -9.6 0zM1763.52 1065.47 a4.8 4.8 0 1 0 9.6 0 a4.8 4.8 0 1 0 -9.6 0zM1721.95 1041.47 a4.8 4.8 0 1 0 9.6 0 a4.8 4.8 0 1 0 -9.6 0zM1721.95 993.47 a4.8 4.8 0 1 0 9.6 0 a4.8 4.8 0 1 0 -9.6 0zM1846.66 -38.53 a4.8 4.8 0 1 0 9.6 0 a4.8 4.8 0 1 0 -9.6 0zM1888.23 -14.53 a4.8 4.8 0 1 0 9.6 0 a4.8 4.8 0 1 0 -9.6 0zM1888.23 33.47 a4.8 4.8 0 1 0 9.6 0 a4.8 4.8 0 1 0 -9.6 0zM1846.66 57.47 a4.8 4.8 0 1 0 9.6 0 a4.8 4.8 0 1 0 -9.6 0zM1805.09 33.47 a4.8 4.8 0 1 0 9.6 0 a4.8 4.8 0 1 0 -9.6 0zM1805.09 -14.53 a4.8 4.8 0 1 0 9.6 0 a4.8 4.8 0 1 0 -9.6 0zM1846.66 105.47 a4.8 4.8 0 1 0 9.6 0 a4.8 4.8 0 1 0 -9.6 0zM1888.23 129.47 a4.8 4.8 0 1 0 9.6 0 a4.8 4.8 0 1 0 -9.6 0zM1888.23 177.47 a4.8 4.8 0 1 0 9.6 0 a4.8 4.8 0 1 0 -9.6 0zM1846.66 201.47 a4.8 4.8 0 1 0 9.6 0 a4.8 4.8 0 1 0 -9.6 0zM1805.09 177.47 a4.8 4.8 0 1 0 9.6 0 a4.8 4.8 0 1 0 -9.6 0zM1805.09 129.47 a4.8 4.8 0 1 0 9.6 0 a4.8 4.8 0 1 0 -9.6 0zM1929.8 201.47 a4.8 4.8 0 1 0 9.6 0 a4.8 4.8 0 1 0 -9.6 0zM1929.8 249.47 a4.8 4.8 0 1 0 9.6 0 a4.8 4.8 0 1 0 -9.6 0zM1888.23 273.47 a4.8 4.8 0 1 0 9.6 0 a4.8 4.8 0 1 0 -9.6 0zM1846.66 249.47 a4.8 4.8 0 1 0 9.6 0 a4.8 4.8 0 1 0 -9.6 0zM1888.23 609.47 a4.8 4.8 0 1 0 9.6 0 a4.8 4.8 0 1 0 -9.6 0zM1929.8 633.47 a4.8 4.8 0 1 0 9.6 0 a4.8 4.8 0 1 0 -9.6 0zM1929.8 681.47 a4.8 4.8 0 1 0 9.6 0 a4.8 4.8 0 1 0 -9.6 0zM1888.23 705.47 a4.8 4.8 0 1 0 9.6 0 a4.8 4.8 0 1 0 -9.6 0zM1846.66 681.47 a4.8 4.8 0 1 0 9.6 0 a4.8 4.8 0 1 0 -9.6 0zM1846.66 633.47 a4.8 4.8 0 1 0 9.6 0 a4.8 4.8 0 1 0 -9.6 0zM1929.8 -38.53 a4.8 4.8 0 1 0 9.6 0 a4.8 4.8 0 1 0 -9.6 0zM1971.37 -14.53 a4.8 4.8 0 1 0 9.6 0 a4.8 4.8 0 1 0 -9.6 0zM1971.37 33.47 a4.8 4.8 0 1 0 9.6 0 a4.8 4.8 0 1 0 -9.6 0zM1929.8 57.47 a4.8 4.8 0 1 0 9.6 0 a4.8 4.8 0 1 0 -9.6 0zM1929.8 537.47 a4.8 4.8 0 1 0 9.6 0 a4.8 4.8 0 1 0 -9.6 0zM1971.37 561.47 a4.8 4.8 0 1 0 9.6 0 a4.8 4.8 0 1 0 -9.6 0zM1971.37 609.47 a4.8 4.8 0 1 0 9.6 0 a4.8 4.8 0 1 0 -9.6 0zM1888.23 561.47 a4.8 4.8 0 1 0 9.6 0 a4.8 4.8 0 1 0 -9.6 0zM1971.37 897.47 a4.8 4.8 0 1 0 9.6 0 a4.8 4.8 0 1 0 -9.6 0zM2012.94 921.47 a4.8 4.8 0 1 0 9.6 0 a4.8 4.8 0 1 0 -9.6 0zM2012.94 969.47 a4.8 4.8 0 1 0 9.6 0 a4.8 4.8 0 1 0 -9.6 0zM1971.37 993.47 a4.8 4.8 0 1 0 9.6 0 a4.8 4.8 0 1 0 -9.6 0zM1929.8 969.47 a4.8 4.8 0 1 0 9.6 0 a4.8 4.8 0 1 0 -9.6 0zM1929.8 921.47 a4.8 4.8 0 1 0 9.6 0 a4.8 4.8 0 1 0 -9.6 0z" fill="rgba(25, 88, 138, 0.05)"></path><path d="M13.98 34.24L26.1 41.24L26.1 55.24L13.98 62.24L1.86 55.24L1.86 41.24zM26.1 391.24L38.23 398.24L38.23 412.24L26.1 419.24L13.98 412.24L13.98 398.24zM26.1 643.24L38.23 650.24L38.23 664.24L26.1 671.24L13.98 664.24L13.98 650.24zM26.1 853.24L38.23 860.24L38.23 874.24L26.1 881.24L13.98 874.24L13.98 860.24zM38.23 -7.76L50.35 -0.76L50.35 13.24L38.23 20.24L26.1 13.24L26.1 -0.76zM50.35 13.24L62.48 20.24L62.48 34.24L50.35 41.24L38.23 34.24L38.23 20.24zM38.23 412.24L50.35 419.24L50.35 433.24L38.23 440.24L26.1 433.24L26.1 419.24zM38.23 622.24L50.35 629.24L50.35 643.24L38.23 650.24L26.1 643.24L26.1 629.24zM50.35 685.24L62.48 692.24L62.48 706.24L50.35 713.24L38.23 706.24L38.23 692.24zM38.23 706.24L50.35 713.24L50.35 727.24L38.23 734.24L26.1 727.24L26.1 713.24zM38.23 832.24L50.35 839.24L50.35 853.24L38.23 860.24L26.1 853.24L26.1 839.24zM38.23 958.24L50.35 965.24L50.35 979.24L38.23 986.24L26.1 979.24L26.1 965.24zM50.35 1021.24L62.48 1028.24L62.48 1042.24L50.35 1049.24L38.23 1042.24L38.23 1028.24zM74.6 265.24L86.73 272.24L86.73 286.24L74.6 293.24L62.48 286.24L62.48 272.24zM62.48 454.24L74.6 461.24L74.6 475.24L62.48 482.24L50.35 475.24L50.35 461.24zM62.48 580.24L74.6 587.24L74.6 601.24L62.48 608.24L50.35 601.24L50.35 587.24zM62.48 664.24L74.6 671.24L74.6 685.24L62.48 692.24L50.35 685.24L50.35 671.24zM74.6 853.24L86.73 860.24L86.73 874.24L74.6 881.24L62.48 874.24L62.48 860.24zM62.48 1042.24L74.6 1049.24L74.6 1063.24L62.48 1070.24L50.35 1063.24L50.35 1049.24zM86.73 34.24L98.85 41.24L98.85 55.24L86.73 62.24L74.6 55.24L74.6 41.24zM86.73 76.24L98.85 83.24L98.85 97.24L86.73 104.24L74.6 97.24L74.6 83.24zM98.85 559.24L110.98 566.24L110.98 580.24L98.85 587.24L86.73 580.24L86.73 566.24zM86.73 664.24L98.85 671.24L98.85 685.24L86.73 692.24L74.6 685.24L74.6 671.24zM86.73 916.24L98.85 923.24L98.85 937.24L86.73 944.24L74.6 937.24L74.6 923.24zM110.98 706.24L123.1 713.24L123.1 727.24L110.98 734.24L98.85 727.24L98.85 713.24zM123.1 979.24L135.23 986.24L135.23 1000.24L123.1 1007.24L110.98 1000.24L110.98 986.24zM123.1 1021.24L135.23 1028.24L135.23 1042.24L123.1 1049.24L110.98 1042.24L110.98 1028.24zM110.98 1042.24L123.1 1049.24L123.1 1063.24L110.98 1070.24L98.85 1063.24L98.85 1049.24zM147.35 223.24L159.48 230.24L159.48 244.24L147.35 251.24L135.23 244.24L135.23 230.24zM135.23 286.24L147.35 293.24L147.35 307.24L135.23 314.24L123.1 307.24L123.1 293.24zM147.35 601.24L159.48 608.24L159.48 622.24L147.35 629.24L135.23 622.24L135.23 608.24zM171.6 391.24L183.73 398.24L183.73 412.24L171.6 419.24L159.48 412.24L159.48 398.24zM159.48 454.24L171.6 461.24L171.6 475.24L159.48 482.24L147.35 475.24L147.35 461.24zM159.48 496.24L171.6 503.24L171.6 517.24L159.48 524.24L147.35 517.24L147.35 503.24zM159.48 1042.24L171.6 1049.24L171.6 1063.24L159.48 1070.24L147.35 1063.24L147.35 1049.24zM171.6 1063.24L183.73 1070.24L183.73 1084.24L171.6 1091.24L159.48 1084.24L159.48 1070.24zM195.85 727.24L207.98 734.24L207.98 748.24L195.85 755.24L183.73 748.24L183.73 734.24zM195.85 895.24L207.98 902.24L207.98 916.24L195.85 923.24L183.73 916.24L183.73 902.24zM220.1 55.24L232.22 62.24L232.22 76.24L220.1 83.24L207.98 76.24L207.98 62.24zM220.1 265.24L232.22 272.24L232.22 286.24L220.1 293.24L207.98 286.24L207.98 272.24zM207.98 664.24L220.1 671.24L220.1 685.24L207.98 692.24L195.85 685.24L195.85 671.24zM207.98 706.24L220.1 713.24L220.1 727.24L207.98 734.24L195.85 727.24L195.85 713.24zM220.1 811.24L232.22 818.24L232.22 832.24L220.1 839.24L207.98 832.24L207.98 818.24zM220.1 895.24L232.22 902.24L232.22 916.24L220.1 923.24L207.98 916.24L207.98 902.24zM244.35 13.24L256.47 20.24L256.47 34.24L244.35 41.24L232.22 34.24L232.22 20.24zM244.35 55.24L256.47 62.24L256.47 76.24L244.35 83.24L232.22 76.24L232.22 62.24zM244.35 139.24L256.47 146.24L256.47 160.24L244.35 167.24L232.22 160.24L232.22 146.24zM244.35 559.24L256.47 566.24L256.47 580.24L244.35 587.24L232.22 580.24L232.22 566.24zM244.35 853.24L256.47 860.24L256.47 874.24L244.35 881.24L232.22 874.24L232.22 860.24zM244.35 979.24L256.47 986.24L256.47 1000.24L244.35 1007.24L232.22 1000.24L232.22 986.24zM244.35 1021.24L256.47 1028.24L256.47 1042.24L244.35 1049.24L232.22 1042.24L232.22 1028.24zM256.47 202.24L268.6 209.24L268.6 223.24L256.47 230.24L244.35 223.24L244.35 209.24zM268.6 517.24L280.72 524.24L280.72 538.24L268.6 545.24L256.47 538.24L256.47 524.24zM256.47 1042.24L268.6 1049.24L268.6 1063.24L256.47 1070.24L244.35 1063.24L244.35 1049.24zM280.72 -7.76L292.85 -0.76L292.85 13.24L280.72 20.24L268.6 13.24L268.6 -0.76zM292.85 55.24L304.97 62.24L304.97 76.24L292.85 83.24L280.72 76.24L280.72 62.24zM292.85 307.24L304.97 314.24L304.97 328.24L292.85 335.24L280.72 328.24L280.72 314.24zM280.72 412.24L292.85 419.24L292.85 433.24L280.72 440.24L268.6 433.24L268.6 419.24zM280.72 454.24L292.85 461.24L292.85 475.24L280.72 482.24L268.6 475.24L268.6 461.24zM280.72 622.24L292.85 629.24L292.85 643.24L280.72 650.24L268.6 643.24L268.6 629.24zM280.72 1000.24L292.85 1007.24L292.85 1021.24L280.72 1028.24L268.6 1021.24L268.6 1007.24zM292.85 1021.24L304.97 1028.24L304.97 1042.24L292.85 1049.24L280.72 1042.24L280.72 1028.24zM304.97 412.24L317.1 419.24L317.1 433.24L304.97 440.24L292.85 433.24L292.85 419.24zM304.97 496.24L317.1 503.24L317.1 517.24L304.97 524.24L292.85 517.24L292.85 503.24zM304.97 538.24L317.1 545.24L317.1 559.24L304.97 566.24L292.85 559.24L292.85 545.24zM304.97 622.24L317.1 629.24L317.1 643.24L304.97 650.24L292.85 643.24L292.85 629.24zM317.1 1021.24L329.22 1028.24L329.22 1042.24L317.1 1049.24L304.97 1042.24L304.97 1028.24zM341.35 391.24L353.47 398.24L353.47 412.24L341.35 419.24L329.22 412.24L329.22 398.24zM341.35 769.24L353.47 776.24L353.47 790.24L341.35 797.24L329.22 790.24L329.22 776.24zM329.22 874.24L341.35 881.24L341.35 895.24L329.22 902.24L317.1 895.24L317.1 881.24zM365.6 517.24L377.72 524.24L377.72 538.24L365.6 545.24L353.47 538.24L353.47 524.24zM353.47 622.24L365.6 629.24L365.6 643.24L353.47 650.24L341.35 643.24L341.35 629.24zM353.47 874.24L365.6 881.24L365.6 895.24L353.47 902.24L341.35 895.24L341.35 881.24zM353.47 1000.24L365.6 1007.24L365.6 1021.24L353.47 1028.24L341.35 1021.24L341.35 1007.24zM377.72 -7.76L389.85 -0.76L389.85 13.24L377.72 20.24L365.6 13.24L365.6 -0.76zM377.72 34.24L389.85 41.24L389.85 55.24L377.72 62.24L365.6 55.24L365.6 41.24zM377.72 118.24L389.85 125.24L389.85 139.24L377.72 146.24L365.6 139.24L365.6 125.24zM389.85 181.24L401.97 188.24L401.97 202.24L389.85 209.24L377.72 202.24L377.72 188.24zM389.85 391.24L401.97 398.24L401.97 412.24L389.85 419.24L377.72 412.24L377.72 398.24zM389.85 475.24L401.97 482.24L401.97 496.24L389.85 503.24L377.72 496.24L377.72 482.24zM389.85 517.24L401.97 524.24L401.97 538.24L389.85 545.24L377.72 538.24L377.72 524.24zM377.72 748.24L389.85 755.24L389.85 769.24L377.72 776.24L365.6 769.24L365.6 755.24zM389.85 769.24L401.97 776.24L401.97 790.24L389.85 797.24L377.72 790.24L377.72 776.24zM414.1 349.24L426.22 356.24L426.22 370.24L414.1 377.24L401.97 370.24L401.97 356.24zM401.97 496.24L414.1 503.24L414.1 517.24L401.97 524.24L389.85 517.24L389.85 503.24zM414.1 517.24L426.22 524.24L426.22 538.24L414.1 545.24L401.97 538.24L401.97 524.24zM401.97 622.24L414.1 629.24L414.1 643.24L401.97 650.24L389.85 643.24L389.85 629.24zM414.1 727.24L426.22 734.24L426.22 748.24L414.1 755.24L401.97 748.24L401.97 734.24zM438.34 55.24L450.47 62.24L450.47 76.24L438.34 83.24L426.22 76.24L426.22 62.24zM426.22 328.24L438.34 335.24L438.34 349.24L426.22 356.24L414.1 349.24L414.1 335.24zM426.22 370.24L438.34 377.24L438.34 391.24L426.22 398.24L414.1 391.24L414.1 377.24zM426.22 454.24L438.34 461.24L438.34 475.24L426.22 482.24L414.1 475.24L414.1 461.24zM426.22 538.24L438.34 545.24L438.34 559.24L426.22 566.24L414.1 559.24L414.1 545.24zM438.34 559.24L450.47 566.24L450.47 580.24L438.34 587.24L426.22 580.24L426.22 566.24zM438.34 853.24L450.47 860.24L450.47 874.24L438.34 881.24L426.22 874.24L426.22 860.24zM462.59 13.24L474.72 20.24L474.72 34.24L462.59 41.24L450.47 34.24L450.47 20.24zM450.47 202.24L462.59 209.24L462.59 223.24L450.47 230.24L438.34 223.24L438.34 209.24zM462.59 685.24L474.72 692.24L474.72 706.24L462.59 713.24L450.47 706.24L450.47 692.24zM450.47 790.24L462.59 797.24L462.59 811.24L450.47 818.24L438.34 811.24L438.34 797.24zM486.84 139.24L498.97 146.24L498.97 160.24L486.84 167.24L474.72 160.24L474.72 146.24zM486.84 433.24L498.97 440.24L498.97 454.24L486.84 461.24L474.72 454.24L474.72 440.24zM474.72 454.24L486.84 461.24L486.84 475.24L474.72 482.24L462.59 475.24L462.59 461.24zM474.72 706.24L486.84 713.24L486.84 727.24L474.72 734.24L462.59 727.24L462.59 713.24zM474.72 916.24L486.84 923.24L486.84 937.24L474.72 944.24L462.59 937.24L462.59 923.24zM474.72 1000.24L486.84 1007.24L486.84 1021.24L474.72 1028.24L462.59 1021.24L462.59 1007.24zM511.09 13.24L523.22 20.24L523.22 34.24L511.09 41.24L498.97 34.24L498.97 20.24zM498.97 328.24L511.09 335.24L511.09 349.24L498.97 356.24L486.84 349.24L486.84 335.24zM511.09 391.24L523.22 398.24L523.22 412.24L511.09 419.24L498.97 412.24L498.97 398.24zM511.09 601.24L523.22 608.24L523.22 622.24L511.09 629.24L498.97 622.24L498.97 608.24zM498.97 622.24L511.09 629.24L511.09 643.24L498.97 650.24L486.84 643.24L486.84 629.24zM498.97 664.24L511.09 671.24L511.09 685.24L498.97 692.24L486.84 685.24L486.84 671.24zM511.09 685.24L523.22 692.24L523.22 706.24L511.09 713.24L498.97 706.24L498.97 692.24zM498.97 832.24L511.09 839.24L511.09 853.24L498.97 860.24L486.84 853.24L486.84 839.24zM498.97 1042.24L511.09 1049.24L511.09 1063.24L498.97 1070.24L486.84 1063.24L486.84 1049.24zM535.34 265.24L547.47 272.24L547.47 286.24L535.34 293.24L523.22 286.24L523.22 272.24zM523.22 1000.24L535.34 1007.24L535.34 1021.24L523.22 1028.24L511.09 1021.24L511.09 1007.24zM547.47 454.24L559.59 461.24L559.59 475.24L547.47 482.24L535.34 475.24L535.34 461.24zM547.47 538.24L559.59 545.24L559.59 559.24L547.47 566.24L535.34 559.24L535.34 545.24zM547.47 790.24L559.59 797.24L559.59 811.24L547.47 818.24L535.34 811.24L535.34 797.24zM547.47 958.24L559.59 965.24L559.59 979.24L547.47 986.24L535.34 979.24L535.34 965.24zM571.72 202.24L583.84 209.24L583.84 223.24L571.72 230.24L559.59 223.24L559.59 209.24zM571.72 328.24L583.84 335.24L583.84 349.24L571.72 356.24L559.59 349.24L559.59 335.24zM571.72 580.24L583.84 587.24L583.84 601.24L571.72 608.24L559.59 601.24L559.59 587.24zM608.09 55.24L620.21 62.24L620.21 76.24L608.09 83.24L595.97 76.24L595.97 62.24zM595.97 76.24L608.09 83.24L608.09 97.24L595.97 104.24L583.84 97.24L583.84 83.24zM595.97 370.24L608.09 377.24L608.09 391.24L595.97 398.24L583.84 391.24L583.84 377.24zM595.97 496.24L608.09 503.24L608.09 517.24L595.97 524.24L583.84 517.24L583.84 503.24zM620.22 118.24L632.34 125.24L632.34 139.24L620.22 146.24L608.09 139.24L608.09 125.24zM632.34 139.24L644.46 146.24L644.46 160.24L632.34 167.24L620.22 160.24L620.22 146.24zM632.34 517.24L644.46 524.24L644.46 538.24L632.34 545.24L620.22 538.24L620.22 524.24zM632.34 685.24L644.46 692.24L644.46 706.24L632.34 713.24L620.22 706.24L620.22 692.24zM620.22 1042.24L632.34 1049.24L632.34 1063.24L620.22 1070.24L608.09 1063.24L608.09 1049.24zM656.59 97.24L668.71 104.24L668.71 118.24L656.59 125.24L644.46 118.24L644.46 104.24zM644.46 118.24L656.59 125.24L656.59 139.24L644.46 146.24L632.34 139.24L632.34 125.24zM644.46 160.24L656.59 167.24L656.59 181.24L644.46 188.24L632.34 181.24L632.34 167.24zM644.46 370.24L656.59 377.24L656.59 391.24L644.46 398.24L632.34 391.24L632.34 377.24zM644.46 664.24L656.59 671.24L656.59 685.24L644.46 692.24L632.34 685.24L632.34 671.24zM656.59 685.24L668.71 692.24L668.71 706.24L656.59 713.24L644.46 706.24L644.46 692.24zM644.46 748.24L656.59 755.24L656.59 769.24L644.46 776.24L632.34 769.24L632.34 755.24zM668.71 328.24L680.84 335.24L680.84 349.24L668.71 356.24L656.59 349.24L656.59 335.24zM680.84 559.24L692.96 566.24L692.96 580.24L680.84 587.24L668.71 580.24L668.71 566.24zM668.71 1042.24L680.84 1049.24L680.84 1063.24L668.71 1070.24L656.59 1063.24L656.59 1049.24zM705.09 265.24L717.21 272.24L717.21 286.24L705.09 293.24L692.96 286.24L692.96 272.24zM692.96 496.24L705.09 503.24L705.09 517.24L692.96 524.24L680.84 517.24L680.84 503.24zM692.96 706.24L705.09 713.24L705.09 727.24L692.96 734.24L680.84 727.24L680.84 713.24zM705.09 853.24L717.21 860.24L717.21 874.24L705.09 881.24L692.96 874.24L692.96 860.24zM717.21 496.24L729.34 503.24L729.34 517.24L717.21 524.24L705.09 517.24L705.09 503.24zM741.46 34.24L753.59 41.24L753.59 55.24L741.46 62.24L729.34 55.24L729.34 41.24zM765.71 76.24L777.84 83.24L777.84 97.24L765.71 104.24L753.59 97.24L753.59 83.24zM765.71 244.24L777.84 251.24L777.84 265.24L765.71 272.24L753.59 265.24L753.59 251.24zM777.84 265.24L789.96 272.24L789.96 286.24L777.84 293.24L765.71 286.24L765.71 272.24zM777.84 391.24L789.96 398.24L789.96 412.24L777.84 419.24L765.71 412.24L765.71 398.24zM765.71 412.24L777.84 419.24L777.84 433.24L765.71 440.24L753.59 433.24L753.59 419.24zM765.71 790.24L777.84 797.24L777.84 811.24L765.71 818.24L753.59 811.24L753.59 797.24zM765.71 874.24L777.84 881.24L777.84 895.24L765.71 902.24L753.59 895.24L753.59 881.24zM789.96 286.24L802.09 293.24L802.09 307.24L789.96 314.24L777.84 307.24L777.84 293.24zM789.96 328.24L802.09 335.24L802.09 349.24L789.96 356.24L777.84 349.24L777.84 335.24zM789.96 496.24L802.09 503.24L802.09 517.24L789.96 524.24L777.84 517.24L777.84 503.24zM789.96 580.24L802.09 587.24L802.09 601.24L789.96 608.24L777.84 601.24L777.84 587.24zM789.96 1000.24L802.09 1007.24L802.09 1021.24L789.96 1028.24L777.84 1021.24L777.84 1007.24zM789.96 1042.24L802.09 1049.24L802.09 1063.24L789.96 1070.24L777.84 1063.24L777.84 1049.24zM802.09 1063.24L814.21 1070.24L814.21 1084.24L802.09 1091.24L789.96 1084.24L789.96 1070.24zM814.21 76.24L826.33 83.24L826.33 97.24L814.21 104.24L802.09 97.24L802.09 83.24zM826.33 265.24L838.46 272.24L838.46 286.24L826.33 293.24L814.21 286.24L814.21 272.24zM826.33 769.24L838.46 776.24L838.46 790.24L826.33 797.24L814.21 790.24L814.21 776.24zM850.58 181.24L862.71 188.24L862.71 202.24L850.58 209.24L838.46 202.24L838.46 188.24zM838.46 244.24L850.58 251.24L850.58 265.24L838.46 272.24L826.33 265.24L826.33 251.24zM850.58 643.24L862.71 650.24L862.71 664.24L850.58 671.24L838.46 664.24L838.46 650.24zM838.46 958.24L850.58 965.24L850.58 979.24L838.46 986.24L826.33 979.24L826.33 965.24zM862.71 118.24L874.83 125.24L874.83 139.24L862.71 146.24L850.58 139.24L850.58 125.24zM874.83 265.24L886.96 272.24L886.96 286.24L874.83 293.24L862.71 286.24L862.71 272.24zM862.71 706.24L874.83 713.24L874.83 727.24L862.71 734.24L850.58 727.24L850.58 713.24zM899.08 433.24L911.21 440.24L911.21 454.24L899.08 461.24L886.96 454.24L886.96 440.24zM886.96 706.24L899.08 713.24L899.08 727.24L886.96 734.24L874.83 727.24L874.83 713.24zM886.96 916.24L899.08 923.24L899.08 937.24L886.96 944.24L874.83 937.24L874.83 923.24zM911.21 328.24L923.33 335.24L923.33 349.24L911.21 356.24L899.08 349.24L899.08 335.24zM923.33 853.24L935.46 860.24L935.46 874.24L923.33 881.24L911.21 874.24L911.21 860.24zM947.58 559.24L959.71 566.24L959.71 580.24L947.58 587.24L935.46 580.24L935.46 566.24zM935.46 790.24L947.58 797.24L947.58 811.24L935.46 818.24L923.33 811.24L923.33 797.24zM947.58 979.24L959.71 986.24L959.71 1000.24L947.58 1007.24L935.46 1000.24L935.46 986.24zM959.71 160.24L971.83 167.24L971.83 181.24L959.71 188.24L947.58 181.24L947.58 167.24zM971.83 265.24L983.96 272.24L983.96 286.24L971.83 293.24L959.71 286.24L959.71 272.24zM971.83 727.24L983.96 734.24L983.96 748.24L971.83 755.24L959.71 748.24L959.71 734.24zM983.96 -7.76L996.08 -0.76L996.08 13.24L983.96 20.24L971.83 13.24L971.83 -0.76zM983.96 118.24L996.08 125.24L996.08 139.24L983.96 146.24L971.83 139.24L971.83 125.24zM996.08 391.24L1008.21 398.24L1008.21 412.24L996.08 419.24L983.96 412.24L983.96 398.24zM983.96 412.24L996.08 419.24L996.08 433.24L983.96 440.24L971.83 433.24L971.83 419.24zM996.08 517.24L1008.21 524.24L1008.21 538.24L996.08 545.24L983.96 538.24L983.96 524.24zM983.96 706.24L996.08 713.24L996.08 727.24L983.96 734.24L971.83 727.24L971.83 713.24zM996.08 769.24L1008.21 776.24L1008.21 790.24L996.08 797.24L983.96 790.24L983.96 776.24zM983.96 1000.24L996.08 1007.24L996.08 1021.24L983.96 1028.24L971.83 1021.24L971.83 1007.24zM996.08 1063.24L1008.21 1070.24L1008.21 1084.24L996.08 1091.24L983.96 1084.24L983.96 1070.24zM1008.21 76.24L1020.33 83.24L1020.33 97.24L1008.21 104.24L996.08 97.24L996.08 83.24zM1008.21 580.24L1020.33 587.24L1020.33 601.24L1008.21 608.24L996.08 601.24L996.08 587.24zM1020.33 769.24L1032.45 776.24L1032.45 790.24L1020.33 797.24L1008.21 790.24L1008.21 776.24zM1008.21 1042.24L1020.33 1049.24L1020.33 1063.24L1008.21 1070.24L996.08 1063.24L996.08 1049.24zM1032.45 76.24L1044.58 83.24L1044.58 97.24L1032.45 104.24L1020.33 97.24L1020.33 83.24zM1032.45 244.24L1044.58 251.24L1044.58 265.24L1032.45 272.24L1020.33 265.24L1020.33 251.24zM1032.45 622.24L1044.58 629.24L1044.58 643.24L1032.45 650.24L1020.33 643.24L1020.33 629.24zM1044.58 643.24L1056.7 650.24L1056.7 664.24L1044.58 671.24L1032.45 664.24L1032.45 650.24zM1044.58 685.24L1056.7 692.24L1056.7 706.24L1044.58 713.24L1032.45 706.24L1032.45 692.24zM1056.7 538.24L1068.83 545.24L1068.83 559.24L1056.7 566.24L1044.58 559.24L1044.58 545.24zM1068.83 559.24L1080.95 566.24L1080.95 580.24L1068.83 587.24L1056.7 580.24L1056.7 566.24zM1056.7 664.24L1068.83 671.24L1068.83 685.24L1056.7 692.24L1044.58 685.24L1044.58 671.24zM1056.7 790.24L1068.83 797.24L1068.83 811.24L1056.7 818.24L1044.58 811.24L1044.58 797.24zM1068.83 853.24L1080.95 860.24L1080.95 874.24L1068.83 881.24L1056.7 874.24L1056.7 860.24zM1056.7 916.24L1068.83 923.24L1068.83 937.24L1056.7 944.24L1044.58 937.24L1044.58 923.24zM1080.95 328.24L1093.08 335.24L1093.08 349.24L1080.95 356.24L1068.83 349.24L1068.83 335.24zM1080.95 412.24L1093.08 419.24L1093.08 433.24L1080.95 440.24L1068.83 433.24L1068.83 419.24zM1080.95 454.24L1093.08 461.24L1093.08 475.24L1080.95 482.24L1068.83 475.24L1068.83 461.24zM1080.95 496.24L1093.08 503.24L1093.08 517.24L1080.95 524.24L1068.83 517.24L1068.83 503.24zM1080.95 706.24L1093.08 713.24L1093.08 727.24L1080.95 734.24L1068.83 727.24L1068.83 713.24zM1093.08 769.24L1105.2 776.24L1105.2 790.24L1093.08 797.24L1080.95 790.24L1080.95 776.24zM1080.95 958.24L1093.08 965.24L1093.08 979.24L1080.95 986.24L1068.83 979.24L1068.83 965.24zM1105.2 538.24L1117.33 545.24L1117.33 559.24L1105.2 566.24L1093.08 559.24L1093.08 545.24zM1117.33 643.24L1129.45 650.24L1129.45 664.24L1117.33 671.24L1105.2 664.24L1105.2 650.24zM1105.2 748.24L1117.33 755.24L1117.33 769.24L1105.2 776.24L1093.08 769.24L1093.08 755.24zM1117.33 937.24L1129.45 944.24L1129.45 958.24L1117.33 965.24L1105.2 958.24L1105.2 944.24zM1117.33 1021.24L1129.45 1028.24L1129.45 1042.24L1117.33 1049.24L1105.2 1042.24L1105.2 1028.24zM1141.58 307.24L1153.7 314.24L1153.7 328.24L1141.58 335.24L1129.45 328.24L1129.45 314.24zM1129.45 538.24L1141.58 545.24L1141.58 559.24L1129.45 566.24L1117.33 559.24L1117.33 545.24zM1129.45 916.24L1141.58 923.24L1141.58 937.24L1129.45 944.24L1117.33 937.24L1117.33 923.24zM1165.83 55.24L1177.95 62.24L1177.95 76.24L1165.83 83.24L1153.7 76.24L1153.7 62.24zM1165.83 139.24L1177.95 146.24L1177.95 160.24L1165.83 167.24L1153.7 160.24L1153.7 146.24zM1165.83 181.24L1177.95 188.24L1177.95 202.24L1165.83 209.24L1153.7 202.24L1153.7 188.24zM1153.7 412.24L1165.83 419.24L1165.83 433.24L1153.7 440.24L1141.58 433.24L1141.58 419.24zM1165.83 769.24L1177.95 776.24L1177.95 790.24L1165.83 797.24L1153.7 790.24L1153.7 776.24zM1153.7 790.24L1165.83 797.24L1165.83 811.24L1153.7 818.24L1141.58 811.24L1141.58 797.24zM1165.83 853.24L1177.95 860.24L1177.95 874.24L1165.83 881.24L1153.7 874.24L1153.7 860.24zM1153.7 958.24L1165.83 965.24L1165.83 979.24L1153.7 986.24L1141.58 979.24L1141.58 965.24zM1177.95 34.24L1190.08 41.24L1190.08 55.24L1177.95 62.24L1165.83 55.24L1165.83 41.24zM1190.08 97.24L1202.2 104.24L1202.2 118.24L1190.08 125.24L1177.95 118.24L1177.95 104.24zM1190.08 223.24L1202.2 230.24L1202.2 244.24L1190.08 251.24L1177.95 244.24L1177.95 230.24zM1177.95 496.24L1190.08 503.24L1190.08 517.24L1177.95 524.24L1165.83 517.24L1165.83 503.24zM1190.08 517.24L1202.2 524.24L1202.2 538.24L1190.08 545.24L1177.95 538.24L1177.95 524.24zM1190.08 559.24L1202.2 566.24L1202.2 580.24L1190.08 587.24L1177.95 580.24L1177.95 566.24zM1177.95 580.24L1190.08 587.24L1190.08 601.24L1177.95 608.24L1165.83 601.24L1165.83 587.24zM1190.08 853.24L1202.2 860.24L1202.2 874.24L1190.08 881.24L1177.95 874.24L1177.95 860.24zM1177.95 958.24L1190.08 965.24L1190.08 979.24L1177.95 986.24L1165.83 979.24L1165.83 965.24zM1214.33 391.24L1226.45 398.24L1226.45 412.24L1214.33 419.24L1202.2 412.24L1202.2 398.24zM1214.33 433.24L1226.45 440.24L1226.45 454.24L1214.33 461.24L1202.2 454.24L1202.2 440.24zM1214.33 475.24L1226.45 482.24L1226.45 496.24L1214.33 503.24L1202.2 496.24L1202.2 482.24zM1202.2 580.24L1214.33 587.24L1214.33 601.24L1202.2 608.24L1190.08 601.24L1190.08 587.24zM1202.2 874.24L1214.33 881.24L1214.33 895.24L1202.2 902.24L1190.08 895.24L1190.08 881.24zM1214.33 1063.24L1226.45 1070.24L1226.45 1084.24L1214.33 1091.24L1202.2 1084.24L1202.2 1070.24zM1226.45 412.24L1238.57 419.24L1238.57 433.24L1226.45 440.24L1214.33 433.24L1214.33 419.24zM1226.45 580.24L1238.57 587.24L1238.57 601.24L1226.45 608.24L1214.33 601.24L1214.33 587.24zM1226.45 748.24L1238.57 755.24L1238.57 769.24L1226.45 776.24L1214.33 769.24L1214.33 755.24zM1238.57 769.24L1250.7 776.24L1250.7 790.24L1238.57 797.24L1226.45 790.24L1226.45 776.24zM1226.45 958.24L1238.57 965.24L1238.57 979.24L1226.45 986.24L1214.33 979.24L1214.33 965.24zM1250.7 76.24L1262.82 83.24L1262.82 97.24L1250.7 104.24L1238.57 97.24L1238.57 83.24zM1262.82 811.24L1274.95 818.24L1274.95 832.24L1262.82 839.24L1250.7 832.24L1250.7 818.24zM1250.7 874.24L1262.82 881.24L1262.82 895.24L1250.7 902.24L1238.57 895.24L1238.57 881.24zM1250.7 1000.24L1262.82 1007.24L1262.82 1021.24L1250.7 1028.24L1238.57 1021.24L1238.57 1007.24zM1274.95 244.24L1287.07 251.24L1287.07 265.24L1274.95 272.24L1262.82 265.24L1262.82 251.24zM1274.95 328.24L1287.07 335.24L1287.07 349.24L1274.95 356.24L1262.82 349.24L1262.82 335.24zM1287.07 349.24L1299.2 356.24L1299.2 370.24L1287.07 377.24L1274.95 370.24L1274.95 356.24zM1287.07 391.24L1299.2 398.24L1299.2 412.24L1287.07 419.24L1274.95 412.24L1274.95 398.24zM1287.07 433.24L1299.2 440.24L1299.2 454.24L1287.07 461.24L1274.95 454.24L1274.95 440.24zM1287.07 517.24L1299.2 524.24L1299.2 538.24L1287.07 545.24L1274.95 538.24L1274.95 524.24zM1311.32 349.24L1323.45 356.24L1323.45 370.24L1311.32 377.24L1299.2 370.24L1299.2 356.24zM1311.32 391.24L1323.45 398.24L1323.45 412.24L1311.32 419.24L1299.2 412.24L1299.2 398.24zM1311.32 559.24L1323.45 566.24L1323.45 580.24L1311.32 587.24L1299.2 580.24L1299.2 566.24zM1311.32 769.24L1323.45 776.24L1323.45 790.24L1311.32 797.24L1299.2 790.24L1299.2 776.24zM1311.32 895.24L1323.45 902.24L1323.45 916.24L1311.32 923.24L1299.2 916.24L1299.2 902.24zM1299.2 1042.24L1311.32 1049.24L1311.32 1063.24L1299.2 1070.24L1287.07 1063.24L1287.07 1049.24zM1323.45 76.24L1335.57 83.24L1335.57 97.24L1323.45 104.24L1311.32 97.24L1311.32 83.24zM1335.57 139.24L1347.7 146.24L1347.7 160.24L1335.57 167.24L1323.45 160.24L1323.45 146.24zM1335.57 265.24L1347.7 272.24L1347.7 286.24L1335.57 293.24L1323.45 286.24L1323.45 272.24zM1323.45 790.24L1335.57 797.24L1335.57 811.24L1323.45 818.24L1311.32 811.24L1311.32 797.24zM1323.45 916.24L1335.57 923.24L1335.57 937.24L1323.45 944.24L1311.32 937.24L1311.32 923.24zM1359.82 601.24L1371.95 608.24L1371.95 622.24L1359.82 629.24L1347.7 622.24L1347.7 608.24zM1359.82 811.24L1371.95 818.24L1371.95 832.24L1359.82 839.24L1347.7 832.24L1347.7 818.24zM1347.7 874.24L1359.82 881.24L1359.82 895.24L1347.7 902.24L1335.57 895.24L1335.57 881.24zM1359.82 937.24L1371.95 944.24L1371.95 958.24L1359.82 965.24L1347.7 958.24L1347.7 944.24zM1359.82 1021.24L1371.95 1028.24L1371.95 1042.24L1359.82 1049.24L1347.7 1042.24L1347.7 1028.24zM1371.95 34.24L1384.07 41.24L1384.07 55.24L1371.95 62.24L1359.82 55.24L1359.82 41.24zM1384.07 181.24L1396.2 188.24L1396.2 202.24L1384.07 209.24L1371.95 202.24L1371.95 188.24zM1384.07 349.24L1396.2 356.24L1396.2 370.24L1384.07 377.24L1371.95 370.24L1371.95 356.24zM1371.95 412.24L1384.07 419.24L1384.07 433.24L1371.95 440.24L1359.82 433.24L1359.82 419.24zM1384.07 433.24L1396.2 440.24L1396.2 454.24L1384.07 461.24L1371.95 454.24L1371.95 440.24zM1371.95 1000.24L1384.07 1007.24L1384.07 1021.24L1371.95 1028.24L1359.82 1021.24L1359.82 1007.24zM1384.07 1063.24L1396.2 1070.24L1396.2 1084.24L1384.07 1091.24L1371.95 1084.24L1371.95 1070.24zM1396.2 -7.76L1408.32 -0.76L1408.32 13.24L1396.2 20.24L1384.07 13.24L1384.07 -0.76zM1396.2 328.24L1408.32 335.24L1408.32 349.24L1396.2 356.24L1384.07 349.24L1384.07 335.24zM1396.2 916.24L1408.32 923.24L1408.32 937.24L1396.2 944.24L1384.07 937.24L1384.07 923.24zM1408.32 937.24L1420.45 944.24L1420.45 958.24L1408.32 965.24L1396.2 958.24L1396.2 944.24zM1408.32 1021.24L1420.45 1028.24L1420.45 1042.24L1408.32 1049.24L1396.2 1042.24L1396.2 1028.24zM1432.57 13.24L1444.69 20.24L1444.69 34.24L1432.57 41.24L1420.45 34.24L1420.45 20.24zM1420.45 34.24L1432.57 41.24L1432.57 55.24L1420.45 62.24L1408.32 55.24L1408.32 41.24zM1432.57 55.24L1444.69 62.24L1444.69 76.24L1432.57 83.24L1420.45 76.24L1420.45 62.24zM1420.45 202.24L1432.57 209.24L1432.57 223.24L1420.45 230.24L1408.32 223.24L1408.32 209.24zM1432.57 349.24L1444.69 356.24L1444.69 370.24L1432.57 377.24L1420.45 370.24L1420.45 356.24zM1432.57 685.24L1444.69 692.24L1444.69 706.24L1432.57 713.24L1420.45 706.24L1420.45 692.24zM1420.45 748.24L1432.57 755.24L1432.57 769.24L1420.45 776.24L1408.32 769.24L1408.32 755.24zM1420.45 916.24L1432.57 923.24L1432.57 937.24L1420.45 944.24L1408.32 937.24L1408.32 923.24zM1456.82 55.24L1468.94 62.24L1468.94 76.24L1456.82 83.24L1444.69 76.24L1444.69 62.24zM1444.69 76.24L1456.82 83.24L1456.82 97.24L1444.69 104.24L1432.57 97.24L1432.57 83.24zM1444.69 160.24L1456.82 167.24L1456.82 181.24L1444.69 188.24L1432.57 181.24L1432.57 167.24zM1444.69 496.24L1456.82 503.24L1456.82 517.24L1444.69 524.24L1432.57 517.24L1432.57 503.24zM1444.69 538.24L1456.82 545.24L1456.82 559.24L1444.69 566.24L1432.57 559.24L1432.57 545.24zM1456.82 853.24L1468.94 860.24L1468.94 874.24L1456.82 881.24L1444.69 874.24L1444.69 860.24zM1468.94 118.24L1481.07 125.24L1481.07 139.24L1468.94 146.24L1456.82 139.24L1456.82 125.24zM1468.94 328.24L1481.07 335.24L1481.07 349.24L1468.94 356.24L1456.82 349.24L1456.82 335.24zM1481.07 979.24L1493.19 986.24L1493.19 1000.24L1481.07 1007.24L1468.94 1000.24L1468.94 986.24zM1493.19 118.24L1505.32 125.24L1505.32 139.24L1493.19 146.24L1481.07 139.24L1481.07 125.24zM1493.19 412.24L1505.32 419.24L1505.32 433.24L1493.19 440.24L1481.07 433.24L1481.07 419.24zM1493.19 538.24L1505.32 545.24L1505.32 559.24L1493.19 566.24L1481.07 559.24L1481.07 545.24zM1505.32 685.24L1517.44 692.24L1517.44 706.24L1505.32 713.24L1493.19 706.24L1493.19 692.24zM1493.19 874.24L1505.32 881.24L1505.32 895.24L1493.19 902.24L1481.07 895.24L1481.07 881.24zM1529.57 97.24L1541.69 104.24L1541.69 118.24L1529.57 125.24L1517.44 118.24L1517.44 104.24zM1517.44 202.24L1529.57 209.24L1529.57 223.24L1517.44 230.24L1505.32 223.24L1505.32 209.24zM1517.44 370.24L1529.57 377.24L1529.57 391.24L1517.44 398.24L1505.32 391.24L1505.32 377.24zM1517.44 412.24L1529.57 419.24L1529.57 433.24L1517.44 440.24L1505.32 433.24L1505.32 419.24zM1529.57 895.24L1541.69 902.24L1541.69 916.24L1529.57 923.24L1517.44 916.24L1517.44 902.24zM1541.69 202.24L1553.82 209.24L1553.82 223.24L1541.69 230.24L1529.57 223.24L1529.57 209.24zM1553.82 223.24L1565.94 230.24L1565.94 244.24L1553.82 251.24L1541.69 244.24L1541.69 230.24zM1541.69 328.24L1553.82 335.24L1553.82 349.24L1541.69 356.24L1529.57 349.24L1529.57 335.24zM1541.69 622.24L1553.82 629.24L1553.82 643.24L1541.69 650.24L1529.57 643.24L1529.57 629.24zM1553.82 811.24L1565.94 818.24L1565.94 832.24L1553.82 839.24L1541.69 832.24L1541.69 818.24zM1553.82 895.24L1565.94 902.24L1565.94 916.24L1553.82 923.24L1541.69 916.24L1541.69 902.24zM1553.82 1063.24L1565.94 1070.24L1565.94 1084.24L1553.82 1091.24L1541.69 1084.24L1541.69 1070.24zM1578.07 13.24L1590.19 20.24L1590.19 34.24L1578.07 41.24L1565.94 34.24L1565.94 20.24zM1565.94 160.24L1578.07 167.24L1578.07 181.24L1565.94 188.24L1553.82 181.24L1553.82 167.24zM1565.94 202.24L1578.07 209.24L1578.07 223.24L1565.94 230.24L1553.82 223.24L1553.82 209.24zM1578.07 433.24L1590.19 440.24L1590.19 454.24L1578.07 461.24L1565.94 454.24L1565.94 440.24zM1565.94 622.24L1578.07 629.24L1578.07 643.24L1565.94 650.24L1553.82 643.24L1553.82 629.24zM1578.07 979.24L1590.19 986.24L1590.19 1000.24L1578.07 1007.24L1565.94 1000.24L1565.94 986.24zM1602.32 265.24L1614.44 272.24L1614.44 286.24L1602.32 293.24L1590.19 286.24L1590.19 272.24zM1590.19 496.24L1602.32 503.24L1602.32 517.24L1590.19 524.24L1578.07 517.24L1578.07 503.24zM1590.19 664.24L1602.32 671.24L1602.32 685.24L1590.19 692.24L1578.07 685.24L1578.07 671.24zM1602.32 685.24L1614.44 692.24L1614.44 706.24L1602.32 713.24L1590.19 706.24L1590.19 692.24zM1590.19 916.24L1602.32 923.24L1602.32 937.24L1590.19 944.24L1578.07 937.24L1578.07 923.24zM1602.32 937.24L1614.44 944.24L1614.44 958.24L1602.32 965.24L1590.19 958.24L1590.19 944.24zM1602.32 1063.24L1614.44 1070.24L1614.44 1084.24L1602.32 1091.24L1590.19 1084.24L1590.19 1070.24zM1614.44 202.24L1626.57 209.24L1626.57 223.24L1614.44 230.24L1602.32 223.24L1602.32 209.24zM1614.44 244.24L1626.57 251.24L1626.57 265.24L1614.44 272.24L1602.32 265.24L1602.32 251.24zM1626.57 265.24L1638.69 272.24L1638.69 286.24L1626.57 293.24L1614.44 286.24L1614.44 272.24zM1614.44 286.24L1626.57 293.24L1626.57 307.24L1614.44 314.24L1602.32 307.24L1602.32 293.24zM1626.57 727.24L1638.69 734.24L1638.69 748.24L1626.57 755.24L1614.44 748.24L1614.44 734.24zM1614.44 832.24L1626.57 839.24L1626.57 853.24L1614.44 860.24L1602.32 853.24L1602.32 839.24zM1650.81 181.24L1662.94 188.24L1662.94 202.24L1650.81 209.24L1638.69 202.24L1638.69 188.24zM1650.81 853.24L1662.94 860.24L1662.94 874.24L1650.81 881.24L1638.69 874.24L1638.69 860.24zM1638.69 916.24L1650.81 923.24L1650.81 937.24L1638.69 944.24L1626.57 937.24L1626.57 923.24zM1638.69 958.24L1650.81 965.24L1650.81 979.24L1638.69 986.24L1626.57 979.24L1626.57 965.24zM1675.06 307.24L1687.19 314.24L1687.19 328.24L1675.06 335.24L1662.94 328.24L1662.94 314.24zM1662.94 412.24L1675.06 419.24L1675.06 433.24L1662.94 440.24L1650.81 433.24L1650.81 419.24zM1662.94 622.24L1675.06 629.24L1675.06 643.24L1662.94 650.24L1650.81 643.24L1650.81 629.24zM1675.06 811.24L1687.19 818.24L1687.19 832.24L1675.06 839.24L1662.94 832.24L1662.94 818.24zM1662.94 832.24L1675.06 839.24L1675.06 853.24L1662.94 860.24L1650.81 853.24L1650.81 839.24zM1662.94 958.24L1675.06 965.24L1675.06 979.24L1662.94 986.24L1650.81 979.24L1650.81 965.24zM1675.06 1063.24L1687.19 1070.24L1687.19 1084.24L1675.06 1091.24L1662.94 1084.24L1662.94 1070.24zM1699.31 13.24L1711.44 20.24L1711.44 34.24L1699.31 41.24L1687.19 34.24L1687.19 20.24zM1687.19 328.24L1699.31 335.24L1699.31 349.24L1687.19 356.24L1675.06 349.24L1675.06 335.24zM1687.19 454.24L1699.31 461.24L1699.31 475.24L1687.19 482.24L1675.06 475.24L1675.06 461.24zM1699.31 475.24L1711.44 482.24L1711.44 496.24L1699.31 503.24L1687.19 496.24L1687.19 482.24zM1687.19 664.24L1699.31 671.24L1699.31 685.24L1687.19 692.24L1675.06 685.24L1675.06 671.24zM1699.31 685.24L1711.44 692.24L1711.44 706.24L1699.31 713.24L1687.19 706.24L1687.19 692.24zM1687.19 790.24L1699.31 797.24L1699.31 811.24L1687.19 818.24L1675.06 811.24L1675.06 797.24zM1699.31 811.24L1711.44 818.24L1711.44 832.24L1699.31 839.24L1687.19 832.24L1687.19 818.24zM1699.31 979.24L1711.44 986.24L1711.44 1000.24L1699.31 1007.24L1687.19 1000.24L1687.19 986.24zM1699.31 1021.24L1711.44 1028.24L1711.44 1042.24L1699.31 1049.24L1687.19 1042.24L1687.19 1028.24zM1699.31 1063.24L1711.44 1070.24L1711.44 1084.24L1699.31 1091.24L1687.19 1084.24L1687.19 1070.24zM1711.44 118.24L1723.56 125.24L1723.56 139.24L1711.44 146.24L1699.31 139.24L1699.31 125.24zM1711.44 580.24L1723.56 587.24L1723.56 601.24L1711.44 608.24L1699.31 601.24L1699.31 587.24zM1723.56 937.24L1735.69 944.24L1735.69 958.24L1723.56 965.24L1711.44 958.24L1711.44 944.24zM1711.44 958.24L1723.56 965.24L1723.56 979.24L1711.44 986.24L1699.31 979.24L1699.31 965.24zM1723.56 979.24L1735.69 986.24L1735.69 1000.24L1723.56 1007.24L1711.44 1000.24L1711.44 986.24zM1723.56 1021.24L1735.69 1028.24L1735.69 1042.24L1723.56 1049.24L1711.44 1042.24L1711.44 1028.24zM1747.81 97.24L1759.94 104.24L1759.94 118.24L1747.81 125.24L1735.69 118.24L1735.69 104.24zM1747.81 181.24L1759.94 188.24L1759.94 202.24L1747.81 209.24L1735.69 202.24L1735.69 188.24zM1747.81 265.24L1759.94 272.24L1759.94 286.24L1747.81 293.24L1735.69 286.24L1735.69 272.24zM1747.81 433.24L1759.94 440.24L1759.94 454.24L1747.81 461.24L1735.69 454.24L1735.69 440.24zM1735.69 622.24L1747.81 629.24L1747.81 643.24L1735.69 650.24L1723.56 643.24L1723.56 629.24zM1735.69 916.24L1747.81 923.24L1747.81 937.24L1735.69 944.24L1723.56 937.24L1723.56 923.24zM1759.94 76.24L1772.06 83.24L1772.06 97.24L1759.94 104.24L1747.81 97.24L1747.81 83.24zM1759.94 202.24L1772.06 209.24L1772.06 223.24L1759.94 230.24L1747.81 223.24L1747.81 209.24zM1759.94 244.24L1772.06 251.24L1772.06 265.24L1759.94 272.24L1747.81 265.24L1747.81 251.24zM1772.06 475.24L1784.19 482.24L1784.19 496.24L1772.06 503.24L1759.94 496.24L1759.94 482.24zM1772.06 727.24L1784.19 734.24L1784.19 748.24L1772.06 755.24L1759.94 748.24L1759.94 734.24zM1772.06 1021.24L1784.19 1028.24L1784.19 1042.24L1772.06 1049.24L1759.94 1042.24L1759.94 1028.24zM1759.94 1042.24L1772.06 1049.24L1772.06 1063.24L1759.94 1070.24L1747.81 1063.24L1747.81 1049.24zM1784.19 328.24L1796.31 335.24L1796.31 349.24L1784.19 356.24L1772.06 349.24L1772.06 335.24zM1796.31 517.24L1808.44 524.24L1808.44 538.24L1796.31 545.24L1784.19 538.24L1784.19 524.24zM1796.31 559.24L1808.44 566.24L1808.44 580.24L1796.31 587.24L1784.19 580.24L1784.19 566.24zM1820.56 139.24L1832.69 146.24L1832.69 160.24L1820.56 167.24L1808.44 160.24L1808.44 146.24zM1820.56 223.24L1832.69 230.24L1832.69 244.24L1820.56 251.24L1808.44 244.24L1808.44 230.24zM1820.56 433.24L1832.69 440.24L1832.69 454.24L1820.56 461.24L1808.44 454.24L1808.44 440.24zM1808.44 538.24L1820.56 545.24L1820.56 559.24L1808.44 566.24L1796.31 559.24L1796.31 545.24zM1808.44 664.24L1820.56 671.24L1820.56 685.24L1808.44 692.24L1796.31 685.24L1796.31 671.24zM1808.44 790.24L1820.56 797.24L1820.56 811.24L1808.44 818.24L1796.31 811.24L1796.31 797.24zM1820.56 1021.24L1832.69 1028.24L1832.69 1042.24L1820.56 1049.24L1808.44 1042.24L1808.44 1028.24zM1844.81 13.24L1856.93 20.24L1856.93 34.24L1844.81 41.24L1832.69 34.24L1832.69 20.24zM1832.69 160.24L1844.81 167.24L1844.81 181.24L1832.69 188.24L1820.56 181.24L1820.56 167.24zM1844.81 223.24L1856.93 230.24L1856.93 244.24L1844.81 251.24L1832.69 244.24L1832.69 230.24zM1844.81 349.24L1856.93 356.24L1856.93 370.24L1844.81 377.24L1832.69 370.24L1832.69 356.24zM1832.69 412.24L1844.81 419.24L1844.81 433.24L1832.69 440.24L1820.56 433.24L1820.56 419.24zM1832.69 622.24L1844.81 629.24L1844.81 643.24L1832.69 650.24L1820.56 643.24L1820.56 629.24zM1869.06 55.24L1881.18 62.24L1881.18 76.24L1869.06 83.24L1856.93 76.24L1856.93 62.24zM1856.93 118.24L1869.06 125.24L1869.06 139.24L1856.93 146.24L1844.81 139.24L1844.81 125.24zM1856.93 202.24L1869.06 209.24L1869.06 223.24L1856.93 230.24L1844.81 223.24L1844.81 209.24zM1869.06 391.24L1881.18 398.24L1881.18 412.24L1869.06 419.24L1856.93 412.24L1856.93 398.24zM1856.93 580.24L1869.06 587.24L1869.06 601.24L1856.93 608.24L1844.81 601.24L1844.81 587.24zM1856.93 958.24L1869.06 965.24L1869.06 979.24L1856.93 986.24L1844.81 979.24L1844.81 965.24zM1881.18 -7.76L1893.31 -0.76L1893.31 13.24L1881.18 20.24L1869.06 13.24L1869.06 -0.76zM1893.31 391.24L1905.43 398.24L1905.43 412.24L1893.31 419.24L1881.18 412.24L1881.18 398.24zM1881.18 622.24L1893.31 629.24L1893.31 643.24L1881.18 650.24L1869.06 643.24L1869.06 629.24zM1893.31 643.24L1905.43 650.24L1905.43 664.24L1893.31 671.24L1881.18 664.24L1881.18 650.24zM1881.18 790.24L1893.31 797.24L1893.31 811.24L1881.18 818.24L1869.06 811.24L1869.06 797.24zM1881.18 916.24L1893.31 923.24L1893.31 937.24L1881.18 944.24L1869.06 937.24L1869.06 923.24zM1917.56 265.24L1929.68 272.24L1929.68 286.24L1917.56 293.24L1905.43 286.24L1905.43 272.24zM1905.43 328.24L1917.56 335.24L1917.56 349.24L1905.43 356.24L1893.31 349.24L1893.31 335.24zM1905.43 412.24L1917.56 419.24L1917.56 433.24L1905.43 440.24L1893.31 433.24L1893.31 419.24zM1917.56 811.24L1929.68 818.24L1929.68 832.24L1917.56 839.24L1905.43 832.24L1905.43 818.24zM1905.43 958.24L1917.56 965.24L1917.56 979.24L1905.43 986.24L1893.31 979.24L1893.31 965.24zM1929.68 244.24L1941.81 251.24L1941.81 265.24L1929.68 272.24L1917.56 265.24L1917.56 251.24zM1929.68 454.24L1941.81 461.24L1941.81 475.24L1929.68 482.24L1917.56 475.24L1917.56 461.24zM1941.81 559.24L1953.93 566.24L1953.93 580.24L1941.81 587.24L1929.68 580.24L1929.68 566.24z" stroke="rgba(12, 132, 228, 0.05)" stroke-width="2"></path></g><defs><mask id="SvgjsMask1007"><rect width="1920" height="1080" fill="#ffffff"></rect></mask></defs></svg>