<svg width="24" height="24" viewBox="0 0 24 24" fill="none" xmlns="http://www.w3.org/2000/svg">
<path fill-rule="evenodd" clip-rule="evenodd" d="M4.8 5.5C4.07277 5.5 3.5 6.07683 3.5 6.75V17.25C3.5 17.9232 4.07277 18.5 4.8 18.5H19.2C19.9272 18.5 20.5 17.9232 20.5 17.25V6.75C20.5 6.07683 19.9272 5.5 19.2 5.5H4.8ZM2.5 6.75C2.5 5.49817 3.54723 4.5 4.8 4.5H19.2C20.4528 4.5 21.5 5.49817 21.5 6.75V17.25C21.5 18.5018 20.4528 19.5 19.2 19.5H4.8C3.54723 19.5 2.5 18.5018 2.5 17.25V6.75Z" fill="#9DA4BD"/>
<path fill-rule="evenodd" clip-rule="evenodd" d="M3.60003 6.70003C3.76571 6.47912 4.07912 6.43434 4.30003 6.60003L12 12.375L19.7 6.60003C19.9209 6.43434 20.2343 6.47912 20.4 6.70003C20.5657 6.92094 20.5209 7.23434 20.3 7.40003L12.3 13.4C12.1223 13.5334 11.8778 13.5334 11.7 13.4L3.70003 7.40003C3.47912 7.23434 3.43434 6.92094 3.60003 6.70003Z" fill="#9DA4BD"/>
</svg>
