<svg xmlns="http://www.w3.org/2000/svg" version="1.1" xmlns:xlink="http://www.w3.org/1999/xlink" xmlns:svgjs="http://svgjs.com/svgjs" width="600" height="600" preserveAspectRatio="none" viewBox="0 0 600 600"><g mask="url(&quot;#SvgjsMask1018&quot;)" fill="none"><g mask="url(&quot;#SvgjsMask1019&quot;)"><path d="M442.5 502.5L352.5 592.5L277.5 592.5L157.5 472.5" stroke-width="2.5" stroke="rgba(58, 124, 195, 0.05)"></path><path d="M438.75 502.5 a3.75 3.75 0 1 0 7.5 0 a3.75 3.75 0 1 0 -7.5 0zM153.75 472.5 a3.75 3.75 0 1 0 7.5 0 a3.75 3.75 0 1 0 -7.5 0z" fill="rgba(58, 124, 195, 0.05)"></path><path d="M157.5 412.5L442.5 412.5" stroke-width="2.5" stroke="rgba(58, 124, 195, 0.05)"></path><path d="M153.75 412.5 a3.75 3.75 0 1 0 7.5 0 a3.75 3.75 0 1 0 -7.5 0zM438.75 412.5 a3.75 3.75 0 1 0 7.5 0 a3.75 3.75 0 1 0 -7.5 0z" fill="rgba(58, 124, 195, 0.05)"></path><path d="M412.5 562.5L412.5 592.5" stroke-width="2.5" stroke="rgba(58, 124, 195, 0.05)"></path><path d="M408.75 562.5 a3.75 3.75 0 1 0 7.5 0 a3.75 3.75 0 1 0 -7.5 0zM408.75 592.5 a3.75 3.75 0 1 0 7.5 0 a3.75 3.75 0 1 0 -7.5 0z" fill="rgba(58, 124, 195, 0.05)"></path><path d="M547.5 37.5L502.5 82.5L427.5 82.5L397.5 52.5L397.5 7.5" stroke-width="2.5" stroke="rgba(58, 124, 195, 0.05)"></path><path d="M543.75 37.5 a3.75 3.75 0 1 0 7.5 0 a3.75 3.75 0 1 0 -7.5 0zM393.75 7.5 a3.75 3.75 0 1 0 7.5 0 a3.75 3.75 0 1 0 -7.5 0z" fill="rgba(58, 124, 195, 0.05)"></path><path d="M247.5 322.5L202.5 367.5L202.5 397.5" stroke-width="2.5" stroke="rgba(58, 124, 195, 0.05)"></path><path d="M243.75 322.5 a3.75 3.75 0 1 0 7.5 0 a3.75 3.75 0 1 0 -7.5 0zM198.75 397.5 a3.75 3.75 0 1 0 7.5 0 a3.75 3.75 0 1 0 -7.5 0z" fill="rgba(58, 124, 195, 0.05)"></path><path d="M502.5 217.5L592.5 127.5L592.5 7.5" stroke-width="2.5" stroke="rgba(58, 124, 195, 0.05)"></path><path d="M498.75 217.5 a3.75 3.75 0 1 0 7.5 0 a3.75 3.75 0 1 0 -7.5 0zM588.75 7.5 a3.75 3.75 0 1 0 7.5 0 a3.75 3.75 0 1 0 -7.5 0z" fill="rgba(58, 124, 195, 0.05)"></path><path d="M82.5 592.5L7.5 592.5" stroke-width="2.5" stroke="rgba(58, 124, 195, 0.05)"></path><path d="M78.75 592.5 a3.75 3.75 0 1 0 7.5 0 a3.75 3.75 0 1 0 -7.5 0zM3.75 592.5 a3.75 3.75 0 1 0 7.5 0 a3.75 3.75 0 1 0 -7.5 0z" fill="rgba(58, 124, 195, 0.05)"></path><path d="M262.5 277.5L262.5 7.5" stroke-width="2.5" stroke="rgba(58, 124, 195, 0.05)"></path><path d="M258.75 277.5 a3.75 3.75 0 1 0 7.5 0 a3.75 3.75 0 1 0 -7.5 0zM258.75 7.5 a3.75 3.75 0 1 0 7.5 0 a3.75 3.75 0 1 0 -7.5 0z" fill="rgba(58, 124, 195, 0.05)"></path><path d="M97.5 322.5L97.5 307.5L7.5 217.5L7.5 37.5" stroke-width="2.5" stroke="rgba(58, 124, 195, 0.05)"></path><path d="M93.75 322.5 a3.75 3.75 0 1 0 7.5 0 a3.75 3.75 0 1 0 -7.5 0zM3.75 37.5 a3.75 3.75 0 1 0 7.5 0 a3.75 3.75 0 1 0 -7.5 0z" fill="rgba(58, 124, 195, 0.05)"></path><path d="M232.5 487.5L322.5 577.5L352.5 577.5L517.5 412.5" stroke-width="2.5" stroke="rgba(58, 124, 195, 0.05)"></path><path d="M228.75 487.5 a3.75 3.75 0 1 0 7.5 0 a3.75 3.75 0 1 0 -7.5 0zM513.75 412.5 a3.75 3.75 0 1 0 7.5 0 a3.75 3.75 0 1 0 -7.5 0z" fill="rgba(58, 124, 195, 0.05)"></path><path d="M322.5 427.5L367.5 472.5L442.5 472.5L592.5 322.5L592.5 307.5" stroke-width="2.5" stroke="rgba(58, 124, 195, 0.05)"></path><path d="M318.75 427.5 a3.75 3.75 0 1 0 7.5 0 a3.75 3.75 0 1 0 -7.5 0zM588.75 307.5 a3.75 3.75 0 1 0 7.5 0 a3.75 3.75 0 1 0 -7.5 0z" fill="rgba(58, 124, 195, 0.05)"></path><path d="M52.5 442.5L202.5 442.5L217.5 427.5L262.5 427.5L337.5 502.5" stroke-width="2.5" stroke="rgba(58, 124, 195, 0.05)"></path><path d="M48.75 442.5 a3.75 3.75 0 1 0 7.5 0 a3.75 3.75 0 1 0 -7.5 0zM333.75 502.5 a3.75 3.75 0 1 0 7.5 0 a3.75 3.75 0 1 0 -7.5 0z" fill="rgba(58, 124, 195, 0.05)"></path><path d="M187.5 487.5L157.5 457.5L7.5 457.5" stroke-width="2.5" stroke="rgba(58, 124, 195, 0.05)"></path><path d="M183.75 487.5 a3.75 3.75 0 1 0 7.5 0 a3.75 3.75 0 1 0 -7.5 0zM3.75 457.5 a3.75 3.75 0 1 0 7.5 0 a3.75 3.75 0 1 0 -7.5 0z" fill="rgba(58, 124, 195, 0.05)"></path><path d="M532.5 337.5L457.5 412.5L457.5 442.5L442.5 457.5L367.5 457.5L337.5 427.5" stroke-width="2.5" stroke="rgba(58, 124, 195, 0.05)"></path><path d="M528.75 337.5 a3.75 3.75 0 1 0 7.5 0 a3.75 3.75 0 1 0 -7.5 0zM333.75 427.5 a3.75 3.75 0 1 0 7.5 0 a3.75 3.75 0 1 0 -7.5 0z" fill="rgba(58, 124, 195, 0.05)"></path><path d="M547.5 112.5L517.5 82.5" stroke-width="2.5" stroke="rgba(58, 124, 195, 0.05)"></path><path d="M543.75 112.5 a3.75 3.75 0 1 0 7.5 0 a3.75 3.75 0 1 0 -7.5 0zM513.75 82.5 a3.75 3.75 0 1 0 7.5 0 a3.75 3.75 0 1 0 -7.5 0z" fill="rgba(58, 124, 195, 0.05)"></path><path d="M247.5 367.5L247.5 337.5L262.5 322.5L277.5 322.5L352.5 397.5L367.5 397.5L487.5 277.5L487.5 262.5" stroke-width="2.5" stroke="rgba(58, 124, 195, 0.05)"></path><path d="M243.75 367.5 a3.75 3.75 0 1 0 7.5 0 a3.75 3.75 0 1 0 -7.5 0zM483.75 262.5 a3.75 3.75 0 1 0 7.5 0 a3.75 3.75 0 1 0 -7.5 0z" fill="rgba(58, 124, 195, 0.05)"></path><path d="M442.5 172.5L382.5 112.5L382.5 7.5" stroke-width="2.5" stroke="rgba(58, 124, 195, 0.05)"></path><path d="M438.75 172.5 a3.75 3.75 0 1 0 7.5 0 a3.75 3.75 0 1 0 -7.5 0zM378.75 7.5 a3.75 3.75 0 1 0 7.5 0 a3.75 3.75 0 1 0 -7.5 0z" fill="rgba(58, 124, 195, 0.05)"></path><path d="M427.5 7.5L427.5 67.5" stroke-width="2.5" stroke="rgba(58, 124, 195, 0.05)"></path><path d="M423.75 7.5 a3.75 3.75 0 1 0 7.5 0 a3.75 3.75 0 1 0 -7.5 0zM423.75 67.5 a3.75 3.75 0 1 0 7.5 0 a3.75 3.75 0 1 0 -7.5 0z" fill="rgba(58, 124, 195, 0.05)"></path><path d="M52.5 67.5L112.5 7.5L142.5 7.5L247.5 112.5L247.5 202.5" stroke-width="2.5" stroke="rgba(58, 124, 195, 0.05)"></path><path d="M48.75 67.5 a3.75 3.75 0 1 0 7.5 0 a3.75 3.75 0 1 0 -7.5 0zM243.75 202.5 a3.75 3.75 0 1 0 7.5 0 a3.75 3.75 0 1 0 -7.5 0z" fill="rgba(58, 124, 195, 0.05)"></path><path d="M442.5 562.5L442.5 592.5" stroke-width="2.5" stroke="rgba(58, 124, 195, 0.05)"></path><path d="M438.75 562.5 a3.75 3.75 0 1 0 7.5 0 a3.75 3.75 0 1 0 -7.5 0zM438.75 592.5 a3.75 3.75 0 1 0 7.5 0 a3.75 3.75 0 1 0 -7.5 0z" fill="rgba(58, 124, 195, 0.05)"></path><path d="M562.5 262.5L427.5 397.5L382.5 397.5" stroke-width="2.5" stroke="rgba(58, 124, 195, 0.05)"></path><path d="M558.75 262.5 a3.75 3.75 0 1 0 7.5 0 a3.75 3.75 0 1 0 -7.5 0zM378.75 397.5 a3.75 3.75 0 1 0 7.5 0 a3.75 3.75 0 1 0 -7.5 0z" fill="rgba(58, 124, 195, 0.05)"></path><path d="M352.5 502.5L352.5 562.5" stroke-width="2.5" stroke="rgba(58, 124, 195, 0.05)"></path><path d="M348.75 502.5 a3.75 3.75 0 1 0 7.5 0 a3.75 3.75 0 1 0 -7.5 0zM348.75 562.5 a3.75 3.75 0 1 0 7.5 0 a3.75 3.75 0 1 0 -7.5 0z" fill="rgba(58, 124, 195, 0.05)"></path><path d="M232.5 247.5L187.5 292.5L187.5 307.5L67.5 427.5L7.5 427.5" stroke-width="2.5" stroke="rgba(58, 124, 195, 0.05)"></path><path d="M228.75 247.5 a3.75 3.75 0 1 0 7.5 0 a3.75 3.75 0 1 0 -7.5 0zM3.75 427.5 a3.75 3.75 0 1 0 7.5 0 a3.75 3.75 0 1 0 -7.5 0z" fill="rgba(58, 124, 195, 0.05)"></path><path d="M67.5 247.5L67.5 262.5L142.5 337.5" stroke-width="2.5" stroke="rgba(58, 124, 195, 0.05)"></path><path d="M63.75 247.5 a3.75 3.75 0 1 0 7.5 0 a3.75 3.75 0 1 0 -7.5 0zM138.75 337.5 a3.75 3.75 0 1 0 7.5 0 a3.75 3.75 0 1 0 -7.5 0z" fill="rgba(58, 124, 195, 0.05)"></path><path d="M82.5 337.5L7.5 262.5L7.5 232.5" stroke-width="2.5" stroke="rgba(58, 124, 195, 0.05)"></path><path d="M78.75 337.5 a3.75 3.75 0 1 0 7.5 0 a3.75 3.75 0 1 0 -7.5 0zM3.75 232.5 a3.75 3.75 0 1 0 7.5 0 a3.75 3.75 0 1 0 -7.5 0z" fill="rgba(58, 124, 195, 0.05)"></path><path d="M247.5 517.5L307.5 577.5" stroke-width="2.5" stroke="rgba(58, 124, 195, 0.05)"></path><path d="M243.75 517.5 a3.75 3.75 0 1 0 7.5 0 a3.75 3.75 0 1 0 -7.5 0zM303.75 577.5 a3.75 3.75 0 1 0 7.5 0 a3.75 3.75 0 1 0 -7.5 0z" fill="rgba(58, 124, 195, 0.05)"></path><path d="M517.5 592.5L592.5 592.5" stroke-width="2.5" stroke="rgba(58, 124, 195, 0.05)"></path><path d="M513.75 592.5 a3.75 3.75 0 1 0 7.5 0 a3.75 3.75 0 1 0 -7.5 0zM588.75 592.5 a3.75 3.75 0 1 0 7.5 0 a3.75 3.75 0 1 0 -7.5 0z" fill="rgba(58, 124, 195, 0.05)"></path><path d="M172.5 172.5L22.5 172.5" stroke-width="2.5" stroke="rgba(58, 124, 195, 0.05)"></path><path d="M168.75 172.5 a3.75 3.75 0 1 0 7.5 0 a3.75 3.75 0 1 0 -7.5 0zM18.75 172.5 a3.75 3.75 0 1 0 7.5 0 a3.75 3.75 0 1 0 -7.5 0z" fill="rgba(58, 124, 195, 0.05)"></path><path d="M82.5 577.5L157.5 502.5L172.5 502.5L262.5 592.5" stroke-width="2.5" stroke="rgba(58, 124, 195, 0.05)"></path><path d="M78.75 577.5 a3.75 3.75 0 1 0 7.5 0 a3.75 3.75 0 1 0 -7.5 0zM258.75 592.5 a3.75 3.75 0 1 0 7.5 0 a3.75 3.75 0 1 0 -7.5 0z" fill="rgba(58, 124, 195, 0.05)"></path><path d="M412.5 277.5L412.5 157.5L307.5 52.5L277.5 52.5" stroke-width="2.5" stroke="rgba(58, 124, 195, 0.05)"></path><path d="M408.75 277.5 a3.75 3.75 0 1 0 7.5 0 a3.75 3.75 0 1 0 -7.5 0zM273.75 52.5 a3.75 3.75 0 1 0 7.5 0 a3.75 3.75 0 1 0 -7.5 0z" fill="rgba(58, 124, 195, 0.05)"></path><path d="M127.5 202.5L127.5 307.5L142.5 322.5L157.5 322.5L172.5 307.5L172.5 202.5L157.5 187.5L142.5 187.5" stroke-width="2.5" stroke="rgba(58, 124, 195, 0.05)"></path><path d="M123.75 202.5 a3.75 3.75 0 1 0 7.5 0 a3.75 3.75 0 1 0 -7.5 0zM138.75 187.5 a3.75 3.75 0 1 0 7.5 0 a3.75 3.75 0 1 0 -7.5 0z" fill="rgba(58, 124, 195, 0.05)"></path><path d="M37.5 562.5L22.5 577.5L7.5 577.5" stroke-width="2.5" stroke="rgba(58, 124, 195, 0.05)"></path><path d="M33.75 562.5 a3.75 3.75 0 1 0 7.5 0 a3.75 3.75 0 1 0 -7.5 0zM3.75 577.5 a3.75 3.75 0 1 0 7.5 0 a3.75 3.75 0 1 0 -7.5 0z" fill="rgba(58, 124, 195, 0.05)"></path><path d="M562.5 127.5L562.5 82.5L577.5 67.5L577.5 7.5" stroke-width="2.5" stroke="rgba(58, 124, 195, 0.05)"></path><path d="M558.75 127.5 a3.75 3.75 0 1 0 7.5 0 a3.75 3.75 0 1 0 -7.5 0zM573.75 7.5 a3.75 3.75 0 1 0 7.5 0 a3.75 3.75 0 1 0 -7.5 0z" fill="rgba(58, 124, 195, 0.05)"></path><path d="M97.5 67.5L97.5 37.5L112.5 22.5L142.5 22.5L232.5 112.5L232.5 232.5" stroke-width="2.5" stroke="rgba(58, 124, 195, 0.05)"></path><path d="M93.75 67.5 a3.75 3.75 0 1 0 7.5 0 a3.75 3.75 0 1 0 -7.5 0zM228.75 232.5 a3.75 3.75 0 1 0 7.5 0 a3.75 3.75 0 1 0 -7.5 0z" fill="rgba(58, 124, 195, 0.05)"></path><path d="M202.5 172.5L202.5 262.5L187.5 277.5" stroke-width="2.5" stroke="rgba(58, 124, 195, 0.05)"></path><path d="M198.75 172.5 a3.75 3.75 0 1 0 7.5 0 a3.75 3.75 0 1 0 -7.5 0zM183.75 277.5 a3.75 3.75 0 1 0 7.5 0 a3.75 3.75 0 1 0 -7.5 0z" fill="rgba(58, 124, 195, 0.05)"></path><path d="M307.5 322.5L307.5 337.5L352.5 382.5L367.5 382.5L442.5 307.5L442.5 217.5L457.5 202.5L457.5 187.5L472.5 172.5" stroke-width="2.5" stroke="rgba(58, 124, 195, 0.05)"></path><path d="M303.75 322.5 a3.75 3.75 0 1 0 7.5 0 a3.75 3.75 0 1 0 -7.5 0zM468.75 172.5 a3.75 3.75 0 1 0 7.5 0 a3.75 3.75 0 1 0 -7.5 0z" fill="rgba(58, 124, 195, 0.05)"></path><path d="M322.5 292.5L292.5 322.5" stroke-width="2.5" stroke="rgba(58, 124, 195, 0.05)"></path><path d="M318.75 292.5 a3.75 3.75 0 1 0 7.5 0 a3.75 3.75 0 1 0 -7.5 0zM288.75 322.5 a3.75 3.75 0 1 0 7.5 0 a3.75 3.75 0 1 0 -7.5 0z" fill="rgba(58, 124, 195, 0.05)"></path><path d="M22.5 337.5L67.5 337.5L97.5 367.5L112.5 367.5L127.5 352.5L127.5 337.5L112.5 322.5" stroke-width="2.5" stroke="rgba(58, 124, 195, 0.05)"></path><path d="M18.75 337.5 a3.75 3.75 0 1 0 7.5 0 a3.75 3.75 0 1 0 -7.5 0zM108.75 322.5 a3.75 3.75 0 1 0 7.5 0 a3.75 3.75 0 1 0 -7.5 0z" fill="rgba(58, 124, 195, 0.05)"></path><path d="M562.5 562.5L562.5 397.5L547.5 382.5" stroke-width="2.5" stroke="rgba(58, 124, 195, 0.05)"></path><path d="M558.75 562.5 a3.75 3.75 0 1 0 7.5 0 a3.75 3.75 0 1 0 -7.5 0zM543.75 382.5 a3.75 3.75 0 1 0 7.5 0 a3.75 3.75 0 1 0 -7.5 0z" fill="rgba(58, 124, 195, 0.05)"></path><path d="M7.5 337.5L67.5 397.5L67.5 412.5" stroke-width="2.5" stroke="rgba(58, 124, 195, 0.05)"></path><path d="M3.75 337.5 a3.75 3.75 0 1 0 7.5 0 a3.75 3.75 0 1 0 -7.5 0zM63.75 412.5 a3.75 3.75 0 1 0 7.5 0 a3.75 3.75 0 1 0 -7.5 0z" fill="rgba(58, 124, 195, 0.05)"></path><path d="M472.5 22.5L487.5 22.5L517.5 52.5" stroke-width="2.5" stroke="rgba(58, 124, 195, 0.05)"></path><path d="M468.75 22.5 a3.75 3.75 0 1 0 7.5 0 a3.75 3.75 0 1 0 -7.5 0zM513.75 52.5 a3.75 3.75 0 1 0 7.5 0 a3.75 3.75 0 1 0 -7.5 0z" fill="rgba(58, 124, 195, 0.05)"></path><path d="M457.5 562.5L487.5 592.5L502.5 592.5L547.5 547.5L547.5 487.5L517.5 457.5L517.5 427.5L532.5 412.5L532.5 397.5" stroke-width="2.5" stroke="rgba(58, 124, 195, 0.05)"></path><path d="M453.75 562.5 a3.75 3.75 0 1 0 7.5 0 a3.75 3.75 0 1 0 -7.5 0zM528.75 397.5 a3.75 3.75 0 1 0 7.5 0 a3.75 3.75 0 1 0 -7.5 0z" fill="rgba(58, 124, 195, 0.05)"></path><path d="M187.5 397.5L112.5 397.5L82.5 427.5" stroke-width="2.5" stroke="rgba(58, 124, 195, 0.05)"></path><path d="M183.75 397.5 a3.75 3.75 0 1 0 7.5 0 a3.75 3.75 0 1 0 -7.5 0zM78.75 427.5 a3.75 3.75 0 1 0 7.5 0 a3.75 3.75 0 1 0 -7.5 0z" fill="rgba(58, 124, 195, 0.05)"></path><path d="M487.5 307.5L472.5 307.5L397.5 382.5" stroke-width="2.5" stroke="rgba(58, 124, 195, 0.05)"></path><path d="M483.75 307.5 a3.75 3.75 0 1 0 7.5 0 a3.75 3.75 0 1 0 -7.5 0zM393.75 382.5 a3.75 3.75 0 1 0 7.5 0 a3.75 3.75 0 1 0 -7.5 0z" fill="rgba(58, 124, 195, 0.05)"></path><path d="M367.5 592.5L397.5 592.5" stroke-width="2.5" stroke="rgba(58, 124, 195, 0.05)"></path><path d="M363.75 592.5 a3.75 3.75 0 1 0 7.5 0 a3.75 3.75 0 1 0 -7.5 0zM393.75 592.5 a3.75 3.75 0 1 0 7.5 0 a3.75 3.75 0 1 0 -7.5 0z" fill="rgba(58, 124, 195, 0.05)"></path><path d="M247.5 397.5L292.5 352.5" stroke-width="2.5" stroke="rgba(58, 124, 195, 0.05)"></path><path d="M243.75 397.5 a3.75 3.75 0 1 0 7.5 0 a3.75 3.75 0 1 0 -7.5 0zM288.75 352.5 a3.75 3.75 0 1 0 7.5 0 a3.75 3.75 0 1 0 -7.5 0z" fill="rgba(58, 124, 195, 0.05)"></path><path d="M142.5 82.5L142.5 67.5L112.5 37.5" stroke-width="2.5" stroke="rgba(58, 124, 195, 0.05)"></path><path d="M138.75 82.5 a3.75 3.75 0 1 0 7.5 0 a3.75 3.75 0 1 0 -7.5 0zM108.75 37.5 a3.75 3.75 0 1 0 7.5 0 a3.75 3.75 0 1 0 -7.5 0z" fill="rgba(58, 124, 195, 0.05)"></path><path d="M307.5 202.5L307.5 67.5" stroke-width="2.5" stroke="rgba(58, 124, 195, 0.05)"></path><path d="M303.75 202.5 a3.75 3.75 0 1 0 7.5 0 a3.75 3.75 0 1 0 -7.5 0zM303.75 67.5 a3.75 3.75 0 1 0 7.5 0 a3.75 3.75 0 1 0 -7.5 0z" fill="rgba(58, 124, 195, 0.05)"></path><path d="M202.5 127.5L202.5 142.5L187.5 157.5L112.5 157.5L52.5 97.5L22.5 97.5" stroke-width="2.5" stroke="rgba(58, 124, 195, 0.05)"></path><path d="M198.75 127.5 a3.75 3.75 0 1 0 7.5 0 a3.75 3.75 0 1 0 -7.5 0zM18.75 97.5 a3.75 3.75 0 1 0 7.5 0 a3.75 3.75 0 1 0 -7.5 0z" fill="rgba(58, 124, 195, 0.05)"></path><path d="M67.5 487.5L7.5 487.5" stroke-width="2.5" stroke="rgba(58, 124, 195, 0.05)"></path><path d="M63.75 487.5 a3.75 3.75 0 1 0 7.5 0 a3.75 3.75 0 1 0 -7.5 0zM3.75 487.5 a3.75 3.75 0 1 0 7.5 0 a3.75 3.75 0 1 0 -7.5 0z" fill="rgba(58, 124, 195, 0.05)"></path><path d="M307.5 22.5L292.5 7.5L277.5 7.5" stroke-width="2.5" stroke="rgba(58, 124, 195, 0.05)"></path><path d="M303.75 22.5 a3.75 3.75 0 1 0 7.5 0 a3.75 3.75 0 1 0 -7.5 0zM273.75 7.5 a3.75 3.75 0 1 0 7.5 0 a3.75 3.75 0 1 0 -7.5 0z" fill="rgba(58, 124, 195, 0.05)"></path><path d="M7.5 22.5L22.5 7.5L97.5 7.5" stroke-width="2.5" stroke="rgba(58, 124, 195, 0.05)"></path><path d="M3.75 22.5 a3.75 3.75 0 1 0 7.5 0 a3.75 3.75 0 1 0 -7.5 0zM93.75 7.5 a3.75 3.75 0 1 0 7.5 0 a3.75 3.75 0 1 0 -7.5 0z" fill="rgba(58, 124, 195, 0.05)"></path><path d="M442.5 367.5L442.5 352.5L472.5 322.5L487.5 322.5" stroke-width="2.5" stroke="rgba(58, 124, 195, 0.05)"></path><path d="M438.75 367.5 a3.75 3.75 0 1 0 7.5 0 a3.75 3.75 0 1 0 -7.5 0zM483.75 322.5 a3.75 3.75 0 1 0 7.5 0 a3.75 3.75 0 1 0 -7.5 0z" fill="rgba(58, 124, 195, 0.05)"></path><path d="M352.5 217.5L322.5 187.5L322.5 157.5L352.5 127.5L367.5 127.5L397.5 157.5L397.5 307.5" stroke-width="2.5" stroke="rgba(58, 124, 195, 0.05)"></path><path d="M348.75 217.5 a3.75 3.75 0 1 0 7.5 0 a3.75 3.75 0 1 0 -7.5 0zM393.75 307.5 a3.75 3.75 0 1 0 7.5 0 a3.75 3.75 0 1 0 -7.5 0z" fill="rgba(58, 124, 195, 0.05)"></path><path d="M157.5 547.5L157.5 562.5L127.5 592.5L97.5 592.5" stroke-width="2.5" stroke="rgba(58, 124, 195, 0.05)"></path><path d="M153.75 547.5 a3.75 3.75 0 1 0 7.5 0 a3.75 3.75 0 1 0 -7.5 0zM93.75 592.5 a3.75 3.75 0 1 0 7.5 0 a3.75 3.75 0 1 0 -7.5 0z" fill="rgba(58, 124, 195, 0.05)"></path><path d="M367.5 232.5L382.5 217.5L382.5 157.5L367.5 142.5L352.5 142.5L337.5 157.5L337.5 187.5L367.5 217.5" stroke-width="2.5" stroke="rgba(58, 124, 195, 0.05)"></path><path d="M363.75 232.5 a3.75 3.75 0 1 0 7.5 0 a3.75 3.75 0 1 0 -7.5 0zM363.75 217.5 a3.75 3.75 0 1 0 7.5 0 a3.75 3.75 0 1 0 -7.5 0z" fill="rgba(58, 124, 195, 0.05)"></path><path d="M97.5 517.5L37.5 577.5" stroke-width="2.5" stroke="rgba(58, 124, 195, 0.05)"></path><path d="M93.75 517.5 a3.75 3.75 0 1 0 7.5 0 a3.75 3.75 0 1 0 -7.5 0zM33.75 577.5 a3.75 3.75 0 1 0 7.5 0 a3.75 3.75 0 1 0 -7.5 0z" fill="rgba(58, 124, 195, 0.05)"></path><path d="M382.5 517.5L397.5 517.5L427.5 487.5" stroke-width="2.5" stroke="rgba(58, 124, 195, 0.05)"></path><path d="M378.75 517.5 a3.75 3.75 0 1 0 7.5 0 a3.75 3.75 0 1 0 -7.5 0zM423.75 487.5 a3.75 3.75 0 1 0 7.5 0 a3.75 3.75 0 1 0 -7.5 0z" fill="rgba(58, 124, 195, 0.05)"></path><path d="M97.5 487.5L112.5 502.5L112.5 532.5L82.5 562.5L67.5 562.5L52.5 577.5" stroke-width="2.5" stroke="rgba(58, 124, 195, 0.05)"></path><path d="M93.75 487.5 a3.75 3.75 0 1 0 7.5 0 a3.75 3.75 0 1 0 -7.5 0zM48.75 577.5 a3.75 3.75 0 1 0 7.5 0 a3.75 3.75 0 1 0 -7.5 0z" fill="rgba(58, 124, 195, 0.05)"></path><path d="M307.5 457.5L337.5 487.5L412.5 487.5" stroke-width="2.5" stroke="rgba(58, 124, 195, 0.05)"></path><path d="M303.75 457.5 a3.75 3.75 0 1 0 7.5 0 a3.75 3.75 0 1 0 -7.5 0zM408.75 487.5 a3.75 3.75 0 1 0 7.5 0 a3.75 3.75 0 1 0 -7.5 0z" fill="rgba(58, 124, 195, 0.05)"></path><path d="M67.5 517.5L52.5 502.5L7.5 502.5" stroke-width="2.5" stroke="rgba(58, 124, 195, 0.05)"></path><path d="M63.75 517.5 a3.75 3.75 0 1 0 7.5 0 a3.75 3.75 0 1 0 -7.5 0zM3.75 502.5 a3.75 3.75 0 1 0 7.5 0 a3.75 3.75 0 1 0 -7.5 0z" fill="rgba(58, 124, 195, 0.05)"></path><path d="M562.5 217.5L592.5 217.5" stroke-width="2.5" stroke="rgba(58, 124, 195, 0.05)"></path><path d="M558.75 217.5 a3.75 3.75 0 1 0 7.5 0 a3.75 3.75 0 1 0 -7.5 0zM588.75 217.5 a3.75 3.75 0 1 0 7.5 0 a3.75 3.75 0 1 0 -7.5 0z" fill="rgba(58, 124, 195, 0.05)"></path><path d="M472.5 37.5L472.5 67.5" stroke-width="2.5" stroke="rgba(58, 124, 195, 0.05)"></path><path d="M468.75 37.5 a3.75 3.75 0 1 0 7.5 0 a3.75 3.75 0 1 0 -7.5 0zM468.75 67.5 a3.75 3.75 0 1 0 7.5 0 a3.75 3.75 0 1 0 -7.5 0z" fill="rgba(58, 124, 195, 0.05)"></path><path d="M202.5 547.5L172.5 517.5L157.5 517.5L97.5 577.5" stroke-width="2.5" stroke="rgba(58, 124, 195, 0.05)"></path><path d="M198.75 547.5 a3.75 3.75 0 1 0 7.5 0 a3.75 3.75 0 1 0 -7.5 0zM93.75 577.5 a3.75 3.75 0 1 0 7.5 0 a3.75 3.75 0 1 0 -7.5 0z" fill="rgba(58, 124, 195, 0.05)"></path><path d="M517.5 172.5L457.5 232.5L457.5 292.5" stroke-width="2.5" stroke="rgba(58, 124, 195, 0.05)"></path><path d="M513.75 172.5 a3.75 3.75 0 1 0 7.5 0 a3.75 3.75 0 1 0 -7.5 0zM453.75 292.5 a3.75 3.75 0 1 0 7.5 0 a3.75 3.75 0 1 0 -7.5 0z" fill="rgba(58, 124, 195, 0.05)"></path><path d="M67.5 532.5L52.5 547.5L22.5 547.5L7.5 562.5" stroke-width="2.5" stroke="rgba(58, 124, 195, 0.05)"></path><path d="M63.75 532.5 a3.75 3.75 0 1 0 7.5 0 a3.75 3.75 0 1 0 -7.5 0zM3.75 562.5 a3.75 3.75 0 1 0 7.5 0 a3.75 3.75 0 1 0 -7.5 0z" fill="rgba(58, 124, 195, 0.05)"></path><path d="M187.5 37.5L247.5 37.5" stroke-width="2.5" stroke="rgba(58, 124, 195, 0.05)"></path><path d="M183.75 37.5 a3.75 3.75 0 1 0 7.5 0 a3.75 3.75 0 1 0 -7.5 0zM243.75 37.5 a3.75 3.75 0 1 0 7.5 0 a3.75 3.75 0 1 0 -7.5 0z" fill="rgba(58, 124, 195, 0.05)"></path><path d="M532.5 277.5L502.5 247.5L502.5 232.5L487.5 217.5" stroke-width="2.5" stroke="rgba(58, 124, 195, 0.05)"></path><path d="M528.75 277.5 a3.75 3.75 0 1 0 7.5 0 a3.75 3.75 0 1 0 -7.5 0zM483.75 217.5 a3.75 3.75 0 1 0 7.5 0 a3.75 3.75 0 1 0 -7.5 0z" fill="rgba(58, 124, 195, 0.05)"></path><path d="M52.5 37.5L37.5 22.5L22.5 22.5" stroke-width="2.5" stroke="rgba(58, 124, 195, 0.05)"></path><path d="M48.75 37.5 a3.75 3.75 0 1 0 7.5 0 a3.75 3.75 0 1 0 -7.5 0zM18.75 22.5 a3.75 3.75 0 1 0 7.5 0 a3.75 3.75 0 1 0 -7.5 0z" fill="rgba(58, 124, 195, 0.05)"></path><path d="M112.5 262.5L112.5 292.5" stroke-width="2.5" stroke="rgba(58, 124, 195, 0.05)"></path><path d="M108.75 262.5 a3.75 3.75 0 1 0 7.5 0 a3.75 3.75 0 1 0 -7.5 0zM108.75 292.5 a3.75 3.75 0 1 0 7.5 0 a3.75 3.75 0 1 0 -7.5 0z" fill="rgba(58, 124, 195, 0.05)"></path><path d="M232.5 292.5L247.5 307.5L292.5 307.5L352.5 247.5L382.5 247.5" stroke-width="2.5" stroke="rgba(58, 124, 195, 0.05)"></path><path d="M228.75 292.5 a3.75 3.75 0 1 0 7.5 0 a3.75 3.75 0 1 0 -7.5 0zM378.75 247.5 a3.75 3.75 0 1 0 7.5 0 a3.75 3.75 0 1 0 -7.5 0z" fill="rgba(58, 124, 195, 0.05)"></path><path d="M472.5 127.5L442.5 157.5" stroke-width="2.5" stroke="rgba(58, 124, 195, 0.05)"></path><path d="M468.75 127.5 a3.75 3.75 0 1 0 7.5 0 a3.75 3.75 0 1 0 -7.5 0zM438.75 157.5 a3.75 3.75 0 1 0 7.5 0 a3.75 3.75 0 1 0 -7.5 0z" fill="rgba(58, 124, 195, 0.05)"></path><path d="M322.5 82.5L322.5 142.5" stroke-width="2.5" stroke="rgba(58, 124, 195, 0.05)"></path><path d="M318.75 82.5 a3.75 3.75 0 1 0 7.5 0 a3.75 3.75 0 1 0 -7.5 0zM318.75 142.5 a3.75 3.75 0 1 0 7.5 0 a3.75 3.75 0 1 0 -7.5 0z" fill="rgba(58, 124, 195, 0.05)"></path><path d="M502.5 142.5L547.5 142.5" stroke-width="2.5" stroke="rgba(58, 124, 195, 0.05)"></path><path d="M498.75 142.5 a3.75 3.75 0 1 0 7.5 0 a3.75 3.75 0 1 0 -7.5 0zM543.75 142.5 a3.75 3.75 0 1 0 7.5 0 a3.75 3.75 0 1 0 -7.5 0z" fill="rgba(58, 124, 195, 0.05)"></path><path d="M217.5 142.5L217.5 112.5L142.5 37.5L127.5 37.5" stroke-width="2.5" stroke="rgba(58, 124, 195, 0.05)"></path><path d="M213.75 142.5 a3.75 3.75 0 1 0 7.5 0 a3.75 3.75 0 1 0 -7.5 0zM123.75 37.5 a3.75 3.75 0 1 0 7.5 0 a3.75 3.75 0 1 0 -7.5 0z" fill="rgba(58, 124, 195, 0.05)"></path><path d="M337.5 37.5L367.5 7.5" stroke-width="2.5" stroke="rgba(58, 124, 195, 0.05)"></path><path d="M333.75 37.5 a3.75 3.75 0 1 0 7.5 0 a3.75 3.75 0 1 0 -7.5 0zM363.75 7.5 a3.75 3.75 0 1 0 7.5 0 a3.75 3.75 0 1 0 -7.5 0z" fill="rgba(58, 124, 195, 0.05)"></path><path d="M82.5 67.5L67.5 67.5L52.5 82.5L22.5 82.5" stroke-width="2.5" stroke="rgba(58, 124, 195, 0.05)"></path><path d="M78.75 67.5 a3.75 3.75 0 1 0 7.5 0 a3.75 3.75 0 1 0 -7.5 0zM18.75 82.5 a3.75 3.75 0 1 0 7.5 0 a3.75 3.75 0 1 0 -7.5 0z" fill="rgba(58, 124, 195, 0.05)"></path><path d="M277.5 277.5L277.5 67.5" stroke-width="2.5" stroke="rgba(58, 124, 195, 0.05)"></path><path d="M273.75 277.5 a3.75 3.75 0 1 0 7.5 0 a3.75 3.75 0 1 0 -7.5 0zM273.75 67.5 a3.75 3.75 0 1 0 7.5 0 a3.75 3.75 0 1 0 -7.5 0z" fill="rgba(58, 124, 195, 0.05)"></path><path d="M187.5 472.5L217.5 442.5L262.5 442.5L337.5 517.5L337.5 562.5" stroke-width="2.5" stroke="rgba(58, 124, 195, 0.05)"></path><path d="M183.75 472.5 a3.75 3.75 0 1 0 7.5 0 a3.75 3.75 0 1 0 -7.5 0zM333.75 562.5 a3.75 3.75 0 1 0 7.5 0 a3.75 3.75 0 1 0 -7.5 0z" fill="rgba(58, 124, 195, 0.05)"></path><path d="M472.5 232.5L472.5 277.5" stroke-width="2.5" stroke="rgba(58, 124, 195, 0.05)"></path><path d="M468.75 232.5 a3.75 3.75 0 1 0 7.5 0 a3.75 3.75 0 1 0 -7.5 0zM468.75 277.5 a3.75 3.75 0 1 0 7.5 0 a3.75 3.75 0 1 0 -7.5 0z" fill="rgba(58, 124, 195, 0.05)"></path><path d="M517.5 502.5L517.5 562.5L502.5 577.5L487.5 577.5L442.5 532.5L442.5 517.5L502.5 457.5L502.5 442.5" stroke-width="2.5" stroke="rgba(58, 124, 195, 0.05)"></path><path d="M513.75 502.5 a3.75 3.75 0 1 0 7.5 0 a3.75 3.75 0 1 0 -7.5 0zM498.75 442.5 a3.75 3.75 0 1 0 7.5 0 a3.75 3.75 0 1 0 -7.5 0z" fill="rgba(58, 124, 195, 0.05)"></path><path d="M517.5 337.5L502.5 337.5L442.5 397.5" stroke-width="2.5" stroke="rgba(58, 124, 195, 0.05)"></path><path d="M513.75 337.5 a3.75 3.75 0 1 0 7.5 0 a3.75 3.75 0 1 0 -7.5 0zM438.75 397.5 a3.75 3.75 0 1 0 7.5 0 a3.75 3.75 0 1 0 -7.5 0z" fill="rgba(58, 124, 195, 0.05)"></path><path d="M97.5 82.5L97.5 127.5L112.5 142.5L187.5 142.5" stroke-width="2.5" stroke="rgba(58, 124, 195, 0.05)"></path><path d="M93.75 82.5 a3.75 3.75 0 1 0 7.5 0 a3.75 3.75 0 1 0 -7.5 0zM183.75 142.5 a3.75 3.75 0 1 0 7.5 0 a3.75 3.75 0 1 0 -7.5 0z" fill="rgba(58, 124, 195, 0.05)"></path><path d="M37.5 277.5L37.5 262.5L22.5 247.5" stroke-width="2.5" stroke="rgba(58, 124, 195, 0.05)"></path><path d="M33.75 277.5 a3.75 3.75 0 1 0 7.5 0 a3.75 3.75 0 1 0 -7.5 0zM18.75 247.5 a3.75 3.75 0 1 0 7.5 0 a3.75 3.75 0 1 0 -7.5 0z" fill="rgba(58, 124, 195, 0.05)"></path><path d="M157.5 277.5L157.5 307.5" stroke-width="2.5" stroke="rgba(58, 124, 195, 0.05)"></path><path d="M153.75 277.5 a3.75 3.75 0 1 0 7.5 0 a3.75 3.75 0 1 0 -7.5 0zM153.75 307.5 a3.75 3.75 0 1 0 7.5 0 a3.75 3.75 0 1 0 -7.5 0z" fill="rgba(58, 124, 195, 0.05)"></path><path d="M592.5 292.5L577.5 277.5L577.5 232.5" stroke-width="2.5" stroke="rgba(58, 124, 195, 0.05)"></path><path d="M588.75 292.5 a3.75 3.75 0 1 0 7.5 0 a3.75 3.75 0 1 0 -7.5 0zM573.75 232.5 a3.75 3.75 0 1 0 7.5 0 a3.75 3.75 0 1 0 -7.5 0z" fill="rgba(58, 124, 195, 0.05)"></path><path d="M502.5 397.5L472.5 427.5" stroke-width="2.5" stroke="rgba(58, 124, 195, 0.05)"></path><path d="M498.75 397.5 a3.75 3.75 0 1 0 7.5 0 a3.75 3.75 0 1 0 -7.5 0zM468.75 427.5 a3.75 3.75 0 1 0 7.5 0 a3.75 3.75 0 1 0 -7.5 0z" fill="rgba(58, 124, 195, 0.05)"></path><path d="M457.5 127.5L487.5 97.5L517.5 97.5L532.5 112.5L532.5 127.5" stroke-width="2.5" stroke="rgba(58, 124, 195, 0.05)"></path><path d="M453.75 127.5 a3.75 3.75 0 1 0 7.5 0 a3.75 3.75 0 1 0 -7.5 0zM528.75 127.5 a3.75 3.75 0 1 0 7.5 0 a3.75 3.75 0 1 0 -7.5 0z" fill="rgba(58, 124, 195, 0.05)"></path><path d="M127.5 502.5L97.5 472.5L7.5 472.5" stroke-width="2.5" stroke="rgba(58, 124, 195, 0.05)"></path><path d="M123.75 502.5 a3.75 3.75 0 1 0 7.5 0 a3.75 3.75 0 1 0 -7.5 0zM3.75 472.5 a3.75 3.75 0 1 0 7.5 0 a3.75 3.75 0 1 0 -7.5 0z" fill="rgba(58, 124, 195, 0.05)"></path><path d="M172.5 337.5L127.5 382.5" stroke-width="2.5" stroke="rgba(58, 124, 195, 0.05)"></path><path d="M168.75 337.5 a3.75 3.75 0 1 0 7.5 0 a3.75 3.75 0 1 0 -7.5 0zM123.75 382.5 a3.75 3.75 0 1 0 7.5 0 a3.75 3.75 0 1 0 -7.5 0z" fill="rgba(58, 124, 195, 0.05)"></path><path d="M112.5 247.5L67.5 202.5L67.5 187.5" stroke-width="2.5" stroke="rgba(58, 124, 195, 0.05)"></path><path d="M108.75 247.5 a3.75 3.75 0 1 0 7.5 0 a3.75 3.75 0 1 0 -7.5 0zM63.75 187.5 a3.75 3.75 0 1 0 7.5 0 a3.75 3.75 0 1 0 -7.5 0z" fill="rgba(58, 124, 195, 0.05)"></path><path d="M322.5 337.5L352.5 367.5L367.5 367.5L382.5 352.5L382.5 262.5" stroke-width="2.5" stroke="rgba(58, 124, 195, 0.05)"></path><path d="M318.75 337.5 a3.75 3.75 0 1 0 7.5 0 a3.75 3.75 0 1 0 -7.5 0zM378.75 262.5 a3.75 3.75 0 1 0 7.5 0 a3.75 3.75 0 1 0 -7.5 0z" fill="rgba(58, 124, 195, 0.05)"></path><path d="M202.5 307.5L202.5 352.5L172.5 382.5L142.5 382.5" stroke-width="2.5" stroke="rgba(58, 124, 195, 0.05)"></path><path d="M198.75 307.5 a3.75 3.75 0 1 0 7.5 0 a3.75 3.75 0 1 0 -7.5 0zM138.75 382.5 a3.75 3.75 0 1 0 7.5 0 a3.75 3.75 0 1 0 -7.5 0z" fill="rgba(58, 124, 195, 0.05)"></path><path d="M217.5 52.5L247.5 82.5L247.5 97.5" stroke-width="2.5" stroke="rgba(58, 124, 195, 0.05)"></path><path d="M213.75 52.5 a3.75 3.75 0 1 0 7.5 0 a3.75 3.75 0 1 0 -7.5 0zM243.75 97.5 a3.75 3.75 0 1 0 7.5 0 a3.75 3.75 0 1 0 -7.5 0z" fill="rgba(58, 124, 195, 0.05)"></path><path d="M397.5 97.5L442.5 142.5" stroke-width="2.5" stroke="rgba(58, 124, 195, 0.05)"></path><path d="M393.75 97.5 a3.75 3.75 0 1 0 7.5 0 a3.75 3.75 0 1 0 -7.5 0zM438.75 142.5 a3.75 3.75 0 1 0 7.5 0 a3.75 3.75 0 1 0 -7.5 0z" fill="rgba(58, 124, 195, 0.05)"></path><path d="M547.5 217.5L562.5 232.5L562.5 247.5L547.5 262.5L532.5 262.5L517.5 247.5L517.5 217.5L532.5 202.5L592.5 202.5" stroke-width="2.5" stroke="rgba(58, 124, 195, 0.05)"></path><path d="M543.75 217.5 a3.75 3.75 0 1 0 7.5 0 a3.75 3.75 0 1 0 -7.5 0zM588.75 202.5 a3.75 3.75 0 1 0 7.5 0 a3.75 3.75 0 1 0 -7.5 0z" fill="rgba(58, 124, 195, 0.05)"></path><path d="M262.5 292.5L292.5 292.5L352.5 232.5" stroke-width="2.5" stroke="rgba(58, 124, 195, 0.05)"></path><path d="M258.75 292.5 a3.75 3.75 0 1 0 7.5 0 a3.75 3.75 0 1 0 -7.5 0zM348.75 232.5 a3.75 3.75 0 1 0 7.5 0 a3.75 3.75 0 1 0 -7.5 0z" fill="rgba(58, 124, 195, 0.05)"></path><path d="M127.5 97.5L157.5 127.5L187.5 127.5L202.5 112.5" stroke-width="2.5" stroke="rgba(58, 124, 195, 0.05)"></path><path d="M123.75 97.5 a3.75 3.75 0 1 0 7.5 0 a3.75 3.75 0 1 0 -7.5 0zM198.75 112.5 a3.75 3.75 0 1 0 7.5 0 a3.75 3.75 0 1 0 -7.5 0z" fill="rgba(58, 124, 195, 0.05)"></path><path d="M172.5 592.5L187.5 592.5L217.5 562.5" stroke-width="2.5" stroke="rgba(58, 124, 195, 0.05)"></path><path d="M168.75 592.5 a3.75 3.75 0 1 0 7.5 0 a3.75 3.75 0 1 0 -7.5 0zM213.75 562.5 a3.75 3.75 0 1 0 7.5 0 a3.75 3.75 0 1 0 -7.5 0z" fill="rgba(58, 124, 195, 0.05)"></path><path d="M517.5 367.5L562.5 322.5L562.5 277.5" stroke-width="2.5" stroke="rgba(58, 124, 195, 0.05)"></path><path d="M513.75 367.5 a3.75 3.75 0 1 0 7.5 0 a3.75 3.75 0 1 0 -7.5 0zM558.75 277.5 a3.75 3.75 0 1 0 7.5 0 a3.75 3.75 0 1 0 -7.5 0z" fill="rgba(58, 124, 195, 0.05)"></path><path d="M142.5 502.5L112.5 472.5" stroke-width="2.5" stroke="rgba(58, 124, 195, 0.05)"></path><path d="M138.75 502.5 a3.75 3.75 0 1 0 7.5 0 a3.75 3.75 0 1 0 -7.5 0zM108.75 472.5 a3.75 3.75 0 1 0 7.5 0 a3.75 3.75 0 1 0 -7.5 0z" fill="rgba(58, 124, 195, 0.05)"></path><path d="M52.5 142.5L67.5 157.5L97.5 157.5" stroke-width="2.5" stroke="rgba(58, 124, 195, 0.05)"></path><path d="M48.75 142.5 a3.75 3.75 0 1 0 7.5 0 a3.75 3.75 0 1 0 -7.5 0zM93.75 157.5 a3.75 3.75 0 1 0 7.5 0 a3.75 3.75 0 1 0 -7.5 0z" fill="rgba(58, 124, 195, 0.05)"></path><path d="M52.5 202.5L22.5 202.5" stroke-width="2.5" stroke="rgba(58, 124, 195, 0.05)"></path><path d="M48.75 202.5 a3.75 3.75 0 1 0 7.5 0 a3.75 3.75 0 1 0 -7.5 0zM18.75 202.5 a3.75 3.75 0 1 0 7.5 0 a3.75 3.75 0 1 0 -7.5 0z" fill="rgba(58, 124, 195, 0.05)"></path><path d="M67.5 127.5L52.5 112.5L37.5 112.5L22.5 127.5L22.5 157.5" stroke-width="2.5" stroke="rgba(58, 124, 195, 0.05)"></path><path d="M63.75 127.5 a3.75 3.75 0 1 0 7.5 0 a3.75 3.75 0 1 0 -7.5 0zM18.75 157.5 a3.75 3.75 0 1 0 7.5 0 a3.75 3.75 0 1 0 -7.5 0z" fill="rgba(58, 124, 195, 0.05)"></path><path d="M322.5 322.5L367.5 322.5" stroke-width="2.5" stroke="rgba(58, 124, 195, 0.05)"></path><path d="M318.75 322.5 a3.75 3.75 0 1 0 7.5 0 a3.75 3.75 0 1 0 -7.5 0zM363.75 322.5 a3.75 3.75 0 1 0 7.5 0 a3.75 3.75 0 1 0 -7.5 0z" fill="rgba(58, 124, 195, 0.05)"></path><path d="M352.5 67.5L337.5 67.5L292.5 22.5L277.5 22.5" stroke-width="2.5" stroke="rgba(58, 124, 195, 0.05)"></path><path d="M348.75 67.5 a3.75 3.75 0 1 0 7.5 0 a3.75 3.75 0 1 0 -7.5 0zM273.75 22.5 a3.75 3.75 0 1 0 7.5 0 a3.75 3.75 0 1 0 -7.5 0z" fill="rgba(58, 124, 195, 0.05)"></path><path d="M472.5 502.5L457.5 517.5L457.5 532.5L487.5 562.5" stroke-width="2.5" stroke="rgba(58, 124, 195, 0.05)"></path><path d="M468.75 502.5 a3.75 3.75 0 1 0 7.5 0 a3.75 3.75 0 1 0 -7.5 0zM483.75 562.5 a3.75 3.75 0 1 0 7.5 0 a3.75 3.75 0 1 0 -7.5 0z" fill="rgba(58, 124, 195, 0.05)"></path><path d="M142.5 277.5L142.5 247.5" stroke-width="2.5" stroke="rgba(58, 124, 195, 0.05)"></path><path d="M138.75 277.5 a3.75 3.75 0 1 0 7.5 0 a3.75 3.75 0 1 0 -7.5 0zM138.75 247.5 a3.75 3.75 0 1 0 7.5 0 a3.75 3.75 0 1 0 -7.5 0z" fill="rgba(58, 124, 195, 0.05)"></path><path d="M472.5 517.5L487.5 532.5L502.5 532.5" stroke-width="2.5" stroke="rgba(58, 124, 195, 0.05)"></path><path d="M468.75 517.5 a3.75 3.75 0 1 0 7.5 0 a3.75 3.75 0 1 0 -7.5 0zM498.75 532.5 a3.75 3.75 0 1 0 7.5 0 a3.75 3.75 0 1 0 -7.5 0z" fill="rgba(58, 124, 195, 0.05)"></path><path d="M262.5 562.5L202.5 502.5L202.5 472.5L217.5 457.5L232.5 457.5" stroke-width="2.5" stroke="rgba(58, 124, 195, 0.05)"></path><path d="M258.75 562.5 a3.75 3.75 0 1 0 7.5 0 a3.75 3.75 0 1 0 -7.5 0zM228.75 457.5 a3.75 3.75 0 1 0 7.5 0 a3.75 3.75 0 1 0 -7.5 0z" fill="rgba(58, 124, 195, 0.05)"></path><path d="M367.5 277.5L367.5 307.5" stroke-width="2.5" stroke="rgba(58, 124, 195, 0.05)"></path><path d="M363.75 277.5 a3.75 3.75 0 1 0 7.5 0 a3.75 3.75 0 1 0 -7.5 0zM363.75 307.5 a3.75 3.75 0 1 0 7.5 0 a3.75 3.75 0 1 0 -7.5 0z" fill="rgba(58, 124, 195, 0.05)"></path><path d="M307.5 262.5L337.5 232.5L337.5 217.5L322.5 202.5" stroke-width="2.5" stroke="rgba(58, 124, 195, 0.05)"></path><path d="M303.75 262.5 a3.75 3.75 0 1 0 7.5 0 a3.75 3.75 0 1 0 -7.5 0zM318.75 202.5 a3.75 3.75 0 1 0 7.5 0 a3.75 3.75 0 1 0 -7.5 0z" fill="rgba(58, 124, 195, 0.05)"></path><path d="M487.5 7.5L502.5 22.5L562.5 22.5" stroke-width="2.5" stroke="rgba(58, 124, 195, 0.05)"></path><path d="M483.75 7.5 a3.75 3.75 0 1 0 7.5 0 a3.75 3.75 0 1 0 -7.5 0zM558.75 22.5 a3.75 3.75 0 1 0 7.5 0 a3.75 3.75 0 1 0 -7.5 0z" fill="rgba(58, 124, 195, 0.05)"></path><path d="M247.5 292.5L247.5 217.5" stroke-width="2.5" stroke="rgba(58, 124, 195, 0.05)"></path><path d="M243.75 292.5 a3.75 3.75 0 1 0 7.5 0 a3.75 3.75 0 1 0 -7.5 0zM243.75 217.5 a3.75 3.75 0 1 0 7.5 0 a3.75 3.75 0 1 0 -7.5 0z" fill="rgba(58, 124, 195, 0.05)"></path><path d="M322.5 532.5L322.5 517.5L262.5 457.5" stroke-width="2.5" stroke="rgba(58, 124, 195, 0.05)"></path><path d="M318.75 532.5 a3.75 3.75 0 1 0 7.5 0 a3.75 3.75 0 1 0 -7.5 0zM258.75 457.5 a3.75 3.75 0 1 0 7.5 0 a3.75 3.75 0 1 0 -7.5 0z" fill="rgba(58, 124, 195, 0.05)"></path><path d="M577.5 577.5L577.5 352.5L592.5 337.5" stroke-width="2.5" stroke="rgba(58, 124, 195, 0.05)"></path><path d="M573.75 577.5 a3.75 3.75 0 1 0 7.5 0 a3.75 3.75 0 1 0 -7.5 0zM588.75 337.5 a3.75 3.75 0 1 0 7.5 0 a3.75 3.75 0 1 0 -7.5 0z" fill="rgba(58, 124, 195, 0.05)"></path><path d="M52.5 247.5L67.5 232.5L67.5 217.5" stroke-width="2.5" stroke="rgba(58, 124, 195, 0.05)"></path><path d="M48.75 247.5 a3.75 3.75 0 1 0 7.5 0 a3.75 3.75 0 1 0 -7.5 0zM63.75 217.5 a3.75 3.75 0 1 0 7.5 0 a3.75 3.75 0 1 0 -7.5 0z" fill="rgba(58, 124, 195, 0.05)"></path><path d="M352.5 157.5L352.5 187.5L367.5 202.5" stroke-width="2.5" stroke="rgba(58, 124, 195, 0.05)"></path><path d="M348.75 157.5 a3.75 3.75 0 1 0 7.5 0 a3.75 3.75 0 1 0 -7.5 0zM363.75 202.5 a3.75 3.75 0 1 0 7.5 0 a3.75 3.75 0 1 0 -7.5 0z" fill="rgba(58, 124, 195, 0.05)"></path><path d="M427.5 292.5L427.5 172.5" stroke-width="2.5" stroke="rgba(58, 124, 195, 0.05)"></path><path d="M423.75 292.5 a3.75 3.75 0 1 0 7.5 0 a3.75 3.75 0 1 0 -7.5 0zM423.75 172.5 a3.75 3.75 0 1 0 7.5 0 a3.75 3.75 0 1 0 -7.5 0z" fill="rgba(58, 124, 195, 0.05)"></path><path d="M247.5 22.5L232.5 7.5L157.5 7.5" stroke-width="2.5" stroke="rgba(58, 124, 195, 0.05)"></path><path d="M243.75 22.5 a3.75 3.75 0 1 0 7.5 0 a3.75 3.75 0 1 0 -7.5 0zM153.75 7.5 a3.75 3.75 0 1 0 7.5 0 a3.75 3.75 0 1 0 -7.5 0z" fill="rgba(58, 124, 195, 0.05)"></path><path d="M7.5 517.5L52.5 517.5" stroke-width="2.5" stroke="rgba(58, 124, 195, 0.05)"></path><path d="M3.75 517.5 a3.75 3.75 0 1 0 7.5 0 a3.75 3.75 0 1 0 -7.5 0zM48.75 517.5 a3.75 3.75 0 1 0 7.5 0 a3.75 3.75 0 1 0 -7.5 0z" fill="rgba(58, 124, 195, 0.05)"></path><path d="M292.5 532.5L322.5 562.5" stroke-width="2.5" stroke="rgba(58, 124, 195, 0.05)"></path><path d="M288.75 532.5 a3.75 3.75 0 1 0 7.5 0 a3.75 3.75 0 1 0 -7.5 0zM318.75 562.5 a3.75 3.75 0 1 0 7.5 0 a3.75 3.75 0 1 0 -7.5 0z" fill="rgba(58, 124, 195, 0.05)"></path><path d="M7.5 442.5L37.5 442.5" stroke-width="2.5" stroke="rgba(58, 124, 195, 0.05)"></path><path d="M3.75 442.5 a3.75 3.75 0 1 0 7.5 0 a3.75 3.75 0 1 0 -7.5 0zM33.75 442.5 a3.75 3.75 0 1 0 7.5 0 a3.75 3.75 0 1 0 -7.5 0z" fill="rgba(58, 124, 195, 0.05)"></path><path d="M547.5 472.5L532.5 457.5L532.5 427.5L547.5 412.5L547.5 397.5" stroke-width="2.5" stroke="rgba(58, 124, 195, 0.05)"></path><path d="M543.75 472.5 a3.75 3.75 0 1 0 7.5 0 a3.75 3.75 0 1 0 -7.5 0zM543.75 397.5 a3.75 3.75 0 1 0 7.5 0 a3.75 3.75 0 1 0 -7.5 0z" fill="rgba(58, 124, 195, 0.05)"></path><path d="M487.5 142.5L487.5 187.5L472.5 202.5" stroke-width="2.5" stroke="rgba(58, 124, 195, 0.05)"></path><path d="M483.75 142.5 a3.75 3.75 0 1 0 7.5 0 a3.75 3.75 0 1 0 -7.5 0zM468.75 202.5 a3.75 3.75 0 1 0 7.5 0 a3.75 3.75 0 1 0 -7.5 0z" fill="rgba(58, 124, 195, 0.05)"></path><path d="M277.5 502.5L292.5 502.5L307.5 517.5L307.5 532.5" stroke-width="2.5" stroke="rgba(58, 124, 195, 0.05)"></path><path d="M273.75 502.5 a3.75 3.75 0 1 0 7.5 0 a3.75 3.75 0 1 0 -7.5 0zM303.75 532.5 a3.75 3.75 0 1 0 7.5 0 a3.75 3.75 0 1 0 -7.5 0z" fill="rgba(58, 124, 195, 0.05)"></path><path d="M322.5 37.5L337.5 22.5L337.5 7.5" stroke-width="2.5" stroke="rgba(58, 124, 195, 0.05)"></path><path d="M318.75 37.5 a3.75 3.75 0 1 0 7.5 0 a3.75 3.75 0 1 0 -7.5 0zM333.75 7.5 a3.75 3.75 0 1 0 7.5 0 a3.75 3.75 0 1 0 -7.5 0z" fill="rgba(58, 124, 195, 0.05)"></path><path d="M352.5 427.5L367.5 427.5L382.5 442.5" stroke-width="2.5" stroke="rgba(58, 124, 195, 0.05)"></path><path d="M348.75 427.5 a3.75 3.75 0 1 0 7.5 0 a3.75 3.75 0 1 0 -7.5 0zM378.75 442.5 a3.75 3.75 0 1 0 7.5 0 a3.75 3.75 0 1 0 -7.5 0z" fill="rgba(58, 124, 195, 0.05)"></path><path d="M292.5 187.5L292.5 67.5" stroke-width="2.5" stroke="rgba(58, 124, 195, 0.05)"></path><path d="M288.75 187.5 a3.75 3.75 0 1 0 7.5 0 a3.75 3.75 0 1 0 -7.5 0zM288.75 67.5 a3.75 3.75 0 1 0 7.5 0 a3.75 3.75 0 1 0 -7.5 0z" fill="rgba(58, 124, 195, 0.05)"></path><path d="M412.5 7.5L412.5 52.5" stroke-width="2.5" stroke="rgba(58, 124, 195, 0.05)"></path><path d="M408.75 7.5 a3.75 3.75 0 1 0 7.5 0 a3.75 3.75 0 1 0 -7.5 0zM408.75 52.5 a3.75 3.75 0 1 0 7.5 0 a3.75 3.75 0 1 0 -7.5 0z" fill="rgba(58, 124, 195, 0.05)"></path><path d="M322.5 442.5L352.5 472.5" stroke-width="2.5" stroke="rgba(58, 124, 195, 0.05)"></path><path d="M318.75 442.5 a3.75 3.75 0 1 0 7.5 0 a3.75 3.75 0 1 0 -7.5 0zM348.75 472.5 a3.75 3.75 0 1 0 7.5 0 a3.75 3.75 0 1 0 -7.5 0z" fill="rgba(58, 124, 195, 0.05)"></path><path d="M592.5 547.5L592.5 517.5" stroke-width="2.5" stroke="rgba(58, 124, 195, 0.05)"></path><path d="M588.75 547.5 a3.75 3.75 0 1 0 7.5 0 a3.75 3.75 0 1 0 -7.5 0zM588.75 517.5 a3.75 3.75 0 1 0 7.5 0 a3.75 3.75 0 1 0 -7.5 0z" fill="rgba(58, 124, 195, 0.05)"></path><path d="M442.5 7.5L442.5 37.5L457.5 52.5L457.5 67.5" stroke-width="2.5" stroke="rgba(58, 124, 195, 0.05)"></path><path d="M438.75 7.5 a3.75 3.75 0 1 0 7.5 0 a3.75 3.75 0 1 0 -7.5 0zM453.75 67.5 a3.75 3.75 0 1 0 7.5 0 a3.75 3.75 0 1 0 -7.5 0z" fill="rgba(58, 124, 195, 0.05)"></path><path d="M532.5 247.5L532.5 217.5" stroke-width="2.5" stroke="rgba(58, 124, 195, 0.05)"></path><path d="M528.75 247.5 a3.75 3.75 0 1 0 7.5 0 a3.75 3.75 0 1 0 -7.5 0zM528.75 217.5 a3.75 3.75 0 1 0 7.5 0 a3.75 3.75 0 1 0 -7.5 0z" fill="rgba(58, 124, 195, 0.05)"></path><path d="M397.5 322.5L412.5 307.5L412.5 292.5" stroke-width="2.5" stroke="rgba(58, 124, 195, 0.05)"></path><path d="M393.75 322.5 a3.75 3.75 0 1 0 7.5 0 a3.75 3.75 0 1 0 -7.5 0zM408.75 292.5 a3.75 3.75 0 1 0 7.5 0 a3.75 3.75 0 1 0 -7.5 0z" fill="rgba(58, 124, 195, 0.05)"></path><path d="M142.5 412.5L127.5 427.5L97.5 427.5" stroke-width="2.5" stroke="rgba(58, 124, 195, 0.05)"></path><path d="M138.75 412.5 a3.75 3.75 0 1 0 7.5 0 a3.75 3.75 0 1 0 -7.5 0zM93.75 427.5 a3.75 3.75 0 1 0 7.5 0 a3.75 3.75 0 1 0 -7.5 0z" fill="rgba(58, 124, 195, 0.05)"></path><path d="M352.5 307.5L352.5 262.5" stroke-width="2.5" stroke="rgba(58, 124, 195, 0.05)"></path><path d="M348.75 307.5 a3.75 3.75 0 1 0 7.5 0 a3.75 3.75 0 1 0 -7.5 0zM348.75 262.5 a3.75 3.75 0 1 0 7.5 0 a3.75 3.75 0 1 0 -7.5 0z" fill="rgba(58, 124, 195, 0.05)"></path><path d="M52.5 187.5L22.5 187.5" stroke-width="2.5" stroke="rgba(58, 124, 195, 0.05)"></path><path d="M48.75 187.5 a3.75 3.75 0 1 0 7.5 0 a3.75 3.75 0 1 0 -7.5 0zM18.75 187.5 a3.75 3.75 0 1 0 7.5 0 a3.75 3.75 0 1 0 -7.5 0z" fill="rgba(58, 124, 195, 0.05)"></path><path d="M292.5 232.5L292.5 202.5" stroke-width="2.5" stroke="rgba(58, 124, 195, 0.05)"></path><path d="M288.75 232.5 a3.75 3.75 0 1 0 7.5 0 a3.75 3.75 0 1 0 -7.5 0zM288.75 202.5 a3.75 3.75 0 1 0 7.5 0 a3.75 3.75 0 1 0 -7.5 0z" fill="rgba(58, 124, 195, 0.05)"></path><path d="M547.5 322.5L517.5 322.5" stroke-width="2.5" stroke="rgba(58, 124, 195, 0.05)"></path><path d="M543.75 322.5 a3.75 3.75 0 1 0 7.5 0 a3.75 3.75 0 1 0 -7.5 0zM513.75 322.5 a3.75 3.75 0 1 0 7.5 0 a3.75 3.75 0 1 0 -7.5 0z" fill="rgba(58, 124, 195, 0.05)"></path><path d="M367.5 52.5L367.5 82.5" stroke-width="2.5" stroke="rgba(58, 124, 195, 0.05)"></path><path d="M363.75 52.5 a3.75 3.75 0 1 0 7.5 0 a3.75 3.75 0 1 0 -7.5 0zM363.75 82.5 a3.75 3.75 0 1 0 7.5 0 a3.75 3.75 0 1 0 -7.5 0z" fill="rgba(58, 124, 195, 0.05)"></path><path d="M592.5 367.5L592.5 487.5" stroke-width="2.5" stroke="rgba(58, 124, 195, 0.05)"></path><path d="M588.75 367.5 a3.75 3.75 0 1 0 7.5 0 a3.75 3.75 0 1 0 -7.5 0zM588.75 487.5 a3.75 3.75 0 1 0 7.5 0 a3.75 3.75 0 1 0 -7.5 0z" fill="rgba(58, 124, 195, 0.05)"></path><path d="M577.5 127.5L577.5 82.5" stroke-width="2.5" stroke="rgba(58, 124, 195, 0.05)"></path><path d="M573.75 127.5 a3.75 3.75 0 1 0 7.5 0 a3.75 3.75 0 1 0 -7.5 0zM573.75 82.5 a3.75 3.75 0 1 0 7.5 0 a3.75 3.75 0 1 0 -7.5 0z" fill="rgba(58, 124, 195, 0.05)"></path><path d="M157.5 82.5L172.5 82.5L187.5 97.5L187.5 112.5" stroke-width="2.5" stroke="rgba(58, 124, 195, 0.05)"></path><path d="M153.75 82.5 a3.75 3.75 0 1 0 7.5 0 a3.75 3.75 0 1 0 -7.5 0zM183.75 112.5 a3.75 3.75 0 1 0 7.5 0 a3.75 3.75 0 1 0 -7.5 0z" fill="rgba(58, 124, 195, 0.05)"></path><path d="M112.5 82.5L112.5 127.5" stroke-width="2.5" stroke="rgba(58, 124, 195, 0.05)"></path><path d="M108.75 82.5 a3.75 3.75 0 1 0 7.5 0 a3.75 3.75 0 1 0 -7.5 0zM108.75 127.5 a3.75 3.75 0 1 0 7.5 0 a3.75 3.75 0 1 0 -7.5 0z" fill="rgba(58, 124, 195, 0.05)"></path><path d="M592.5 172.5L577.5 187.5L562.5 187.5" stroke-width="2.5" stroke="rgba(58, 124, 195, 0.05)"></path><path d="M588.75 172.5 a3.75 3.75 0 1 0 7.5 0 a3.75 3.75 0 1 0 -7.5 0zM558.75 187.5 a3.75 3.75 0 1 0 7.5 0 a3.75 3.75 0 1 0 -7.5 0z" fill="rgba(58, 124, 195, 0.05)"></path><path d="M367.5 502.5L397.5 502.5" stroke-width="2.5" stroke="rgba(58, 124, 195, 0.05)"></path><path d="M363.75 502.5 a3.75 3.75 0 1 0 7.5 0 a3.75 3.75 0 1 0 -7.5 0zM393.75 502.5 a3.75 3.75 0 1 0 7.5 0 a3.75 3.75 0 1 0 -7.5 0z" fill="rgba(58, 124, 195, 0.05)"></path><path d="M262.5 502.5L262.5 472.5" stroke-width="2.5" stroke="rgba(58, 124, 195, 0.05)"></path><path d="M258.75 502.5 a3.75 3.75 0 1 0 7.5 0 a3.75 3.75 0 1 0 -7.5 0zM258.75 472.5 a3.75 3.75 0 1 0 7.5 0 a3.75 3.75 0 1 0 -7.5 0z" fill="rgba(58, 124, 195, 0.05)"></path><path d="M67.5 292.5L82.5 307.5L82.5 322.5" stroke-width="2.5" stroke="rgba(58, 124, 195, 0.05)"></path><path d="M63.75 292.5 a3.75 3.75 0 1 0 7.5 0 a3.75 3.75 0 1 0 -7.5 0zM78.75 322.5 a3.75 3.75 0 1 0 7.5 0 a3.75 3.75 0 1 0 -7.5 0z" fill="rgba(58, 124, 195, 0.05)"></path><path d="M142.5 592.5L157.5 592.5L187.5 562.5L202.5 562.5" stroke-width="2.5" stroke="rgba(58, 124, 195, 0.05)"></path><path d="M138.75 592.5 a3.75 3.75 0 1 0 7.5 0 a3.75 3.75 0 1 0 -7.5 0zM198.75 562.5 a3.75 3.75 0 1 0 7.5 0 a3.75 3.75 0 1 0 -7.5 0z" fill="rgba(58, 124, 195, 0.05)"></path><path d="M502.5 487.5L517.5 487.5L532.5 502.5L532.5 532.5" stroke-width="2.5" stroke="rgba(58, 124, 195, 0.05)"></path><path d="M498.75 487.5 a3.75 3.75 0 1 0 7.5 0 a3.75 3.75 0 1 0 -7.5 0zM528.75 532.5 a3.75 3.75 0 1 0 7.5 0 a3.75 3.75 0 1 0 -7.5 0z" fill="rgba(58, 124, 195, 0.05)"></path><path d="M232.5 592.5L202.5 592.5" stroke-width="2.5" stroke="rgba(58, 124, 195, 0.05)"></path><path d="M228.75 592.5 a3.75 3.75 0 1 0 7.5 0 a3.75 3.75 0 1 0 -7.5 0zM198.75 592.5 a3.75 3.75 0 1 0 7.5 0 a3.75 3.75 0 1 0 -7.5 0z" fill="rgba(58, 124, 195, 0.05)"></path><path d="M232.5 352.5L232.5 397.5" stroke-width="2.5" stroke="rgba(58, 124, 195, 0.05)"></path><path d="M228.75 352.5 a3.75 3.75 0 1 0 7.5 0 a3.75 3.75 0 1 0 -7.5 0zM228.75 397.5 a3.75 3.75 0 1 0 7.5 0 a3.75 3.75 0 1 0 -7.5 0z" fill="rgba(58, 124, 195, 0.05)"></path><path d="M427.5 562.5L427.5 592.5" stroke-width="2.5" stroke="rgba(58, 124, 195, 0.05)"></path><path d="M423.75 562.5 a3.75 3.75 0 1 0 7.5 0 a3.75 3.75 0 1 0 -7.5 0zM423.75 592.5 a3.75 3.75 0 1 0 7.5 0 a3.75 3.75 0 1 0 -7.5 0z" fill="rgba(58, 124, 195, 0.05)"></path><path d="M82.5 367.5L82.5 397.5" stroke-width="2.5" stroke="rgba(58, 124, 195, 0.05)"></path><path d="M78.75 367.5 a3.75 3.75 0 1 0 7.5 0 a3.75 3.75 0 1 0 -7.5 0zM78.75 397.5 a3.75 3.75 0 1 0 7.5 0 a3.75 3.75 0 1 0 -7.5 0z" fill="rgba(58, 124, 195, 0.05)"></path><path d="M442.5 112.5L427.5 112.5L412.5 97.5" stroke-width="2.5" stroke="rgba(58, 124, 195, 0.05)"></path><path d="M438.75 112.5 a3.75 3.75 0 1 0 7.5 0 a3.75 3.75 0 1 0 -7.5 0zM408.75 97.5 a3.75 3.75 0 1 0 7.5 0 a3.75 3.75 0 1 0 -7.5 0z" fill="rgba(58, 124, 195, 0.05)"></path><path d="M7.5 292.5L7.5 307.5L22.5 322.5L52.5 322.5" stroke-width="2.5" stroke="rgba(58, 124, 195, 0.05)"></path><path d="M3.75 292.5 a3.75 3.75 0 1 0 7.5 0 a3.75 3.75 0 1 0 -7.5 0zM48.75 322.5 a3.75 3.75 0 1 0 7.5 0 a3.75 3.75 0 1 0 -7.5 0z" fill="rgba(58, 124, 195, 0.05)"></path><path d="M7.5 532.5L37.5 532.5" stroke-width="2.5" stroke="rgba(58, 124, 195, 0.05)"></path><path d="M3.75 532.5 a3.75 3.75 0 1 0 7.5 0 a3.75 3.75 0 1 0 -7.5 0zM33.75 532.5 a3.75 3.75 0 1 0 7.5 0 a3.75 3.75 0 1 0 -7.5 0z" fill="rgba(58, 124, 195, 0.05)"></path><path d="M22.5 367.5L52.5 397.5" stroke-width="2.5" stroke="rgba(58, 124, 195, 0.05)"></path><path d="M18.75 367.5 a3.75 3.75 0 1 0 7.5 0 a3.75 3.75 0 1 0 -7.5 0zM48.75 397.5 a3.75 3.75 0 1 0 7.5 0 a3.75 3.75 0 1 0 -7.5 0z" fill="rgba(58, 124, 195, 0.05)"></path><path d="M577.5 322.5L577.5 292.5" stroke-width="2.5" stroke="rgba(58, 124, 195, 0.05)"></path><path d="M573.75 322.5 a3.75 3.75 0 1 0 7.5 0 a3.75 3.75 0 1 0 -7.5 0zM573.75 292.5 a3.75 3.75 0 1 0 7.5 0 a3.75 3.75 0 1 0 -7.5 0z" fill="rgba(58, 124, 195, 0.05)"></path><path d="M217.5 217.5L217.5 187.5" stroke-width="2.5" stroke="rgba(58, 124, 195, 0.05)"></path><path d="M213.75 217.5 a3.75 3.75 0 1 0 7.5 0 a3.75 3.75 0 1 0 -7.5 0zM213.75 187.5 a3.75 3.75 0 1 0 7.5 0 a3.75 3.75 0 1 0 -7.5 0z" fill="rgba(58, 124, 195, 0.05)"></path><path d="M22.5 397.5L7.5 382.5L7.5 367.5" stroke-width="2.5" stroke="rgba(58, 124, 195, 0.05)"></path><path d="M18.75 397.5 a3.75 3.75 0 1 0 7.5 0 a3.75 3.75 0 1 0 -7.5 0zM3.75 367.5 a3.75 3.75 0 1 0 7.5 0 a3.75 3.75 0 1 0 -7.5 0z" fill="rgba(58, 124, 195, 0.05)"></path></g></g><defs><mask id="SvgjsMask1018"><rect width="600" height="600" fill="#ffffff"></rect></mask><mask id="SvgjsMask1019"><rect width="600" height="600" fill="white"></rect><path d="M440.62 502.5 a1.88 1.88 0 1 0 3.76 0 a1.88 1.88 0 1 0 -3.76 0zM155.62 472.5 a1.88 1.88 0 1 0 3.76 0 a1.88 1.88 0 1 0 -3.76 0z" fill="black"></path><path d="M155.62 412.5 a1.88 1.88 0 1 0 3.76 0 a1.88 1.88 0 1 0 -3.76 0zM440.62 412.5 a1.88 1.88 0 1 0 3.76 0 a1.88 1.88 0 1 0 -3.76 0z" fill="black"></path><path d="M410.62 562.5 a1.88 1.88 0 1 0 3.76 0 a1.88 1.88 0 1 0 -3.76 0zM410.62 592.5 a1.88 1.88 0 1 0 3.76 0 a1.88 1.88 0 1 0 -3.76 0z" fill="black"></path><path d="M545.62 37.5 a1.88 1.88 0 1 0 3.76 0 a1.88 1.88 0 1 0 -3.76 0zM395.62 7.5 a1.88 1.88 0 1 0 3.76 0 a1.88 1.88 0 1 0 -3.76 0z" fill="black"></path><path d="M245.62 322.5 a1.88 1.88 0 1 0 3.76 0 a1.88 1.88 0 1 0 -3.76 0zM200.62 397.5 a1.88 1.88 0 1 0 3.76 0 a1.88 1.88 0 1 0 -3.76 0z" fill="black"></path><path d="M500.62 217.5 a1.88 1.88 0 1 0 3.76 0 a1.88 1.88 0 1 0 -3.76 0zM590.62 7.5 a1.88 1.88 0 1 0 3.76 0 a1.88 1.88 0 1 0 -3.76 0z" fill="black"></path><path d="M80.62 592.5 a1.88 1.88 0 1 0 3.76 0 a1.88 1.88 0 1 0 -3.76 0zM5.62 592.5 a1.88 1.88 0 1 0 3.76 0 a1.88 1.88 0 1 0 -3.76 0z" fill="black"></path><path d="M260.62 277.5 a1.88 1.88 0 1 0 3.76 0 a1.88 1.88 0 1 0 -3.76 0zM260.62 7.5 a1.88 1.88 0 1 0 3.76 0 a1.88 1.88 0 1 0 -3.76 0z" fill="black"></path><path d="M95.62 322.5 a1.88 1.88 0 1 0 3.76 0 a1.88 1.88 0 1 0 -3.76 0zM5.62 37.5 a1.88 1.88 0 1 0 3.76 0 a1.88 1.88 0 1 0 -3.76 0z" fill="black"></path><path d="M230.62 487.5 a1.88 1.88 0 1 0 3.76 0 a1.88 1.88 0 1 0 -3.76 0zM515.62 412.5 a1.88 1.88 0 1 0 3.76 0 a1.88 1.88 0 1 0 -3.76 0z" fill="black"></path><path d="M320.62 427.5 a1.88 1.88 0 1 0 3.76 0 a1.88 1.88 0 1 0 -3.76 0zM590.62 307.5 a1.88 1.88 0 1 0 3.76 0 a1.88 1.88 0 1 0 -3.76 0z" fill="black"></path><path d="M50.62 442.5 a1.88 1.88 0 1 0 3.76 0 a1.88 1.88 0 1 0 -3.76 0zM335.62 502.5 a1.88 1.88 0 1 0 3.76 0 a1.88 1.88 0 1 0 -3.76 0z" fill="black"></path><path d="M185.62 487.5 a1.88 1.88 0 1 0 3.76 0 a1.88 1.88 0 1 0 -3.76 0zM5.62 457.5 a1.88 1.88 0 1 0 3.76 0 a1.88 1.88 0 1 0 -3.76 0z" fill="black"></path><path d="M530.62 337.5 a1.88 1.88 0 1 0 3.76 0 a1.88 1.88 0 1 0 -3.76 0zM335.62 427.5 a1.88 1.88 0 1 0 3.76 0 a1.88 1.88 0 1 0 -3.76 0z" fill="black"></path><path d="M545.62 112.5 a1.88 1.88 0 1 0 3.76 0 a1.88 1.88 0 1 0 -3.76 0zM515.62 82.5 a1.88 1.88 0 1 0 3.76 0 a1.88 1.88 0 1 0 -3.76 0z" fill="black"></path><path d="M245.62 367.5 a1.88 1.88 0 1 0 3.76 0 a1.88 1.88 0 1 0 -3.76 0zM485.62 262.5 a1.88 1.88 0 1 0 3.76 0 a1.88 1.88 0 1 0 -3.76 0z" fill="black"></path><path d="M440.62 172.5 a1.88 1.88 0 1 0 3.76 0 a1.88 1.88 0 1 0 -3.76 0zM380.62 7.5 a1.88 1.88 0 1 0 3.76 0 a1.88 1.88 0 1 0 -3.76 0z" fill="black"></path><path d="M425.62 7.5 a1.88 1.88 0 1 0 3.76 0 a1.88 1.88 0 1 0 -3.76 0zM425.62 67.5 a1.88 1.88 0 1 0 3.76 0 a1.88 1.88 0 1 0 -3.76 0z" fill="black"></path><path d="M50.62 67.5 a1.88 1.88 0 1 0 3.76 0 a1.88 1.88 0 1 0 -3.76 0zM245.62 202.5 a1.88 1.88 0 1 0 3.76 0 a1.88 1.88 0 1 0 -3.76 0z" fill="black"></path><path d="M440.62 562.5 a1.88 1.88 0 1 0 3.76 0 a1.88 1.88 0 1 0 -3.76 0zM440.62 592.5 a1.88 1.88 0 1 0 3.76 0 a1.88 1.88 0 1 0 -3.76 0z" fill="black"></path><path d="M560.62 262.5 a1.88 1.88 0 1 0 3.76 0 a1.88 1.88 0 1 0 -3.76 0zM380.62 397.5 a1.88 1.88 0 1 0 3.76 0 a1.88 1.88 0 1 0 -3.76 0z" fill="black"></path><path d="M350.62 502.5 a1.88 1.88 0 1 0 3.76 0 a1.88 1.88 0 1 0 -3.76 0zM350.62 562.5 a1.88 1.88 0 1 0 3.76 0 a1.88 1.88 0 1 0 -3.76 0z" fill="black"></path><path d="M230.62 247.5 a1.88 1.88 0 1 0 3.76 0 a1.88 1.88 0 1 0 -3.76 0zM5.62 427.5 a1.88 1.88 0 1 0 3.76 0 a1.88 1.88 0 1 0 -3.76 0z" fill="black"></path><path d="M65.62 247.5 a1.88 1.88 0 1 0 3.76 0 a1.88 1.88 0 1 0 -3.76 0zM140.62 337.5 a1.88 1.88 0 1 0 3.76 0 a1.88 1.88 0 1 0 -3.76 0z" fill="black"></path><path d="M80.62 337.5 a1.88 1.88 0 1 0 3.76 0 a1.88 1.88 0 1 0 -3.76 0zM5.62 232.5 a1.88 1.88 0 1 0 3.76 0 a1.88 1.88 0 1 0 -3.76 0z" fill="black"></path><path d="M245.62 517.5 a1.88 1.88 0 1 0 3.76 0 a1.88 1.88 0 1 0 -3.76 0zM305.62 577.5 a1.88 1.88 0 1 0 3.76 0 a1.88 1.88 0 1 0 -3.76 0z" fill="black"></path><path d="M515.62 592.5 a1.88 1.88 0 1 0 3.76 0 a1.88 1.88 0 1 0 -3.76 0zM590.62 592.5 a1.88 1.88 0 1 0 3.76 0 a1.88 1.88 0 1 0 -3.76 0z" fill="black"></path><path d="M170.62 172.5 a1.88 1.88 0 1 0 3.76 0 a1.88 1.88 0 1 0 -3.76 0zM20.62 172.5 a1.88 1.88 0 1 0 3.76 0 a1.88 1.88 0 1 0 -3.76 0z" fill="black"></path><path d="M80.62 577.5 a1.88 1.88 0 1 0 3.76 0 a1.88 1.88 0 1 0 -3.76 0zM260.62 592.5 a1.88 1.88 0 1 0 3.76 0 a1.88 1.88 0 1 0 -3.76 0z" fill="black"></path><path d="M410.62 277.5 a1.88 1.88 0 1 0 3.76 0 a1.88 1.88 0 1 0 -3.76 0zM275.62 52.5 a1.88 1.88 0 1 0 3.76 0 a1.88 1.88 0 1 0 -3.76 0z" fill="black"></path><path d="M125.62 202.5 a1.88 1.88 0 1 0 3.76 0 a1.88 1.88 0 1 0 -3.76 0zM140.62 187.5 a1.88 1.88 0 1 0 3.76 0 a1.88 1.88 0 1 0 -3.76 0z" fill="black"></path><path d="M35.62 562.5 a1.88 1.88 0 1 0 3.76 0 a1.88 1.88 0 1 0 -3.76 0zM5.62 577.5 a1.88 1.88 0 1 0 3.76 0 a1.88 1.88 0 1 0 -3.76 0z" fill="black"></path><path d="M560.62 127.5 a1.88 1.88 0 1 0 3.76 0 a1.88 1.88 0 1 0 -3.76 0zM575.62 7.5 a1.88 1.88 0 1 0 3.76 0 a1.88 1.88 0 1 0 -3.76 0z" fill="black"></path><path d="M95.62 67.5 a1.88 1.88 0 1 0 3.76 0 a1.88 1.88 0 1 0 -3.76 0zM230.62 232.5 a1.88 1.88 0 1 0 3.76 0 a1.88 1.88 0 1 0 -3.76 0z" fill="black"></path><path d="M200.62 172.5 a1.88 1.88 0 1 0 3.76 0 a1.88 1.88 0 1 0 -3.76 0zM185.62 277.5 a1.88 1.88 0 1 0 3.76 0 a1.88 1.88 0 1 0 -3.76 0z" fill="black"></path><path d="M305.62 322.5 a1.88 1.88 0 1 0 3.76 0 a1.88 1.88 0 1 0 -3.76 0zM470.62 172.5 a1.88 1.88 0 1 0 3.76 0 a1.88 1.88 0 1 0 -3.76 0z" fill="black"></path><path d="M320.62 292.5 a1.88 1.88 0 1 0 3.76 0 a1.88 1.88 0 1 0 -3.76 0zM290.62 322.5 a1.88 1.88 0 1 0 3.76 0 a1.88 1.88 0 1 0 -3.76 0z" fill="black"></path><path d="M20.62 337.5 a1.88 1.88 0 1 0 3.76 0 a1.88 1.88 0 1 0 -3.76 0zM110.62 322.5 a1.88 1.88 0 1 0 3.76 0 a1.88 1.88 0 1 0 -3.76 0z" fill="black"></path><path d="M560.62 562.5 a1.88 1.88 0 1 0 3.76 0 a1.88 1.88 0 1 0 -3.76 0zM545.62 382.5 a1.88 1.88 0 1 0 3.76 0 a1.88 1.88 0 1 0 -3.76 0z" fill="black"></path><path d="M5.62 337.5 a1.88 1.88 0 1 0 3.76 0 a1.88 1.88 0 1 0 -3.76 0zM65.62 412.5 a1.88 1.88 0 1 0 3.76 0 a1.88 1.88 0 1 0 -3.76 0z" fill="black"></path><path d="M470.62 22.5 a1.88 1.88 0 1 0 3.76 0 a1.88 1.88 0 1 0 -3.76 0zM515.62 52.5 a1.88 1.88 0 1 0 3.76 0 a1.88 1.88 0 1 0 -3.76 0z" fill="black"></path><path d="M455.62 562.5 a1.88 1.88 0 1 0 3.76 0 a1.88 1.88 0 1 0 -3.76 0zM530.62 397.5 a1.88 1.88 0 1 0 3.76 0 a1.88 1.88 0 1 0 -3.76 0z" fill="black"></path><path d="M185.62 397.5 a1.88 1.88 0 1 0 3.76 0 a1.88 1.88 0 1 0 -3.76 0zM80.62 427.5 a1.88 1.88 0 1 0 3.76 0 a1.88 1.88 0 1 0 -3.76 0z" fill="black"></path><path d="M485.62 307.5 a1.88 1.88 0 1 0 3.76 0 a1.88 1.88 0 1 0 -3.76 0zM395.62 382.5 a1.88 1.88 0 1 0 3.76 0 a1.88 1.88 0 1 0 -3.76 0z" fill="black"></path><path d="M365.62 592.5 a1.88 1.88 0 1 0 3.76 0 a1.88 1.88 0 1 0 -3.76 0zM395.62 592.5 a1.88 1.88 0 1 0 3.76 0 a1.88 1.88 0 1 0 -3.76 0z" fill="black"></path><path d="M245.62 397.5 a1.88 1.88 0 1 0 3.76 0 a1.88 1.88 0 1 0 -3.76 0zM290.62 352.5 a1.88 1.88 0 1 0 3.76 0 a1.88 1.88 0 1 0 -3.76 0z" fill="black"></path><path d="M140.62 82.5 a1.88 1.88 0 1 0 3.76 0 a1.88 1.88 0 1 0 -3.76 0zM110.62 37.5 a1.88 1.88 0 1 0 3.76 0 a1.88 1.88 0 1 0 -3.76 0z" fill="black"></path><path d="M305.62 202.5 a1.88 1.88 0 1 0 3.76 0 a1.88 1.88 0 1 0 -3.76 0zM305.62 67.5 a1.88 1.88 0 1 0 3.76 0 a1.88 1.88 0 1 0 -3.76 0z" fill="black"></path><path d="M200.62 127.5 a1.88 1.88 0 1 0 3.76 0 a1.88 1.88 0 1 0 -3.76 0zM20.62 97.5 a1.88 1.88 0 1 0 3.76 0 a1.88 1.88 0 1 0 -3.76 0z" fill="black"></path><path d="M65.62 487.5 a1.88 1.88 0 1 0 3.76 0 a1.88 1.88 0 1 0 -3.76 0zM5.62 487.5 a1.88 1.88 0 1 0 3.76 0 a1.88 1.88 0 1 0 -3.76 0z" fill="black"></path><path d="M305.62 22.5 a1.88 1.88 0 1 0 3.76 0 a1.88 1.88 0 1 0 -3.76 0zM275.62 7.5 a1.88 1.88 0 1 0 3.76 0 a1.88 1.88 0 1 0 -3.76 0z" fill="black"></path><path d="M5.62 22.5 a1.88 1.88 0 1 0 3.76 0 a1.88 1.88 0 1 0 -3.76 0zM95.62 7.5 a1.88 1.88 0 1 0 3.76 0 a1.88 1.88 0 1 0 -3.76 0z" fill="black"></path><path d="M440.62 367.5 a1.88 1.88 0 1 0 3.76 0 a1.88 1.88 0 1 0 -3.76 0zM485.62 322.5 a1.88 1.88 0 1 0 3.76 0 a1.88 1.88 0 1 0 -3.76 0z" fill="black"></path><path d="M350.62 217.5 a1.88 1.88 0 1 0 3.76 0 a1.88 1.88 0 1 0 -3.76 0zM395.62 307.5 a1.88 1.88 0 1 0 3.76 0 a1.88 1.88 0 1 0 -3.76 0z" fill="black"></path><path d="M155.62 547.5 a1.88 1.88 0 1 0 3.76 0 a1.88 1.88 0 1 0 -3.76 0zM95.62 592.5 a1.88 1.88 0 1 0 3.76 0 a1.88 1.88 0 1 0 -3.76 0z" fill="black"></path><path d="M365.62 232.5 a1.88 1.88 0 1 0 3.76 0 a1.88 1.88 0 1 0 -3.76 0zM365.62 217.5 a1.88 1.88 0 1 0 3.76 0 a1.88 1.88 0 1 0 -3.76 0z" fill="black"></path><path d="M95.62 517.5 a1.88 1.88 0 1 0 3.76 0 a1.88 1.88 0 1 0 -3.76 0zM35.62 577.5 a1.88 1.88 0 1 0 3.76 0 a1.88 1.88 0 1 0 -3.76 0z" fill="black"></path><path d="M380.62 517.5 a1.88 1.88 0 1 0 3.76 0 a1.88 1.88 0 1 0 -3.76 0zM425.62 487.5 a1.88 1.88 0 1 0 3.76 0 a1.88 1.88 0 1 0 -3.76 0z" fill="black"></path><path d="M95.62 487.5 a1.88 1.88 0 1 0 3.76 0 a1.88 1.88 0 1 0 -3.76 0zM50.62 577.5 a1.88 1.88 0 1 0 3.76 0 a1.88 1.88 0 1 0 -3.76 0z" fill="black"></path><path d="M305.62 457.5 a1.88 1.88 0 1 0 3.76 0 a1.88 1.88 0 1 0 -3.76 0zM410.62 487.5 a1.88 1.88 0 1 0 3.76 0 a1.88 1.88 0 1 0 -3.76 0z" fill="black"></path><path d="M65.62 517.5 a1.88 1.88 0 1 0 3.76 0 a1.88 1.88 0 1 0 -3.76 0zM5.62 502.5 a1.88 1.88 0 1 0 3.76 0 a1.88 1.88 0 1 0 -3.76 0z" fill="black"></path><path d="M560.62 217.5 a1.88 1.88 0 1 0 3.76 0 a1.88 1.88 0 1 0 -3.76 0zM590.62 217.5 a1.88 1.88 0 1 0 3.76 0 a1.88 1.88 0 1 0 -3.76 0z" fill="black"></path><path d="M470.62 37.5 a1.88 1.88 0 1 0 3.76 0 a1.88 1.88 0 1 0 -3.76 0zM470.62 67.5 a1.88 1.88 0 1 0 3.76 0 a1.88 1.88 0 1 0 -3.76 0z" fill="black"></path><path d="M200.62 547.5 a1.88 1.88 0 1 0 3.76 0 a1.88 1.88 0 1 0 -3.76 0zM95.62 577.5 a1.88 1.88 0 1 0 3.76 0 a1.88 1.88 0 1 0 -3.76 0z" fill="black"></path><path d="M515.62 172.5 a1.88 1.88 0 1 0 3.76 0 a1.88 1.88 0 1 0 -3.76 0zM455.62 292.5 a1.88 1.88 0 1 0 3.76 0 a1.88 1.88 0 1 0 -3.76 0z" fill="black"></path><path d="M65.62 532.5 a1.88 1.88 0 1 0 3.76 0 a1.88 1.88 0 1 0 -3.76 0zM5.62 562.5 a1.88 1.88 0 1 0 3.76 0 a1.88 1.88 0 1 0 -3.76 0z" fill="black"></path><path d="M185.62 37.5 a1.88 1.88 0 1 0 3.76 0 a1.88 1.88 0 1 0 -3.76 0zM245.62 37.5 a1.88 1.88 0 1 0 3.76 0 a1.88 1.88 0 1 0 -3.76 0z" fill="black"></path><path d="M530.62 277.5 a1.88 1.88 0 1 0 3.76 0 a1.88 1.88 0 1 0 -3.76 0zM485.62 217.5 a1.88 1.88 0 1 0 3.76 0 a1.88 1.88 0 1 0 -3.76 0z" fill="black"></path><path d="M50.62 37.5 a1.88 1.88 0 1 0 3.76 0 a1.88 1.88 0 1 0 -3.76 0zM20.62 22.5 a1.88 1.88 0 1 0 3.76 0 a1.88 1.88 0 1 0 -3.76 0z" fill="black"></path><path d="M110.62 262.5 a1.88 1.88 0 1 0 3.76 0 a1.88 1.88 0 1 0 -3.76 0zM110.62 292.5 a1.88 1.88 0 1 0 3.76 0 a1.88 1.88 0 1 0 -3.76 0z" fill="black"></path><path d="M230.62 292.5 a1.88 1.88 0 1 0 3.76 0 a1.88 1.88 0 1 0 -3.76 0zM380.62 247.5 a1.88 1.88 0 1 0 3.76 0 a1.88 1.88 0 1 0 -3.76 0z" fill="black"></path><path d="M470.62 127.5 a1.88 1.88 0 1 0 3.76 0 a1.88 1.88 0 1 0 -3.76 0zM440.62 157.5 a1.88 1.88 0 1 0 3.76 0 a1.88 1.88 0 1 0 -3.76 0z" fill="black"></path><path d="M320.62 82.5 a1.88 1.88 0 1 0 3.76 0 a1.88 1.88 0 1 0 -3.76 0zM320.62 142.5 a1.88 1.88 0 1 0 3.76 0 a1.88 1.88 0 1 0 -3.76 0z" fill="black"></path><path d="M500.62 142.5 a1.88 1.88 0 1 0 3.76 0 a1.88 1.88 0 1 0 -3.76 0zM545.62 142.5 a1.88 1.88 0 1 0 3.76 0 a1.88 1.88 0 1 0 -3.76 0z" fill="black"></path><path d="M215.62 142.5 a1.88 1.88 0 1 0 3.76 0 a1.88 1.88 0 1 0 -3.76 0zM125.62 37.5 a1.88 1.88 0 1 0 3.76 0 a1.88 1.88 0 1 0 -3.76 0z" fill="black"></path><path d="M335.62 37.5 a1.88 1.88 0 1 0 3.76 0 a1.88 1.88 0 1 0 -3.76 0zM365.62 7.5 a1.88 1.88 0 1 0 3.76 0 a1.88 1.88 0 1 0 -3.76 0z" fill="black"></path><path d="M80.62 67.5 a1.88 1.88 0 1 0 3.76 0 a1.88 1.88 0 1 0 -3.76 0zM20.62 82.5 a1.88 1.88 0 1 0 3.76 0 a1.88 1.88 0 1 0 -3.76 0z" fill="black"></path><path d="M275.62 277.5 a1.88 1.88 0 1 0 3.76 0 a1.88 1.88 0 1 0 -3.76 0zM275.62 67.5 a1.88 1.88 0 1 0 3.76 0 a1.88 1.88 0 1 0 -3.76 0z" fill="black"></path><path d="M185.62 472.5 a1.88 1.88 0 1 0 3.76 0 a1.88 1.88 0 1 0 -3.76 0zM335.62 562.5 a1.88 1.88 0 1 0 3.76 0 a1.88 1.88 0 1 0 -3.76 0z" fill="black"></path><path d="M470.62 232.5 a1.88 1.88 0 1 0 3.76 0 a1.88 1.88 0 1 0 -3.76 0zM470.62 277.5 a1.88 1.88 0 1 0 3.76 0 a1.88 1.88 0 1 0 -3.76 0z" fill="black"></path><path d="M515.62 502.5 a1.88 1.88 0 1 0 3.76 0 a1.88 1.88 0 1 0 -3.76 0zM500.62 442.5 a1.88 1.88 0 1 0 3.76 0 a1.88 1.88 0 1 0 -3.76 0z" fill="black"></path><path d="M515.62 337.5 a1.88 1.88 0 1 0 3.76 0 a1.88 1.88 0 1 0 -3.76 0zM440.62 397.5 a1.88 1.88 0 1 0 3.76 0 a1.88 1.88 0 1 0 -3.76 0z" fill="black"></path><path d="M95.62 82.5 a1.88 1.88 0 1 0 3.76 0 a1.88 1.88 0 1 0 -3.76 0zM185.62 142.5 a1.88 1.88 0 1 0 3.76 0 a1.88 1.88 0 1 0 -3.76 0z" fill="black"></path><path d="M35.62 277.5 a1.88 1.88 0 1 0 3.76 0 a1.88 1.88 0 1 0 -3.76 0zM20.62 247.5 a1.88 1.88 0 1 0 3.76 0 a1.88 1.88 0 1 0 -3.76 0z" fill="black"></path><path d="M155.62 277.5 a1.88 1.88 0 1 0 3.76 0 a1.88 1.88 0 1 0 -3.76 0zM155.62 307.5 a1.88 1.88 0 1 0 3.76 0 a1.88 1.88 0 1 0 -3.76 0z" fill="black"></path><path d="M590.62 292.5 a1.88 1.88 0 1 0 3.76 0 a1.88 1.88 0 1 0 -3.76 0zM575.62 232.5 a1.88 1.88 0 1 0 3.76 0 a1.88 1.88 0 1 0 -3.76 0z" fill="black"></path><path d="M500.62 397.5 a1.88 1.88 0 1 0 3.76 0 a1.88 1.88 0 1 0 -3.76 0zM470.62 427.5 a1.88 1.88 0 1 0 3.76 0 a1.88 1.88 0 1 0 -3.76 0z" fill="black"></path><path d="M455.62 127.5 a1.88 1.88 0 1 0 3.76 0 a1.88 1.88 0 1 0 -3.76 0zM530.62 127.5 a1.88 1.88 0 1 0 3.76 0 a1.88 1.88 0 1 0 -3.76 0z" fill="black"></path><path d="M125.62 502.5 a1.88 1.88 0 1 0 3.76 0 a1.88 1.88 0 1 0 -3.76 0zM5.62 472.5 a1.88 1.88 0 1 0 3.76 0 a1.88 1.88 0 1 0 -3.76 0z" fill="black"></path><path d="M170.62 337.5 a1.88 1.88 0 1 0 3.76 0 a1.88 1.88 0 1 0 -3.76 0zM125.62 382.5 a1.88 1.88 0 1 0 3.76 0 a1.88 1.88 0 1 0 -3.76 0z" fill="black"></path><path d="M110.62 247.5 a1.88 1.88 0 1 0 3.76 0 a1.88 1.88 0 1 0 -3.76 0zM65.62 187.5 a1.88 1.88 0 1 0 3.76 0 a1.88 1.88 0 1 0 -3.76 0z" fill="black"></path><path d="M320.62 337.5 a1.88 1.88 0 1 0 3.76 0 a1.88 1.88 0 1 0 -3.76 0zM380.62 262.5 a1.88 1.88 0 1 0 3.76 0 a1.88 1.88 0 1 0 -3.76 0z" fill="black"></path><path d="M200.62 307.5 a1.88 1.88 0 1 0 3.76 0 a1.88 1.88 0 1 0 -3.76 0zM140.62 382.5 a1.88 1.88 0 1 0 3.76 0 a1.88 1.88 0 1 0 -3.76 0z" fill="black"></path><path d="M215.62 52.5 a1.88 1.88 0 1 0 3.76 0 a1.88 1.88 0 1 0 -3.76 0zM245.62 97.5 a1.88 1.88 0 1 0 3.76 0 a1.88 1.88 0 1 0 -3.76 0z" fill="black"></path><path d="M395.62 97.5 a1.88 1.88 0 1 0 3.76 0 a1.88 1.88 0 1 0 -3.76 0zM440.62 142.5 a1.88 1.88 0 1 0 3.76 0 a1.88 1.88 0 1 0 -3.76 0z" fill="black"></path><path d="M545.62 217.5 a1.88 1.88 0 1 0 3.76 0 a1.88 1.88 0 1 0 -3.76 0zM590.62 202.5 a1.88 1.88 0 1 0 3.76 0 a1.88 1.88 0 1 0 -3.76 0z" fill="black"></path><path d="M260.62 292.5 a1.88 1.88 0 1 0 3.76 0 a1.88 1.88 0 1 0 -3.76 0zM350.62 232.5 a1.88 1.88 0 1 0 3.76 0 a1.88 1.88 0 1 0 -3.76 0z" fill="black"></path><path d="M125.62 97.5 a1.88 1.88 0 1 0 3.76 0 a1.88 1.88 0 1 0 -3.76 0zM200.62 112.5 a1.88 1.88 0 1 0 3.76 0 a1.88 1.88 0 1 0 -3.76 0z" fill="black"></path><path d="M170.62 592.5 a1.88 1.88 0 1 0 3.76 0 a1.88 1.88 0 1 0 -3.76 0zM215.62 562.5 a1.88 1.88 0 1 0 3.76 0 a1.88 1.88 0 1 0 -3.76 0z" fill="black"></path><path d="M515.62 367.5 a1.88 1.88 0 1 0 3.76 0 a1.88 1.88 0 1 0 -3.76 0zM560.62 277.5 a1.88 1.88 0 1 0 3.76 0 a1.88 1.88 0 1 0 -3.76 0z" fill="black"></path><path d="M140.62 502.5 a1.88 1.88 0 1 0 3.76 0 a1.88 1.88 0 1 0 -3.76 0zM110.62 472.5 a1.88 1.88 0 1 0 3.76 0 a1.88 1.88 0 1 0 -3.76 0z" fill="black"></path><path d="M50.62 142.5 a1.88 1.88 0 1 0 3.76 0 a1.88 1.88 0 1 0 -3.76 0zM95.62 157.5 a1.88 1.88 0 1 0 3.76 0 a1.88 1.88 0 1 0 -3.76 0z" fill="black"></path><path d="M50.62 202.5 a1.88 1.88 0 1 0 3.76 0 a1.88 1.88 0 1 0 -3.76 0zM20.62 202.5 a1.88 1.88 0 1 0 3.76 0 a1.88 1.88 0 1 0 -3.76 0z" fill="black"></path><path d="M65.62 127.5 a1.88 1.88 0 1 0 3.76 0 a1.88 1.88 0 1 0 -3.76 0zM20.62 157.5 a1.88 1.88 0 1 0 3.76 0 a1.88 1.88 0 1 0 -3.76 0z" fill="black"></path><path d="M320.62 322.5 a1.88 1.88 0 1 0 3.76 0 a1.88 1.88 0 1 0 -3.76 0zM365.62 322.5 a1.88 1.88 0 1 0 3.76 0 a1.88 1.88 0 1 0 -3.76 0z" fill="black"></path><path d="M350.62 67.5 a1.88 1.88 0 1 0 3.76 0 a1.88 1.88 0 1 0 -3.76 0zM275.62 22.5 a1.88 1.88 0 1 0 3.76 0 a1.88 1.88 0 1 0 -3.76 0z" fill="black"></path><path d="M470.62 502.5 a1.88 1.88 0 1 0 3.76 0 a1.88 1.88 0 1 0 -3.76 0zM485.62 562.5 a1.88 1.88 0 1 0 3.76 0 a1.88 1.88 0 1 0 -3.76 0z" fill="black"></path><path d="M140.62 277.5 a1.88 1.88 0 1 0 3.76 0 a1.88 1.88 0 1 0 -3.76 0zM140.62 247.5 a1.88 1.88 0 1 0 3.76 0 a1.88 1.88 0 1 0 -3.76 0z" fill="black"></path><path d="M470.62 517.5 a1.88 1.88 0 1 0 3.76 0 a1.88 1.88 0 1 0 -3.76 0zM500.62 532.5 a1.88 1.88 0 1 0 3.76 0 a1.88 1.88 0 1 0 -3.76 0z" fill="black"></path><path d="M260.62 562.5 a1.88 1.88 0 1 0 3.76 0 a1.88 1.88 0 1 0 -3.76 0zM230.62 457.5 a1.88 1.88 0 1 0 3.76 0 a1.88 1.88 0 1 0 -3.76 0z" fill="black"></path><path d="M365.62 277.5 a1.88 1.88 0 1 0 3.76 0 a1.88 1.88 0 1 0 -3.76 0zM365.62 307.5 a1.88 1.88 0 1 0 3.76 0 a1.88 1.88 0 1 0 -3.76 0z" fill="black"></path><path d="M305.62 262.5 a1.88 1.88 0 1 0 3.76 0 a1.88 1.88 0 1 0 -3.76 0zM320.62 202.5 a1.88 1.88 0 1 0 3.76 0 a1.88 1.88 0 1 0 -3.76 0z" fill="black"></path><path d="M485.62 7.5 a1.88 1.88 0 1 0 3.76 0 a1.88 1.88 0 1 0 -3.76 0zM560.62 22.5 a1.88 1.88 0 1 0 3.76 0 a1.88 1.88 0 1 0 -3.76 0z" fill="black"></path><path d="M245.62 292.5 a1.88 1.88 0 1 0 3.76 0 a1.88 1.88 0 1 0 -3.76 0zM245.62 217.5 a1.88 1.88 0 1 0 3.76 0 a1.88 1.88 0 1 0 -3.76 0z" fill="black"></path><path d="M320.62 532.5 a1.88 1.88 0 1 0 3.76 0 a1.88 1.88 0 1 0 -3.76 0zM260.62 457.5 a1.88 1.88 0 1 0 3.76 0 a1.88 1.88 0 1 0 -3.76 0z" fill="black"></path><path d="M575.62 577.5 a1.88 1.88 0 1 0 3.76 0 a1.88 1.88 0 1 0 -3.76 0zM590.62 337.5 a1.88 1.88 0 1 0 3.76 0 a1.88 1.88 0 1 0 -3.76 0z" fill="black"></path><path d="M50.62 247.5 a1.88 1.88 0 1 0 3.76 0 a1.88 1.88 0 1 0 -3.76 0zM65.62 217.5 a1.88 1.88 0 1 0 3.76 0 a1.88 1.88 0 1 0 -3.76 0z" fill="black"></path><path d="M350.62 157.5 a1.88 1.88 0 1 0 3.76 0 a1.88 1.88 0 1 0 -3.76 0zM365.62 202.5 a1.88 1.88 0 1 0 3.76 0 a1.88 1.88 0 1 0 -3.76 0z" fill="black"></path><path d="M425.62 292.5 a1.88 1.88 0 1 0 3.76 0 a1.88 1.88 0 1 0 -3.76 0zM425.62 172.5 a1.88 1.88 0 1 0 3.76 0 a1.88 1.88 0 1 0 -3.76 0z" fill="black"></path><path d="M245.62 22.5 a1.88 1.88 0 1 0 3.76 0 a1.88 1.88 0 1 0 -3.76 0zM155.62 7.5 a1.88 1.88 0 1 0 3.76 0 a1.88 1.88 0 1 0 -3.76 0z" fill="black"></path><path d="M5.62 517.5 a1.88 1.88 0 1 0 3.76 0 a1.88 1.88 0 1 0 -3.76 0zM50.62 517.5 a1.88 1.88 0 1 0 3.76 0 a1.88 1.88 0 1 0 -3.76 0z" fill="black"></path><path d="M290.62 532.5 a1.88 1.88 0 1 0 3.76 0 a1.88 1.88 0 1 0 -3.76 0zM320.62 562.5 a1.88 1.88 0 1 0 3.76 0 a1.88 1.88 0 1 0 -3.76 0z" fill="black"></path><path d="M5.62 442.5 a1.88 1.88 0 1 0 3.76 0 a1.88 1.88 0 1 0 -3.76 0zM35.62 442.5 a1.88 1.88 0 1 0 3.76 0 a1.88 1.88 0 1 0 -3.76 0z" fill="black"></path><path d="M545.62 472.5 a1.88 1.88 0 1 0 3.76 0 a1.88 1.88 0 1 0 -3.76 0zM545.62 397.5 a1.88 1.88 0 1 0 3.76 0 a1.88 1.88 0 1 0 -3.76 0z" fill="black"></path><path d="M485.62 142.5 a1.88 1.88 0 1 0 3.76 0 a1.88 1.88 0 1 0 -3.76 0zM470.62 202.5 a1.88 1.88 0 1 0 3.76 0 a1.88 1.88 0 1 0 -3.76 0z" fill="black"></path><path d="M275.62 502.5 a1.88 1.88 0 1 0 3.76 0 a1.88 1.88 0 1 0 -3.76 0zM305.62 532.5 a1.88 1.88 0 1 0 3.76 0 a1.88 1.88 0 1 0 -3.76 0z" fill="black"></path><path d="M320.62 37.5 a1.88 1.88 0 1 0 3.76 0 a1.88 1.88 0 1 0 -3.76 0zM335.62 7.5 a1.88 1.88 0 1 0 3.76 0 a1.88 1.88 0 1 0 -3.76 0z" fill="black"></path><path d="M350.62 427.5 a1.88 1.88 0 1 0 3.76 0 a1.88 1.88 0 1 0 -3.76 0zM380.62 442.5 a1.88 1.88 0 1 0 3.76 0 a1.88 1.88 0 1 0 -3.76 0z" fill="black"></path><path d="M290.62 187.5 a1.88 1.88 0 1 0 3.76 0 a1.88 1.88 0 1 0 -3.76 0zM290.62 67.5 a1.88 1.88 0 1 0 3.76 0 a1.88 1.88 0 1 0 -3.76 0z" fill="black"></path><path d="M410.62 7.5 a1.88 1.88 0 1 0 3.76 0 a1.88 1.88 0 1 0 -3.76 0zM410.62 52.5 a1.88 1.88 0 1 0 3.76 0 a1.88 1.88 0 1 0 -3.76 0z" fill="black"></path><path d="M320.62 442.5 a1.88 1.88 0 1 0 3.76 0 a1.88 1.88 0 1 0 -3.76 0zM350.62 472.5 a1.88 1.88 0 1 0 3.76 0 a1.88 1.88 0 1 0 -3.76 0z" fill="black"></path><path d="M590.62 547.5 a1.88 1.88 0 1 0 3.76 0 a1.88 1.88 0 1 0 -3.76 0zM590.62 517.5 a1.88 1.88 0 1 0 3.76 0 a1.88 1.88 0 1 0 -3.76 0z" fill="black"></path><path d="M440.62 7.5 a1.88 1.88 0 1 0 3.76 0 a1.88 1.88 0 1 0 -3.76 0zM455.62 67.5 a1.88 1.88 0 1 0 3.76 0 a1.88 1.88 0 1 0 -3.76 0z" fill="black"></path><path d="M530.62 247.5 a1.88 1.88 0 1 0 3.76 0 a1.88 1.88 0 1 0 -3.76 0zM530.62 217.5 a1.88 1.88 0 1 0 3.76 0 a1.88 1.88 0 1 0 -3.76 0z" fill="black"></path><path d="M395.62 322.5 a1.88 1.88 0 1 0 3.76 0 a1.88 1.88 0 1 0 -3.76 0zM410.62 292.5 a1.88 1.88 0 1 0 3.76 0 a1.88 1.88 0 1 0 -3.76 0z" fill="black"></path><path d="M140.62 412.5 a1.88 1.88 0 1 0 3.76 0 a1.88 1.88 0 1 0 -3.76 0zM95.62 427.5 a1.88 1.88 0 1 0 3.76 0 a1.88 1.88 0 1 0 -3.76 0z" fill="black"></path><path d="M350.62 307.5 a1.88 1.88 0 1 0 3.76 0 a1.88 1.88 0 1 0 -3.76 0zM350.62 262.5 a1.88 1.88 0 1 0 3.76 0 a1.88 1.88 0 1 0 -3.76 0z" fill="black"></path><path d="M50.62 187.5 a1.88 1.88 0 1 0 3.76 0 a1.88 1.88 0 1 0 -3.76 0zM20.62 187.5 a1.88 1.88 0 1 0 3.76 0 a1.88 1.88 0 1 0 -3.76 0z" fill="black"></path><path d="M290.62 232.5 a1.88 1.88 0 1 0 3.76 0 a1.88 1.88 0 1 0 -3.76 0zM290.62 202.5 a1.88 1.88 0 1 0 3.76 0 a1.88 1.88 0 1 0 -3.76 0z" fill="black"></path><path d="M545.62 322.5 a1.88 1.88 0 1 0 3.76 0 a1.88 1.88 0 1 0 -3.76 0zM515.62 322.5 a1.88 1.88 0 1 0 3.76 0 a1.88 1.88 0 1 0 -3.76 0z" fill="black"></path><path d="M365.62 52.5 a1.88 1.88 0 1 0 3.76 0 a1.88 1.88 0 1 0 -3.76 0zM365.62 82.5 a1.88 1.88 0 1 0 3.76 0 a1.88 1.88 0 1 0 -3.76 0z" fill="black"></path><path d="M590.62 367.5 a1.88 1.88 0 1 0 3.76 0 a1.88 1.88 0 1 0 -3.76 0zM590.62 487.5 a1.88 1.88 0 1 0 3.76 0 a1.88 1.88 0 1 0 -3.76 0z" fill="black"></path><path d="M575.62 127.5 a1.88 1.88 0 1 0 3.76 0 a1.88 1.88 0 1 0 -3.76 0zM575.62 82.5 a1.88 1.88 0 1 0 3.76 0 a1.88 1.88 0 1 0 -3.76 0z" fill="black"></path><path d="M155.62 82.5 a1.88 1.88 0 1 0 3.76 0 a1.88 1.88 0 1 0 -3.76 0zM185.62 112.5 a1.88 1.88 0 1 0 3.76 0 a1.88 1.88 0 1 0 -3.76 0z" fill="black"></path><path d="M110.62 82.5 a1.88 1.88 0 1 0 3.76 0 a1.88 1.88 0 1 0 -3.76 0zM110.62 127.5 a1.88 1.88 0 1 0 3.76 0 a1.88 1.88 0 1 0 -3.76 0z" fill="black"></path><path d="M590.62 172.5 a1.88 1.88 0 1 0 3.76 0 a1.88 1.88 0 1 0 -3.76 0zM560.62 187.5 a1.88 1.88 0 1 0 3.76 0 a1.88 1.88 0 1 0 -3.76 0z" fill="black"></path><path d="M365.62 502.5 a1.88 1.88 0 1 0 3.76 0 a1.88 1.88 0 1 0 -3.76 0zM395.62 502.5 a1.88 1.88 0 1 0 3.76 0 a1.88 1.88 0 1 0 -3.76 0z" fill="black"></path><path d="M260.62 502.5 a1.88 1.88 0 1 0 3.76 0 a1.88 1.88 0 1 0 -3.76 0zM260.62 472.5 a1.88 1.88 0 1 0 3.76 0 a1.88 1.88 0 1 0 -3.76 0z" fill="black"></path><path d="M65.62 292.5 a1.88 1.88 0 1 0 3.76 0 a1.88 1.88 0 1 0 -3.76 0zM80.62 322.5 a1.88 1.88 0 1 0 3.76 0 a1.88 1.88 0 1 0 -3.76 0z" fill="black"></path><path d="M140.62 592.5 a1.88 1.88 0 1 0 3.76 0 a1.88 1.88 0 1 0 -3.76 0zM200.62 562.5 a1.88 1.88 0 1 0 3.76 0 a1.88 1.88 0 1 0 -3.76 0z" fill="black"></path><path d="M500.62 487.5 a1.88 1.88 0 1 0 3.76 0 a1.88 1.88 0 1 0 -3.76 0zM530.62 532.5 a1.88 1.88 0 1 0 3.76 0 a1.88 1.88 0 1 0 -3.76 0z" fill="black"></path><path d="M230.62 592.5 a1.88 1.88 0 1 0 3.76 0 a1.88 1.88 0 1 0 -3.76 0zM200.62 592.5 a1.88 1.88 0 1 0 3.76 0 a1.88 1.88 0 1 0 -3.76 0z" fill="black"></path><path d="M230.62 352.5 a1.88 1.88 0 1 0 3.76 0 a1.88 1.88 0 1 0 -3.76 0zM230.62 397.5 a1.88 1.88 0 1 0 3.76 0 a1.88 1.88 0 1 0 -3.76 0z" fill="black"></path><path d="M425.62 562.5 a1.88 1.88 0 1 0 3.76 0 a1.88 1.88 0 1 0 -3.76 0zM425.62 592.5 a1.88 1.88 0 1 0 3.76 0 a1.88 1.88 0 1 0 -3.76 0z" fill="black"></path><path d="M80.62 367.5 a1.88 1.88 0 1 0 3.76 0 a1.88 1.88 0 1 0 -3.76 0zM80.62 397.5 a1.88 1.88 0 1 0 3.76 0 a1.88 1.88 0 1 0 -3.76 0z" fill="black"></path><path d="M440.62 112.5 a1.88 1.88 0 1 0 3.76 0 a1.88 1.88 0 1 0 -3.76 0zM410.62 97.5 a1.88 1.88 0 1 0 3.76 0 a1.88 1.88 0 1 0 -3.76 0z" fill="black"></path><path d="M5.62 292.5 a1.88 1.88 0 1 0 3.76 0 a1.88 1.88 0 1 0 -3.76 0zM50.62 322.5 a1.88 1.88 0 1 0 3.76 0 a1.88 1.88 0 1 0 -3.76 0z" fill="black"></path><path d="M5.62 532.5 a1.88 1.88 0 1 0 3.76 0 a1.88 1.88 0 1 0 -3.76 0zM35.62 532.5 a1.88 1.88 0 1 0 3.76 0 a1.88 1.88 0 1 0 -3.76 0z" fill="black"></path><path d="M20.62 367.5 a1.88 1.88 0 1 0 3.76 0 a1.88 1.88 0 1 0 -3.76 0zM50.62 397.5 a1.88 1.88 0 1 0 3.76 0 a1.88 1.88 0 1 0 -3.76 0z" fill="black"></path><path d="M575.62 322.5 a1.88 1.88 0 1 0 3.76 0 a1.88 1.88 0 1 0 -3.76 0zM575.62 292.5 a1.88 1.88 0 1 0 3.76 0 a1.88 1.88 0 1 0 -3.76 0z" fill="black"></path><path d="M215.62 217.5 a1.88 1.88 0 1 0 3.76 0 a1.88 1.88 0 1 0 -3.76 0zM215.62 187.5 a1.88 1.88 0 1 0 3.76 0 a1.88 1.88 0 1 0 -3.76 0z" fill="black"></path><path d="M20.62 397.5 a1.88 1.88 0 1 0 3.76 0 a1.88 1.88 0 1 0 -3.76 0zM5.62 367.5 a1.88 1.88 0 1 0 3.76 0 a1.88 1.88 0 1 0 -3.76 0z" fill="black"></path></mask></defs></svg>