<svg xmlns="http://www.w3.org/2000/svg" width="600" height="600" preserveAspectRatio="none"><g mask="url(&quot;#SvgjsMask1018&quot;)"><g mask="url(&quot;#SvgjsMask1019&quot;)" fill="none"><path d="M442.5 502.5l-90 90h-75l-120-120" stroke-width="2.5" stroke="rgba(58, 124, 195, 0.05)"/><path d="M438.75 502.5a3.75 3.75 0 107.5 0 3.75 3.75 0 10-7.5 0zm-285-30a3.75 3.75 0 107.5 0 3.75 3.75 0 10-7.5 0z" fill="rgba(58, 124, 195, 0.05)"/><path d="M157.5 412.5h285" stroke-width="2.5" stroke="rgba(58, 124, 195, 0.05)"/><path d="M153.75 412.5a3.75 3.75 0 107.5 0 3.75 3.75 0 10-7.5 0zm285 0a3.75 3.75 0 107.5 0 3.75 3.75 0 10-7.5 0z" fill="rgba(58, 124, 195, 0.05)"/><path d="M412.5 562.5v30" stroke-width="2.5" stroke="rgba(58, 124, 195, 0.05)"/><path d="M408.75 562.5a3.75 3.75 0 107.5 0 3.75 3.75 0 10-7.5 0zm0 30a3.75 3.75 0 107.5 0 3.75 3.75 0 10-7.5 0z" fill="rgba(58, 124, 195, 0.05)"/><path d="M547.5 37.5l-45 45h-75l-30-30v-45" stroke-width="2.5" stroke="rgba(58, 124, 195, 0.05)"/><path d="M543.75 37.5a3.75 3.75 0 107.5 0 3.75 3.75 0 10-7.5 0zm-150-30a3.75 3.75 0 107.5 0 3.75 3.75 0 10-7.5 0z" fill="rgba(58, 124, 195, 0.05)"/><path d="M247.5 322.5l-45 45v30" stroke-width="2.5" stroke="rgba(58, 124, 195, 0.05)"/><path d="M243.75 322.5a3.75 3.75 0 107.5 0 3.75 3.75 0 10-7.5 0zm-45 75a3.75 3.75 0 107.5 0 3.75 3.75 0 10-7.5 0z" fill="rgba(58, 124, 195, 0.05)"/><path d="M502.5 217.5l90-90V7.5" stroke-width="2.5" stroke="rgba(58, 124, 195, 0.05)"/><path d="M498.75 217.5a3.75 3.75 0 107.5 0 3.75 3.75 0 10-7.5 0zm90-210a3.75 3.75 0 107.5 0 3.75 3.75 0 10-7.5 0z" fill="rgba(58, 124, 195, 0.05)"/><path d="M82.5 592.5h-75" stroke-width="2.5" stroke="rgba(58, 124, 195, 0.05)"/><path d="M78.75 592.5a3.75 3.75 0 107.5 0 3.75 3.75 0 10-7.5 0zm-75 0a3.75 3.75 0 107.5 0 3.75 3.75 0 10-7.5 0z" fill="rgba(58, 124, 195, 0.05)"/><path d="M262.5 277.5V7.5" stroke-width="2.5" stroke="rgba(58, 124, 195, 0.05)"/><path d="M258.75 277.5a3.75 3.75 0 107.5 0 3.75 3.75 0 10-7.5 0zm0-270a3.75 3.75 0 107.5 0 3.75 3.75 0 10-7.5 0z" fill="rgba(58, 124, 195, 0.05)"/><path d="M97.5 322.5v-15l-90-90v-180" stroke-width="2.5" stroke="rgba(58, 124, 195, 0.05)"/><path d="M93.75 322.5a3.75 3.75 0 107.5 0 3.75 3.75 0 10-7.5 0zm-90-285a3.75 3.75 0 107.5 0 3.75 3.75 0 10-7.5 0z" fill="rgba(58, 124, 195, 0.05)"/><path d="M232.5 487.5l90 90h30l165-165" stroke-width="2.5" stroke="rgba(58, 124, 195, 0.05)"/><path d="M228.75 487.5a3.75 3.75 0 107.5 0 3.75 3.75 0 10-7.5 0zm285-75a3.75 3.75 0 107.5 0 3.75 3.75 0 10-7.5 0z" fill="rgba(58, 124, 195, 0.05)"/><path d="M322.5 427.5l45 45h75l150-150v-15" stroke-width="2.5" stroke="rgba(58, 124, 195, 0.05)"/><path d="M318.75 427.5a3.75 3.75 0 107.5 0 3.75 3.75 0 10-7.5 0zm270-120a3.75 3.75 0 107.5 0 3.75 3.75 0 10-7.5 0z" fill="rgba(58, 124, 195, 0.05)"/><path d="M52.5 442.5h150l15-15h45l75 75" stroke-width="2.5" stroke="rgba(58, 124, 195, 0.05)"/><path d="M48.75 442.5a3.75 3.75 0 107.5 0 3.75 3.75 0 10-7.5 0zm285 60a3.75 3.75 0 107.5 0 3.75 3.75 0 10-7.5 0z" fill="rgba(58, 124, 195, 0.05)"/><path d="M187.5 487.5l-30-30H7.5" stroke-width="2.5" stroke="rgba(58, 124, 195, 0.05)"/><path d="M183.75 487.5a3.75 3.75 0 107.5 0 3.75 3.75 0 10-7.5 0zm-180-30a3.75 3.75 0 107.5 0 3.75 3.75 0 10-7.5 0z" fill="rgba(58, 124, 195, 0.05)"/><path d="M532.5 337.5l-75 75v30l-15 15h-75l-30-30" stroke-width="2.5" stroke="rgba(58, 124, 195, 0.05)"/><path d="M528.75 337.5a3.75 3.75 0 107.5 0 3.75 3.75 0 10-7.5 0zm-195 90a3.75 3.75 0 107.5 0 3.75 3.75 0 10-7.5 0z" fill="rgba(58, 124, 195, 0.05)"/><path d="M547.5 112.5l-30-30" stroke-width="2.5" stroke="rgba(58, 124, 195, 0.05)"/><path d="M543.75 112.5a3.75 3.75 0 107.5 0 3.75 3.75 0 10-7.5 0zm-30-30a3.75 3.75 0 107.5 0 3.75 3.75 0 10-7.5 0z" fill="rgba(58, 124, 195, 0.05)"/><path d="M247.5 367.5v-30l15-15h15l75 75h15l120-120v-15" stroke-width="2.5" stroke="rgba(58, 124, 195, 0.05)"/><path d="M243.75 367.5a3.75 3.75 0 107.5 0 3.75 3.75 0 10-7.5 0zm240-105a3.75 3.75 0 107.5 0 3.75 3.75 0 10-7.5 0z" fill="rgba(58, 124, 195, 0.05)"/><path d="M442.5 172.5l-60-60V7.5" stroke-width="2.5" stroke="rgba(58, 124, 195, 0.05)"/><path d="M438.75 172.5a3.75 3.75 0 107.5 0 3.75 3.75 0 10-7.5 0zm-60-165a3.75 3.75 0 107.5 0 3.75 3.75 0 10-7.5 0z" fill="rgba(58, 124, 195, 0.05)"/><path d="M427.5 7.5v60" stroke-width="2.5" stroke="rgba(58, 124, 195, 0.05)"/><path d="M423.75 7.5a3.75 3.75 0 107.5 0 3.75 3.75 0 10-7.5 0zm0 60a3.75 3.75 0 107.5 0 3.75 3.75 0 10-7.5 0z" fill="rgba(58, 124, 195, 0.05)"/><path d="M52.5 67.5l60-60h30l105 105v90" stroke-width="2.5" stroke="rgba(58, 124, 195, 0.05)"/><path d="M48.75 67.5a3.75 3.75 0 107.5 0 3.75 3.75 0 10-7.5 0zm195 135a3.75 3.75 0 107.5 0 3.75 3.75 0 10-7.5 0z" fill="rgba(58, 124, 195, 0.05)"/><path d="M442.5 562.5v30" stroke-width="2.5" stroke="rgba(58, 124, 195, 0.05)"/><path d="M438.75 562.5a3.75 3.75 0 107.5 0 3.75 3.75 0 10-7.5 0zm0 30a3.75 3.75 0 107.5 0 3.75 3.75 0 10-7.5 0z" fill="rgba(58, 124, 195, 0.05)"/><path d="M562.5 262.5l-135 135h-45" stroke-width="2.5" stroke="rgba(58, 124, 195, 0.05)"/><path d="M558.75 262.5a3.75 3.75 0 107.5 0 3.75 3.75 0 10-7.5 0zm-180 135a3.75 3.75 0 107.5 0 3.75 3.75 0 10-7.5 0z" fill="rgba(58, 124, 195, 0.05)"/><path d="M352.5 502.5v60" stroke-width="2.5" stroke="rgba(58, 124, 195, 0.05)"/><path d="M348.75 502.5a3.75 3.75 0 107.5 0 3.75 3.75 0 10-7.5 0zm0 60a3.75 3.75 0 107.5 0 3.75 3.75 0 10-7.5 0z" fill="rgba(58, 124, 195, 0.05)"/><path d="M232.5 247.5l-45 45v15l-120 120h-60" stroke-width="2.5" stroke="rgba(58, 124, 195, 0.05)"/><path d="M228.75 247.5a3.75 3.75 0 107.5 0 3.75 3.75 0 10-7.5 0zm-225 180a3.75 3.75 0 107.5 0 3.75 3.75 0 10-7.5 0z" fill="rgba(58, 124, 195, 0.05)"/><path d="M67.5 247.5v15l75 75" stroke-width="2.5" stroke="rgba(58, 124, 195, 0.05)"/><path d="M63.75 247.5a3.75 3.75 0 107.5 0 3.75 3.75 0 10-7.5 0zm75 90a3.75 3.75 0 107.5 0 3.75 3.75 0 10-7.5 0z" fill="rgba(58, 124, 195, 0.05)"/><path d="M82.5 337.5l-75-75v-30" stroke-width="2.5" stroke="rgba(58, 124, 195, 0.05)"/><path d="M78.75 337.5a3.75 3.75 0 107.5 0 3.75 3.75 0 10-7.5 0zm-75-105a3.75 3.75 0 107.5 0 3.75 3.75 0 10-7.5 0z" fill="rgba(58, 124, 195, 0.05)"/><path d="M247.5 517.5l60 60" stroke-width="2.5" stroke="rgba(58, 124, 195, 0.05)"/><path d="M243.75 517.5a3.75 3.75 0 107.5 0 3.75 3.75 0 10-7.5 0zm60 60a3.75 3.75 0 107.5 0 3.75 3.75 0 10-7.5 0z" fill="rgba(58, 124, 195, 0.05)"/><path d="M517.5 592.5h75" stroke-width="2.5" stroke="rgba(58, 124, 195, 0.05)"/><path d="M513.75 592.5a3.75 3.75 0 107.5 0 3.75 3.75 0 10-7.5 0zm75 0a3.75 3.75 0 107.5 0 3.75 3.75 0 10-7.5 0z" fill="rgba(58, 124, 195, 0.05)"/><path d="M172.5 172.5h-150" stroke-width="2.5" stroke="rgba(58, 124, 195, 0.05)"/><path d="M168.75 172.5a3.75 3.75 0 107.5 0 3.75 3.75 0 10-7.5 0zm-150 0a3.75 3.75 0 107.5 0 3.75 3.75 0 10-7.5 0z" fill="rgba(58, 124, 195, 0.05)"/><path d="M82.5 577.5l75-75h15l90 90" stroke-width="2.5" stroke="rgba(58, 124, 195, 0.05)"/><path d="M78.75 577.5a3.75 3.75 0 107.5 0 3.75 3.75 0 10-7.5 0zm180 15a3.75 3.75 0 107.5 0 3.75 3.75 0 10-7.5 0z" fill="rgba(58, 124, 195, 0.05)"/><path d="M412.5 277.5v-120l-105-105h-30" stroke-width="2.5" stroke="rgba(58, 124, 195, 0.05)"/><path d="M408.75 277.5a3.75 3.75 0 107.5 0 3.75 3.75 0 10-7.5 0zm-135-225a3.75 3.75 0 107.5 0 3.75 3.75 0 10-7.5 0z" fill="rgba(58, 124, 195, 0.05)"/><path d="M127.5 202.5v105l15 15h15l15-15v-105l-15-15h-15" stroke-width="2.5" stroke="rgba(58, 124, 195, 0.05)"/><path d="M123.75 202.5a3.75 3.75 0 107.5 0 3.75 3.75 0 10-7.5 0zm15-15a3.75 3.75 0 107.5 0 3.75 3.75 0 10-7.5 0z" fill="rgba(58, 124, 195, 0.05)"/><path d="M37.5 562.5l-15 15h-15" stroke-width="2.5" stroke="rgba(58, 124, 195, 0.05)"/><path d="M33.75 562.5a3.75 3.75 0 107.5 0 3.75 3.75 0 10-7.5 0zm-30 15a3.75 3.75 0 107.5 0 3.75 3.75 0 10-7.5 0z" fill="rgba(58, 124, 195, 0.05)"/><path d="M562.5 127.5v-45l15-15v-60" stroke-width="2.5" stroke="rgba(58, 124, 195, 0.05)"/><path d="M558.75 127.5a3.75 3.75 0 107.5 0 3.75 3.75 0 10-7.5 0zm15-120a3.75 3.75 0 107.5 0 3.75 3.75 0 10-7.5 0z" fill="rgba(58, 124, 195, 0.05)"/><path d="M97.5 67.5v-30l15-15h30l90 90v120" stroke-width="2.5" stroke="rgba(58, 124, 195, 0.05)"/><path d="M93.75 67.5a3.75 3.75 0 107.5 0 3.75 3.75 0 10-7.5 0zm135 165a3.75 3.75 0 107.5 0 3.75 3.75 0 10-7.5 0z" fill="rgba(58, 124, 195, 0.05)"/><path d="M202.5 172.5v90l-15 15" stroke-width="2.5" stroke="rgba(58, 124, 195, 0.05)"/><path d="M198.75 172.5a3.75 3.75 0 107.5 0 3.75 3.75 0 10-7.5 0zm-15 105a3.75 3.75 0 107.5 0 3.75 3.75 0 10-7.5 0z" fill="rgba(58, 124, 195, 0.05)"/><path d="M307.5 322.5v15l45 45h15l75-75v-90l15-15v-15l15-15" stroke-width="2.5" stroke="rgba(58, 124, 195, 0.05)"/><path d="M303.75 322.5a3.75 3.75 0 107.5 0 3.75 3.75 0 10-7.5 0zm165-150a3.75 3.75 0 107.5 0 3.75 3.75 0 10-7.5 0z" fill="rgba(58, 124, 195, 0.05)"/><path d="M322.5 292.5l-30 30" stroke-width="2.5" stroke="rgba(58, 124, 195, 0.05)"/><path d="M318.75 292.5a3.75 3.75 0 107.5 0 3.75 3.75 0 10-7.5 0zm-30 30a3.75 3.75 0 107.5 0 3.75 3.75 0 10-7.5 0z" fill="rgba(58, 124, 195, 0.05)"/><path d="M22.5 337.5h45l30 30h15l15-15v-15l-15-15" stroke-width="2.5" stroke="rgba(58, 124, 195, 0.05)"/><path d="M18.75 337.5a3.75 3.75 0 107.5 0 3.75 3.75 0 10-7.5 0zm90-15a3.75 3.75 0 107.5 0 3.75 3.75 0 10-7.5 0z" fill="rgba(58, 124, 195, 0.05)"/><path d="M562.5 562.5v-165l-15-15" stroke-width="2.5" stroke="rgba(58, 124, 195, 0.05)"/><path d="M558.75 562.5a3.75 3.75 0 107.5 0 3.75 3.75 0 10-7.5 0zm-15-180a3.75 3.75 0 107.5 0 3.75 3.75 0 10-7.5 0z" fill="rgba(58, 124, 195, 0.05)"/><path d="M7.5 337.5l60 60v15" stroke-width="2.5" stroke="rgba(58, 124, 195, 0.05)"/><path d="M3.75 337.5a3.75 3.75 0 107.5 0 3.75 3.75 0 10-7.5 0zm60 75a3.75 3.75 0 107.5 0 3.75 3.75 0 10-7.5 0z" fill="rgba(58, 124, 195, 0.05)"/><path d="M472.5 22.5h15l30 30" stroke-width="2.5" stroke="rgba(58, 124, 195, 0.05)"/><path d="M468.75 22.5a3.75 3.75 0 107.5 0 3.75 3.75 0 10-7.5 0zm45 30a3.75 3.75 0 107.5 0 3.75 3.75 0 10-7.5 0z" fill="rgba(58, 124, 195, 0.05)"/><path d="M457.5 562.5l30 30h15l45-45v-60l-30-30v-30l15-15v-15" stroke-width="2.5" stroke="rgba(58, 124, 195, 0.05)"/><path d="M453.75 562.5a3.75 3.75 0 107.5 0 3.75 3.75 0 10-7.5 0zm75-165a3.75 3.75 0 107.5 0 3.75 3.75 0 10-7.5 0z" fill="rgba(58, 124, 195, 0.05)"/><path d="M187.5 397.5h-75l-30 30" stroke-width="2.5" stroke="rgba(58, 124, 195, 0.05)"/><path d="M183.75 397.5a3.75 3.75 0 107.5 0 3.75 3.75 0 10-7.5 0zm-105 30a3.75 3.75 0 107.5 0 3.75 3.75 0 10-7.5 0z" fill="rgba(58, 124, 195, 0.05)"/><path d="M487.5 307.5h-15l-75 75" stroke-width="2.5" stroke="rgba(58, 124, 195, 0.05)"/><path d="M483.75 307.5a3.75 3.75 0 107.5 0 3.75 3.75 0 10-7.5 0zm-90 75a3.75 3.75 0 107.5 0 3.75 3.75 0 10-7.5 0z" fill="rgba(58, 124, 195, 0.05)"/><path d="M367.5 592.5h30" stroke-width="2.5" stroke="rgba(58, 124, 195, 0.05)"/><path d="M363.75 592.5a3.75 3.75 0 107.5 0 3.75 3.75 0 10-7.5 0zm30 0a3.75 3.75 0 107.5 0 3.75 3.75 0 10-7.5 0z" fill="rgba(58, 124, 195, 0.05)"/><path d="M247.5 397.5l45-45" stroke-width="2.5" stroke="rgba(58, 124, 195, 0.05)"/><path d="M243.75 397.5a3.75 3.75 0 107.5 0 3.75 3.75 0 10-7.5 0zm45-45a3.75 3.75 0 107.5 0 3.75 3.75 0 10-7.5 0z" fill="rgba(58, 124, 195, 0.05)"/><path d="M142.5 82.5v-15l-30-30" stroke-width="2.5" stroke="rgba(58, 124, 195, 0.05)"/><path d="M138.75 82.5a3.75 3.75 0 107.5 0 3.75 3.75 0 10-7.5 0zm-30-45a3.75 3.75 0 107.5 0 3.75 3.75 0 10-7.5 0z" fill="rgba(58, 124, 195, 0.05)"/><path d="M307.5 202.5v-135" stroke-width="2.5" stroke="rgba(58, 124, 195, 0.05)"/><path d="M303.75 202.5a3.75 3.75 0 107.5 0 3.75 3.75 0 10-7.5 0zm0-135a3.75 3.75 0 107.5 0 3.75 3.75 0 10-7.5 0z" fill="rgba(58, 124, 195, 0.05)"/><path d="M202.5 127.5v15l-15 15h-75l-60-60h-30" stroke-width="2.5" stroke="rgba(58, 124, 195, 0.05)"/><path d="M198.75 127.5a3.75 3.75 0 107.5 0 3.75 3.75 0 10-7.5 0zm-180-30a3.75 3.75 0 107.5 0 3.75 3.75 0 10-7.5 0z" fill="rgba(58, 124, 195, 0.05)"/><path d="M67.5 487.5h-60" stroke-width="2.5" stroke="rgba(58, 124, 195, 0.05)"/><path d="M63.75 487.5a3.75 3.75 0 107.5 0 3.75 3.75 0 10-7.5 0zm-60 0a3.75 3.75 0 107.5 0 3.75 3.75 0 10-7.5 0z" fill="rgba(58, 124, 195, 0.05)"/><path d="M307.5 22.5l-15-15h-15" stroke-width="2.5" stroke="rgba(58, 124, 195, 0.05)"/><path d="M303.75 22.5a3.75 3.75 0 107.5 0 3.75 3.75 0 10-7.5 0zm-30-15a3.75 3.75 0 107.5 0 3.75 3.75 0 10-7.5 0z" fill="rgba(58, 124, 195, 0.05)"/><path d="M7.5 22.5l15-15h75" stroke-width="2.5" stroke="rgba(58, 124, 195, 0.05)"/><path d="M3.75 22.5a3.75 3.75 0 107.5 0 3.75 3.75 0 10-7.5 0zm90-15a3.75 3.75 0 107.5 0 3.75 3.75 0 10-7.5 0z" fill="rgba(58, 124, 195, 0.05)"/><path d="M442.5 367.5v-15l30-30h15" stroke-width="2.5" stroke="rgba(58, 124, 195, 0.05)"/><path d="M438.75 367.5a3.75 3.75 0 107.5 0 3.75 3.75 0 10-7.5 0zm45-45a3.75 3.75 0 107.5 0 3.75 3.75 0 10-7.5 0z" fill="rgba(58, 124, 195, 0.05)"/><path d="M352.5 217.5l-30-30v-30l30-30h15l30 30v150" stroke-width="2.5" stroke="rgba(58, 124, 195, 0.05)"/><path d="M348.75 217.5a3.75 3.75 0 107.5 0 3.75 3.75 0 10-7.5 0zm45 90a3.75 3.75 0 107.5 0 3.75 3.75 0 10-7.5 0z" fill="rgba(58, 124, 195, 0.05)"/><path d="M157.5 547.5v15l-30 30h-30" stroke-width="2.5" stroke="rgba(58, 124, 195, 0.05)"/><path d="M153.75 547.5a3.75 3.75 0 107.5 0 3.75 3.75 0 10-7.5 0zm-60 45a3.75 3.75 0 107.5 0 3.75 3.75 0 10-7.5 0z" fill="rgba(58, 124, 195, 0.05)"/><path d="M367.5 232.5l15-15v-60l-15-15h-15l-15 15v30l30 30" stroke-width="2.5" stroke="rgba(58, 124, 195, 0.05)"/><path d="M363.75 232.5a3.75 3.75 0 107.5 0 3.75 3.75 0 10-7.5 0zm0-15a3.75 3.75 0 107.5 0 3.75 3.75 0 10-7.5 0z" fill="rgba(58, 124, 195, 0.05)"/><path d="M97.5 517.5l-60 60" stroke-width="2.5" stroke="rgba(58, 124, 195, 0.05)"/><path d="M93.75 517.5a3.75 3.75 0 107.5 0 3.75 3.75 0 10-7.5 0zm-60 60a3.75 3.75 0 107.5 0 3.75 3.75 0 10-7.5 0z" fill="rgba(58, 124, 195, 0.05)"/><path d="M382.5 517.5h15l30-30" stroke-width="2.5" stroke="rgba(58, 124, 195, 0.05)"/><path d="M378.75 517.5a3.75 3.75 0 107.5 0 3.75 3.75 0 10-7.5 0zm45-30a3.75 3.75 0 107.5 0 3.75 3.75 0 10-7.5 0z" fill="rgba(58, 124, 195, 0.05)"/><path d="M97.5 487.5l15 15v30l-30 30h-15l-15 15" stroke-width="2.5" stroke="rgba(58, 124, 195, 0.05)"/><path d="M93.75 487.5a3.75 3.75 0 107.5 0 3.75 3.75 0 10-7.5 0zm-45 90a3.75 3.75 0 107.5 0 3.75 3.75 0 10-7.5 0z" fill="rgba(58, 124, 195, 0.05)"/><path d="M307.5 457.5l30 30h75" stroke-width="2.5" stroke="rgba(58, 124, 195, 0.05)"/><path d="M303.75 457.5a3.75 3.75 0 107.5 0 3.75 3.75 0 10-7.5 0zm105 30a3.75 3.75 0 107.5 0 3.75 3.75 0 10-7.5 0z" fill="rgba(58, 124, 195, 0.05)"/><path d="M67.5 517.5l-15-15h-45" stroke-width="2.5" stroke="rgba(58, 124, 195, 0.05)"/><path d="M63.75 517.5a3.75 3.75 0 107.5 0 3.75 3.75 0 10-7.5 0zm-60-15a3.75 3.75 0 107.5 0 3.75 3.75 0 10-7.5 0z" fill="rgba(58, 124, 195, 0.05)"/><path d="M562.5 217.5h30" stroke-width="2.5" stroke="rgba(58, 124, 195, 0.05)"/><path d="M558.75 217.5a3.75 3.75 0 107.5 0 3.75 3.75 0 10-7.5 0zm30 0a3.75 3.75 0 107.5 0 3.75 3.75 0 10-7.5 0z" fill="rgba(58, 124, 195, 0.05)"/><path d="M472.5 37.5v30" stroke-width="2.5" stroke="rgba(58, 124, 195, 0.05)"/><path d="M468.75 37.5a3.75 3.75 0 107.5 0 3.75 3.75 0 10-7.5 0zm0 30a3.75 3.75 0 107.5 0 3.75 3.75 0 10-7.5 0z" fill="rgba(58, 124, 195, 0.05)"/><path d="M202.5 547.5l-30-30h-15l-60 60" stroke-width="2.5" stroke="rgba(58, 124, 195, 0.05)"/><path d="M198.75 547.5a3.75 3.75 0 107.5 0 3.75 3.75 0 10-7.5 0zm-105 30a3.75 3.75 0 107.5 0 3.75 3.75 0 10-7.5 0z" fill="rgba(58, 124, 195, 0.05)"/><path d="M517.5 172.5l-60 60v60" stroke-width="2.5" stroke="rgba(58, 124, 195, 0.05)"/><path d="M513.75 172.5a3.75 3.75 0 107.5 0 3.75 3.75 0 10-7.5 0zm-60 120a3.75 3.75 0 107.5 0 3.75 3.75 0 10-7.5 0z" fill="rgba(58, 124, 195, 0.05)"/><path d="M67.5 532.5l-15 15h-30l-15 15" stroke-width="2.5" stroke="rgba(58, 124, 195, 0.05)"/><path d="M63.75 532.5a3.75 3.75 0 107.5 0 3.75 3.75 0 10-7.5 0zm-60 30a3.75 3.75 0 107.5 0 3.75 3.75 0 10-7.5 0z" fill="rgba(58, 124, 195, 0.05)"/><path d="M187.5 37.5h60" stroke-width="2.5" stroke="rgba(58, 124, 195, 0.05)"/><path d="M183.75 37.5a3.75 3.75 0 107.5 0 3.75 3.75 0 10-7.5 0zm60 0a3.75 3.75 0 107.5 0 3.75 3.75 0 10-7.5 0z" fill="rgba(58, 124, 195, 0.05)"/><path d="M532.5 277.5l-30-30v-15l-15-15" stroke-width="2.5" stroke="rgba(58, 124, 195, 0.05)"/><path d="M528.75 277.5a3.75 3.75 0 107.5 0 3.75 3.75 0 10-7.5 0zm-45-60a3.75 3.75 0 107.5 0 3.75 3.75 0 10-7.5 0z" fill="rgba(58, 124, 195, 0.05)"/><path d="M52.5 37.5l-15-15h-15" stroke-width="2.5" stroke="rgba(58, 124, 195, 0.05)"/><path d="M48.75 37.5a3.75 3.75 0 107.5 0 3.75 3.75 0 10-7.5 0zm-30-15a3.75 3.75 0 107.5 0 3.75 3.75 0 10-7.5 0z" fill="rgba(58, 124, 195, 0.05)"/><path d="M112.5 262.5v30" stroke-width="2.5" stroke="rgba(58, 124, 195, 0.05)"/><path d="M108.75 262.5a3.75 3.75 0 107.5 0 3.75 3.75 0 10-7.5 0zm0 30a3.75 3.75 0 107.5 0 3.75 3.75 0 10-7.5 0z" fill="rgba(58, 124, 195, 0.05)"/><path d="M232.5 292.5l15 15h45l60-60h30" stroke-width="2.5" stroke="rgba(58, 124, 195, 0.05)"/><path d="M228.75 292.5a3.75 3.75 0 107.5 0 3.75 3.75 0 10-7.5 0zm150-45a3.75 3.75 0 107.5 0 3.75 3.75 0 10-7.5 0z" fill="rgba(58, 124, 195, 0.05)"/><path d="M472.5 127.5l-30 30" stroke-width="2.5" stroke="rgba(58, 124, 195, 0.05)"/><path d="M468.75 127.5a3.75 3.75 0 107.5 0 3.75 3.75 0 10-7.5 0zm-30 30a3.75 3.75 0 107.5 0 3.75 3.75 0 10-7.5 0z" fill="rgba(58, 124, 195, 0.05)"/><path d="M322.5 82.5v60" stroke-width="2.5" stroke="rgba(58, 124, 195, 0.05)"/><path d="M318.75 82.5a3.75 3.75 0 107.5 0 3.75 3.75 0 10-7.5 0zm0 60a3.75 3.75 0 107.5 0 3.75 3.75 0 10-7.5 0z" fill="rgba(58, 124, 195, 0.05)"/><path d="M502.5 142.5h45" stroke-width="2.5" stroke="rgba(58, 124, 195, 0.05)"/><path d="M498.75 142.5a3.75 3.75 0 107.5 0 3.75 3.75 0 10-7.5 0zm45 0a3.75 3.75 0 107.5 0 3.75 3.75 0 10-7.5 0z" fill="rgba(58, 124, 195, 0.05)"/><path d="M217.5 142.5v-30l-75-75h-15" stroke-width="2.5" stroke="rgba(58, 124, 195, 0.05)"/><path d="M213.75 142.5a3.75 3.75 0 107.5 0 3.75 3.75 0 10-7.5 0zm-90-105a3.75 3.75 0 107.5 0 3.75 3.75 0 10-7.5 0z" fill="rgba(58, 124, 195, 0.05)"/><path d="M337.5 37.5l30-30" stroke-width="2.5" stroke="rgba(58, 124, 195, 0.05)"/><path d="M333.75 37.5a3.75 3.75 0 107.5 0 3.75 3.75 0 10-7.5 0zm30-30a3.75 3.75 0 107.5 0 3.75 3.75 0 10-7.5 0z" fill="rgba(58, 124, 195, 0.05)"/><path d="M82.5 67.5h-15l-15 15h-30" stroke-width="2.5" stroke="rgba(58, 124, 195, 0.05)"/><path d="M78.75 67.5a3.75 3.75 0 107.5 0 3.75 3.75 0 10-7.5 0zm-60 15a3.75 3.75 0 107.5 0 3.75 3.75 0 10-7.5 0z" fill="rgba(58, 124, 195, 0.05)"/><path d="M277.5 277.5v-210" stroke-width="2.5" stroke="rgba(58, 124, 195, 0.05)"/><path d="M273.75 277.5a3.75 3.75 0 107.5 0 3.75 3.75 0 10-7.5 0zm0-210a3.75 3.75 0 107.5 0 3.75 3.75 0 10-7.5 0z" fill="rgba(58, 124, 195, 0.05)"/><path d="M187.5 472.5l30-30h45l75 75v45" stroke-width="2.5" stroke="rgba(58, 124, 195, 0.05)"/><path d="M183.75 472.5a3.75 3.75 0 107.5 0 3.75 3.75 0 10-7.5 0zm150 90a3.75 3.75 0 107.5 0 3.75 3.75 0 10-7.5 0z" fill="rgba(58, 124, 195, 0.05)"/><path d="M472.5 232.5v45" stroke-width="2.5" stroke="rgba(58, 124, 195, 0.05)"/><path d="M468.75 232.5a3.75 3.75 0 107.5 0 3.75 3.75 0 10-7.5 0zm0 45a3.75 3.75 0 107.5 0 3.75 3.75 0 10-7.5 0z" fill="rgba(58, 124, 195, 0.05)"/><path d="M517.5 502.5v60l-15 15h-15l-45-45v-15l60-60v-15" stroke-width="2.5" stroke="rgba(58, 124, 195, 0.05)"/><path d="M513.75 502.5a3.75 3.75 0 107.5 0 3.75 3.75 0 10-7.5 0zm-15-60a3.75 3.75 0 107.5 0 3.75 3.75 0 10-7.5 0z" fill="rgba(58, 124, 195, 0.05)"/><path d="M517.5 337.5h-15l-60 60" stroke-width="2.5" stroke="rgba(58, 124, 195, 0.05)"/><path d="M513.75 337.5a3.75 3.75 0 107.5 0 3.75 3.75 0 10-7.5 0zm-75 60a3.75 3.75 0 107.5 0 3.75 3.75 0 10-7.5 0z" fill="rgba(58, 124, 195, 0.05)"/><path d="M97.5 82.5v45l15 15h75" stroke-width="2.5" stroke="rgba(58, 124, 195, 0.05)"/><path d="M93.75 82.5a3.75 3.75 0 107.5 0 3.75 3.75 0 10-7.5 0zm90 60a3.75 3.75 0 107.5 0 3.75 3.75 0 10-7.5 0z" fill="rgba(58, 124, 195, 0.05)"/><path d="M37.5 277.5v-15l-15-15" stroke-width="2.5" stroke="rgba(58, 124, 195, 0.05)"/><path d="M33.75 277.5a3.75 3.75 0 107.5 0 3.75 3.75 0 10-7.5 0zm-15-30a3.75 3.75 0 107.5 0 3.75 3.75 0 10-7.5 0z" fill="rgba(58, 124, 195, 0.05)"/><path d="M157.5 277.5v30" stroke-width="2.5" stroke="rgba(58, 124, 195, 0.05)"/><path d="M153.75 277.5a3.75 3.75 0 107.5 0 3.75 3.75 0 10-7.5 0zm0 30a3.75 3.75 0 107.5 0 3.75 3.75 0 10-7.5 0z" fill="rgba(58, 124, 195, 0.05)"/><path d="M592.5 292.5l-15-15v-45" stroke-width="2.5" stroke="rgba(58, 124, 195, 0.05)"/><path d="M588.75 292.5a3.75 3.75 0 107.5 0 3.75 3.75 0 10-7.5 0zm-15-60a3.75 3.75 0 107.5 0 3.75 3.75 0 10-7.5 0z" fill="rgba(58, 124, 195, 0.05)"/><path d="M502.5 397.5l-30 30" stroke-width="2.5" stroke="rgba(58, 124, 195, 0.05)"/><path d="M498.75 397.5a3.75 3.75 0 107.5 0 3.75 3.75 0 10-7.5 0zm-30 30a3.75 3.75 0 107.5 0 3.75 3.75 0 10-7.5 0z" fill="rgba(58, 124, 195, 0.05)"/><path d="M457.5 127.5l30-30h30l15 15v15" stroke-width="2.5" stroke="rgba(58, 124, 195, 0.05)"/><path d="M453.75 127.5a3.75 3.75 0 107.5 0 3.75 3.75 0 10-7.5 0zm75 0a3.75 3.75 0 107.5 0 3.75 3.75 0 10-7.5 0z" fill="rgba(58, 124, 195, 0.05)"/><path d="M127.5 502.5l-30-30h-90" stroke-width="2.5" stroke="rgba(58, 124, 195, 0.05)"/><path d="M123.75 502.5a3.75 3.75 0 107.5 0 3.75 3.75 0 10-7.5 0zm-120-30a3.75 3.75 0 107.5 0 3.75 3.75 0 10-7.5 0z" fill="rgba(58, 124, 195, 0.05)"/><path d="M172.5 337.5l-45 45" stroke-width="2.5" stroke="rgba(58, 124, 195, 0.05)"/><path d="M168.75 337.5a3.75 3.75 0 107.5 0 3.75 3.75 0 10-7.5 0zm-45 45a3.75 3.75 0 107.5 0 3.75 3.75 0 10-7.5 0z" fill="rgba(58, 124, 195, 0.05)"/><path d="M112.5 247.5l-45-45v-15" stroke-width="2.5" stroke="rgba(58, 124, 195, 0.05)"/><path d="M108.75 247.5a3.75 3.75 0 107.5 0 3.75 3.75 0 10-7.5 0zm-45-60a3.75 3.75 0 107.5 0 3.75 3.75 0 10-7.5 0z" fill="rgba(58, 124, 195, 0.05)"/><path d="M322.5 337.5l30 30h15l15-15v-90" stroke-width="2.5" stroke="rgba(58, 124, 195, 0.05)"/><path d="M318.75 337.5a3.75 3.75 0 107.5 0 3.75 3.75 0 10-7.5 0zm60-75a3.75 3.75 0 107.5 0 3.75 3.75 0 10-7.5 0z" fill="rgba(58, 124, 195, 0.05)"/><path d="M202.5 307.5v45l-30 30h-30" stroke-width="2.5" stroke="rgba(58, 124, 195, 0.05)"/><path d="M198.75 307.5a3.75 3.75 0 107.5 0 3.75 3.75 0 10-7.5 0zm-60 75a3.75 3.75 0 107.5 0 3.75 3.75 0 10-7.5 0z" fill="rgba(58, 124, 195, 0.05)"/><path d="M217.5 52.5l30 30v15" stroke-width="2.5" stroke="rgba(58, 124, 195, 0.05)"/><path d="M213.75 52.5a3.75 3.75 0 107.5 0 3.75 3.75 0 10-7.5 0zm30 45a3.75 3.75 0 107.5 0 3.75 3.75 0 10-7.5 0z" fill="rgba(58, 124, 195, 0.05)"/><path d="M397.5 97.5l45 45" stroke-width="2.5" stroke="rgba(58, 124, 195, 0.05)"/><path d="M393.75 97.5a3.75 3.75 0 107.5 0 3.75 3.75 0 10-7.5 0zm45 45a3.75 3.75 0 107.5 0 3.75 3.75 0 10-7.5 0z" fill="rgba(58, 124, 195, 0.05)"/><path d="M547.5 217.5l15 15v15l-15 15h-15l-15-15v-30l15-15h60" stroke-width="2.5" stroke="rgba(58, 124, 195, 0.05)"/><path d="M543.75 217.5a3.75 3.75 0 107.5 0 3.75 3.75 0 10-7.5 0zm45-15a3.75 3.75 0 107.5 0 3.75 3.75 0 10-7.5 0z" fill="rgba(58, 124, 195, 0.05)"/><path d="M262.5 292.5h30l60-60" stroke-width="2.5" stroke="rgba(58, 124, 195, 0.05)"/><path d="M258.75 292.5a3.75 3.75 0 107.5 0 3.75 3.75 0 10-7.5 0zm90-60a3.75 3.75 0 107.5 0 3.75 3.75 0 10-7.5 0z" fill="rgba(58, 124, 195, 0.05)"/><path d="M127.5 97.5l30 30h30l15-15" stroke-width="2.5" stroke="rgba(58, 124, 195, 0.05)"/><path d="M123.75 97.5a3.75 3.75 0 107.5 0 3.75 3.75 0 10-7.5 0zm75 15a3.75 3.75 0 107.5 0 3.75 3.75 0 10-7.5 0z" fill="rgba(58, 124, 195, 0.05)"/><path d="M172.5 592.5h15l30-30" stroke-width="2.5" stroke="rgba(58, 124, 195, 0.05)"/><path d="M168.75 592.5a3.75 3.75 0 107.5 0 3.75 3.75 0 10-7.5 0zm45-30a3.75 3.75 0 107.5 0 3.75 3.75 0 10-7.5 0z" fill="rgba(58, 124, 195, 0.05)"/><path d="M517.5 367.5l45-45v-45" stroke-width="2.5" stroke="rgba(58, 124, 195, 0.05)"/><path d="M513.75 367.5a3.75 3.75 0 107.5 0 3.75 3.75 0 10-7.5 0zm45-90a3.75 3.75 0 107.5 0 3.75 3.75 0 10-7.5 0z" fill="rgba(58, 124, 195, 0.05)"/><path d="M142.5 502.5l-30-30" stroke-width="2.5" stroke="rgba(58, 124, 195, 0.05)"/><path d="M138.75 502.5a3.75 3.75 0 107.5 0 3.75 3.75 0 10-7.5 0zm-30-30a3.75 3.75 0 107.5 0 3.75 3.75 0 10-7.5 0z" fill="rgba(58, 124, 195, 0.05)"/><path d="M52.5 142.5l15 15h30" stroke-width="2.5" stroke="rgba(58, 124, 195, 0.05)"/><path d="M48.75 142.5a3.75 3.75 0 107.5 0 3.75 3.75 0 10-7.5 0zm45 15a3.75 3.75 0 107.5 0 3.75 3.75 0 10-7.5 0z" fill="rgba(58, 124, 195, 0.05)"/><path d="M52.5 202.5h-30" stroke-width="2.5" stroke="rgba(58, 124, 195, 0.05)"/><path d="M48.75 202.5a3.75 3.75 0 107.5 0 3.75 3.75 0 10-7.5 0zm-30 0a3.75 3.75 0 107.5 0 3.75 3.75 0 10-7.5 0z" fill="rgba(58, 124, 195, 0.05)"/><path d="M67.5 127.5l-15-15h-15l-15 15v30" stroke-width="2.5" stroke="rgba(58, 124, 195, 0.05)"/><path d="M63.75 127.5a3.75 3.75 0 107.5 0 3.75 3.75 0 10-7.5 0zm-45 30a3.75 3.75 0 107.5 0 3.75 3.75 0 10-7.5 0z" fill="rgba(58, 124, 195, 0.05)"/><path d="M322.5 322.5h45" stroke-width="2.5" stroke="rgba(58, 124, 195, 0.05)"/><path d="M318.75 322.5a3.75 3.75 0 107.5 0 3.75 3.75 0 10-7.5 0zm45 0a3.75 3.75 0 107.5 0 3.75 3.75 0 10-7.5 0z" fill="rgba(58, 124, 195, 0.05)"/><path d="M352.5 67.5h-15l-45-45h-15" stroke-width="2.5" stroke="rgba(58, 124, 195, 0.05)"/><path d="M348.75 67.5a3.75 3.75 0 107.5 0 3.75 3.75 0 10-7.5 0zm-75-45a3.75 3.75 0 107.5 0 3.75 3.75 0 10-7.5 0z" fill="rgba(58, 124, 195, 0.05)"/><path d="M472.5 502.5l-15 15v15l30 30" stroke-width="2.5" stroke="rgba(58, 124, 195, 0.05)"/><path d="M468.75 502.5a3.75 3.75 0 107.5 0 3.75 3.75 0 10-7.5 0zm15 60a3.75 3.75 0 107.5 0 3.75 3.75 0 10-7.5 0z" fill="rgba(58, 124, 195, 0.05)"/><path d="M142.5 277.5v-30" stroke-width="2.5" stroke="rgba(58, 124, 195, 0.05)"/><path d="M138.75 277.5a3.75 3.75 0 107.5 0 3.75 3.75 0 10-7.5 0zm0-30a3.75 3.75 0 107.5 0 3.75 3.75 0 10-7.5 0z" fill="rgba(58, 124, 195, 0.05)"/><path d="M472.5 517.5l15 15h15" stroke-width="2.5" stroke="rgba(58, 124, 195, 0.05)"/><path d="M468.75 517.5a3.75 3.75 0 107.5 0 3.75 3.75 0 10-7.5 0zm30 15a3.75 3.75 0 107.5 0 3.75 3.75 0 10-7.5 0z" fill="rgba(58, 124, 195, 0.05)"/><path d="M262.5 562.5l-60-60v-30l15-15h15" stroke-width="2.5" stroke="rgba(58, 124, 195, 0.05)"/><path d="M258.75 562.5a3.75 3.75 0 107.5 0 3.75 3.75 0 10-7.5 0zm-30-105a3.75 3.75 0 107.5 0 3.75 3.75 0 10-7.5 0z" fill="rgba(58, 124, 195, 0.05)"/><path d="M367.5 277.5v30" stroke-width="2.5" stroke="rgba(58, 124, 195, 0.05)"/><path d="M363.75 277.5a3.75 3.75 0 107.5 0 3.75 3.75 0 10-7.5 0zm0 30a3.75 3.75 0 107.5 0 3.75 3.75 0 10-7.5 0z" fill="rgba(58, 124, 195, 0.05)"/><path d="M307.5 262.5l30-30v-15l-15-15" stroke-width="2.5" stroke="rgba(58, 124, 195, 0.05)"/><path d="M303.75 262.5a3.75 3.75 0 107.5 0 3.75 3.75 0 10-7.5 0zm15-60a3.75 3.75 0 107.5 0 3.75 3.75 0 10-7.5 0z" fill="rgba(58, 124, 195, 0.05)"/><path d="M487.5 7.5l15 15h60" stroke-width="2.5" stroke="rgba(58, 124, 195, 0.05)"/><path d="M483.75 7.5a3.75 3.75 0 107.5 0 3.75 3.75 0 10-7.5 0zm75 15a3.75 3.75 0 107.5 0 3.75 3.75 0 10-7.5 0z" fill="rgba(58, 124, 195, 0.05)"/><path d="M247.5 292.5v-75" stroke-width="2.5" stroke="rgba(58, 124, 195, 0.05)"/><path d="M243.75 292.5a3.75 3.75 0 107.5 0 3.75 3.75 0 10-7.5 0zm0-75a3.75 3.75 0 107.5 0 3.75 3.75 0 10-7.5 0z" fill="rgba(58, 124, 195, 0.05)"/><path d="M322.5 532.5v-15l-60-60" stroke-width="2.5" stroke="rgba(58, 124, 195, 0.05)"/><path d="M318.75 532.5a3.75 3.75 0 107.5 0 3.75 3.75 0 10-7.5 0zm-60-75a3.75 3.75 0 107.5 0 3.75 3.75 0 10-7.5 0z" fill="rgba(58, 124, 195, 0.05)"/><path d="M577.5 577.5v-225l15-15" stroke-width="2.5" stroke="rgba(58, 124, 195, 0.05)"/><path d="M573.75 577.5a3.75 3.75 0 107.5 0 3.75 3.75 0 10-7.5 0zm15-240a3.75 3.75 0 107.5 0 3.75 3.75 0 10-7.5 0z" fill="rgba(58, 124, 195, 0.05)"/><path d="M52.5 247.5l15-15v-15" stroke-width="2.5" stroke="rgba(58, 124, 195, 0.05)"/><path d="M48.75 247.5a3.75 3.75 0 107.5 0 3.75 3.75 0 10-7.5 0zm15-30a3.75 3.75 0 107.5 0 3.75 3.75 0 10-7.5 0z" fill="rgba(58, 124, 195, 0.05)"/><path d="M352.5 157.5v30l15 15" stroke-width="2.5" stroke="rgba(58, 124, 195, 0.05)"/><path d="M348.75 157.5a3.75 3.75 0 107.5 0 3.75 3.75 0 10-7.5 0zm15 45a3.75 3.75 0 107.5 0 3.75 3.75 0 10-7.5 0z" fill="rgba(58, 124, 195, 0.05)"/><path d="M427.5 292.5v-120" stroke-width="2.5" stroke="rgba(58, 124, 195, 0.05)"/><path d="M423.75 292.5a3.75 3.75 0 107.5 0 3.75 3.75 0 10-7.5 0zm0-120a3.75 3.75 0 107.5 0 3.75 3.75 0 10-7.5 0z" fill="rgba(58, 124, 195, 0.05)"/><path d="M247.5 22.5l-15-15h-75" stroke-width="2.5" stroke="rgba(58, 124, 195, 0.05)"/><path d="M243.75 22.5a3.75 3.75 0 107.5 0 3.75 3.75 0 10-7.5 0zm-90-15a3.75 3.75 0 107.5 0 3.75 3.75 0 10-7.5 0z" fill="rgba(58, 124, 195, 0.05)"/><path d="M7.5 517.5h45" stroke-width="2.5" stroke="rgba(58, 124, 195, 0.05)"/><path d="M3.75 517.5a3.75 3.75 0 107.5 0 3.75 3.75 0 10-7.5 0zm45 0a3.75 3.75 0 107.5 0 3.75 3.75 0 10-7.5 0z" fill="rgba(58, 124, 195, 0.05)"/><path d="M292.5 532.5l30 30" stroke-width="2.5" stroke="rgba(58, 124, 195, 0.05)"/><path d="M288.75 532.5a3.75 3.75 0 107.5 0 3.75 3.75 0 10-7.5 0zm30 30a3.75 3.75 0 107.5 0 3.75 3.75 0 10-7.5 0z" fill="rgba(58, 124, 195, 0.05)"/><path d="M7.5 442.5h30" stroke-width="2.5" stroke="rgba(58, 124, 195, 0.05)"/><path d="M3.75 442.5a3.75 3.75 0 107.5 0 3.75 3.75 0 10-7.5 0zm30 0a3.75 3.75 0 107.5 0 3.75 3.75 0 10-7.5 0z" fill="rgba(58, 124, 195, 0.05)"/><path d="M547.5 472.5l-15-15v-30l15-15v-15" stroke-width="2.5" stroke="rgba(58, 124, 195, 0.05)"/><path d="M543.75 472.5a3.75 3.75 0 107.5 0 3.75 3.75 0 10-7.5 0zm0-75a3.75 3.75 0 107.5 0 3.75 3.75 0 10-7.5 0z" fill="rgba(58, 124, 195, 0.05)"/><path d="M487.5 142.5v45l-15 15" stroke-width="2.5" stroke="rgba(58, 124, 195, 0.05)"/><path d="M483.75 142.5a3.75 3.75 0 107.5 0 3.75 3.75 0 10-7.5 0zm-15 60a3.75 3.75 0 107.5 0 3.75 3.75 0 10-7.5 0z" fill="rgba(58, 124, 195, 0.05)"/><path d="M277.5 502.5h15l15 15v15" stroke-width="2.5" stroke="rgba(58, 124, 195, 0.05)"/><path d="M273.75 502.5a3.75 3.75 0 107.5 0 3.75 3.75 0 10-7.5 0zm30 30a3.75 3.75 0 107.5 0 3.75 3.75 0 10-7.5 0z" fill="rgba(58, 124, 195, 0.05)"/><path d="M322.5 37.5l15-15v-15" stroke-width="2.5" stroke="rgba(58, 124, 195, 0.05)"/><path d="M318.75 37.5a3.75 3.75 0 107.5 0 3.75 3.75 0 10-7.5 0zm15-30a3.75 3.75 0 107.5 0 3.75 3.75 0 10-7.5 0z" fill="rgba(58, 124, 195, 0.05)"/><path d="M352.5 427.5h15l15 15" stroke-width="2.5" stroke="rgba(58, 124, 195, 0.05)"/><path d="M348.75 427.5a3.75 3.75 0 107.5 0 3.75 3.75 0 10-7.5 0zm30 15a3.75 3.75 0 107.5 0 3.75 3.75 0 10-7.5 0z" fill="rgba(58, 124, 195, 0.05)"/><path d="M292.5 187.5v-120" stroke-width="2.5" stroke="rgba(58, 124, 195, 0.05)"/><path d="M288.75 187.5a3.75 3.75 0 107.5 0 3.75 3.75 0 10-7.5 0zm0-120a3.75 3.75 0 107.5 0 3.75 3.75 0 10-7.5 0z" fill="rgba(58, 124, 195, 0.05)"/><path d="M412.5 7.5v45" stroke-width="2.5" stroke="rgba(58, 124, 195, 0.05)"/><path d="M408.75 7.5a3.75 3.75 0 107.5 0 3.75 3.75 0 10-7.5 0zm0 45a3.75 3.75 0 107.5 0 3.75 3.75 0 10-7.5 0z" fill="rgba(58, 124, 195, 0.05)"/><path d="M322.5 442.5l30 30" stroke-width="2.5" stroke="rgba(58, 124, 195, 0.05)"/><path d="M318.75 442.5a3.75 3.75 0 107.5 0 3.75 3.75 0 10-7.5 0zm30 30a3.75 3.75 0 107.5 0 3.75 3.75 0 10-7.5 0z" fill="rgba(58, 124, 195, 0.05)"/><path d="M592.5 547.5v-30" stroke-width="2.5" stroke="rgba(58, 124, 195, 0.05)"/><path d="M588.75 547.5a3.75 3.75 0 107.5 0 3.75 3.75 0 10-7.5 0zm0-30a3.75 3.75 0 107.5 0 3.75 3.75 0 10-7.5 0z" fill="rgba(58, 124, 195, 0.05)"/><path d="M442.5 7.5v30l15 15v15" stroke-width="2.5" stroke="rgba(58, 124, 195, 0.05)"/><path d="M438.75 7.5a3.75 3.75 0 107.5 0 3.75 3.75 0 10-7.5 0zm15 60a3.75 3.75 0 107.5 0 3.75 3.75 0 10-7.5 0z" fill="rgba(58, 124, 195, 0.05)"/><path d="M532.5 247.5v-30" stroke-width="2.5" stroke="rgba(58, 124, 195, 0.05)"/><path d="M528.75 247.5a3.75 3.75 0 107.5 0 3.75 3.75 0 10-7.5 0zm0-30a3.75 3.75 0 107.5 0 3.75 3.75 0 10-7.5 0z" fill="rgba(58, 124, 195, 0.05)"/><path d="M397.5 322.5l15-15v-15" stroke-width="2.5" stroke="rgba(58, 124, 195, 0.05)"/><path d="M393.75 322.5a3.75 3.75 0 107.5 0 3.75 3.75 0 10-7.5 0zm15-30a3.75 3.75 0 107.5 0 3.75 3.75 0 10-7.5 0z" fill="rgba(58, 124, 195, 0.05)"/><path d="M142.5 412.5l-15 15h-30" stroke-width="2.5" stroke="rgba(58, 124, 195, 0.05)"/><path d="M138.75 412.5a3.75 3.75 0 107.5 0 3.75 3.75 0 10-7.5 0zm-45 15a3.75 3.75 0 107.5 0 3.75 3.75 0 10-7.5 0z" fill="rgba(58, 124, 195, 0.05)"/><path d="M352.5 307.5v-45" stroke-width="2.5" stroke="rgba(58, 124, 195, 0.05)"/><path d="M348.75 307.5a3.75 3.75 0 107.5 0 3.75 3.75 0 10-7.5 0zm0-45a3.75 3.75 0 107.5 0 3.75 3.75 0 10-7.5 0z" fill="rgba(58, 124, 195, 0.05)"/><path d="M52.5 187.5h-30" stroke-width="2.5" stroke="rgba(58, 124, 195, 0.05)"/><path d="M48.75 187.5a3.75 3.75 0 107.5 0 3.75 3.75 0 10-7.5 0zm-30 0a3.75 3.75 0 107.5 0 3.75 3.75 0 10-7.5 0z" fill="rgba(58, 124, 195, 0.05)"/><path d="M292.5 232.5v-30" stroke-width="2.5" stroke="rgba(58, 124, 195, 0.05)"/><path d="M288.75 232.5a3.75 3.75 0 107.5 0 3.75 3.75 0 10-7.5 0zm0-30a3.75 3.75 0 107.5 0 3.75 3.75 0 10-7.5 0z" fill="rgba(58, 124, 195, 0.05)"/><path d="M547.5 322.5h-30" stroke-width="2.5" stroke="rgba(58, 124, 195, 0.05)"/><path d="M543.75 322.5a3.75 3.75 0 107.5 0 3.75 3.75 0 10-7.5 0zm-30 0a3.75 3.75 0 107.5 0 3.75 3.75 0 10-7.5 0z" fill="rgba(58, 124, 195, 0.05)"/><path d="M367.5 52.5v30" stroke-width="2.5" stroke="rgba(58, 124, 195, 0.05)"/><path d="M363.75 52.5a3.75 3.75 0 107.5 0 3.75 3.75 0 10-7.5 0zm0 30a3.75 3.75 0 107.5 0 3.75 3.75 0 10-7.5 0z" fill="rgba(58, 124, 195, 0.05)"/><path d="M592.5 367.5v120" stroke-width="2.5" stroke="rgba(58, 124, 195, 0.05)"/><path d="M588.75 367.5a3.75 3.75 0 107.5 0 3.75 3.75 0 10-7.5 0zm0 120a3.75 3.75 0 107.5 0 3.75 3.75 0 10-7.5 0z" fill="rgba(58, 124, 195, 0.05)"/><path d="M577.5 127.5v-45" stroke-width="2.5" stroke="rgba(58, 124, 195, 0.05)"/><path d="M573.75 127.5a3.75 3.75 0 107.5 0 3.75 3.75 0 10-7.5 0zm0-45a3.75 3.75 0 107.5 0 3.75 3.75 0 10-7.5 0z" fill="rgba(58, 124, 195, 0.05)"/><path d="M157.5 82.5h15l15 15v15" stroke-width="2.5" stroke="rgba(58, 124, 195, 0.05)"/><path d="M153.75 82.5a3.75 3.75 0 107.5 0 3.75 3.75 0 10-7.5 0zm30 30a3.75 3.75 0 107.5 0 3.75 3.75 0 10-7.5 0z" fill="rgba(58, 124, 195, 0.05)"/><path d="M112.5 82.5v45" stroke-width="2.5" stroke="rgba(58, 124, 195, 0.05)"/><path d="M108.75 82.5a3.75 3.75 0 107.5 0 3.75 3.75 0 10-7.5 0zm0 45a3.75 3.75 0 107.5 0 3.75 3.75 0 10-7.5 0z" fill="rgba(58, 124, 195, 0.05)"/><path d="M592.5 172.5l-15 15h-15" stroke-width="2.5" stroke="rgba(58, 124, 195, 0.05)"/><path d="M588.75 172.5a3.75 3.75 0 107.5 0 3.75 3.75 0 10-7.5 0zm-30 15a3.75 3.75 0 107.5 0 3.75 3.75 0 10-7.5 0z" fill="rgba(58, 124, 195, 0.05)"/><path d="M367.5 502.5h30" stroke-width="2.5" stroke="rgba(58, 124, 195, 0.05)"/><path d="M363.75 502.5a3.75 3.75 0 107.5 0 3.75 3.75 0 10-7.5 0zm30 0a3.75 3.75 0 107.5 0 3.75 3.75 0 10-7.5 0z" fill="rgba(58, 124, 195, 0.05)"/><path d="M262.5 502.5v-30" stroke-width="2.5" stroke="rgba(58, 124, 195, 0.05)"/><path d="M258.75 502.5a3.75 3.75 0 107.5 0 3.75 3.75 0 10-7.5 0zm0-30a3.75 3.75 0 107.5 0 3.75 3.75 0 10-7.5 0z" fill="rgba(58, 124, 195, 0.05)"/><path d="M67.5 292.5l15 15v15" stroke-width="2.5" stroke="rgba(58, 124, 195, 0.05)"/><path d="M63.75 292.5a3.75 3.75 0 107.5 0 3.75 3.75 0 10-7.5 0zm15 30a3.75 3.75 0 107.5 0 3.75 3.75 0 10-7.5 0z" fill="rgba(58, 124, 195, 0.05)"/><path d="M142.5 592.5h15l30-30h15" stroke-width="2.5" stroke="rgba(58, 124, 195, 0.05)"/><path d="M138.75 592.5a3.75 3.75 0 107.5 0 3.75 3.75 0 10-7.5 0zm60-30a3.75 3.75 0 107.5 0 3.75 3.75 0 10-7.5 0z" fill="rgba(58, 124, 195, 0.05)"/><path d="M502.5 487.5h15l15 15v30" stroke-width="2.5" stroke="rgba(58, 124, 195, 0.05)"/><path d="M498.75 487.5a3.75 3.75 0 107.5 0 3.75 3.75 0 10-7.5 0zm30 45a3.75 3.75 0 107.5 0 3.75 3.75 0 10-7.5 0z" fill="rgba(58, 124, 195, 0.05)"/><path d="M232.5 592.5h-30" stroke-width="2.5" stroke="rgba(58, 124, 195, 0.05)"/><path d="M228.75 592.5a3.75 3.75 0 107.5 0 3.75 3.75 0 10-7.5 0zm-30 0a3.75 3.75 0 107.5 0 3.75 3.75 0 10-7.5 0z" fill="rgba(58, 124, 195, 0.05)"/><path d="M232.5 352.5v45" stroke-width="2.5" stroke="rgba(58, 124, 195, 0.05)"/><path d="M228.75 352.5a3.75 3.75 0 107.5 0 3.75 3.75 0 10-7.5 0zm0 45a3.75 3.75 0 107.5 0 3.75 3.75 0 10-7.5 0z" fill="rgba(58, 124, 195, 0.05)"/><path d="M427.5 562.5v30" stroke-width="2.5" stroke="rgba(58, 124, 195, 0.05)"/><path d="M423.75 562.5a3.75 3.75 0 107.5 0 3.75 3.75 0 10-7.5 0zm0 30a3.75 3.75 0 107.5 0 3.75 3.75 0 10-7.5 0z" fill="rgba(58, 124, 195, 0.05)"/><path d="M82.5 367.5v30" stroke-width="2.5" stroke="rgba(58, 124, 195, 0.05)"/><path d="M78.75 367.5a3.75 3.75 0 107.5 0 3.75 3.75 0 10-7.5 0zm0 30a3.75 3.75 0 107.5 0 3.75 3.75 0 10-7.5 0z" fill="rgba(58, 124, 195, 0.05)"/><path d="M442.5 112.5h-15l-15-15" stroke-width="2.5" stroke="rgba(58, 124, 195, 0.05)"/><path d="M438.75 112.5a3.75 3.75 0 107.5 0 3.75 3.75 0 10-7.5 0zm-30-15a3.75 3.75 0 107.5 0 3.75 3.75 0 10-7.5 0z" fill="rgba(58, 124, 195, 0.05)"/><path d="M7.5 292.5v15l15 15h30" stroke-width="2.5" stroke="rgba(58, 124, 195, 0.05)"/><path d="M3.75 292.5a3.75 3.75 0 107.5 0 3.75 3.75 0 10-7.5 0zm45 30a3.75 3.75 0 107.5 0 3.75 3.75 0 10-7.5 0z" fill="rgba(58, 124, 195, 0.05)"/><path d="M7.5 532.5h30" stroke-width="2.5" stroke="rgba(58, 124, 195, 0.05)"/><path d="M3.75 532.5a3.75 3.75 0 107.5 0 3.75 3.75 0 10-7.5 0zm30 0a3.75 3.75 0 107.5 0 3.75 3.75 0 10-7.5 0z" fill="rgba(58, 124, 195, 0.05)"/><path d="M22.5 367.5l30 30" stroke-width="2.5" stroke="rgba(58, 124, 195, 0.05)"/><path d="M18.75 367.5a3.75 3.75 0 107.5 0 3.75 3.75 0 10-7.5 0zm30 30a3.75 3.75 0 107.5 0 3.75 3.75 0 10-7.5 0z" fill="rgba(58, 124, 195, 0.05)"/><path d="M577.5 322.5v-30" stroke-width="2.5" stroke="rgba(58, 124, 195, 0.05)"/><path d="M573.75 322.5a3.75 3.75 0 107.5 0 3.75 3.75 0 10-7.5 0zm0-30a3.75 3.75 0 107.5 0 3.75 3.75 0 10-7.5 0z" fill="rgba(58, 124, 195, 0.05)"/><path d="M217.5 217.5v-30" stroke-width="2.5" stroke="rgba(58, 124, 195, 0.05)"/><path d="M213.75 217.5a3.75 3.75 0 107.5 0 3.75 3.75 0 10-7.5 0zm0-30a3.75 3.75 0 107.5 0 3.75 3.75 0 10-7.5 0z" fill="rgba(58, 124, 195, 0.05)"/><path d="M22.5 397.5l-15-15v-15" stroke-width="2.5" stroke="rgba(58, 124, 195, 0.05)"/><path d="M18.75 397.5a3.75 3.75 0 107.5 0 3.75 3.75 0 10-7.5 0zm-15-30a3.75 3.75 0 107.5 0 3.75 3.75 0 10-7.5 0z" fill="rgba(58, 124, 195, 0.05)"/></g></g><defs><mask id="SvgjsMask1018"><path fill="#fff" d="M0 0h600v600H0z"/></mask><mask id="SvgjsMask1019"><path fill="#fff" d="M0 0h600v600H0z"/><path d="M440.62 502.5a1.88 1.88 0 103.76 0 1.88 1.88 0 10-3.76 0zm-285-30a1.88 1.88 0 103.76 0 1.88 1.88 0 10-3.76 0zm0-60a1.88 1.88 0 103.76 0 1.88 1.88 0 10-3.76 0zm285 0a1.88 1.88 0 103.76 0 1.88 1.88 0 10-3.76 0zm-30 150a1.88 1.88 0 103.76 0 1.88 1.88 0 10-3.76 0zm0 30a1.88 1.88 0 103.76 0 1.88 1.88 0 10-3.76 0zm135-555a1.88 1.88 0 103.76 0 1.88 1.88 0 10-3.76 0zm-150-30a1.88 1.88 0 103.76 0 1.88 1.88 0 10-3.76 0zm-150 315a1.88 1.88 0 103.76 0 1.88 1.88 0 10-3.76 0zm-45 75a1.88 1.88 0 103.76 0 1.88 1.88 0 10-3.76 0zm300-180a1.88 1.88 0 103.76 0 1.88 1.88 0 10-3.76 0zm90-210a1.88 1.88 0 103.76 0 1.88 1.88 0 10-3.76 0zm-510 585a1.88 1.88 0 103.76 0 1.88 1.88 0 10-3.76 0zm-75 0a1.88 1.88 0 103.76 0 1.88 1.88 0 10-3.76 0zm255-315a1.88 1.88 0 103.76 0 1.88 1.88 0 10-3.76 0zm0-270a1.88 1.88 0 103.76 0 1.88 1.88 0 10-3.76 0zm-165 315a1.88 1.88 0 103.76 0 1.88 1.88 0 10-3.76 0zm-90-285a1.88 1.88 0 103.76 0 1.88 1.88 0 10-3.76 0zm225 450a1.88 1.88 0 103.76 0 1.88 1.88 0 10-3.76 0zm285-75a1.88 1.88 0 103.76 0 1.88 1.88 0 10-3.76 0zm-195 15a1.88 1.88 0 103.76 0 1.88 1.88 0 10-3.76 0zm270-120a1.88 1.88 0 103.76 0 1.88 1.88 0 10-3.76 0zm-540 135a1.88 1.88 0 103.76 0 1.88 1.88 0 10-3.76 0zm285 60a1.88 1.88 0 103.76 0 1.88 1.88 0 10-3.76 0zm-150-15a1.88 1.88 0 103.76 0 1.88 1.88 0 10-3.76 0zm-180-30a1.88 1.88 0 103.76 0 1.88 1.88 0 10-3.76 0zm525-120a1.88 1.88 0 103.76 0 1.88 1.88 0 10-3.76 0zm-195 90a1.88 1.88 0 103.76 0 1.88 1.88 0 10-3.76 0zm210-315a1.88 1.88 0 103.76 0 1.88 1.88 0 10-3.76 0zm-30-30a1.88 1.88 0 103.76 0 1.88 1.88 0 10-3.76 0zm-270 285a1.88 1.88 0 103.76 0 1.88 1.88 0 10-3.76 0zm240-105a1.88 1.88 0 103.76 0 1.88 1.88 0 10-3.76 0zm-45-90a1.88 1.88 0 103.76 0 1.88 1.88 0 10-3.76 0zm-60-165a1.88 1.88 0 103.76 0 1.88 1.88 0 10-3.76 0zm45 0a1.88 1.88 0 103.76 0 1.88 1.88 0 10-3.76 0zm0 60a1.88 1.88 0 103.76 0 1.88 1.88 0 10-3.76 0zm-375 0a1.88 1.88 0 103.76 0 1.88 1.88 0 10-3.76 0zm195 135a1.88 1.88 0 103.76 0 1.88 1.88 0 10-3.76 0zm195 360a1.88 1.88 0 103.76 0 1.88 1.88 0 10-3.76 0zm0 30a1.88 1.88 0 103.76 0 1.88 1.88 0 10-3.76 0zm120-330a1.88 1.88 0 103.76 0 1.88 1.88 0 10-3.76 0zm-180 135a1.88 1.88 0 103.76 0 1.88 1.88 0 10-3.76 0zm-30 105a1.88 1.88 0 103.76 0 1.88 1.88 0 10-3.76 0zm0 60a1.88 1.88 0 103.76 0 1.88 1.88 0 10-3.76 0zm-120-315a1.88 1.88 0 103.76 0 1.88 1.88 0 10-3.76 0zm-225 180a1.88 1.88 0 103.76 0 1.88 1.88 0 10-3.76 0zm60-180a1.88 1.88 0 103.76 0 1.88 1.88 0 10-3.76 0zm75 90a1.88 1.88 0 103.76 0 1.88 1.88 0 10-3.76 0zm-60 0a1.88 1.88 0 103.76 0 1.88 1.88 0 10-3.76 0zm-75-105a1.88 1.88 0 103.76 0 1.88 1.88 0 10-3.76 0zm240 285a1.88 1.88 0 103.76 0 1.88 1.88 0 10-3.76 0zm60 60a1.88 1.88 0 103.76 0 1.88 1.88 0 10-3.76 0zm210 15a1.88 1.88 0 103.76 0 1.88 1.88 0 10-3.76 0zm75 0a1.88 1.88 0 103.76 0 1.88 1.88 0 10-3.76 0zm-420-420a1.88 1.88 0 103.76 0 1.88 1.88 0 10-3.76 0zm-150 0a1.88 1.88 0 103.76 0 1.88 1.88 0 10-3.76 0zm60 405a1.88 1.88 0 103.76 0 1.88 1.88 0 10-3.76 0zm180 15a1.88 1.88 0 103.76 0 1.88 1.88 0 10-3.76 0zm150-315a1.88 1.88 0 103.76 0 1.88 1.88 0 10-3.76 0zm-135-225a1.88 1.88 0 103.76 0 1.88 1.88 0 10-3.76 0zm-150 150a1.88 1.88 0 103.76 0 1.88 1.88 0 10-3.76 0zm15-15a1.88 1.88 0 103.76 0 1.88 1.88 0 10-3.76 0zm-105 375a1.88 1.88 0 103.76 0 1.88 1.88 0 10-3.76 0zm-30 15a1.88 1.88 0 103.76 0 1.88 1.88 0 10-3.76 0zm555-450a1.88 1.88 0 103.76 0 1.88 1.88 0 10-3.76 0zm15-120a1.88 1.88 0 103.76 0 1.88 1.88 0 10-3.76 0zm-480 60a1.88 1.88 0 103.76 0 1.88 1.88 0 10-3.76 0zm135 165a1.88 1.88 0 103.76 0 1.88 1.88 0 10-3.76 0zm-30-60a1.88 1.88 0 103.76 0 1.88 1.88 0 10-3.76 0zm-15 105a1.88 1.88 0 103.76 0 1.88 1.88 0 10-3.76 0zm120 45a1.88 1.88 0 103.76 0 1.88 1.88 0 10-3.76 0zm165-150a1.88 1.88 0 103.76 0 1.88 1.88 0 10-3.76 0zm-150 120a1.88 1.88 0 103.76 0 1.88 1.88 0 10-3.76 0zm-30 30a1.88 1.88 0 103.76 0 1.88 1.88 0 10-3.76 0zm-270 15a1.88 1.88 0 103.76 0 1.88 1.88 0 10-3.76 0zm90-15a1.88 1.88 0 103.76 0 1.88 1.88 0 10-3.76 0zm450 240a1.88 1.88 0 103.76 0 1.88 1.88 0 10-3.76 0zm-15-180a1.88 1.88 0 103.76 0 1.88 1.88 0 10-3.76 0zm-540-45a1.88 1.88 0 103.76 0 1.88 1.88 0 10-3.76 0zm60 75a1.88 1.88 0 103.76 0 1.88 1.88 0 10-3.76 0zm405-390a1.88 1.88 0 103.76 0 1.88 1.88 0 10-3.76 0zm45 30a1.88 1.88 0 103.76 0 1.88 1.88 0 10-3.76 0zm-60 510a1.88 1.88 0 103.76 0 1.88 1.88 0 10-3.76 0zm75-165a1.88 1.88 0 103.76 0 1.88 1.88 0 10-3.76 0zm-345 0a1.88 1.88 0 103.76 0 1.88 1.88 0 10-3.76 0zm-105 30a1.88 1.88 0 103.76 0 1.88 1.88 0 10-3.76 0zm405-120a1.88 1.88 0 103.76 0 1.88 1.88 0 10-3.76 0zm-90 75a1.88 1.88 0 103.76 0 1.88 1.88 0 10-3.76 0zm-30 210a1.88 1.88 0 103.76 0 1.88 1.88 0 10-3.76 0zm30 0a1.88 1.88 0 103.76 0 1.88 1.88 0 10-3.76 0zm-150-195a1.88 1.88 0 103.76 0 1.88 1.88 0 10-3.76 0zm45-45a1.88 1.88 0 103.76 0 1.88 1.88 0 10-3.76 0zm-150-270a1.88 1.88 0 103.76 0 1.88 1.88 0 10-3.76 0zm-30-45a1.88 1.88 0 103.76 0 1.88 1.88 0 10-3.76 0zm195 165a1.88 1.88 0 103.76 0 1.88 1.88 0 10-3.76 0zm0-135a1.88 1.88 0 103.76 0 1.88 1.88 0 10-3.76 0zm-105 60a1.88 1.88 0 103.76 0 1.88 1.88 0 10-3.76 0zm-180-30a1.88 1.88 0 103.76 0 1.88 1.88 0 10-3.76 0zm45 390a1.88 1.88 0 103.76 0 1.88 1.88 0 10-3.76 0zm-60 0a1.88 1.88 0 103.76 0 1.88 1.88 0 10-3.76 0zm300-465a1.88 1.88 0 103.76 0 1.88 1.88 0 10-3.76 0zm-30-15a1.88 1.88 0 103.76 0 1.88 1.88 0 10-3.76 0zm-270 15a1.88 1.88 0 103.76 0 1.88 1.88 0 10-3.76 0zm90-15a1.88 1.88 0 103.76 0 1.88 1.88 0 10-3.76 0zm345 360a1.88 1.88 0 103.76 0 1.88 1.88 0 10-3.76 0zm45-45a1.88 1.88 0 103.76 0 1.88 1.88 0 10-3.76 0zm-135-105a1.88 1.88 0 103.76 0 1.88 1.88 0 10-3.76 0zm45 90a1.88 1.88 0 103.76 0 1.88 1.88 0 10-3.76 0zm-240 240a1.88 1.88 0 103.76 0 1.88 1.88 0 10-3.76 0zm-60 45a1.88 1.88 0 103.76 0 1.88 1.88 0 10-3.76 0zm270-360a1.88 1.88 0 103.76 0 1.88 1.88 0 10-3.76 0zm0-15a1.88 1.88 0 103.76 0 1.88 1.88 0 10-3.76 0zm-270 300a1.88 1.88 0 103.76 0 1.88 1.88 0 10-3.76 0zm-60 60a1.88 1.88 0 103.76 0 1.88 1.88 0 10-3.76 0zm345-60a1.88 1.88 0 103.76 0 1.88 1.88 0 10-3.76 0zm45-30a1.88 1.88 0 103.76 0 1.88 1.88 0 10-3.76 0zm-330 0a1.88 1.88 0 103.76 0 1.88 1.88 0 10-3.76 0zm-45 90a1.88 1.88 0 103.76 0 1.88 1.88 0 10-3.76 0zm255-120a1.88 1.88 0 103.76 0 1.88 1.88 0 10-3.76 0zm105 30a1.88 1.88 0 103.76 0 1.88 1.88 0 10-3.76 0zm-345 30a1.88 1.88 0 103.76 0 1.88 1.88 0 10-3.76 0zm-60-15a1.88 1.88 0 103.76 0 1.88 1.88 0 10-3.76 0zm555-285a1.88 1.88 0 103.76 0 1.88 1.88 0 10-3.76 0zm30 0a1.88 1.88 0 103.76 0 1.88 1.88 0 10-3.76 0zm-120-180a1.88 1.88 0 103.76 0 1.88 1.88 0 10-3.76 0zm0 30a1.88 1.88 0 103.76 0 1.88 1.88 0 10-3.76 0zm-270 480a1.88 1.88 0 103.76 0 1.88 1.88 0 10-3.76 0zm-105 30a1.88 1.88 0 103.76 0 1.88 1.88 0 10-3.76 0zm420-405a1.88 1.88 0 103.76 0 1.88 1.88 0 10-3.76 0zm-60 120a1.88 1.88 0 103.76 0 1.88 1.88 0 10-3.76 0zm-390 240a1.88 1.88 0 103.76 0 1.88 1.88 0 10-3.76 0zm-60 30a1.88 1.88 0 103.76 0 1.88 1.88 0 10-3.76 0zm180-525a1.88 1.88 0 103.76 0 1.88 1.88 0 10-3.76 0zm60 0a1.88 1.88 0 103.76 0 1.88 1.88 0 10-3.76 0zm285 240a1.88 1.88 0 103.76 0 1.88 1.88 0 10-3.76 0zm-45-60a1.88 1.88 0 103.76 0 1.88 1.88 0 10-3.76 0zm-435-180a1.88 1.88 0 103.76 0 1.88 1.88 0 10-3.76 0zm-30-15a1.88 1.88 0 103.76 0 1.88 1.88 0 10-3.76 0zm90 240a1.88 1.88 0 103.76 0 1.88 1.88 0 10-3.76 0zm0 30a1.88 1.88 0 103.76 0 1.88 1.88 0 10-3.76 0zm120 0a1.88 1.88 0 103.76 0 1.88 1.88 0 10-3.76 0zm150-45a1.88 1.88 0 103.76 0 1.88 1.88 0 10-3.76 0zm90-120a1.88 1.88 0 103.76 0 1.88 1.88 0 10-3.76 0zm-30 30a1.88 1.88 0 103.76 0 1.88 1.88 0 10-3.76 0zm-120-75a1.88 1.88 0 103.76 0 1.88 1.88 0 10-3.76 0zm0 60a1.88 1.88 0 103.76 0 1.88 1.88 0 10-3.76 0zm180 0a1.88 1.88 0 103.76 0 1.88 1.88 0 10-3.76 0zm45 0a1.88 1.88 0 103.76 0 1.88 1.88 0 10-3.76 0zm-330 0a1.88 1.88 0 103.76 0 1.88 1.88 0 10-3.76 0zm-90-105a1.88 1.88 0 103.76 0 1.88 1.88 0 10-3.76 0zm210 0a1.88 1.88 0 103.76 0 1.88 1.88 0 10-3.76 0zm30-30a1.88 1.88 0 103.76 0 1.88 1.88 0 10-3.76 0zm-285 60a1.88 1.88 0 103.76 0 1.88 1.88 0 10-3.76 0zm-60 15a1.88 1.88 0 103.76 0 1.88 1.88 0 10-3.76 0zm255 195a1.88 1.88 0 103.76 0 1.88 1.88 0 10-3.76 0zm0-210a1.88 1.88 0 103.76 0 1.88 1.88 0 10-3.76 0zm-90 405a1.88 1.88 0 103.76 0 1.88 1.88 0 10-3.76 0zm150 90a1.88 1.88 0 103.76 0 1.88 1.88 0 10-3.76 0zm135-330a1.88 1.88 0 103.76 0 1.88 1.88 0 10-3.76 0zm0 45a1.88 1.88 0 103.76 0 1.88 1.88 0 10-3.76 0zm45 225a1.88 1.88 0 103.76 0 1.88 1.88 0 10-3.76 0zm-15-60a1.88 1.88 0 103.76 0 1.88 1.88 0 10-3.76 0zm15-105a1.88 1.88 0 103.76 0 1.88 1.88 0 10-3.76 0zm-75 60a1.88 1.88 0 103.76 0 1.88 1.88 0 10-3.76 0zm-345-315a1.88 1.88 0 103.76 0 1.88 1.88 0 10-3.76 0zm90 60a1.88 1.88 0 103.76 0 1.88 1.88 0 10-3.76 0zm-150 135a1.88 1.88 0 103.76 0 1.88 1.88 0 10-3.76 0zm-15-30a1.88 1.88 0 103.76 0 1.88 1.88 0 10-3.76 0zm135 30a1.88 1.88 0 103.76 0 1.88 1.88 0 10-3.76 0zm0 30a1.88 1.88 0 103.76 0 1.88 1.88 0 10-3.76 0zm435-15a1.88 1.88 0 103.76 0 1.88 1.88 0 10-3.76 0zm-15-60a1.88 1.88 0 103.76 0 1.88 1.88 0 10-3.76 0zm-75 165a1.88 1.88 0 103.76 0 1.88 1.88 0 10-3.76 0zm-30 30a1.88 1.88 0 103.76 0 1.88 1.88 0 10-3.76 0zm-15-300a1.88 1.88 0 103.76 0 1.88 1.88 0 10-3.76 0zm75 0a1.88 1.88 0 103.76 0 1.88 1.88 0 10-3.76 0zm-405 375a1.88 1.88 0 103.76 0 1.88 1.88 0 10-3.76 0zm-120-30a1.88 1.88 0 103.76 0 1.88 1.88 0 10-3.76 0zm165-135a1.88 1.88 0 103.76 0 1.88 1.88 0 10-3.76 0zm-45 45a1.88 1.88 0 103.76 0 1.88 1.88 0 10-3.76 0zm-15-135a1.88 1.88 0 103.76 0 1.88 1.88 0 10-3.76 0zm-45-60a1.88 1.88 0 103.76 0 1.88 1.88 0 10-3.76 0zm255 150a1.88 1.88 0 103.76 0 1.88 1.88 0 10-3.76 0zm60-75a1.88 1.88 0 103.76 0 1.88 1.88 0 10-3.76 0zm-180 45a1.88 1.88 0 103.76 0 1.88 1.88 0 10-3.76 0zm-60 75a1.88 1.88 0 103.76 0 1.88 1.88 0 10-3.76 0zm75-330a1.88 1.88 0 103.76 0 1.88 1.88 0 10-3.76 0zm30 45a1.88 1.88 0 103.76 0 1.88 1.88 0 10-3.76 0zm150 0a1.88 1.88 0 103.76 0 1.88 1.88 0 10-3.76 0zm45 45a1.88 1.88 0 103.76 0 1.88 1.88 0 10-3.76 0zm105 75a1.88 1.88 0 103.76 0 1.88 1.88 0 10-3.76 0zm45-15a1.88 1.88 0 103.76 0 1.88 1.88 0 10-3.76 0zm-330 90a1.88 1.88 0 103.76 0 1.88 1.88 0 10-3.76 0zm90-60a1.88 1.88 0 103.76 0 1.88 1.88 0 10-3.76 0zm-225-135a1.88 1.88 0 103.76 0 1.88 1.88 0 10-3.76 0zm75 15a1.88 1.88 0 103.76 0 1.88 1.88 0 10-3.76 0zm-30 480a1.88 1.88 0 103.76 0 1.88 1.88 0 10-3.76 0zm45-30a1.88 1.88 0 103.76 0 1.88 1.88 0 10-3.76 0zm300-195a1.88 1.88 0 103.76 0 1.88 1.88 0 10-3.76 0zm45-90a1.88 1.88 0 103.76 0 1.88 1.88 0 10-3.76 0zm-420 225a1.88 1.88 0 103.76 0 1.88 1.88 0 10-3.76 0zm-30-30a1.88 1.88 0 103.76 0 1.88 1.88 0 10-3.76 0zm-60-330a1.88 1.88 0 103.76 0 1.88 1.88 0 10-3.76 0zm45 15a1.88 1.88 0 103.76 0 1.88 1.88 0 10-3.76 0zm-45 45a1.88 1.88 0 103.76 0 1.88 1.88 0 10-3.76 0zm-30 0a1.88 1.88 0 103.76 0 1.88 1.88 0 10-3.76 0zm45-75a1.88 1.88 0 103.76 0 1.88 1.88 0 10-3.76 0zm-45 30a1.88 1.88 0 103.76 0 1.88 1.88 0 10-3.76 0zm300 165a1.88 1.88 0 103.76 0 1.88 1.88 0 10-3.76 0zm45 0a1.88 1.88 0 103.76 0 1.88 1.88 0 10-3.76 0zm-15-255a1.88 1.88 0 103.76 0 1.88 1.88 0 10-3.76 0zm-75-45a1.88 1.88 0 103.76 0 1.88 1.88 0 10-3.76 0zm195 480a1.88 1.88 0 103.76 0 1.88 1.88 0 10-3.76 0zm15 60a1.88 1.88 0 103.76 0 1.88 1.88 0 10-3.76 0zm-345-285a1.88 1.88 0 103.76 0 1.88 1.88 0 10-3.76 0zm0-30a1.88 1.88 0 103.76 0 1.88 1.88 0 10-3.76 0zm330 270a1.88 1.88 0 103.76 0 1.88 1.88 0 10-3.76 0zm30 15a1.88 1.88 0 103.76 0 1.88 1.88 0 10-3.76 0zm-240 30a1.88 1.88 0 103.76 0 1.88 1.88 0 10-3.76 0zm-30-105a1.88 1.88 0 103.76 0 1.88 1.88 0 10-3.76 0zm135-180a1.88 1.88 0 103.76 0 1.88 1.88 0 10-3.76 0zm0 30a1.88 1.88 0 103.76 0 1.88 1.88 0 10-3.76 0zm-60-45a1.88 1.88 0 103.76 0 1.88 1.88 0 10-3.76 0zm15-60a1.88 1.88 0 103.76 0 1.88 1.88 0 10-3.76 0zm165-195a1.88 1.88 0 103.76 0 1.88 1.88 0 10-3.76 0zm75 15a1.88 1.88 0 103.76 0 1.88 1.88 0 10-3.76 0zm-315 270a1.88 1.88 0 103.76 0 1.88 1.88 0 10-3.76 0zm0-75a1.88 1.88 0 103.76 0 1.88 1.88 0 10-3.76 0zm75 315a1.88 1.88 0 103.76 0 1.88 1.88 0 10-3.76 0zm-60-75a1.88 1.88 0 103.76 0 1.88 1.88 0 10-3.76 0zm315 120a1.88 1.88 0 103.76 0 1.88 1.88 0 10-3.76 0zm15-240a1.88 1.88 0 103.76 0 1.88 1.88 0 10-3.76 0zm-540-90a1.88 1.88 0 103.76 0 1.88 1.88 0 10-3.76 0zm15-30a1.88 1.88 0 103.76 0 1.88 1.88 0 10-3.76 0zm285-60a1.88 1.88 0 103.76 0 1.88 1.88 0 10-3.76 0zm15 45a1.88 1.88 0 103.76 0 1.88 1.88 0 10-3.76 0zm60 90a1.88 1.88 0 103.76 0 1.88 1.88 0 10-3.76 0zm0-120a1.88 1.88 0 103.76 0 1.88 1.88 0 10-3.76 0zm-180-150a1.88 1.88 0 103.76 0 1.88 1.88 0 10-3.76 0zm-90-15a1.88 1.88 0 103.76 0 1.88 1.88 0 10-3.76 0zm-150 510a1.88 1.88 0 103.76 0 1.88 1.88 0 10-3.76 0zm45 0a1.88 1.88 0 103.76 0 1.88 1.88 0 10-3.76 0zm240 15a1.88 1.88 0 103.76 0 1.88 1.88 0 10-3.76 0zm30 30a1.88 1.88 0 103.76 0 1.88 1.88 0 10-3.76 0zm-315-120a1.88 1.88 0 103.76 0 1.88 1.88 0 10-3.76 0zm30 0a1.88 1.88 0 103.76 0 1.88 1.88 0 10-3.76 0zm510 30a1.88 1.88 0 103.76 0 1.88 1.88 0 10-3.76 0zm0-75a1.88 1.88 0 103.76 0 1.88 1.88 0 10-3.76 0zm-60-255a1.88 1.88 0 103.76 0 1.88 1.88 0 10-3.76 0zm-15 60a1.88 1.88 0 103.76 0 1.88 1.88 0 10-3.76 0zm-195 300a1.88 1.88 0 103.76 0 1.88 1.88 0 10-3.76 0zm30 30a1.88 1.88 0 103.76 0 1.88 1.88 0 10-3.76 0zm15-495a1.88 1.88 0 103.76 0 1.88 1.88 0 10-3.76 0zm15-30a1.88 1.88 0 103.76 0 1.88 1.88 0 10-3.76 0zm15 420a1.88 1.88 0 103.76 0 1.88 1.88 0 10-3.76 0zm30 15a1.88 1.88 0 103.76 0 1.88 1.88 0 10-3.76 0zm-90-255a1.88 1.88 0 103.76 0 1.88 1.88 0 10-3.76 0zm0-120a1.88 1.88 0 103.76 0 1.88 1.88 0 10-3.76 0zm120-60a1.88 1.88 0 103.76 0 1.88 1.88 0 10-3.76 0zm0 45a1.88 1.88 0 103.76 0 1.88 1.88 0 10-3.76 0zm-90 390a1.88 1.88 0 103.76 0 1.88 1.88 0 10-3.76 0zm30 30a1.88 1.88 0 103.76 0 1.88 1.88 0 10-3.76 0zm240 75a1.88 1.88 0 103.76 0 1.88 1.88 0 10-3.76 0zm0-30a1.88 1.88 0 103.76 0 1.88 1.88 0 10-3.76 0zm-150-510a1.88 1.88 0 103.76 0 1.88 1.88 0 10-3.76 0zm15 60a1.88 1.88 0 103.76 0 1.88 1.88 0 10-3.76 0zm75 180a1.88 1.88 0 103.76 0 1.88 1.88 0 10-3.76 0zm0-30a1.88 1.88 0 103.76 0 1.88 1.88 0 10-3.76 0zm-135 105a1.88 1.88 0 103.76 0 1.88 1.88 0 10-3.76 0zm15-30a1.88 1.88 0 103.76 0 1.88 1.88 0 10-3.76 0zm-270 120a1.88 1.88 0 103.76 0 1.88 1.88 0 10-3.76 0zm-45 15a1.88 1.88 0 103.76 0 1.88 1.88 0 10-3.76 0zm255-120a1.88 1.88 0 103.76 0 1.88 1.88 0 10-3.76 0zm0-45a1.88 1.88 0 103.76 0 1.88 1.88 0 10-3.76 0zm-300-75a1.88 1.88 0 103.76 0 1.88 1.88 0 10-3.76 0zm-30 0a1.88 1.88 0 103.76 0 1.88 1.88 0 10-3.76 0zm270 45a1.88 1.88 0 103.76 0 1.88 1.88 0 10-3.76 0zm0-30a1.88 1.88 0 103.76 0 1.88 1.88 0 10-3.76 0zm255 120a1.88 1.88 0 103.76 0 1.88 1.88 0 10-3.76 0zm-30 0a1.88 1.88 0 103.76 0 1.88 1.88 0 10-3.76 0zm-150-270a1.88 1.88 0 103.76 0 1.88 1.88 0 10-3.76 0zm0 30a1.88 1.88 0 103.76 0 1.88 1.88 0 10-3.76 0zm225 285a1.88 1.88 0 103.76 0 1.88 1.88 0 10-3.76 0zm0 120a1.88 1.88 0 103.76 0 1.88 1.88 0 10-3.76 0zm-15-360a1.88 1.88 0 103.76 0 1.88 1.88 0 10-3.76 0zm0-45a1.88 1.88 0 103.76 0 1.88 1.88 0 10-3.76 0zm-420 0a1.88 1.88 0 103.76 0 1.88 1.88 0 10-3.76 0zm30 30a1.88 1.88 0 103.76 0 1.88 1.88 0 10-3.76 0zm-75-30a1.88 1.88 0 103.76 0 1.88 1.88 0 10-3.76 0zm0 45a1.88 1.88 0 103.76 0 1.88 1.88 0 10-3.76 0zm480 45a1.88 1.88 0 103.76 0 1.88 1.88 0 10-3.76 0zm-30 15a1.88 1.88 0 103.76 0 1.88 1.88 0 10-3.76 0zm-195 315a1.88 1.88 0 103.76 0 1.88 1.88 0 10-3.76 0zm30 0a1.88 1.88 0 103.76 0 1.88 1.88 0 10-3.76 0zm-135 0a1.88 1.88 0 103.76 0 1.88 1.88 0 10-3.76 0zm0-30a1.88 1.88 0 103.76 0 1.88 1.88 0 10-3.76 0zm-195-180a1.88 1.88 0 103.76 0 1.88 1.88 0 10-3.76 0zm15 30a1.88 1.88 0 103.76 0 1.88 1.88 0 10-3.76 0zm60 270a1.88 1.88 0 103.76 0 1.88 1.88 0 10-3.76 0zm60-30a1.88 1.88 0 103.76 0 1.88 1.88 0 10-3.76 0zm300-75a1.88 1.88 0 103.76 0 1.88 1.88 0 10-3.76 0zm30 45a1.88 1.88 0 103.76 0 1.88 1.88 0 10-3.76 0zm-300 60a1.88 1.88 0 103.76 0 1.88 1.88 0 10-3.76 0zm-30 0a1.88 1.88 0 103.76 0 1.88 1.88 0 10-3.76 0zm30-240a1.88 1.88 0 103.76 0 1.88 1.88 0 10-3.76 0zm0 45a1.88 1.88 0 103.76 0 1.88 1.88 0 10-3.76 0zm195 165a1.88 1.88 0 103.76 0 1.88 1.88 0 10-3.76 0zm0 30a1.88 1.88 0 103.76 0 1.88 1.88 0 10-3.76 0zm-345-225a1.88 1.88 0 103.76 0 1.88 1.88 0 10-3.76 0zm0 30a1.88 1.88 0 103.76 0 1.88 1.88 0 10-3.76 0zm360-285a1.88 1.88 0 103.76 0 1.88 1.88 0 10-3.76 0zm-30-15a1.88 1.88 0 103.76 0 1.88 1.88 0 10-3.76 0zm-405 195a1.88 1.88 0 103.76 0 1.88 1.88 0 10-3.76 0zm45 30a1.88 1.88 0 103.76 0 1.88 1.88 0 10-3.76 0zm-45 210a1.88 1.88 0 103.76 0 1.88 1.88 0 10-3.76 0zm30 0a1.88 1.88 0 103.76 0 1.88 1.88 0 10-3.76 0zm-15-165a1.88 1.88 0 103.76 0 1.88 1.88 0 10-3.76 0zm30 30a1.88 1.88 0 103.76 0 1.88 1.88 0 10-3.76 0zm525-75a1.88 1.88 0 103.76 0 1.88 1.88 0 10-3.76 0zm0-30a1.88 1.88 0 103.76 0 1.88 1.88 0 10-3.76 0zm-360-75a1.88 1.88 0 103.76 0 1.88 1.88 0 10-3.76 0zm0-30a1.88 1.88 0 103.76 0 1.88 1.88 0 10-3.76 0zm-195 210a1.88 1.88 0 103.76 0 1.88 1.88 0 10-3.76 0zm-15-30a1.88 1.88 0 103.76 0 1.88 1.88 0 10-3.76 0z"/></mask></defs></svg>