<svg xmlns="http://www.w3.org/2000/svg" width="1230" height="245" preserveAspectRatio="none"><g mask="url(&quot;#SvgjsMask1087&quot;)" fill="none"><path d="M40 245L285 0h208.5l-245 245z" fill="url(#SvgjsLinearGradient1088)"/><path d="M235.95 245l245-245h103.5l-245 245zm192.95 0l245-245h244.5l-245 245z" fill="url(#SvgjsLinearGradient1088)"/><path d="M619.85 245l245-245h75l-245 245z" fill="url(#SvgjsLinearGradient1088)"/><path d="M1223 245L978 0H799.5l245 245zm-202.95 0l-245-245h-184.5l245 245zm-219.95 0L555.1 0H310.6l245 245z" fill="url(#SvgjsLinearGradient1089)"/><path d="M612.15 245l-245-245h-91.5l245 245z" fill="url(#SvgjsLinearGradient1089)"/><path d="M999.514 245L1230 14.514V245z" fill="url(#SvgjsLinearGradient1088)"/><path d="M0 245h230.486L0 14.514z" fill="url(#SvgjsLinearGradient1089)"/></g><defs><linearGradient x1="0%" y1="100%" x2="100%" y2="0%" id="SvgjsLinearGradient1088"><stop stop-color="rgba(33, 150, 243, 0.09)" offset="0"/><stop stop-opacity="0" stop-color="rgba(33, 150, 243, 0.09)" offset=".66"/></linearGradient><linearGradient x1="100%" y1="100%" x2="0%" y2="0%" id="SvgjsLinearGradient1089"><stop stop-color="rgba(33, 150, 243, 0.09)" offset="0"/><stop stop-opacity="0" stop-color="rgba(33, 150, 243, 0.09)" offset=".66"/></linearGradient><mask id="SvgjsMask1087"><path fill="#fff" d="M0 0h1230v245H0z"/></mask></defs></svg>