<svg version="1.2" xmlns="http://www.w3.org/2000/svg" width="482" height="481"><style>.s0{fill:#00539f}</style><path id="Layer" fill-rule="evenodd" class="s0" d="M86.4 153.2v91.1h25.5V287H.6v-42.7h25.6v-91.1H.6v-42.6h111.3v42.6zm202 81.9c0 42.2-39.5 55.7-70.5 55.7-27.8 0-50.9-14.5-55.4-17.5v13.5h-38.9v-64.5h34.6q.3.4.5.7.3.4.5.7.3.4.5.8.3.3.5.7c.4.5 1.4 1.9 2.3 3.1 2.7 3.5 18.4 21.5 48.9 21.5 17.5 0 23.6-5.9 23.6-8.2 0-2.2-5.1-5.3-19.1-9.7-14-4.4-46.8-13.6-55.1-17.1-8.4-3.5-38.5-17.3-38.5-50.5 0-33.3 23.8-55.5 66.7-55.5 32.5 0 53.5 13.6 56.3 15.6v-11h37.2v60.4h-34.7c-.6-1-2.5-3.5-2.5-3.5s-17.3-22.2-53.2-22.2c-11.3 0-17 3.9-17 7.5 0 3.7 5 6.5 11.2 8.5 6.1 2 41.5 12.2 48.3 14.2 6.9 2 53.8 14.7 53.8 56.8zm192.7-34.5c0 65.5-45.5 90-93.8 90S293 265.9 293 200c0-66 42.4-91.8 94.1-91.8 48.5 0 94 26.9 94 92.4zm-64.4-2.2c0-45.1-15.6-46-28.5-46-21.3 0-29.7 4.5-29.7 47.3 0 42.9 11.3 46.9 29 46.9s29.2-3.1 29.2-48.2z"/><g id="Layer"><path id="Layer" fill-rule="evenodd" class="s0" d="M67.5 91.1C103 36.3 164.7 0 234.7 0c69.9 0 131.6 36.3 167.1 91.1h-7.2q-4.4-6.4-9.2-12.5-4.9-6-10.2-11.7-5.3-5.6-11-10.8-5.8-5.2-11.9-10c-7.3 5.4-15.1 10.3-23.3 14.5 11.9 13.5 22.5 28 24.3 30.5h-7.5c-4.3-5.8-13.1-17.3-22.4-27.7-10.9 5.1-22.4 9.3-34.4 12.4q.9 1.9 1.7 3.8.9 1.9 1.7 3.8.8 1.9 1.6 3.9.8 1.9 1.5 3.8h-6.4q-.7-1.7-1.5-3.5-.7-1.7-1.5-3.4-.7-1.8-1.5-3.5l-1.6-3.4c-15 3.4-30.7 5.2-46.7 5.4v8.4h-6v-8.5c-16.1-.3-31.9-2.4-47-6q-.8 1.8-1.7 3.6l-1.6 3.6q-.8 1.8-1.5 3.6-.8 1.9-1.6 3.7h-6.4q.8-2 1.6-4.1.8-2 1.7-4l1.8-4 1.8-4c-11.8-3.2-23.1-7.5-33.8-12.7-9.7 10.7-18.9 22.8-23.4 28.8h-7.4c1.8-2.5 12.9-17.9 25.3-31.7q-2.7-1.4-5.4-3l-5.4-3.2q-2.6-1.7-5.2-3.5-2.6-1.7-5.1-3.6-6.1 4.8-11.8 10-5.8 5.2-11.1 10.8-5.3 5.7-10.1 11.7-4.9 6.1-9.2 12.5zm120.8-36.3c7.8-12.4 15-22.1 18.7-27-4.7-1.5-9.2-3.3-13.2-5.6-5.1 3.2-27.9 17.9-41.8 31.3q-.6.5-1.1 1.1l-1 1-1 1q-.6.5-1.1 1.1c10.2 4.8 21 8.8 32.2 11.8 2.4-4.8 5.2-9.9 8.3-14.7zm41.9-22.9q-2.1-.1-4.3-.3-2.1-.2-4.2-.5t-4.3-.7l-4.2-.8c-2.7 3.4-10.8 14.2-19.9 28.4-2.6 4.2-5.1 8.7-7.3 13.1 14.2 3.3 29 5.2 44.2 5.5zm50 39.9c-2.3-4.6-4.9-9.3-7.7-13.8-8.6-13.5-16.3-23.8-19.4-27.8q-2.1.4-4.2.7l-4.2.6q-2.1.2-4.2.3-2.2.2-4.3.2v44.7c15.1-.1 29.9-1.8 44-4.9zm38.8-13l-1.2-1.4q-.7-.6-1.3-1.3l-1.3-1.3q-.7-.6-1.3-1.2c-12.8-12.4-33.3-25.9-40.3-30.4-4.4 2.2-9.1 4-14.1 5.5 3.8 5 10.6 14.4 18.1 26.1 3.2 5.1 6.1 10.5 8.6 15.5 11.5-2.9 22.5-6.7 32.8-11.5zm-31.5-45.4q-3.6 3.5-8.1 6.4c8.8 5.7 26.7 17.9 38.7 29.4q.8.9 1.7 1.7.8.8 1.6 1.7.9.8 1.7 1.7.8.9 1.6 1.7c7.9-4 15.4-8.5 22.5-13.6-17.9-12.9-38-22.8-59.7-29zm-64.5-7q-5.8.3-11.6 1t-11.5 1.8q-5.7 1-11.3 2.4c11.2 9.1 27.9 14.4 46 14.4 18 0 34.8-5.3 46-14.4C265.8 8 250.4 6 234.6 6q-5.8 0-11.6.4zm-101 36c6.4 4.6 13.1 8.8 20.2 12.5q.7-.7 1.4-1.5L145 52l1.4-1.4 1.4-1.4c12.8-12.3 32.4-25.4 40.3-30.5q-.9-.6-1.7-1.2-.8-.6-1.6-1.3-.9-.6-1.6-1.3-.8-.7-1.6-1.5c-21.7 6.2-41.8 16.1-59.6 29zM401.7 307c-35.5 54.7-97.1 91.1-167.1 91.1S103 361.7 67.5 307h7.2q4.2 6.3 9 12.2 4.7 5.9 9.9 11.5 5.1 5.5 10.7 10.6 5.6 5.2 11.6 9.9c6.9-5.3 14.3-10 22.1-14.1-10.8-12.1-20.6-25.3-24.2-30.1h7.5c4.8 6.4 13.3 17.4 22.2 27.2 10.7-5.2 22-9.5 33.8-12.7l-1.6-3.6q-.9-1.8-1.6-3.6-.8-1.8-1.6-3.7-.7-1.8-1.5-3.6h6.5l1.4 3.2q.7 1.7 1.4 3.3l1.4 3.2q.8 1.6 1.5 3.2c15.1-3.6 30.9-5.7 47-6V307h6v6.9c16.1.1 31.7 1.9 46.7 5.3q.8-1.5 1.5-3 .6-1.5 1.3-3.1.7-1.5 1.3-3 .7-1.6 1.3-3.1h6.5l-1.4 3.4q-.7 1.8-1.4 3.5-.8 1.7-1.5 3.4l-1.6 3.4c12 3.1 23.6 7.3 34.4 12.4 8.6-9.5 16.6-20 21.3-26.1h7.4c-3.4 4.7-12.7 17.2-23.1 28.9 8.6 4.4 16.8 9.5 24.4 15.3q5.9-4.7 11.5-9.9 5.6-5.1 10.8-10.6 5.2-5.6 9.9-11.5t9-12.2h7.2zm-124.1 34.7c-7.4 11.7-14.3 21.1-18.1 26.1 5 1.4 9.8 3.3 14.1 5.5 7.1-4.5 27.5-18 40.3-30.3q.6-.7 1.3-1.3l1.3-1.3q.6-.7 1.3-1.3.6-.7 1.3-1.4c-10.4-4.7-21.4-8.6-32.9-11.5-2.5 5.1-5.4 10.4-8.6 15.5zm-41.4 22.8c5.8.1 11.5.7 16.9 1.8 3.1-4 10.9-14.3 19.4-27.8 2.8-4.5 5.4-9.2 7.7-13.7-14.1-3.2-28.9-4.8-44-4.9v44.6zM186 325.4c2.2 4.4 4.7 8.9 7.3 13.1 9.1 14.2 17.2 24.9 19.9 28.4q2.1-.5 4.2-.9 2.1-.3 4.3-.6 2.1-.3 4.2-.5 2.2-.2 4.3-.3v-44.7c-15.2.3-30 2.2-44.2 5.5zm-38.2 13.4q.5.6 1 1.1.6.5 1.1 1l1 1q.5.6 1.1 1.1c13.9 13.4 36.7 28.1 41.7 31.3 4.1-2.3 8.5-4.2 13.3-5.7-3.7-4.8-10.9-14.5-18.7-26.9-3.1-4.8-5.9-9.9-8.3-14.7-11.2 3-22 7-32.2 11.8zm32.6 45.5q3.4-3.5 7.7-6.5c-7.9-5.1-27.5-18.1-40.3-30.5l-1.4-1.4-1.4-1.4-1.4-1.4q-.7-.7-1.4-1.5c-7.5 4-14.6 8.4-21.3 13.3 17.8 13 37.9 23.1 59.5 29.4zm66.2 7.4q5.9-.4 11.9-1.1 5.9-.8 11.8-1.9 5.9-1.1 11.7-2.5c-11.1-9.8-28.7-15.7-47.4-15.7-18.8 0-36.4 5.9-47.5 15.7q5.9 1.4 11.7 2.5 5.9 1.1 11.9 1.9 5.9.7 11.9 1.1 6 .4 12 .4t12-.4zm101.7-36.8c-7.4-5.4-15.3-10.2-23.6-14.4q-.8.9-1.6 1.7-.8.9-1.7 1.7-.8.9-1.6 1.7l-1.7 1.7c-12 11.5-29.9 23.7-38.6 29.4q5.2 3.4 9.3 7.6c21.6-6.3 41.7-16.4 59.5-29.4z"/></g><g id="Layer"><path id="Layer" fill-rule="evenodd" class="s0" d="M12.1 461.7q.4 7.4 5.7 10.3 2.8 1.5 6.2 1.5 6.5 0 11-5.4 4.6-5.4 6.5-21.8-3 4.7-7.5 6.6-4.4 2-9.5 2-10.3 0-16.3-6.5-6.1-6.4-6.1-16.5 0-9.8 6-17.2 5.9-7.3 17.5-7.3 15.7 0 21.6 14 3.3 7.8 3.3 19.4 0 13.1-3.9 23.3Q40 481 24.4 481q-10.5 0-16-5.5Q3 470 3 461.7h9.1zm23.4-18.2q4.4-3.6 4.4-12.3 0-7.9-4-11.8-3.9-3.9-10.1-3.9-6.6 0-10.4 4.5-3.9 4.4-3.9 11.8 0 6.9 3.4 11.1 3.4 4.1 10.8 4.1 5.4 0 9.8-3.5zm67.7-24.6q4.8 8.8 4.8 24.2 0 14.6-4.4 24.2Q97.3 481 83 481q-12.8 0-19.1-11.2-5.3-9.4-5.3-25.1 0-12.2 3.2-21 5.9-16.2 21.3-16.2 13.9 0 20.1 11.4zm-9.1 47.7q4.2-6.2 4.2-23.1 0-12.2-3-20.1-3-7.9-11.7-7.9-7.9 0-11.6 7.5-3.7 7.5-3.7 22 0 11 2.4 17.6 3.6 10.2 12.3 10.2 7 0 11.1-6.2zm66-47.7q4.8 8.8 4.8 24.2 0 14.6-4.4 24.2Q154.2 481 140 481q-12.9 0-19.2-11.2-5.3-9.4-5.3-25.1 0-12.2 3.2-21 5.9-16.2 21.3-16.2 13.9 0 20.1 11.4zm-9.1 47.7q4.2-6.2 4.2-23.1 0-12.2-3-20.1-3-7.9-11.7-7.9-7.9 0-11.6 7.5-3.7 7.5-3.7 22 0 11 2.4 17.6 3.6 10.2 12.3 10.2 7 0 11.1-6.2zm28-38.3v-6.9q9.8-.9 13.6-3.1 3.9-2.3 5.8-10.5h7.1V479h-9.6v-50.7H179zm58.5-2.1h10.4v10.9h-10.4zm0 41.9h10.4V479h-10.4zm24.1-5.2q3.3-6.8 13-12.4l9.6-5.6q6.4-3.7 9-6.4 4.1-4.1 4.1-9.5 0-6.3-3.7-9.9-3.8-3.7-10-3.7-9.3 0-12.8 7-1.9 3.8-2.1 10.4h-9.2q.2-9.3 3.5-15.2 5.8-10.4 20.6-10.4 12.3 0 18 6.6 5.7 6.7 5.7 14.8 0 8.6-6.1 14.7-3.5 3.6-12.5 8.6l-6.9 3.8q-4.9 2.7-7.7 5.2-5 4.3-6.3 9.6h39.1v8.5h-49.1q.5-9.2 3.8-16.1zm97.7-44q4.8 8.8 4.8 24.2 0 14.6-4.4 24.2-6.3 13.6-20.6 13.6-12.9 0-19.2-11.2-5.2-9.3-5.2-25 0-12.2 3.1-21 5.9-16.3 21.4-16.3 13.9 0 20.1 11.5zm-9.1 47.7q4.2-6.2 4.2-23.1 0-12.2-3-20.1-3-7.9-11.7-7.9-8 0-11.6 7.5-3.7 7.5-3.7 22 0 11 2.3 17.6 3.6 10.1 12.4 10.1 7 0 11.1-6.1zm28-38.3v-6.9q9.8-.9 13.6-3.1 3.8-2.3 5.7-10.6h7.1V479H395v-50.7h-16.8zm59.8 32.5q.9 7.7 7.1 10.6 3.2 1.5 7.4 1.5 8 0 11.9-5.1 3.8-5.1 3.8-11.3 0-7.5-4.6-11.6-4.5-4.1-10.9-4.1-4.7 0-8 1.8t-5.7 5l-7.8-.4 5.5-38.6h37.1v8.7h-30.4l-3 19.9q2.5-1.9 4.7-2.8 4-1.7 9.3-1.7 9.8 0 16.6 6.4 6.9 6.3 6.9 16.1 0 10.1-6.3 17.8-6.2 7.8-20 7.8-8.7 0-15.5-4.9-6.7-4.9-7.5-15.1h9.4z"/></g></svg>