<?xml version="1.0" standalone="no"?>
<!DOCTYPE svg PUBLIC "-//W3C//DTD SVG 20010904//EN"
 "http://www.w3.org/TR/2001/REC-SVG-20010904/DTD/svg10.dtd">
<svg version="1.0" xmlns="http://www.w3.org/2000/svg"
 width="1000.000000pt" height="1000.000000pt" viewBox="0 0 1000.000000 1000.000000"
 preserveAspectRatio="xMidYMid meet">
<metadata>
Created by potrace 1.14, written by Peter Selinger 2001-2017
</metadata>
<g transform="translate(0.000000,1000.000000) scale(0.100000,-0.100000)"
fill="#000000" stroke="none">
<path d="M7825 8822 c-3 -4 -18 -7 -33 -7 -59 -3 -151 -17 -235 -37 -49 -11
-94 -21 -100 -22 -7 -2 -19 -5 -27 -8 -8 -3 -55 -20 -105 -38 -49 -18 -109
-43 -132 -57 -24 -13 -43 -20 -43 -16 0 4 -4 4 -8 -2 -9 -12 -61 -44 -84 -52
-10 -3 -18 -9 -18 -14 0 -5 -7 -9 -15 -9 -8 0 -15 -4 -15 -8 0 -4 -13 -15 -28
-24 -32 -19 -96 -73 -162 -138 -191 -188 -337 -459 -420 -785 -21 -83 -24 -98
-37 -174 -4 -25 -8 -48 -8 -51 -1 -3 -5 -36 -9 -75 -5 -38 -10 -79 -12 -90
-20 -111 -19 -524 2 -639 5 -30 11 -62 19 -119 2 -15 7 -31 9 -36 3 -5 8 -26
12 -47 3 -22 17 -73 31 -114 14 -41 26 -79 28 -85 6 -25 22 -64 71 -170 20
-44 38 -83 38 -86 2 -12 142 -242 157 -258 9 -10 24 -32 33 -49 9 -18 20 -32
24 -32 4 0 16 -15 27 -32 10 -18 24 -38 30 -44 6 -6 31 -36 55 -65 25 -30 307
-317 627 -639 320 -322 593 -596 605 -610 89 -99 138 -159 174 -213 88 -132
161 -298 195 -447 16 -67 18 -79 24 -129 3 -25 9 -75 14 -110 4 -35 7 -143 6
-240 -3 -232 -28 -338 -96 -416 -55 -62 -116 -85 -238 -91 -92 -4 -167 16
-218 56 -37 29 -104 120 -97 131 3 5 1 9 -3 9 -7 0 -29 58 -37 101 -2 8 -6 30
-10 49 -6 32 -17 141 -17 165 0 6 0 24 0 40 1 17 1 38 1 48 0 9 0 23 0 30 1 6
0 42 -2 80 -2 37 0 67 4 67 4 0 4 10 -1 21 -4 12 -4 41 -1 65 4 24 4 44 1 44
-3 0 -6 43 -6 95 0 52 3 95 7 95 4 0 4 10 -1 21 -4 12 -4 41 -1 65 4 24 4 44
1 44 -3 0 -6 43 -6 95 0 52 2 95 5 95 3 0 4 18 2 40 -2 22 -8 37 -13 34 -5 -3
-9 -2 -9 3 0 4 -11 8 -25 8 -14 0 -25 -3 -25 -7 0 -3 -12 -3 -27 1 -16 4 -42
5 -58 1 -17 -4 -39 -5 -50 -3 -11 2 -54 3 -95 3 -99 -1 -90 -1 -132 2 -21 2
-38 1 -38 -2 0 -3 -17 -4 -37 -2 -81 7 -119 7 -140 0 -12 -4 -25 -3 -28 1 -3
5 -20 6 -37 2 -18 -4 -46 -6 -63 -4 -72 8 -91 8 -112 1 -12 -4 -25 -3 -28 1
-3 5 -20 6 -38 2 -18 -5 -41 -6 -52 -4 -11 2 -24 4 -30 4 -5 0 -28 0 -50 0
-22 -1 -53 0 -70 2 -16 1 -40 -1 -52 -5 -12 -4 -25 -3 -28 1 -3 5 -20 6 -38 2
-18 -5 -41 -6 -52 -4 -11 3 -33 4 -50 3 -44 -3 -49 -3 -60 0 -5 1 -19 2 -30 1
-20 -1 -20 -8 -19 -443 1 -244 3 -443 3 -443 1 0 4 -52 6 -115 5 -110 12 -215
15 -215 1 0 3 -16 5 -35 6 -71 31 -230 50 -318 3 -12 7 -32 10 -45 31 -142
101 -338 168 -466 65 -125 67 -128 82 -141 8 -7 15 -17 15 -22 0 -26 163 -203
263 -285 155 -129 487 -269 727 -307 19 -3 47 -8 63 -11 15 -3 39 -7 55 -10
86 -15 197 -20 452 -20 262 0 355 4 435 21 17 3 39 7 50 9 169 24 417 122 569
224 70 48 174 135 207 176 10 11 31 35 48 54 17 19 48 60 69 90 20 31 39 58
42 61 17 17 108 196 143 281 47 114 104 296 123 392 2 10 5 26 8 35 3 9 7 34
11 56 3 21 7 41 9 45 2 3 7 29 10 56 3 28 8 61 10 75 7 37 17 108 24 165 8 67
8 868 0 925 -11 79 -19 124 -25 155 -3 17 -7 39 -9 50 -14 94 -125 427 -160
480 -7 11 -13 23 -13 28 -1 15 -75 155 -117 220 -24 37 -44 72 -44 76 0 5 -4
11 -8 13 -4 2 -29 32 -55 68 -25 36 -59 79 -74 96 -15 17 -44 50 -63 74 -96
118 -349 375 -686 697 -87 83 -226 216 -309 295 -275 262 -419 413 -484 503
-142 200 -205 405 -178 580 28 182 147 277 347 278 86 0 159 -26 213 -76 26
-23 47 -48 47 -55 0 -7 5 -12 10 -12 6 0 10 -8 10 -18 0 -10 4 -22 9 -27 16
-17 22 -91 26 -369 4 -172 9 -272 16 -276 5 -4 351 -6 767 -6 l757 1 -2 110
c-2 177 -8 305 -13 305 -3 0 -5 17 -6 38 -1 40 -14 164 -20 197 -3 11 -7 36
-10 55 -2 19 -7 46 -10 60 -2 14 -7 39 -10 55 -3 17 -10 48 -16 70 -5 22 -12
49 -14 60 -8 53 -57 208 -94 300 -58 146 -163 336 -212 385 -8 8 -19 22 -24
32 -21 38 -186 198 -203 198 -6 0 -11 4 -11 9 0 5 -24 24 -52 42 -29 18 -55
36 -58 40 -7 10 -252 128 -275 134 -11 2 -52 15 -91 29 -39 13 -84 27 -100 29
-16 3 -36 8 -44 11 -8 3 -30 8 -47 11 -49 8 -95 16 -123 21 -31 5 -79 12 -145
20 -72 8 -552 13 -560 6z"/>
<path d="M45 8760 c-11 -4 -26 -5 -33 -2 -9 3 -11 -5 -8 -29 3 -19 8 -65 11
-104 3 -38 7 -81 10 -95 7 -41 17 -142 19 -187 0 -24 3 -43 6 -43 3 0 5 -17 6
-38 1 -33 4 -68 19 -207 3 -22 7 -62 10 -90 3 -27 8 -66 10 -85 2 -19 7 -66
10 -105 4 -38 9 -83 11 -100 3 -16 7 -48 9 -70 3 -22 7 -62 10 -90 3 -27 8
-75 11 -105 3 -30 7 -68 9 -85 2 -16 6 -64 10 -105 3 -41 8 -86 10 -99 2 -14
7 -54 11 -90 3 -36 8 -82 10 -101 8 -60 12 -103 18 -165 3 -33 8 -78 10 -100
3 -22 8 -67 11 -100 4 -33 8 -71 9 -85 2 -14 7 -56 10 -95 4 -38 10 -86 12
-105 6 -43 12 -105 20 -185 3 -33 7 -73 10 -90 2 -16 6 -59 9 -95 6 -69 13
-125 15 -125 1 0 3 -18 14 -145 3 -30 5 -55 6 -55 1 0 3 -20 5 -44 2 -25 6
-67 10 -95 8 -67 14 -121 19 -176 3 -25 8 -70 11 -100 4 -30 8 -68 10 -85 14
-151 17 -183 21 -205 2 -14 6 -54 9 -90 6 -60 12 -105 15 -105 0 0 3 -29 6
-65 6 -81 13 -145 18 -190 5 -35 11 -99 21 -195 4 -51 10 -102 21 -190 4 -27
8 -63 9 -80 9 -99 16 -174 20 -200 2 -16 6 -57 10 -90 3 -33 8 -80 11 -105 3
-25 7 -61 9 -80 2 -19 6 -60 10 -90 4 -30 8 -74 9 -97 0 -24 3 -43 6 -43 3 0
6 -21 6 -48 1 -26 5 -67 8 -92 6 -48 11 -97 21 -195 3 -33 8 -71 11 -85 2 -14
6 -59 9 -100 3 -41 8 -86 10 -100 6 -43 17 -133 20 -170 4 -57 16 -173 21
-200 2 -14 7 -54 9 -90 3 -36 7 -78 9 -95 3 -16 7 -57 10 -90 4 -33 8 -76 11
-95 2 -19 6 -57 9 -85 3 -27 8 -75 12 -105 3 -30 8 -73 10 -95 5 -54 12 -121
19 -175 3 -25 8 -70 11 -100 8 -92 9 -99 18 -107 12 -12 1836 -11 1837 2 3 41
7 80 14 145 4 41 9 86 10 100 14 146 17 178 20 200 2 14 7 59 11 100 3 41 8
89 9 105 2 17 6 57 9 90 3 33 8 80 11 105 2 25 7 74 10 110 3 36 8 81 10 100
5 43 12 113 20 200 3 36 8 81 10 100 3 19 7 62 10 95 3 33 8 83 11 110 9 96
12 121 18 200 4 44 9 90 11 103 2 13 6 53 10 90 3 37 8 87 11 111 3 25 7 68 9
95 2 28 7 74 10 101 3 28 8 77 10 110 3 33 7 76 10 95 8 74 16 157 20 210 2
30 5 55 6 55 1 0 2 9 13 125 4 41 9 91 12 111 2 20 6 68 9 105 2 38 5 69 6 69
1 0 4 27 13 125 4 41 9 89 11 105 6 43 17 187 17 209 -1 10 1 16 4 13 8 -8 13
-46 28 -212 2 -22 7 -60 10 -85 3 -25 8 -76 11 -113 3 -37 7 -82 10 -100 5
-40 16 -139 20 -192 2 -22 6 -58 9 -80 7 -52 16 -146 21 -215 3 -30 7 -75 10
-100 3 -25 7 -64 10 -87 3 -23 8 -66 10 -95 3 -29 7 -71 10 -93 2 -22 7 -67
10 -101 4 -33 8 -78 11 -100 2 -21 6 -59 8 -84 2 -25 7 -67 11 -95 3 -27 8
-72 10 -100 4 -50 10 -106 22 -200 3 -27 7 -72 9 -100 1 -27 3 -50 4 -50 1 0
3 -11 4 -25 13 -134 18 -179 21 -205 3 -16 7 -59 11 -95 6 -76 10 -113 28
-275 3 -27 8 -77 12 -110 3 -33 7 -73 8 -90 3 -27 13 -116 22 -200 1 -16 5
-57 9 -90 3 -33 7 -73 9 -90 2 -16 6 -61 10 -100 4 -38 9 -81 12 -95 l5 -26
901 1 c893 0 901 0 904 20 2 11 6 47 9 80 6 63 12 112 20 180 6 47 14 120 20
190 3 28 7 66 10 85 3 19 7 58 10 85 3 28 8 73 11 100 3 28 7 66 9 85 1 19 6
60 9 90 11 96 16 144 21 196 2 28 6 67 9 85 3 19 8 54 11 79 2 25 7 72 11 105
3 33 8 76 10 95 3 37 10 94 20 175 3 28 7 68 9 90 2 22 7 67 11 100 4 33 8 71
9 85 10 98 17 159 20 180 2 14 7 57 10 95 4 39 8 84 10 100 2 17 6 53 9 80 3
28 8 70 11 95 3 25 7 68 10 95 2 28 5 50 5 50 1 0 3 16 5 36 5 59 15 152 20
179 2 14 7 57 10 95 3 39 8 81 10 95 2 14 7 52 10 85 6 65 14 130 21 185 3 19
7 62 10 95 3 33 7 76 9 95 2 19 7 60 10 90 3 30 7 73 10 95 3 22 7 63 10 90 3
28 7 70 11 95 3 25 7 65 10 90 2 25 6 63 9 85 7 57 13 111 20 180 3 33 8 71
10 85 3 23 14 128 20 195 4 41 14 131 21 186 6 50 11 96 19 179 3 30 8 75 11
100 3 25 7 61 9 80 7 70 16 156 20 185 3 17 7 56 10 89 2 32 7 75 10 95 2 20
7 56 10 81 2 25 7 65 9 90 3 25 8 70 11 100 3 30 8 71 10 90 3 19 8 62 11 95
3 33 7 74 9 90 2 17 6 55 9 85 3 30 8 75 11 100 4 25 7 71 8 102 1 32 5 58 9
58 4 0 7 10 7 23 -1 24 6 105 15 177 4 25 8 65 11 90 2 25 6 61 9 80 3 19 8
64 11 100 3 36 7 75 9 87 3 11 7 58 11 103 4 45 8 91 10 102 2 11 7 47 11 81
12 123 15 152 19 177 3 30 16 142 20 188 3 32 2 33 -33 32 -21 -1 -46 1 -57 3
-11 2 -34 1 -52 -4 -18 -4 -35 -3 -38 2 -3 4 -16 5 -28 1 -23 -8 -96 -6 -105
3 -3 2 -11 0 -19 -6 -9 -8 -13 -8 -13 -1 0 7 -10 8 -29 2 -15 -4 -34 -4 -41 0
-7 5 -23 5 -34 1 -23 -8 -95 -5 -104 4 -3 2 -11 0 -19 -6 -9 -8 -13 -8 -13 -1
0 7 -10 8 -29 2 -15 -4 -34 -4 -41 0 -7 5 -23 5 -34 1 -23 -8 -95 -5 -104 4
-3 2 -11 0 -19 -6 -9 -8 -13 -8 -13 -1 0 7 -10 8 -29 2 -15 -4 -34 -4 -41 0
-7 5 -23 5 -34 1 -23 -8 -95 -5 -104 4 -3 2 -11 0 -19 -6 -9 -8 -13 -8 -13 -1
0 7 -10 8 -29 2 -15 -4 -34 -4 -41 0 -7 5 -23 5 -34 1 -23 -8 -95 -5 -104 4
-3 2 -11 0 -19 -6 -9 -8 -13 -8 -13 -1 0 7 -10 8 -29 2 -15 -4 -34 -4 -42 0
-7 5 -17 6 -23 3 -5 -3 -26 -5 -48 -5 -21 1 -38 -1 -39 -6 -12 -108 -20 -193
-34 -382 -2 -25 -6 -72 -9 -105 -4 -33 -8 -89 -11 -125 -2 -36 -6 -87 -9 -115
-3 -27 -8 -81 -11 -120 -3 -38 -8 -95 -11 -125 -3 -30 -7 -80 -9 -110 -2 -30
-6 -77 -9 -105 -3 -27 -8 -84 -11 -125 -4 -41 -8 -97 -11 -125 -2 -27 -6 -79
-9 -115 -7 -93 -13 -169 -19 -231 -3 -30 -8 -88 -11 -129 -3 -41 -8 -86 -10
-100 -2 -14 -6 -68 -10 -120 -3 -52 -8 -108 -10 -125 -3 -16 -7 -68 -11 -115
-7 -114 -17 -226 -30 -370 -3 -30 -7 -75 -9 -100 -6 -87 -16 -206 -20 -250 -3
-25 -7 -72 -10 -105 -12 -149 -15 -183 -19 -230 -3 -27 -7 -84 -11 -125 -3
-41 -8 -97 -10 -125 -6 -55 -12 -132 -20 -240 -3 -38 -8 -88 -10 -110 -8 -78
-18 -211 -19 -252 -1 -24 -3 -43 -6 -43 -3 0 -5 -17 -6 -38 -1 -38 -16 -240
-23 -314 -2 -16 -17 -7 -17 10 -1 40 -17 245 -29 377 -3 33 -8 89 -10 125 -3
36 -7 83 -10 105 -2 22 -7 76 -11 120 -3 44 -8 100 -10 125 -7 76 -13 152 -18
215 -2 33 -7 90 -11 127 -4 37 -8 88 -10 115 -2 26 -6 82 -10 123 -4 41 -9 98
-10 125 -6 77 -14 175 -20 230 -3 28 -8 79 -10 115 -2 36 -6 88 -9 115 -3 28
-8 86 -12 130 -3 44 -7 94 -9 110 -2 17 -6 66 -9 110 -4 44 -8 98 -11 120 -2
22 -7 76 -10 120 -3 44 -7 100 -10 125 -12 122 -16 160 -20 225 -3 39 -7 95
-10 125 -3 30 -7 87 -10 125 -3 39 -7 86 -10 105 -2 19 -6 76 -10 125 -3 50
-8 103 -10 118 -2 15 -6 67 -9 115 -4 48 -8 103 -11 122 -2 19 -6 69 -10 110
-3 41 -8 100 -11 130 -3 30 -7 80 -9 110 -5 70 -14 171 -20 235 -3 28 -8 86
-11 130 -3 44 -7 94 -9 110 -2 17 -3 36 -4 43 -1 8 -16 13 -43 12 -24 0 -51 0
-60 0 -10 0 -47 1 -83 1 -36 0 -72 0 -80 0 -8 0 -44 0 -80 0 -36 0 -72 0 -80
0 -8 0 -44 0 -80 0 -36 0 -72 0 -80 0 -8 0 -44 0 -80 0 -36 0 -72 0 -80 0 -8
0 -44 0 -80 0 -36 0 -72 0 -80 0 -8 0 -44 0 -80 0 -70 0 -88 -1 -107 -2 -7 0
-39 0 -70 1 -31 1 -61 -1 -67 -4 -5 -4 -12 -2 -16 3 -3 6 -16 7 -28 3 -28 -9
-89 -9 -104 1 -19 12 -30 -21 -37 -113 -3 -47 -8 -107 -11 -135 -5 -52 -13
-137 -19 -215 -7 -90 -17 -206 -21 -245 -3 -22 -7 -67 -10 -100 -3 -33 -7 -80
-10 -105 -2 -25 -6 -76 -9 -115 -11 -132 -17 -200 -22 -245 -3 -25 -7 -70 -9
-100 -4 -57 -9 -113 -20 -235 -4 -38 -8 -90 -10 -115 -2 -25 -6 -71 -9 -102
-3 -32 -8 -82 -11 -110 -2 -29 -6 -78 -9 -108 -3 -30 -8 -86 -11 -125 -3 -38
-8 -90 -10 -115 -2 -25 -7 -74 -10 -110 -11 -127 -15 -166 -21 -225 -3 -33 -7
-80 -9 -105 -3 -50 -13 -171 -20 -240 -9 -84 -14 -145 -20 -220 -3 -41 -8 -91
-10 -110 -3 -19 -7 -71 -10 -115 -3 -44 -8 -96 -10 -115 -2 -19 -7 -66 -10
-105 -5 -69 -7 -86 -20 -235 -8 -81 -11 -120 -20 -220 -5 -70 -12 -139 -20
-223 -3 -28 -8 -79 -10 -112 -2 -33 -7 -85 -10 -115 -3 -30 -7 -84 -10 -119
-6 -69 -14 -93 -16 -45 -1 16 -2 40 -4 54 -1 14 -6 68 -9 120 -4 52 -9 106
-11 120 -4 24 -11 102 -20 225 -3 33 -7 76 -9 95 -2 19 -7 71 -10 115 -4 44
-9 98 -12 120 -2 22 -7 72 -9 110 -3 39 -7 86 -10 105 -2 19 -6 71 -9 115 -3
44 -8 96 -10 115 -3 19 -8 71 -11 115 -4 44 -9 98 -11 120 -2 22 -6 72 -9 110
-3 39 -7 86 -9 105 -2 19 -7 70 -10 113 -4 42 -9 96 -11 120 -2 23 -6 71 -9
107 -13 145 -17 187 -21 235 -9 102 -15 171 -20 215 -2 25 -7 81 -10 125 -3
44 -8 96 -10 115 -3 19 -7 64 -10 100 -3 36 -7 88 -10 115 -3 28 -7 82 -10
120 -3 39 -8 95 -11 125 -3 30 -7 73 -9 95 -5 66 -16 197 -21 240 -3 22 -7 69
-10 105 -2 36 -6 85 -9 110 -2 25 -7 77 -10 115 -3 39 -7 88 -10 110 -8 76
-16 165 -29 325 -3 30 -8 89 -11 130 -9 94 -15 167 -17 202 -2 24 -5 26 -47
27 -25 0 -55 2 -66 4 -11 2 -34 1 -52 -4 -18 -4 -35 -3 -38 2 -3 4 -16 5 -28
1 -23 -8 -96 -6 -105 3 -3 2 -11 0 -19 -6 -9 -8 -13 -8 -13 -1 0 7 -10 8 -29
2 -15 -4 -34 -4 -41 0 -7 5 -23 5 -34 1 -23 -8 -95 -5 -104 4 -3 2 -11 0 -19
-6 -9 -8 -13 -8 -13 -1 0 7 -10 8 -29 2 -15 -4 -34 -4 -41 0 -7 5 -23 5 -34 1
-23 -8 -95 -5 -104 4 -3 2 -11 0 -19 -6 -9 -8 -13 -8 -13 -1 0 7 -10 8 -29 2
-15 -4 -34 -4 -41 0 -7 5 -23 5 -34 1 -23 -8 -95 -5 -104 4 -3 2 -11 0 -19 -6
-9 -8 -13 -8 -13 -1 0 7 -10 8 -29 2 -15 -4 -34 -4 -41 0 -7 5 -23 5 -34 1
-23 -8 -95 -5 -104 4 -3 2 -11 0 -19 -6 -9 -8 -13 -8 -13 -1 0 7 -10 8 -28 2
-16 -4 -35 -4 -43 0 -8 4 -23 4 -34 0z"/>
</g>
</svg>
