<?xml version="1.0" standalone="no"?>
<!DOCTYPE svg PUBLIC "-//W3C//DTD SVG 20010904//EN"
 "http://www.w3.org/TR/2001/REC-SVG-20010904/DTD/svg10.dtd">
<svg version="1.0" xmlns="http://www.w3.org/2000/svg"
 width="553.000000pt" height="553.000000pt" viewBox="0 0 553.000000 553.000000"
 preserveAspectRatio="xMidYMid meet">
<metadata>
Created by potrace 1.14, written by Peter Selinger 2001-2017
</metadata>
<g transform="translate(0.000000,553.000000) scale(0.100000,-0.100000)"
fill="#000000" stroke="none">
<path d="M2617 5524 c-1 -1 -38 -5 -83 -8 -44 -4 -91 -8 -103 -11 -13 -2 -42
-7 -65 -9 -22 -3 -52 -8 -66 -11 -14 -3 -60 -12 -103 -20 -44 -8 -82 -17 -86
-19 -4 -3 -18 -7 -32 -10 -13 -3 -35 -7 -48 -10 -46 -10 -275 -88 -326 -111
-27 -12 -71 -32 -96 -43 l-46 -19 0 -552 c1 -303 4 -551 8 -551 4 0 41 7 81
15 60 13 214 39 348 60 41 6 132 17 175 21 22 2 67 6 100 9 72 7 211 15 315
17 41 1 77 5 80 9 4 6 5 1218 1 1240 -1 4 -49 8 -54 3z"/>
<path d="M2856 4906 c1 -336 2 -616 3 -622 0 -6 26 -10 59 -11 61 0 258 -11
332 -19 25 -2 74 -6 109 -9 35 -3 76 -7 90 -10 14 -3 50 -7 79 -11 29 -3 63
-7 75 -10 11 -2 39 -6 62 -9 22 -3 47 -8 55 -10 8 -2 31 -7 50 -10 19 -3 67
-12 107 -20 40 -8 76 -15 80 -15 5 0 9 246 8 547 l0 547 -40 17 c-146 64 -191
82 -310 120 -85 28 -186 56 -230 65 -11 2 -42 8 -70 14 -76 16 -84 17 -165 29
-108 15 -173 22 -238 25 l-57 3 1 -611z"/>
<path d="M1350 5132 c-8 -3 -19 -9 -25 -14 -5 -4 -48 -33 -95 -65 -198 -131
-371 -281 -542 -470 -38 -42 -171 -212 -198 -253 -8 -12 -27 -40 -42 -61 -16
-21 -28 -41 -28 -44 0 -2 -16 -29 -35 -59 -71 -111 -183 -352 -235 -506 -28
-82 -79 -260 -74 -260 2 0 34 30 71 66 38 37 104 95 148 129 88 69 249 175
265 175 5 0 10 5 10 11 0 5 4 8 9 4 5 -3 12 -1 16 5 9 15 243 126 380 180 66
26 181 67 255 90 74 23 137 44 139 47 7 5 7 1024 1 1028 -3 1 -12 0 -20 -3z"/>
<path d="M4148 5128 c-3 -10 -2 -948 1 -1009 1 -11 21 -22 64 -34 77 -21 345
-116 409 -145 26 -11 49 -20 50 -19 6 3 303 -152 319 -166 8 -8 19 -15 23 -15
28 0 276 -189 369 -282 31 -32 57 -52 57 -45 -1 40 -72 263 -127 397 -40 98
-136 292 -164 331 -10 15 -19 30 -19 33 0 12 -137 211 -201 291 -143 181 -319
354 -499 491 -75 57 -263 184 -273 184 -3 0 -7 -6 -9 -12z"/>
<path d="M2556 4093 c-1 -1 -55 -5 -121 -8 -66 -3 -136 -7 -155 -10 -19 -2
-66 -7 -105 -10 -38 -4 -77 -8 -85 -10 -8 -3 -40 -7 -70 -10 -30 -3 -93 -13
-140 -21 -47 -9 -98 -18 -115 -20 -16 -3 -69 -14 -116 -25 l-86 -20 0 -549 c0
-303 3 -551 6 -551 14 -3 1077 -5 1086 -2 7 2 10 215 10 620 l0 617 -53 1
c-30 0 -55 -1 -56 -2z"/>
<path d="M2857 4085 c-3 -9 -1 -1213 2 -1225 0 -3 247 -5 549 -5 l547 0 1 551
1 551 -46 11 c-25 6 -59 14 -76 18 -61 15 -47 12 -200 37 -82 14 -138 23 -205
32 -81 12 -209 23 -345 30 -191 11 -224 11 -228 0z"/>
<path d="M1200 3853 c-69 -23 -134 -47 -145 -52 -11 -5 -51 -21 -90 -36 -76
-30 -340 -162 -359 -179 -6 -6 -23 -17 -36 -25 -74 -41 -196 -138 -284 -226
-114 -113 -163 -178 -211 -280 -34 -72 -68 -185 -59 -195 3 -2 309 -5 680 -5
l674 0 1 25 c0 14 2 249 2 522 l2 498 -25 -2 c-14 -1 -81 -22 -150 -45z"/>
<path d="M4145 3380 c0 -286 2 -521 5 -521 27 -7 1357 -3 1361 4 4 5 -2 37
-12 70 -51 169 -155 313 -354 491 -22 20 -43 36 -47 36 -4 0 -13 6 -20 13 -52
51 -415 256 -499 282 -13 4 -42 16 -64 26 -35 15 -202 76 -230 83 -5 2 -17 5
-25 8 -55 19 -88 28 -101 28 -12 0 -14 -76 -14 -520z"/>
<path d="M3930 2670 c-4 -3 -10 -23 -13 -45 -3 -22 -9 -58 -12 -80 -9 -51 -64
-226 -77 -242 -6 -7 -8 -13 -5 -13 10 0 -92 -171 -136 -230 -53 -70 -181 -196
-238 -235 -24 -17 -46 -32 -49 -35 -11 -11 -69 -43 -145 -80 -100 -49 -239
-90 -350 -105 -41 -5 -243 -5 -280 0 -70 9 -103 16 -155 31 -30 8 -68 19 -85
23 -127 34 -325 160 -448 284 -81 81 -208 251 -199 265 2 2 0 8 -5 11 -12 8
-60 118 -82 188 -24 75 -38 136 -47 198 -3 28 -8 52 -9 55 -2 3 -360 5 -797 5
l-793 0 -1 -138 c0 -108 4 -147 16 -176 15 -32 49 -59 85 -66 11 -3 134 -38
210 -60 28 -9 59 -17 70 -20 11 -2 61 -16 110 -30 50 -15 108 -31 130 -36 91
-23 100 -32 149 -152 26 -62 53 -125 61 -140 22 -42 19 -70 -15 -127 -17 -28
-30 -52 -30 -54 0 -2 -29 -54 -65 -116 -36 -62 -65 -114 -65 -116 0 -1 -30
-54 -66 -116 -74 -127 -84 -170 -54 -227 10 -20 135 -151 277 -292 313 -311
310 -310 445 -233 76 44 146 83 173 98 11 6 28 17 38 25 9 8 17 10 17 5 0 -5
4 -4 8 2 4 6 38 27 75 48 37 20 84 46 105 58 74 42 84 46 120 41 20 -3 70 -21
110 -39 40 -19 76 -34 78 -34 3 0 29 -11 58 -25 56 -26 67 -43 87 -122 6 -21
14 -53 20 -70 5 -18 13 -48 18 -65 66 -243 116 -407 132 -429 39 -56 42 -56
465 -55 l390 1 31 25 c27 22 36 35 48 75 6 17 72 254 115 410 46 164 66 215
85 215 7 0 18 7 25 15 7 9 15 14 17 11 5 -4 37 8 128 48 128 57 126 57 226 0
35 -20 89 -50 119 -67 30 -17 72 -41 92 -54 21 -13 42 -23 48 -23 5 0 10 -4
10 -10 0 -5 6 -10 13 -10 6 0 48 -21 92 -48 96 -56 124 -69 150 -67 11 1 33 2
49 3 23 2 78 51 295 270 147 147 274 278 282 292 28 46 24 94 -14 162 -66 121
-197 353 -207 368 -6 8 -13 22 -17 30 -4 8 -20 37 -36 65 -46 78 -44 94 26
246 14 30 28 66 31 81 3 14 17 40 31 56 22 27 35 33 95 47 8 2 71 20 140 40
69 20 132 38 141 40 9 2 34 8 55 15 68 20 149 42 161 44 7 1 16 5 19 9 4 4 15
7 25 7 18 0 78 62 81 83 0 7 2 74 3 150 2 120 1 137 -14 138 -56 4 -1564 3
-1571 -1z"/>
</g>
</svg>
