<svg version="1.2" xmlns="http://www.w3.org/2000/svg" viewBox="0 0 70 28" width="70" height="28">
	<title>delGroup_logo-svg</title>
	<style>
		.s0 { fill: #2b2b2b } 
		.s1 { fill: #fdce00 } 
		.s2 { fill: #b2b2b3 } 
		.s3 { fill: #3f53a1 } 
		.s4 { fill: #95b51f } 
	</style>
	<path id="Layer" fill-rule="evenodd" class="s0" d="m0 17.6v-13.3h4.7q7.1 0 7.1 6.5 0 3.1-1.9 4.9-2 1.9-5.2 1.9zm3-10.9v8.4h1.5q2 0 3.1-1.1 1.1-1.2 1.1-3.2 0-1.9-1.1-3-1.1-1.1-3.1-1.1z"/>
	<path id="Layer" fill-rule="evenodd" class="s0" d="m15.7 13.7q0.1 2 2.6 2 1.6 0 2.8-0.7v2.1q-1.4 0.7-3.5 0.7-2.3 0-3.6-1.3-1.2-1.2-1.2-3.5 0-2.4 1.3-3.7 1.4-1.4 3.4-1.4 2.1 0 3.2 1.2 1.2 1.2 1.2 3.4v1.2zm3.5-1.8q0-2.1-1.7-2.1-0.7 0-1.2 0.6-0.5 0.6-0.6 1.5z"/>
	<path id="Layer" class="s0" d="m26.2 17.6h-2.9v-14.1h2.9z"/>
	<path id="Layer" class="s0" d="m31.2 17.6h-2.9v-9.5h2.9zm-1.4-11q-0.8 0-1.2-0.5-0.5-0.4-0.5-1 0-0.7 0.5-1.1 0.4-0.4 1.2-0.4 0.7 0 1.2 0.4 0.5 0.4 0.5 1.1 0 0.6-0.5 1.1-0.5 0.4-1.2 0.4z"/>
	<path id="Layer" class="s0" d="m42.4 8.1l-3.6 9.5h-3.3l-3.4-9.5h3.2l1.6 5.8q0.3 1 0.3 1.7h0.1q0.1-0.6 0.3-1.6l1.7-5.9h3.1z"/>
	<path id="Layer" fill-rule="evenodd" class="s0" d="m45.4 13.7q0.2 2 2.6 2 1.6 0 2.8-0.7v2.1q-1.3 0.7-3.5 0.7-2.3 0-3.5-1.3-1.3-1.2-1.3-3.5 0-2.4 1.4-3.7 1.3-1.4 3.3-1.4 2.1 0 3.3 1.2 1.1 1.2 1.1 3.4v1.2zm3.5-1.8q0-2.1-1.7-2.1-0.7 0-1.2 0.6-0.5 0.6-0.6 1.5z"/>
	<path id="Layer" class="s0" d="m59.2 10.7q-0.5-0.3-1.2-0.3-1 0-1.5 0.7-0.6 0.7-0.6 1.9v4.6h-2.9v-9.5h2.9v1.8h0.1q0.7-2 2.5-2 0.4 0 0.7 0.1z"/>
	<path id="Layer" class="s0" d="m70 8.1l-3.9 10.2q-1.4 3.7-4.2 3.7-1 0-1.7-0.2v-2.3q0.6 0.3 1.2 0.3 1.2 0 1.6-1.1l0.5-1.1-3.8-9.5h3.2l1.8 5.8q0.2 0.5 0.2 1.2h0.1q0.1-0.5 0.3-1.2l1.8-5.8z"/>
	<path id="Layer" class="s0" d="m13.6 26.7q-1.2 0.6-2.4 0.6-1.5 0-2.4-1-0.9-1-0.9-2.6 0-1.7 1-2.8 1-1.1 2.7-1.1 0.9 0 1.8 0.4v0.5q-1-0.4-1.9-0.4-1.4 0-2.2 0.9-0.9 0.9-0.9 2.4 0 1.5 0.8 2.4 0.8 0.9 2.1 0.9 1 0 1.8-0.5v-2.4h-1.8v-0.4h2.3v3.1z"/>
	<path id="Layer" fill-rule="evenodd" class="s0" d="m18.8 27.2l-1-2.1q-0.3-0.7-0.6-0.9-0.3-0.2-0.8-0.2h-0.9v3.2h-0.5v-7.3h2q1 0 1.6 0.5 0.5 0.6 0.5 1.4 0 0.8-0.4 1.3-0.5 0.5-1.3 0.7 0.4 0.2 0.8 1.1l1.1 2.3h-0.5zm-3.3-6.8v3.1h1.3q0.8 0 1.3-0.5 0.5-0.4 0.5-1.1 0-0.7-0.4-1.1-0.5-0.4-1.3-0.4z"/>
	<path id="Layer" fill-rule="evenodd" class="s0" d="m23.6 27.3q-1.5 0-2.5-1-0.9-1-0.9-2.7 0-1.7 1-2.8 0.9-1 2.5-1 1.5 0 2.4 1 0.9 1 0.9 2.6 0 1.8-0.9 2.9-0.9 1-2.5 1zm0.1-7q-1.3 0-2.1 0.9-0.9 0.9-0.9 2.4 0 1.5 0.8 2.4 0.8 0.9 2.1 0.9 1.3 0 2.1-0.9 0.8-0.9 0.8-2.5 0-1.5-0.8-2.4-0.7-0.8-2-0.8z"/>
	<path id="Layer" class="s0" d="m33.3 24.3q0 3-2.6 3-2.5 0-2.5-2.9v-4.5h0.5v4.4q0 2.6 2.1 2.6 2 0 2-2.5v-4.5h0.5v4.4z"/>
	<path id="Layer" fill-rule="evenodd" class="s0" d="m35.3 27.2h-0.4v-7.3h1.7q1.1 0 1.7 0.5 0.6 0.6 0.6 1.6 0 1-0.6 1.6-0.7 0.7-1.9 0.7h-1.1zm0-3.4h1.1q1 0 1.5-0.5 0.5-0.4 0.5-1.3 0-1.6-1.9-1.6h-1.2z"/>
	<path id="Layer" class="s1" d="m44.3 6.3h-5l2.7-3.1-2.7-3.2h5l2.7 3.2z"/>
	<path id="Layer" class="s2" d="m52 6.3h-5l2.7-3.1-2.7-3.2h5l2.6 3.2z"/>
	<path id="Layer" class="s3" d="m59.6 6.3h-5l2.7-3.1-2.7-3.2h5l2.7 3.2z"/>
	<path id="Layer" class="s4" d="m67.3 6.3h-5l2.7-3.1-2.7-3.2h5l2.7 3.2z"/>
</svg>